<?xml version="1.0" encoding="UTF-8" standalone="no"?>
<svg
   xmlns:dc="http://purl.org/dc/elements/1.1/"
   xmlns:cc="http://creativecommons.org/ns#"
   xmlns:rdf="http://www.w3.org/1999/02/22-rdf-syntax-ns#"
   xmlns:svg="http://www.w3.org/2000/svg"
   xmlns="http://www.w3.org/2000/svg"
   xmlns:sodipodi="http://sodipodi.sourceforge.net/DTD/sodipodi-0.dtd"
   xmlns:inkscape="http://www.inkscape.org/namespaces/inkscape"
   inkscape:version="1.0 (4035a4fb49, 2020-05-01)"
   sodipodi:docname="Hydro Vacuum logo.svg"
   viewBox="0 0 305.8588 305.8588"
   height="305.8588"
   width="305.8588"
   xml:space="preserve"
   id="svg2"
   version="1.1"><metadata
     id="metadata8"><rdf:RDF><cc:Work
         rdf:about=""><dc:format>image/svg+xml</dc:format><dc:type
           rdf:resource="http://purl.org/dc/dcmitype/StillImage" /><dc:title></dc:title></cc:Work></rdf:RDF></metadata><defs
     id="defs6" /><sodipodi:namedview
     inkscape:current-layer="g10"
     inkscape:window-maximized="0"
     inkscape:window-y="0"
     inkscape:window-x="0"
     inkscape:cy="152.9294"
     inkscape:cx="152.9294"
     inkscape:zoom="0.95138096"
     showgrid="false"
     id="namedview4"
     inkscape:window-height="480"
     inkscape:window-width="872"
     inkscape:pageshadow="2"
     inkscape:pageopacity="0"
     guidetolerance="10"
     gridtolerance="10"
     objecttolerance="10"
     borderopacity="1"
     bordercolor="#666666"
     pagecolor="#ffffff" /><g
     transform="matrix(1.3333333,0,0,-1.3333333,1.3333333,304.52547)"
     inkscape:label="Hydro Vacuum logo"
     inkscape:groupmode="layer"
     id="g10"><path
       id="path12"
       style="fill:#003773;fill-opacity:1;fill-rule:evenodd;stroke:none"
       d="m 113.6971,227.3941 c 31.3959,0 59.8203,-12.7267 80.3953,-33.3017 20.575,-20.575 33.3017,-48.9994 33.3017,-80.3953 0,-31.3954 -12.7267,-59.8201 -33.3017,-80.3954 C 173.5174,12.7267 145.093,0 113.6971,0 82.3017,0 53.877,12.7267 33.3017,33.3017 12.7267,53.877 0,82.3017 0,113.6971 c 0,31.3954 12.7264,59.8201 33.3017,80.3953 20.5753,20.575 49,33.3017 80.3954,33.3017 z m -81.7189,-83.503 c -0.9201,1.5211 -4.3211,7.0416 -0.0621,6.6252 l 26.1757,0.125 1.3646,-3.6876 -1.4887,-3.2499 c -0.2903,-0.6336 -0.3096,-1.2419 0.062,-1.8125 L 68.737,126.2832 c 0.0936,10.0737 -1.6038,21.1972 -5.5913,33.4686 -2.0047,6.1702 -6.3445,11.6589 -11.8315,17.5173 6.1911,7.056 13.8089,12.5274 23,16.2499 3.4404,-3.4095 6.8434,-8.3092 8.9779,-14.1659 3.2153,-8.8222 4.4257,-18.1267 4.9496,-28.4607 h 51.0647 c 0.5119,10.5035 1.7116,19.9415 4.9705,28.8839 2.1345,5.8567 5.5375,10.7564 8.9779,14.1659 9.1911,-3.7225 16.8089,-9.1939 23.0001,-16.2499 -5.4871,-5.8583 -9.8269,-11.3471 -11.8316,-17.5172 -3.8911,-11.975 -5.6018,-22.8572 -5.5956,-32.7374 l 9.8717,14.3901 c 0.3716,0.5706 0.3523,1.1789 0.0621,1.8125 l -1.4888,3.2499 1.3646,3.6876 26.1757,-0.125 c 4.2591,0.4164 0.8581,-5.1041 -0.0621,-6.6251 L 164.0305,99.472 c 4.797,-12.0966 12.5203,-22.0394 21.5073,-30.1445 3.3165,-2.9914 7.416,-4.4753 11.6453,-6.4001 9.0164,14.7955 14.2112,32.1758 14.2112,50.7697 0,26.979 -10.9355,51.404 -28.6144,69.0828 -17.6791,17.6792 -42.1038,28.6144 -69.0828,28.6144 -26.9788,0 -51.4035,-10.9352 -69.0829,-28.6144 -17.6791,-17.6791 -28.6143,-42.1038 -28.6143,-69.0828 0,-18.7589 5.2883,-36.2821 14.453,-51.1623 4.2055,1.91 8.2794,3.394 11.5784,6.3695 8.8724,8.0019 16.5158,17.7931 21.3247,29.6818 z m 53.4852,-41.9907 27.8329,-40.5723 0.0884,-0.1397 0.0482,0.0762 28.5687,41.6452 c -1.4585,8.3098 -2.3596,16.8455 -2.7635,25.2326 H 88.3505 c -0.4025,-8.7205 -1.3422,-17.6082 -2.8871,-26.242 z M 148.7146,77.358 113.3708,26.3271 113.3518,26.3999 78.679,76.4623 C 73.0908,61.5107 66.8052,53.5346 58.8832,39.4135 c -1.0289,-1.8343 -1.178,-3.8458 -1.0907,-5.847 15.8394,-11.0708 35.113,-17.5666 55.9046,-17.5666 20.8615,0 40.1947,6.5398 56.0639,17.6785 0.1159,2.1033 0.007,4.2287 -1.0752,6.1583 -7.9835,14.2305 -14.3048,22.2194 -19.9256,37.3966 z" /></g></svg>
