<?xml version="1.0" encoding="UTF-8" standalone="no"?>
<!-- Created with Inkscape (http://www.inkscape.org/) -->

<svg
   xmlns:dc="http://purl.org/dc/elements/1.1/"
   xmlns:cc="http://creativecommons.org/ns#"
   xmlns:rdf="http://www.w3.org/1999/02/22-rdf-syntax-ns#"
   xmlns:svg="http://www.w3.org/2000/svg"
   xmlns="http://www.w3.org/2000/svg"
   version="1.1"
   width="1024"
   height="358"
   id="svg4218">
  <defs
     id="defs4220">
    <clipPath
       id="clipPath3406">
      <path
         d="m 0,0 538.583,0 0,779.528 L 0,779.528 0,0 z"
         id="path3408" />
    </clipPath>
  </defs>
  <metadata
     id="metadata4223">
    <rdf:RDF>
      <cc:Work
         rdf:about="">
        <dc:format>image/svg+xml</dc:format>
        <dc:type
           rdf:resource="http://purl.org/dc/dcmitype/StillImage" />
        <dc:title></dc:title>
      </cc:Work>
    </rdf:RDF>
  </metadata>
  <g
     transform="translate(0,-410)"
     id="layer1">
    <g
       transform="matrix(12.551269,0,0,-12.551269,-2767.0153,7599.0301)"
       id="g3402"
       style="fill:#0051ba;fill-opacity:1">
      <g
         clip-path="url(#clipPath3406)"
         id="g3404"
         style="fill:#0051ba;fill-opacity:1">
        <g
           transform="translate(301.5467,560.871)"
           id="g3410"
           style="fill:#0051ba;fill-opacity:1">
          <path
             d="m 0,0 c 0,0.507 -2.729,1.169 -4.794,1.169 -3.859,0 -6.626,-2.299 -6.626,-5.534 0,-1.754 0.623,-2.651 3.001,-4.483 2.144,-1.598 2.533,-2.066 2.533,-2.884 0,-0.897 -0.779,-1.52 -1.91,-1.52 -1.52,0 -2.455,0.389 -4.248,1.871 l -1.247,-0.429 0,-3.235 c 0,-0.234 0,-0.234 0.272,-0.312 1.638,-0.513 3.313,-0.747 4.873,-0.747 4.17,0 6.938,2.228 6.938,5.619 0,1.715 -0.78,2.768 -3.703,4.95 -1.715,1.287 -1.988,1.637 -1.988,2.339 0,0.857 0.702,1.403 1.871,1.403 1.091,0 1.988,-0.351 3.196,-1.208 l 0.858,0 0.935,2.845 C 0,-0.117 0,-0.078 0,0 m -38.098,-0.662 0,0.506 c 0,0.78 -0.896,1.325 -2.182,1.325 -2.417,0 -4.249,-1.948 -7.055,-7.405 l 1.832,6.977 -4.639,0 -3.547,-16.41 4.639,0 0.935,4.716 c 2.261,4.288 5.106,7.718 6.509,7.718 0.468,0 0.819,-0.234 1.287,-0.897 l 0.857,0 1.169,2.612 c 0.156,0.351 0.195,0.585 0.195,0.858 m -20.903,-0.273 c 0,-2.846 -0.896,-5.925 -2.377,-8.147 -1.676,-2.533 -4.171,-3.897 -7.133,-3.897 -4.171,0 -6.509,2.767 -6.509,7.717 0,3.469 1.169,6.899 3.04,8.887 1.598,1.715 3.937,2.729 6.314,2.729 4.21,0 6.665,-2.69 6.665,-7.289 m 5.574,0.117 c 0,6.197 -4.482,10.29 -11.264,10.29 -4.366,0 -7.991,-1.287 -10.953,-3.82 -3.04,-2.651 -4.95,-7.016 -4.95,-11.498 0,-6.393 4.17,-10.258 11.147,-10.258 4.054,0 7.562,1.176 10.407,3.436 3.508,2.846 5.613,7.289 5.613,11.85 m 26.221,-3.275 c 0,-1.753 -0.663,-4.014 -1.676,-5.807 -1.248,-2.183 -2.768,-3.352 -4.327,-3.352 -0.818,0 -1.364,0.584 -1.364,1.442 0,0.351 0.078,1.091 0.156,1.442 l 0.429,1.91 c 2.026,3.04 4.794,5.613 5.963,5.613 0.507,0 0.819,-0.468 0.819,-1.248 m 4.95,1.092 c 0,2.572 -1.364,4.17 -3.547,4.17 -2.378,0 -5.028,-1.676 -7.484,-4.755 l 3.703,14.812 -4.872,0 -4.21,-19.216 c -0.429,-1.91 -0.584,-3.197 -0.584,-4.171 0,-2.456 1.949,-3.943 5.106,-3.943 3.001,0 5.768,1.215 7.912,3.475 2.339,2.456 3.976,6.393 3.976,9.628 m 8.931,3.742 -4.95,0 -3.547,-16.41 4.911,0 3.586,16.41 z m 1.676,7.405 c 0,1.521 -1.286,2.807 -2.767,2.807 -1.598,0 -2.885,-1.247 -2.885,-2.807 0,-1.559 1.248,-2.845 2.846,-2.845 1.52,0 2.806,1.286 2.806,2.845"
             id="path3412"
             style="fill:#0051ba;fill-opacity:1;fill-rule:nonzero;stroke:none" />
        </g>
      </g>
    </g>
  </g>
</svg>
