<?xml version="1.0" encoding="UTF-8" standalone="no"?>
<!-- Created with Inkscape (http://www.inkscape.org/) -->

<svg
   xmlns:dc="http://purl.org/dc/elements/1.1/"
   xmlns:cc="http://creativecommons.org/ns#"
   xmlns:rdf="http://www.w3.org/1999/02/22-rdf-syntax-ns#"
   xmlns:svg="http://www.w3.org/2000/svg"
   xmlns="http://www.w3.org/2000/svg"
   xmlns:sodipodi="http://sodipodi.sourceforge.net/DTD/sodipodi-0.dtd"
   xmlns:inkscape="http://www.inkscape.org/namespaces/inkscape"
   id="svg2"
   version="1.1"
   inkscape:version="0.91 r13725"
   width="918.68329"
   height="385.94284"
   viewBox="0 0 918.68329 385.94284"
   sodipodi:docname="Logopge.svg">
  <metadata
     id="metadata8">
    <rdf:RDF>
      <cc:Work
         rdf:about="">
        <dc:format>image/svg+xml</dc:format>
        <dc:type
           rdf:resource="http://purl.org/dc/dcmitype/StillImage" />
        <dc:title></dc:title>
      </cc:Work>
    </rdf:RDF>
  </metadata>
  <defs
     id="defs6" />
  <sodipodi:namedview
     pagecolor="#ffffff"
     bordercolor="#666666"
     borderopacity="1"
     objecttolerance="10"
     gridtolerance="10"
     guidetolerance="10"
     inkscape:pageopacity="0"
     inkscape:pageshadow="2"
     inkscape:window-width="1366"
     inkscape:window-height="705"
     id="namedview4"
     showgrid="false"
     fit-margin-top="0"
     fit-margin-left="0"
     fit-margin-right="0"
     fit-margin-bottom="0"
     inkscape:zoom="0.55342903"
     inkscape:cx="403.17354"
     inkscape:cy="110.86518"
     inkscape:window-x="-8"
     inkscape:window-y="-8"
     inkscape:window-maximized="1"
     inkscape:current-layer="svg2" />
  <path
     inkscape:connector-curvature="0"
     id="path3344"
     d="M 889.61433,232.51611 C 839.56883,184.40346 771.81581,143.54641 696.24285,115.90747 642.66791,96.313771 575.65162,81.743341 519.33953,77.445811 c -9.27899,-0.70813 -14.72664,-1.39629 -15.25772,-1.92737 -0.28695,-0.28694 10.86438,-32.8721 14.42435,-42.14925 0.64259,-1.67455 2.97927,-1.65258 19.83337,0.1865 122.11298,13.32465 249.75586,74.969879 341.3345,164.847769 14.0399,13.77922 38.0353,39.96408 38.9678,42.52357 0.033,0.0911 0.1289,0.53927 -0.1656,0.62328 -1.1803,0.33668 -5.0196,0.23698 -9.3344,0.26093 l -9.8023,0.0544 -9.7252,-9.34955 z"
     style="fill:#ec7800"
     sodipodi:nodetypes="csscssscssccc" />
  <path
     inkscape:connector-curvature="0"
     id="path3342"
     d="m 0.00620315,240.01203 c 0.64406,-1.79848 18.76491985,-24.69733 28.93879985,-36.5692 5.65602,-6.6 18.18362,-19.87604 27.83911,-29.50231 26.32781,-26.24816 49.009327,-44.91977 80.055417,-65.90229 86.13199,-58.212339 186.98309,-92.789349 305,-104.5698791 27.50439,-2.74550996 76.02134,-4.51772 75.98387,-2.77551996 -0.009,0.41249996 -6.23136,17.40000006 -13.82774,37.75000006 l -13.81161,37 -7.79625,0.2943 c -7.15261,0.27 -7.73865,0.14616 -7.09862,-1.5 0.3837,-0.98687 2.45356,-6.87512 4.5997,-13.08501 3.29151,-9.52405 3.66462,-11.38182 2.38457,-11.87302 -1.48653,-0.57044 -57.51193,1.29629 -62.43392,2.08025 -1.375,0.21901 -6.55,0.69619 -11.5,1.0604 -14.48064,1.06545 -44.61218,5.18597 -63,8.6153 -101.97412,19.0182 -194.14964,61.147249 -266.469157,121.790379 -14.69473,12.32219 -36.63888,33.6249 -48.79365,47.3674 l -9.508,10.75 -10.44793,0 c -6.0195399,0 -10.30663985,-0.39452 -10.11458985,-0.9308 z"
     style="fill:#e40003" />
  <path
     inkscape:connector-curvature="0"
     id="path3340"
     d="m 164.83953,385.07306 c 0,-3.03938 14.6569,-49.67761 17.16837,-54.62971 6.63162,-13.07621 15.25772,-21.72225 27.39218,-27.4555 11.92419,-5.63391 16.08343,-6.20576 50.93945,-7.00352 28.99527,-0.66362 32.54354,-0.93089 37.78868,-2.84639 10.51613,-3.84045 18.5413,-10.7639 22.82916,-19.69511 4.82436,-10.04871 3.26411,-18.23263 -4.44959,-23.33924 l -4.01917,-2.66076 -49.57454,-0.5 c -27.266,-0.275 -49.52927,-0.85734 -49.47395,-1.2941 0.0553,-0.43675 2.29429,-8.22648 4.97546,-17.3105 l 4.87487,-16.5164 47.52454,0.35855 c 45.1715,0.3408 47.91195,0.46649 55.34906,2.53865 9.73117,2.71133 16.2706,6.22052 22.22628,11.92707 12.97134,12.42872 15.147,34.2849 5.47757,55.02629 -8.0398,17.24574 -23.53964,32.56288 -41.18809,40.70259 -13.7747,6.35309 -16.39161,6.74519 -49.84028,7.46784 -32.79974,0.70863 -34.14366,0.92126 -41.55545,6.5745 -4.32181,3.29641 -5.79827,6.79707 -12.41367,29.43265 l -5.72614,19.59286 -19.15237,0.27159 c -11.08261,0.15716 -19.15237,-0.11308 -19.15237,-0.64136 z m 250.13494,-0.9515 c -28.25214,-5.70988 -48.473,-24.21201 -53.74712,-49.17873 -4.85359,-22.97599 3.72509,-54.65822 21.03518,-77.68572 12.12162,-16.12532 30.92319,-28.92102 53.13927,-36.16473 22.69692,-7.4005 37.40745,-8.94294 86.61658,-9.08198 l 38.67885,-0.10929 -1.93043,6.77086 c -7.15727,25.10375 -7.7025,26.667 -9.54531,27.36796 -1.03508,0.39372 -18.75696,0.76848 -39.38196,0.8328 -32.33092,0.10082 -38.74058,0.37292 -46.5,1.97397 -31.79351,6.56014 -52.28004,23.80778 -60.52645,50.95731 -5.24017,17.2521 0.71882,35.63892 14.65848,45.22966 8.9054,6.12707 12.92595,6.83267 39.68168,6.96399 l 24.18629,0.11872 1.79973,-5.83678 c 7.74247,-25.10986 10.12189,-31.57775 13.21989,-35.93515 4.03404,-5.67396 9.93801,-9.85444 16.89674,-11.96424 5.64689,-1.71206 22.58364,-3.1768 22.58364,-1.9531 0,1.49214 -25.2295,87.01992 -25.86272,87.67437 -0.3505,0.36226 -20.38356,0.81528 -44.51791,1.0067 -33.76837,0.26783 -45.40248,0.0405 -50.48443,-0.98662 z m 123.21699,-0.42873 50.07834,-171.75 137.56973,0.89466 c 0,0.88028 -0.75127,3.4536 -6.96549,23.85894 l -3.12262,10.2536 -97.9767,-0.5072 -1.93173,6.5 c -5.14746,17.32041 -6.65403,23.00113 -6.1034,23.01374 0.32997,0.008 19.1624,0.12005 41.84985,0.25 26.70213,0.15294 41.23869,0.58893 41.21809,1.23626 -0.0175,0.55 -2.18175,8.2 -4.80945,17 l -4.77764,16 -42.37038,0.5 -42.37039,0.5 -5.79333,20 c -3.18633,11 -5.80537,20.1125 -5.82007,20.25 -0.0147,0.1375 22.02326,0.25 48.97326,0.25 36.41598,0 49,0.29696 49,1.15631 0,0.90299 -4.88314,18.52732 -8.61507,31.09369 l -138.60175,1.75 z"
     style="fill:#042c74"
     sodipodi:nodetypes="ssssssscscscsssssssscssssssscssssssscssssssscccsccscssscccscssccc" />
</svg>
