<?xml version="1.0" encoding="utf-8"?>
<!-- Generator: Adobe Illustrator 19.0.0, SVG Export Plug-In . SVG Version: 6.00 Build 0)  -->
<svg version="1.1" xmlns="http://www.w3.org/2000/svg" xmlns:xlink="http://www.w3.org/1999/xlink" x="0px" y="0px"
	 viewBox="0 0 409 68.5" enable-background="new 0 0 409 68.5" xml:space="preserve">
<g id="Layer_1">
	<rect id="XMLID_40_" x="130.5" y="-398" fill="none" width="356" height="72.5"/>
	<text id="XMLID_41_" transform="matrix(1 0 0 1 130.5 -359.7594)"><tspan x="0" y="0" fill="#18113c" font-family="'Jost-Bold'" font-size="49px">Wykładowca</tspan><tspan x="292.6" y="0" fill="#199DD9" font-family="'Jost-Bold'" font-size="49px">.pl</tspan></text>
	<g id="XMLID_16_">
		<path id="XMLID_17_" fill="#18113c" d="M-88.9-249.1c0.9,1.5,2.2,2.7,3.7,3.5c1.6,0.8,3.3,1.2,5.1,1.2c1.6,0,3.1-0.2,4.3-0.6
			c1.2-0.4,2.4-1,3.3-1.7c0.1-0.1,0.3-0.2,0.4-0.3c0.9-0.7,2.2,0,2.2,1.1v5.1c0,0.4-0.2,0.9-0.6,1.1c-1.2,0.9-2.5,1.6-3.9,2.1
			c-1.6,0.6-3.7,0.9-6.2,0.9c-2.7,0-5.3-0.4-7.6-1.3c-2.3-0.8-4.3-2.1-6-3.7s-3-3.5-3.9-5.7c-0.9-2.2-1.4-4.6-1.4-7.3
			c0-2.7,0.5-5.1,1.4-7.3c0.9-2.2,2.2-4.1,3.9-5.7s3.7-2.8,6-3.7c2.3-0.8,4.9-1.3,7.6-1.3c2.5,0,4.6,0.3,6.2,0.9
			c1.4,0.5,2.7,1.2,3.9,2.1c0.4,0.3,0.6,0.7,0.6,1.1v5.1c0,1.2-1.3,1.8-2.2,1.1c-0.1-0.1-0.2-0.2-0.4-0.3c-1-0.7-2.1-1.3-3.3-1.7
			c-1.2-0.4-2.7-0.6-4.3-0.6c-1.9,0-3.6,0.4-5.1,1.2c-1.6,0.8-2.8,1.9-3.7,3.4c-0.9,1.5-1.4,3.3-1.4,5.4
			C-90.3-252.4-89.9-250.6-88.9-249.1z"/>
		<path id="XMLID_19_" fill="#18113c" d="M-54.8-269.3v29.6c0,1.3-1.1,2.4-2.4,2.4h-3.6c-1.3,0-2.4-1.1-2.4-2.4v-29.6
			c0-1.3,1.1-2.4,2.4-2.4h3.6C-55.8-271.7-54.8-270.6-54.8-269.3z M-57.9-269.3c0-1.3,1.1-2.4,2.4-2.4h4.9c2.9,0,5.4,0.5,7.4,1.4
			s3.4,2.3,4.5,3.9c1,1.7,1.5,3.6,1.5,5.9c0,2.2-0.5,4.1-1.5,5.8c-1,1.7-2.5,3-4.5,3.9s-4.4,1.4-7.4,1.4h-4.9
			c-1.3,0-2.4-1.1-2.4-2.4v-1.7c0-1.3,1.1-2.4,2.4-2.4h4.4c1.1,0,2.1-0.2,2.9-0.5c0.8-0.3,1.4-0.8,1.8-1.5c0.4-0.7,0.6-1.5,0.6-2.4
			c0-0.9-0.2-1.8-0.6-2.4c-0.4-0.7-1-1.2-1.8-1.5c-0.8-0.4-1.8-0.5-2.9-0.5h-4.4c-1.3,0-2.4-1.1-2.4-2.4V-269.3z M-45.2-251.9
			l7.5,10.8c1.1,1.6,0,3.7-1.9,3.7h-3.9c-0.8,0-1.6-0.4-2-1.1l-6.7-10.8c-1-1.6,0.2-3.6,2-3.6h3.2
			C-46.4-252.9-45.6-252.5-45.2-251.9z"/>
		<path id="XMLID_23_" fill="#18113c" d="M-26-237.4h-5.4c-1,0-1.8-0.9-1.6-1.9l4.6-30.1c0.2-1.5,2.1-1.9,3-0.7l10.9,15.7
			c0.6,0.9,2,0.9,2.7,0l11-15.7c0.8-1.2,2.7-0.8,2.9,0.7l4.6,30.1c0.2,1-0.6,1.9-1.6,1.9h-5.4c-0.8,0-1.5-0.6-1.6-1.4l-1.4-11.6
			c-0.2-1.5-2.1-2-3-0.7l-5.6,8.5c-0.6,1-2.1,1-2.7,0l-5.5-8.5c-0.8-1.3-2.8-0.8-3,0.7l-1.4,11.6C-24.5-238-25.2-237.4-26-237.4z"/>
	</g>
</g>
<g id="Layer_2">
	<g id="XMLID_43_">
		<path id="XMLID_78_" fill="#18113c" d="M893.7-171.4h5.5c1.4,0,2.4,1.4,1.8,2.7L888.9-139c-0.6,1.5-2.8,1.7-3.6,0.2l-7.4-13.7
			c-0.7-1.4-2.7-1.4-3.5,0l-7.3,13.7c-0.8,1.5-2.9,1.4-3.6-0.2l-12.1-29.7c-0.5-1.3,0.4-2.7,1.8-2.7h5.5c0.8,0,1.6,0.5,1.9,1.3
			l4.7,13.5c0.6,1.7,2.9,1.8,3.7,0.1l5.5-12.5c0.7-1.6,2.9-1.6,3.6,0l5.6,12.6c0.7,1.6,3.1,1.5,3.7-0.2l4.6-13.4
			C892.1-170.9,892.9-171.4,893.7-171.4z"/>
		<path id="XMLID_76_" fill="#18113c" d="M909.9-127.2h-4.3c-0.9,0-1.4-0.9-1.1-1.7l4.1-9.5c0.1-0.3,0.1-0.7,0-1l-8-17
			c-0.4-0.8,0.2-1.7,1.1-1.7h4.9c0.5,0,0.9,0.3,1.1,0.8l5.8,14.4c0.3,0.8-0.3,1.7-1.1,1.6l0,0c-0.8,0-1.4-0.9-1.1-1.6l5.7-14.4
			c0.2-0.5,0.6-0.8,1.1-0.8h4.4c0.9,0,1.4,0.9,1.1,1.7L911-127.9C910.8-127.5,910.4-127.2,909.9-127.2z"/>
		<path id="XMLID_73_" fill="#18113c" d="M934.5-174.2v36.1c0,0.6-0.5,1.1-1.1,1.1h-5c-0.6,0-1.1-0.5-1.1-1.1v-36.1
			c0-0.6,0.5-1.1,1.1-1.1h5C934-175.2,934.5-174.8,934.5-174.2z M949.6-157.7l-7,6.8c-0.4,0.4-0.4,1-0.1,1.4l8.6,10.8
			c0.6,0.7,0.1,1.7-0.8,1.7h-6c-0.3,0-0.6-0.1-0.8-0.4l-9.8-12.1c-0.3-0.4-0.3-1,0.1-1.4l8.6-8.3c0.2-0.2,0.5-0.3,0.7-0.3h5.8
			C949.9-159.6,950.3-158.4,949.6-157.7z"/>
		<path id="XMLID_70_" fill="#18113c" d="M951.9-156.7l13.2-8.7c0.9-0.6,2.1-0.3,2.6,0.7l0.2,0.4c0.4,0.8,0.2,1.8-0.6,2.3l-13.2,8.7
			c-0.9,0.6-2.1,0.3-2.6-0.7l-0.2-0.4C950.9-155.1,951.2-156.2,951.9-156.7z M963.2-173.4v34.6c0,1-0.8,1.8-1.8,1.8h-3.8
			c-1,0-1.8-0.8-1.8-1.8v-34.6c0-1,0.8-1.8,1.8-1.8h3.8C962.4-175.2,963.2-174.4,963.2-173.4z"/>
		<path id="XMLID_67_" fill="#18113c" d="M975.1-142.6c0.3,0.4,0.7,0.7,1.2,0.9c0.5,0.2,1,0.3,1.6,0.3c0.8,0,1.6-0.2,2.4-0.5
			c0.7-0.4,1.3-0.9,1.8-1.6c0.5-0.7,0.7-1.6,0.7-2.6l0.7,2.7c0,0.2,0.1,0.3,0.1,0.5c0,1.3-0.4,2.5-1.2,3.4c-0.8,1-1.8,1.7-3,2.3
			c-1.2,0.5-2.6,0.8-4,0.8c-1.4,0-2.8-0.3-4-0.8c-1.2-0.5-2.2-1.3-2.9-2.4c-0.7-1.1-1.1-2.4-1.1-3.9c0-2.2,0.8-3.9,2.3-5.1
			c1.5-1.3,3.7-1.9,6.5-1.9c1.4,0,2.6,0.1,3.7,0.4c1.1,0.3,2,0.6,2.8,1c0.5,0.2,0.8,0.5,1.2,0.7c0.4,0.3,0.6,0.7,0.6,1.2v0
			c0,1.1-1.1,1.8-2.1,1.5c-0.2-0.1-0.4-0.2-0.7-0.2c-1-0.3-2.1-0.5-3.3-0.5c-0.9,0-1.6,0.1-2.1,0.3c-0.5,0.2-0.9,0.5-1.2,0.9
			c-0.3,0.4-0.4,0.8-0.4,1.4C974.7-143.5,974.8-143,975.1-142.6z M969.6-156.1c-0.4-0.8-0.1-1.8,0.8-2.1c0.9-0.4,2-0.7,3.1-1.1
			c1.8-0.6,3.8-0.8,5.9-0.8c2,0,3.8,0.3,5.3,0.9c1.6,0.6,2.8,1.4,3.7,2.5c0.9,1.1,1.4,2.4,1.4,4v14.3c0,0.9-0.7,1.5-1.5,1.5h-4
			c-0.9,0-1.5-0.7-1.5-1.5v-12.7c0-0.6-0.1-1-0.3-1.4c-0.2-0.4-0.4-0.8-0.8-1.1c-0.4-0.3-0.8-0.5-1.3-0.6c-0.5-0.1-1.2-0.2-1.8-0.2
			c-1,0-2,0.1-3,0.3c-1,0.2-1.8,0.5-2.5,0.8c-0.1,0-0.2,0.1-0.3,0.1c-0.8,0.3-1.6,0-2-0.7L969.6-156.1z"/>
		<path id="XMLID_63_" fill="#18113c" d="M995.6-154.7c1-1.7,2.4-3.1,4-4c1.6-0.9,3.4-1.4,5.2-1.4c1.9,0,3.6,0.5,5,1.4
			c1.5,0.9,2.6,2.3,3.5,4c0.8,1.7,1.3,3.8,1.3,6.3c0,2.4-0.4,4.5-1.3,6.3c-0.8,1.8-2,3.1-3.5,4.1c-1.5,0.9-3.1,1.4-5,1.4
			c-1.8,0-3.6-0.5-5.2-1.4c-1.6-0.9-3-2.2-4-4c-1-1.7-1.5-3.9-1.5-6.4C994-150.8,994.6-153,995.6-154.7z M1002.6-145.2
			c0.5,0.9,1.1,1.5,2,2c0.8,0.5,1.7,0.7,2.7,0.7c0.8,0,1.7-0.2,2.5-0.7c0.8-0.5,1.5-1.1,2-2c0.5-0.9,0.8-1.9,0.8-3.1
			c0-1.2-0.3-2.2-0.8-3.1c-0.5-0.9-1.2-1.5-2-2c-0.8-0.5-1.6-0.7-2.5-0.7c-1,0-1.9,0.2-2.7,0.7c-0.8,0.5-1.5,1.1-2,2
			c-0.5,0.9-0.7,1.9-0.7,3.1S1002.1-146.1,1002.6-145.2z M1019.9-173.1v33.9c0,1.2-1,2.2-2.2,2.2h-3.1c-1.2,0-2.2-1-2.2-2.2v-33.9
			c0-1.2,1-2.2,2.2-2.2h3.1C1018.9-175.2,1019.9-174.3,1019.9-173.1z"/>
		<path id="XMLID_60_" fill="#18113c" d="M1025.9-154.5c1.1-1.8,2.6-3.1,4.6-4.1s4.2-1.5,6.6-1.5c2.4,0,4.6,0.5,6.6,1.5
			c1.9,1,3.5,2.4,4.6,4.1c1.1,1.8,1.7,3.8,1.7,6.2c0,2.4-0.6,4.4-1.7,6.2c-1.1,1.8-2.7,3.1-4.6,4.1c-1.9,1-4.1,1.5-6.6,1.5
			c-2.5,0-4.7-0.5-6.6-1.5c-2-1-3.5-2.4-4.6-4.1c-1.1-1.8-1.7-3.8-1.7-6.2C1024.3-150.7,1024.8-152.7,1025.9-154.5z M1032.6-145.3
			c0.5,0.8,1.1,1.5,1.9,1.9c0.8,0.5,1.7,0.7,2.6,0.7c0.9,0,1.8-0.2,2.6-0.7c0.8-0.5,1.4-1.1,1.9-1.9s0.7-1.8,0.7-3s-0.2-2.2-0.7-3
			c-0.5-0.8-1.1-1.5-1.9-2c-0.8-0.5-1.7-0.7-2.6-0.7c-1,0-1.9,0.2-2.6,0.7c-0.8,0.5-1.4,1.1-1.9,2c-0.5,0.9-0.7,1.9-0.7,3
			S1032.1-146.1,1032.6-145.3z"/>
		<path id="XMLID_58_" fill="#18113c" d="M1058.6-158.7l3.2,8c0.4,1.1,1.9,1.1,2.4,0.1l4-8.2c0.5-1,1.9-1,2.4,0l4.1,8.3
			c0.5,1,2,1,2.4-0.1l3.3-8c0.2-0.5,0.7-0.8,1.2-0.8h4.7c1,0,1.6,1,1.2,1.9l-9.6,19.8c-0.5,1-1.8,1-2.3,0.1l-5-9.1
			c-0.5-0.9-1.8-0.9-2.3,0l-4.9,9c-0.5,0.9-1.9,0.9-2.4-0.1l-9.6-19.7c-0.4-0.9,0.2-1.9,1.2-1.9h4.7
			C1057.9-159.6,1058.4-159.2,1058.6-158.7z"/>
		<path id="XMLID_56_" fill="#18113c" d="M1097.3-145.2c0.5,0.9,1.2,1.5,2.2,2c0.9,0.5,1.9,0.7,3,0.7c0.9,0,1.8-0.1,2.6-0.4
			c0.8-0.3,1.6-0.7,2.3-1.2c0.7-0.5,1.3-1.1,1.7-1.8v6.6c0,0.4-0.2,0.7-0.5,0.9c-0.7,0.5-1.5,0.9-2.5,1.2c-1.2,0.4-2.6,0.6-4.3,0.6
			c-2.5,0-4.7-0.5-6.7-1.5c-2-1-3.5-2.4-4.7-4.1c-1.1-1.8-1.7-3.8-1.7-6.2c0-2.4,0.6-4.5,1.7-6.2s2.7-3.1,4.7-4.1s4.2-1.5,6.7-1.5
			c1.7,0,3.1,0.2,4.3,0.6c0.9,0.3,1.7,0.6,2.4,1c0.4,0.2,0.6,0.6,0.6,1v3.9c0,0.9-1,1.5-1.8,1l0,0c-0.7-0.5-1.5-0.9-2.4-1.1
			c-0.8-0.3-1.7-0.4-2.5-0.4c-1.1,0-2.1,0.3-3,0.8c-0.9,0.5-1.7,1.2-2.2,2.1c-0.5,0.9-0.8,1.9-0.8,3
			C1096.5-147.1,1096.8-146,1097.3-145.2z"/>
		<path id="XMLID_53_" fill="#18113c" d="M1120.7-142.6c0.3,0.4,0.7,0.7,1.2,0.9c0.5,0.2,1,0.3,1.6,0.3c0.8,0,1.6-0.2,2.4-0.5
			c0.7-0.4,1.3-0.9,1.8-1.6c0.5-0.7,0.7-1.6,0.7-2.6l0.7,2.7c0,0.1,0.1,0.3,0.1,0.4c0,1.3-0.4,2.5-1.2,3.4c-0.8,1-1.8,1.7-3,2.3
			c-1.2,0.5-2.6,0.8-4,0.8s-2.8-0.3-4-0.8c-1.2-0.5-2.2-1.3-2.9-2.4c-0.7-1.1-1.1-2.4-1.1-3.9c0-2.2,0.8-3.9,2.3-5.1
			c1.5-1.3,3.7-1.9,6.5-1.9c1.4,0,2.6,0.1,3.7,0.4c1.1,0.3,2,0.6,2.8,1c0.5,0.2,0.9,0.5,1.2,0.8c0.3,0.3,0.5,0.7,0.5,1.1v0.4
			c0,1-1,1.6-1.9,1.2c-0.3-0.1-0.5-0.2-0.8-0.3c-1-0.3-2.1-0.5-3.3-0.5c-0.9,0-1.6,0.1-2.1,0.3c-0.5,0.2-0.9,0.5-1.2,0.9
			c-0.3,0.4-0.4,0.8-0.4,1.4C1120.2-143.5,1120.4-143,1120.7-142.6z M1115.1-156.3c-0.4-0.7,0-1.6,0.7-1.9c1-0.4,2.1-0.8,3.3-1.2
			c1.8-0.6,3.8-0.8,5.9-0.8c2,0,3.8,0.3,5.3,0.9c1.6,0.6,2.8,1.4,3.7,2.5c0.9,1.1,1.4,2.4,1.4,4v14.5c0,0.7-0.6,1.4-1.4,1.4h-4.4
			c-0.7,0-1.4-0.6-1.4-1.4v-12.9c0-0.6-0.1-1-0.3-1.4c-0.2-0.4-0.4-0.8-0.8-1.1c-0.4-0.3-0.8-0.5-1.3-0.6c-0.5-0.1-1.2-0.2-1.8-0.2
			c-1,0-2,0.1-3,0.3c-1,0.2-1.8,0.5-2.5,0.8c-0.2,0.1-0.3,0.1-0.4,0.2c-0.7,0.3-1.4,0-1.7-0.6L1115.1-156.3z"/>
		<path id="XMLID_51_" fill="#199DD9" d="M1139.2-143.5c0.9-0.9,2-1.3,3.3-1.3c1.4,0,2.5,0.4,3.3,1.3c0.8,0.9,1.3,1.9,1.3,3.2
			c0,1.2-0.4,2.3-1.3,3.2s-2,1.3-3.3,1.3c-1.3,0-2.4-0.4-3.3-1.3c-0.9-0.9-1.3-1.9-1.3-3.2C1137.9-141.6,1138.3-142.6,1139.2-143.5z
			"/>
		<path id="XMLID_47_" fill="#199DD9" d="M1149.9-128.3v-29.1c0-1.2,0.9-2.1,2.1-2.1h3.2c1.2,0,2.1,0.9,2.1,2.1v29.1
			c0,1.2-0.9,2.1-2.1,2.1h-3.2C1150.8-126.2,1149.9-127.1,1149.9-128.3z M1174.1-141.6c-1,1.8-2.4,3.2-4,4.1
			c-1.6,0.9-3.4,1.4-5.2,1.4c-2,0-3.7-0.5-5.1-1.5s-2.5-2.4-3.3-4.2c-0.8-1.8-1.1-3.9-1.1-6.3c0-2.5,0.4-4.6,1.1-6.4
			c0.8-1.8,1.8-3.2,3.3-4.2c1.4-1,3.1-1.5,5.1-1.5c1.9,0,3.6,0.5,5.2,1.4c1.6,0.9,2.9,2.3,4,4c1,1.8,1.5,4,1.5,6.6
			C1175.7-145.6,1175.2-143.4,1174.1-141.6z M1167.2-151.2c-0.5-0.8-1.1-1.4-2-1.9c-0.8-0.4-1.7-0.6-2.7-0.6c-0.9,0-1.7,0.2-2.5,0.6
			c-0.8,0.4-1.5,1-2,1.8c-0.5,0.8-0.8,1.8-0.8,3c0,1.2,0.3,2.2,0.8,3c0.5,0.8,1.2,1.4,2,1.8c0.8,0.4,1.6,0.6,2.5,0.6
			c1,0,1.9-0.2,2.7-0.6c0.8-0.4,1.5-1,2-1.9c0.5-0.8,0.7-1.8,0.7-3S1167.7-150.4,1167.2-151.2z"/>
		<path id="XMLID_45_" fill="#199DD9" d="M1187.6-173v33.9c0,1.2-1,2.1-2.1,2.1h-3.2c-1.2,0-2.1-1-2.1-2.1V-173c0-1.2,1-2.1,2.1-2.1
			h3.2C1186.6-175.2,1187.6-174.2,1187.6-173z"/>
	</g>
	<path id="XMLID_35_" fill="#18113c" d="M499.9,23.3h5.5c1.4,0,2.4,1.4,1.8,2.7l-12.1,29.7c-0.6,1.5-2.8,1.7-3.6,0.2l-7.4-13.7
		c-0.7-1.4-2.7-1.4-3.5,0l-7.3,13.7c-0.8,1.5-2.9,1.4-3.6-0.2L457.7,26c-0.5-1.3,0.4-2.7,1.8-2.7h5.5c0.8,0,1.6,0.5,1.9,1.3
		l4.7,13.5c0.6,1.7,2.9,1.8,3.7,0.1l5.5-12.5c0.7-1.6,2.9-1.6,3.6,0l5.6,12.6c0.7,1.6,3.1,1.5,3.7-0.2l4.6-13.4
		C498.3,23.8,499.1,23.3,499.9,23.3z"/>
	<g id="XMLID_87_">
		<g id="XMLID_88_" transform="translate(0.000000,222.000000) scale(0.100000,-0.100000)">
			<path id="XMLID_94_" fill="#754ffe" d="M198,2168c-29.5-8.2-56.9-31.3-64.9-54.6c-2.3-6.7-4.1-13.6-4.1-15.6s-4.6-9-10.5-15.1
				c-28.7-31.3-34.9-81.5-16.2-134.8c8.7-24.6,8.7-23.6-1.5-30.5c-4.9-3.3-11-10.3-13.6-15.6c-3.8-7.7-6.2-9.5-12.3-9.5
				c-7.4,0-7.4,0-7.4-15.1c0-14.9,0.3-15.4,6.9-16.2l7.2-0.8l1.3-27.4c1.3-29.5,3.8-35.4,19-46.7c6.7-5.1,10.3-5.4,90-5.4
				s83.3,0.3,90.2,5.4c10.8,7.7,18.7,25.4,18.7,41.3v13.6h21.8h21.8v-13.3c0-17.2,7.2-32.8,18.2-40.8l8.7-6.2h82.5
				c79.2,0,82.8,0.3,89.5,5.4c15.1,11.3,17.7,17.2,19,46.7l1.3,27.4l7.7,1.3c6.7,1,7.7,2.6,8.5,10c1.5,15.1-1.3,20.8-9.7,20.8
				c-6.2,0-8.2,1.5-11.3,8.5c-3.1,7.7-9,13.8-20.5,21c-3.6,2.3-3.3,4.9,2.3,26.1c12,45.9,10.3,91.8-4.1,115.4l-5.6,9.2l8.7,7.2
				c11.8,9.7,27.9,17.7,36.7,17.7c6.2,0,6.7,0.8,5.4,5.9c-8.2,26.9-26.4,48.7-50.8,59.7c-15.1,7.2-17.7,7.4-51.8,7.4
				c-33.6,0-37.7-0.5-65.4-9c-27.2-8.2-32-9-61.5-8.7c-27.9,0-37.2,1.3-70.8,9.5C240.1,2172.4,219.1,2173.6,198,2168z M261.6,2158.8
				c8.5-1.5,20.8-4.9,26.9-7.7l11-5.4l-15.4,2.1c-55.4,7.2-90.5-5.1-110.5-39c-3.3-5.9-8.5-12.8-11-15.1c-6.9-6.2-16.7-4.4-17.7,3.3
				c-1.5,10.5,1.8,17.4,14.9,31.8c13.8,15.1,29,23.1,54.9,28.7C234.2,2161.8,241.6,2161.8,261.6,2158.8z M178.6,2043.1
				c3.1-1.8,14.1-11,24.6-21c29.2-27.7,73.3-45.4,112.3-45.4h14.9l-15.6,9c-14.9,8.5-24.9,16.7-20,16.7c1.3,0,6.9-1.3,12.6-2.6
				c55.4-13.3,117.4-3.6,164.8,25.9c22.6,14.1,23.8,13.6,28.5-8.5c3.1-13.6,3.8-70.8,1.3-83.8l-1.5-7.9h-60.8
				c-57.9,0-61.3-0.3-72-5.6c-13.1-6.7-23.1-22.8-23.1-37.2v-8.5h-21.8h-21.8v8.5c0,14.4-10,30.5-23.1,37.2
				c-10.8,5.4-14.1,5.6-74.6,5.6h-63.1l-1.5,17.4c-4.6,48.2-0.3,86.6,11.3,98.2C155.5,2046.7,169.8,2047.8,178.6,2043.1z
				 M271.4,1896c6.2-5.9,6.4-7.2,6.4-43.6s-0.3-37.7-6.4-43.6l-6.2-6.4h-73.3h-73.3l-6.2,6.4c-6.2,5.9-6.4,7.2-6.4,44.6v38.5
				l6.7,5.1c6.7,5.1,10,5.4,79.7,5.4h72.8L271.4,1896z M533.4,1896.8c5.6-5.4,5.9-7.2,5.9-43.1c0-34.4-0.5-38.5-5.4-44.6l-5.1-6.7
				h-74.3h-74.3l-6.2,6.4c-6.2,5.9-6.4,7.2-6.4,43.6s0.3,37.7,6.4,43.6l6.2,6.4h73.6C525.9,1902.4,527.5,1902.4,533.4,1896.8z"/>
			<path id="XMLID_93_" fill="#754ffe" d="M244.4,1865.2c-4.4-5.4-1-17.2,4.6-16.2s7.2,13.1,2.3,16.9
				C248.5,1868.6,247,1868.3,244.4,1865.2z"/>
			<path id="XMLID_92_" fill="#754ffe" d="M394.2,1865.5c-2.6-6.4,0-15.6,4.4-16.4c5.1-1,8.2,8.7,4.6,15.4
				C400.1,1870.1,396,1870.4,394.2,1865.5z"/>
			<path id="XMLID_91_" fill="#754ffe" d="M311.1,1779.1c4.4-7.9,25.6-5.4,25.6,3.1c0,1-3.1,1-6.9,0c-4.1-1-10.3-1-14.1,0
				C309.3,1784,308.8,1783.7,311.1,1779.1z"/>
			<path id="XMLID_90_" fill="#754ffe" d="M147,1760.1c0-2.8,17.7-36.4,24.4-45.9l6.7-10l-8.7-19.5c-7.9-17.4-17.2-46.1-17.2-53.8
				c0-1.5,5.6,1.3,12.6,6.2c27.7,20,47.9,21.5,83.1,6.7c58.2-24.9,101.8-23.6,160.7,4.6c12.6,5.9,18.7,7.7,25.6,6.4
				c14.4-2.3,31-9,45.6-17.9c7.9-5.1,13.3-7.4,13.3-5.4c0,7.7-11,42-17.9,55.9l-7.7,15.1l8.7,13.3c10,15.9,22,39.2,22,43.1
				c0,6.4-5.1,1.3-16.2-15.9c-32.3-51.3-77.7-87.4-122.5-98.2c-76.1-17.9-148.9,21.3-203.3,109.7C152.7,1760.6,147,1764,147,1760.1z
				"/>
			<path id="XMLID_89_" fill="#754ffe" d="M298.3,1741.2c0-3.6,46.7-13.6,49.5-10.8c3.1,3.1,1.3,3.8-21.3,9.2
				C307.3,1744,298.3,1744.5,298.3,1741.2z"/>
		</g>
	</g>
	<g id="XMLID_2_">
		<path id="XMLID_85_" fill="#18113c" d="M109.7,18.8h5.5c1.4,0,2.4,1.4,1.8,2.7l-12.1,29.7c-0.6,1.5-2.8,1.7-3.6,0.2L94,37.7
			c-0.7-1.4-2.7-1.4-3.5,0l-7.3,13.7c-0.8,1.5-2.9,1.4-3.6-0.2L67.5,21.6c-0.5-1.3,0.4-2.7,1.8-2.7h5.5c0.8,0,1.6,0.5,1.9,1.3
			l4.7,13.5c0.6,1.7,2.9,1.8,3.7,0.1l5.5-12.5c0.7-1.6,2.9-1.6,3.6,0l5.6,12.6c0.7,1.6,3.1,1.5,3.7-0.2l4.6-13.4
			C108.2,19.4,108.9,18.8,109.7,18.8z"/>
		<path id="XMLID_83_" fill="#18113c" d="M125.9,63.1h-4.3c-0.9,0-1.4-0.9-1.1-1.7l4.1-9.5c0.1-0.3,0.1-0.7,0-1l-8-17
			c-0.4-0.8,0.2-1.7,1.1-1.7h4.9c0.5,0,0.9,0.3,1.1,0.8l5.8,14.4c0.3,0.8-0.3,1.7-1.1,1.6h0c-0.8,0-1.4-0.9-1.1-1.6l5.7-14.4
			c0.2-0.5,0.6-0.8,1.1-0.8h4.4c0.9,0,1.4,0.9,1.1,1.7L127,62.4C126.8,62.8,126.4,63.1,125.9,63.1z"/>
		<path id="XMLID_80_" fill="#18113c" d="M150.5,16.1v36.1c0,0.6-0.5,1.1-1.1,1.1h-5c-0.6,0-1.1-0.5-1.1-1.1V16.1
			c0-0.6,0.5-1.1,1.1-1.1h5C150.1,15,150.5,15.5,150.5,16.1z M165.7,32.5l-7,6.8c-0.4,0.4-0.4,1-0.1,1.4l8.6,10.8
			c0.6,0.7,0.1,1.7-0.8,1.7h-6c-0.3,0-0.6-0.1-0.8-0.4l-9.8-12.1c-0.3-0.4-0.3-1,0.1-1.4l8.6-8.3c0.2-0.2,0.5-0.3,0.7-0.3h5.8
			C165.9,30.7,166.3,31.8,165.7,32.5z"/>
		<path id="XMLID_39_" fill="#18113c" d="M168,33.6l13.2-8.7c0.9-0.6,2.1-0.3,2.6,0.7l0.2,0.4c0.4,0.8,0.2,1.8-0.6,2.3L170.2,37
			c-0.9,0.6-2.1,0.3-2.6-0.7l-0.2-0.4C166.9,35.1,167.2,34.1,168,33.6z M179.2,16.8v34.6c0,1-0.8,1.8-1.8,1.8h-3.8
			c-1,0-1.8-0.8-1.8-1.8V16.8c0-1,0.8-1.8,1.8-1.8h3.8C178.4,15,179.2,15.8,179.2,16.8z"/>
		<path id="XMLID_34_" fill="#18113c" d="M191.1,47.7c0.3,0.4,0.7,0.7,1.2,0.9c0.5,0.2,1,0.3,1.6,0.3c0.8,0,1.6-0.2,2.4-0.5
			c0.7-0.4,1.3-0.9,1.8-1.6c0.5-0.7,0.7-1.6,0.7-2.6l0.7,2.7c0,0.2,0.1,0.3,0.1,0.5c0,1.3-0.4,2.5-1.2,3.4c-0.8,1-1.8,1.7-3,2.3
			c-1.2,0.5-2.6,0.8-4,0.8c-1.4,0-2.8-0.3-4-0.8c-1.2-0.5-2.2-1.3-2.9-2.4c-0.7-1.1-1.1-2.4-1.1-3.9c0-2.2,0.8-3.9,2.3-5.1
			c1.5-1.3,3.7-1.9,6.5-1.9c1.4,0,2.6,0.1,3.7,0.4c1.1,0.3,2,0.6,2.8,1c0.5,0.2,0.8,0.5,1.2,0.7c0.4,0.3,0.6,0.7,0.6,1.2v0
			c0,1.1-1.1,1.8-2.1,1.5c-0.2-0.1-0.4-0.2-0.7-0.2c-1-0.3-2.1-0.5-3.3-0.5c-0.9,0-1.6,0.1-2.1,0.3c-0.5,0.2-0.9,0.5-1.2,0.9
			c-0.3,0.4-0.4,0.8-0.4,1.4C190.7,46.8,190.9,47.3,191.1,47.7z M185.7,34.1c-0.4-0.8-0.1-1.8,0.8-2.1c0.9-0.4,2-0.7,3.1-1.1
			c1.8-0.6,3.8-0.8,5.9-0.8c2,0,3.8,0.3,5.3,0.9c1.6,0.6,2.8,1.4,3.7,2.5c0.9,1.1,1.4,2.4,1.4,4v14.3c0,0.9-0.7,1.5-1.5,1.5h-4
			c-0.9,0-1.5-0.7-1.5-1.5V39c0-0.6-0.1-1-0.3-1.4c-0.2-0.4-0.4-0.8-0.8-1.1c-0.4-0.3-0.8-0.5-1.3-0.6c-0.5-0.1-1.2-0.2-1.8-0.2
			c-1,0-2,0.1-3,0.3c-1,0.2-1.8,0.5-2.5,0.8c-0.1,0-0.2,0.1-0.3,0.1c-0.8,0.3-1.6,0-2-0.7L185.7,34.1z"/>
		<path id="XMLID_30_" fill="#18113c" d="M211.6,35.5c1-1.7,2.4-3.1,4-4c1.6-0.9,3.4-1.4,5.2-1.4c1.9,0,3.6,0.5,5,1.4
			c1.5,0.9,2.6,2.3,3.5,4c0.8,1.7,1.3,3.8,1.3,6.3c0,2.4-0.4,4.5-1.3,6.3c-0.8,1.8-2,3.1-3.5,4.1c-1.5,0.9-3.1,1.4-5,1.4
			c-1.8,0-3.6-0.5-5.2-1.4c-1.6-0.9-3-2.2-4-4c-1-1.7-1.5-3.9-1.5-6.4C210.1,39.4,210.6,37.3,211.6,35.5z M218.6,45
			c0.5,0.9,1.1,1.5,2,2c0.8,0.5,1.7,0.7,2.7,0.7c0.8,0,1.7-0.2,2.5-0.7c0.8-0.5,1.5-1.1,2-2c0.5-0.9,0.8-1.9,0.8-3.1
			c0-1.2-0.3-2.2-0.8-3.1c-0.5-0.9-1.2-1.5-2-2c-0.8-0.5-1.6-0.7-2.5-0.7c-1,0-1.9,0.2-2.7,0.7c-0.8,0.5-1.5,1.1-2,2
			c-0.5,0.9-0.7,1.9-0.7,3.1S218.1,44.2,218.6,45z M235.9,17.2v33.9c0,1.2-1,2.2-2.2,2.2h-3.1c-1.2,0-2.2-1-2.2-2.2V17.2
			c0-1.2,1-2.2,2.2-2.2h3.1C234.9,15,235.9,16,235.9,17.2z"/>
		<path id="XMLID_27_" fill="#18113c" d="M242,35.7c1.1-1.8,2.6-3.1,4.6-4.1s4.2-1.5,6.6-1.5c2.4,0,4.6,0.5,6.6,1.5
			c1.9,1,3.5,2.4,4.6,4.1c1.1,1.8,1.7,3.8,1.7,6.2c0,2.4-0.6,4.4-1.7,6.2c-1.1,1.8-2.7,3.1-4.6,4.1c-1.9,1-4.1,1.5-6.6,1.5
			c-2.5,0-4.7-0.5-6.6-1.5c-2-1-3.5-2.4-4.6-4.1c-1.1-1.8-1.7-3.8-1.7-6.2C240.3,39.6,240.8,37.5,242,35.7z M248.6,45
			c0.5,0.8,1.1,1.5,1.9,1.9c0.8,0.5,1.7,0.7,2.6,0.7c0.9,0,1.8-0.2,2.6-0.7c0.8-0.5,1.4-1.1,1.9-1.9s0.7-1.8,0.7-3s-0.2-2.2-0.7-3
			c-0.5-0.8-1.1-1.5-1.9-2c-0.8-0.5-1.7-0.7-2.6-0.7c-1,0-1.9,0.2-2.6,0.7c-0.8,0.5-1.4,1.1-1.9,2c-0.5,0.9-0.7,1.9-0.7,3
			S248.1,44.1,248.6,45z"/>
		<path id="XMLID_25_" fill="#18113c" d="M274.6,31.5l3.2,8c0.4,1.1,1.9,1.1,2.4,0.1l4-8.2c0.5-1,1.9-1,2.4,0l4.1,8.3
			c0.5,1,2,1,2.4-0.1l3.3-8c0.2-0.5,0.7-0.8,1.2-0.8h4.7c1,0,1.6,1,1.2,1.9L294,52.4c-0.5,1-1.8,1-2.3,0.1l-5-9.1
			c-0.5-0.9-1.8-0.9-2.3,0l-4.9,9c-0.5,0.9-1.9,0.9-2.4-0.1l-9.6-19.7c-0.4-0.9,0.2-1.9,1.2-1.9h4.7C273.9,30.7,274.4,31,274.6,31.5
			z"/>
		<path id="XMLID_14_" fill="#18113c" d="M313.3,45.1c0.5,0.9,1.2,1.5,2.2,2c0.9,0.5,1.9,0.7,3,0.7c0.9,0,1.8-0.1,2.6-0.4
			c0.8-0.3,1.6-0.7,2.3-1.2c0.7-0.5,1.3-1.1,1.7-1.8l0,6.6c0,0.4-0.2,0.7-0.5,0.9c-0.7,0.5-1.5,0.9-2.5,1.2
			c-1.2,0.4-2.6,0.6-4.3,0.6c-2.5,0-4.7-0.5-6.7-1.5c-2-1-3.5-2.4-4.7-4.1c-1.1-1.8-1.7-3.8-1.7-6.2c0-2.4,0.6-4.5,1.7-6.2
			s2.7-3.1,4.7-4.1s4.2-1.5,6.7-1.5c1.7,0,3.1,0.2,4.3,0.6c0.9,0.3,1.7,0.6,2.4,1c0.4,0.2,0.6,0.6,0.6,1v3.9c0,0.9-1,1.5-1.8,1l0,0
			c-0.7-0.5-1.5-0.9-2.4-1.1c-0.8-0.3-1.7-0.4-2.5-0.4c-1.1,0-2.1,0.3-3,0.8c-0.9,0.5-1.7,1.2-2.2,2.1c-0.5,0.9-0.8,1.9-0.8,3
			C312.5,43.2,312.8,44.2,313.3,45.1z"/>
		<path id="XMLID_11_" fill="#18113c" d="M336.7,47.7c0.3,0.4,0.7,0.7,1.2,0.9c0.5,0.2,1,0.3,1.6,0.3c0.8,0,1.6-0.2,2.4-0.5
			c0.7-0.4,1.3-0.9,1.8-1.6c0.5-0.7,0.7-1.6,0.7-2.6l0.7,2.7c0,0.1,0.1,0.3,0.1,0.4c0,1.3-0.4,2.5-1.2,3.4c-0.8,1-1.8,1.7-3,2.3
			c-1.2,0.5-2.6,0.8-4,0.8s-2.8-0.3-4-0.8c-1.2-0.5-2.2-1.3-2.9-2.4c-0.7-1.1-1.1-2.4-1.1-3.9c0-2.2,0.8-3.9,2.3-5.1
			c1.5-1.3,3.7-1.9,6.5-1.9c1.4,0,2.6,0.1,3.7,0.4c1.1,0.3,2,0.6,2.8,1c0.5,0.2,0.9,0.5,1.2,0.8c0.3,0.3,0.5,0.7,0.5,1.1v0.4
			c0,1-1,1.6-1.9,1.2c-0.3-0.1-0.5-0.2-0.8-0.3c-1-0.3-2.1-0.5-3.3-0.5c-0.9,0-1.6,0.1-2.1,0.3c-0.5,0.2-0.9,0.5-1.2,0.9
			c-0.3,0.4-0.4,0.8-0.4,1.4C336.2,46.8,336.4,47.3,336.7,47.7z M331.1,33.9c-0.4-0.7,0-1.6,0.7-1.9c1-0.4,2.1-0.8,3.3-1.2
			c1.8-0.6,3.8-0.8,5.9-0.8c2,0,3.8,0.3,5.3,0.9c1.6,0.6,2.8,1.4,3.7,2.5c0.9,1.1,1.4,2.4,1.4,4v14.5c0,0.7-0.6,1.4-1.4,1.4h-4.4
			c-0.7,0-1.4-0.6-1.4-1.4V39c0-0.6-0.1-1-0.3-1.4c-0.2-0.4-0.4-0.8-0.8-1.1c-0.4-0.3-0.8-0.5-1.3-0.6c-0.5-0.1-1.2-0.2-1.8-0.2
			c-1,0-2,0.1-3,0.3c-1,0.2-1.8,0.5-2.5,0.8c-0.2,0.1-0.3,0.1-0.4,0.2c-0.7,0.3-1.4,0-1.7-0.6L331.1,33.9z"/>
		<path id="XMLID_9_" fill="#754ffe" d="M355.2,46.7c0.9-0.9,2-1.3,3.3-1.3c1.4,0,2.5,0.4,3.3,1.3c0.8,0.9,1.3,1.9,1.3,3.2
			c0,1.2-0.4,2.3-1.3,3.2s-2,1.3-3.3,1.3c-1.3,0-2.4-0.4-3.3-1.3c-0.9-0.9-1.3-1.9-1.3-3.2C353.9,48.7,354.4,47.6,355.2,46.7z"/>
		<path id="XMLID_5_" fill="#754ffe" d="M365.9,62V32.8c0-1.2,0.9-2.1,2.1-2.1h3.2c1.2,0,2.1,0.9,2.1,2.1V62c0,1.2-0.9,2.1-2.1,2.1
			H368C366.8,64.1,365.9,63.1,365.9,62z M390.2,48.6c-1,1.8-2.4,3.2-4,4.1c-1.6,0.9-3.4,1.4-5.2,1.4c-2,0-3.7-0.5-5.1-1.5
			s-2.5-2.4-3.3-4.2c-0.8-1.8-1.1-3.9-1.1-6.3c0-2.5,0.4-4.6,1.1-6.4c0.8-1.8,1.8-3.2,3.3-4.2c1.4-1,3.1-1.5,5.1-1.5
			c1.9,0,3.6,0.5,5.2,1.4c1.6,0.9,2.9,2.3,4,4c1,1.8,1.5,4,1.5,6.6C391.7,44.6,391.2,46.8,390.2,48.6z M383.2,39
			c-0.5-0.8-1.1-1.4-2-1.9c-0.8-0.4-1.7-0.6-2.7-0.6c-0.9,0-1.7,0.2-2.5,0.6c-0.8,0.4-1.5,1-2,1.8c-0.5,0.8-0.8,1.8-0.8,3
			c0,1.2,0.3,2.2,0.8,3c0.5,0.8,1.2,1.4,2,1.8c0.8,0.4,1.6,0.6,2.5,0.6c1,0,1.9-0.2,2.7-0.6c0.8-0.4,1.5-1,2-1.9
			c0.5-0.8,0.7-1.8,0.7-3S383.7,39.8,383.2,39z"/>
		<path id="XMLID_3_" fill="#754ffe" d="M403.6,17.2v33.9c0,1.2-1,2.1-2.1,2.1h-3.2c-1.2,0-2.1-1-2.1-2.1V17.2c0-1.2,1-2.1,2.1-2.1
			h3.2C402.7,15.1,403.6,16,403.6,17.2z"/>
	</g>
</g>
</svg>
