<?xml version="1.0" encoding="utf-8"?>
<!-- Generator: Adobe Illustrator 19.0.0, SVG Export Plug-In . SVG Version: 6.00 Build 0)  -->
<svg version="1.1" xmlns="http://www.w3.org/2000/svg" xmlns:xlink="http://www.w3.org/1999/xlink" x="0px" y="0px"
	 viewBox="0 0 112.5 40.5" enable-background="new 0 0 112.5 40.5" xml:space="preserve">
<g id="Layer_1">
	<rect id="XMLID_40_" x="276" y="-117.5" fill="none" width="356" height="72.5"/>
	<text id="XMLID_41_" transform="matrix(1 0 0 1 276 -79.2594)"><tspan x="0" y="0" fill="#18457D" font-family="'Jost-Bold'" font-size="49px">Wykładowca</tspan><tspan x="292.6" y="0" fill="#199DD9" font-family="'Jost-Bold'" font-size="49px">.pl</tspan></text>
	<g id="XMLID_16_">
		<path id="XMLID_17_" fill="#18457D" d="M14.1,25.9c0.9,1.5,2.2,2.7,3.7,3.5c1.6,0.8,3.3,1.2,5.1,1.2c1.6,0,3.1-0.2,4.3-0.6
			c1.2-0.4,2.4-1,3.3-1.7c0.3-0.2,0.6-0.4,0.9-0.7c0.7-0.5,1.7-0.1,1.7,0.8v6.1c0,0.3-0.2,0.6-0.4,0.8c-1.3,0.9-2.6,1.7-4.1,2.2
			c-1.6,0.6-3.7,0.9-6.2,0.9c-2.7,0-5.3-0.4-7.6-1.3c-2.3-0.8-4.3-2.1-6-3.7c-1.7-1.6-3-3.5-3.9-5.7c-0.9-2.2-1.4-4.6-1.4-7.3
			c0-2.7,0.5-5.1,1.4-7.3C5.9,11,7.2,9.1,8.9,7.5s3.7-2.8,6-3.7c2.3-0.8,4.9-1.3,7.6-1.3c2.5,0,4.6,0.3,6.2,0.9
			c1.5,0.6,2.8,1.3,4.1,2.2c0.3,0.2,0.4,0.5,0.4,0.8v6.1c0,0.9-1,1.3-1.7,0.8c-0.3-0.2-0.6-0.5-0.9-0.7c-1-0.7-2.1-1.3-3.3-1.7
			c-1.2-0.4-2.7-0.6-4.3-0.6c-1.9,0-3.6,0.4-5.1,1.2c-1.6,0.8-2.8,1.9-3.7,3.4c-0.9,1.5-1.4,3.3-1.4,5.4
			C12.7,22.6,13.1,24.4,14.1,25.9z"/>
		<path id="XMLID_19_" fill="#18457D" d="M48.2,5.3v30.3c0,1.1-0.9,2-2,2h-4.3c-1.1,0-2-0.9-2-2V5.3c0-1.1,0.9-2,2-2h4.3
			C47.3,3.3,48.2,4.2,48.2,5.3z M45.1,3.3h7.3c2.9,0,5.4,0.5,7.4,1.4s3.4,2.3,4.5,3.9c1,1.7,1.5,3.6,1.5,5.9c0,2.2-0.5,4.1-1.5,5.8
			c-1,1.7-2.5,3-4.5,3.9s-4.4,1.4-7.4,1.4h-7.3v-6.4h6.7c1.1,0,2.1-0.2,2.9-0.5c0.8-0.3,1.4-0.8,1.8-1.5c0.4-0.7,0.6-1.5,0.6-2.4
			c0-0.9-0.2-1.8-0.6-2.4c-0.4-0.7-1-1.2-1.8-1.5c-0.8-0.4-1.8-0.5-2.9-0.5h-6.7V3.3z M57.7,23l8,11.6c0.9,1.3,0,3.1-1.6,3.1h-4.8
			c-0.7,0-1.3-0.4-1.7-0.9l-7.2-11.6c-0.8-1.3,0.1-3,1.7-3h4C56.7,22.1,57.3,22.4,57.7,23z"/>
		<path id="XMLID_23_" fill="#18457D" d="M77.3,37.6h-6.1c-0.8,0-1.4-0.7-1.3-1.5l4.8-31.4c0.2-1.1,1.6-1.5,2.3-0.5L88.8,21
			c0.5,0.7,1.6,0.7,2.1,0l11.8-16.8c0.7-0.9,2.1-0.6,2.3,0.5l4.8,31.4c0.1,0.8-0.5,1.5-1.3,1.5h-6.1c-0.6,0-1.2-0.5-1.3-1.1
			l-1.5-12.9c-0.1-1.2-1.7-1.5-2.3-0.5l-6.4,9.8c-0.5,0.8-1.6,0.8-2.1,0l-6.4-9.8c-0.6-1-2.2-0.6-2.3,0.5l-1.5,12.9
			C78.5,37.1,77.9,37.6,77.3,37.6z"/>
	</g>
</g>
<g id="Layer_2">
	<g id="XMLID_43_">
		<path id="XMLID_78_" fill="#18457D" d="M996.7,103.6h5.5c1.4,0,2.4,1.4,1.8,2.7L991.9,136c-0.6,1.5-2.8,1.7-3.6,0.2l-7.4-13.7
			c-0.7-1.4-2.7-1.4-3.5,0l-7.3,13.7c-0.8,1.5-2.9,1.4-3.6-0.2l-12.1-29.7c-0.5-1.3,0.4-2.7,1.8-2.7h5.5c0.8,0,1.6,0.5,1.9,1.3
			l4.7,13.5c0.6,1.7,2.9,1.8,3.7,0.1l5.5-12.5c0.7-1.6,2.9-1.6,3.6,0l5.6,12.6c0.7,1.6,3.1,1.5,3.7-0.2l4.6-13.4
			C995.1,104.1,995.9,103.6,996.7,103.6z"/>
		<path id="XMLID_76_" fill="#18457D" d="M1012.9,147.8h-4.3c-0.9,0-1.4-0.9-1.1-1.7l4.1-9.5c0.1-0.3,0.1-0.7,0-1l-8-17
			c-0.4-0.8,0.2-1.7,1.1-1.7h4.9c0.5,0,0.9,0.3,1.1,0.8l5.8,14.4c0.3,0.8-0.3,1.7-1.1,1.6l0,0c-0.8,0-1.4-0.9-1.1-1.6l5.7-14.4
			c0.2-0.5,0.6-0.8,1.1-0.8h4.4c0.9,0,1.4,0.9,1.1,1.7l-12.6,28.5C1013.8,147.5,1013.4,147.8,1012.9,147.8z"/>
		<path id="XMLID_73_" fill="#18457D" d="M1037.5,100.8v36.1c0,0.6-0.5,1.1-1.1,1.1h-5c-0.6,0-1.1-0.5-1.1-1.1v-36.1
			c0-0.6,0.5-1.1,1.1-1.1h5C1037,99.8,1037.5,100.2,1037.5,100.8z M1052.6,117.3l-7,6.8c-0.4,0.4-0.4,1-0.1,1.4l8.6,10.8
			c0.6,0.7,0.1,1.7-0.8,1.7h-6c-0.3,0-0.6-0.1-0.8-0.4l-9.8-12.1c-0.3-0.4-0.3-1,0.1-1.4l8.6-8.3c0.2-0.2,0.5-0.3,0.7-0.3h5.8
			C1052.9,115.4,1053.3,116.6,1052.6,117.3z"/>
		<path id="XMLID_70_" fill="#18457D" d="M1054.9,118.3l13.2-8.7c0.9-0.6,2.1-0.3,2.6,0.7l0.2,0.4c0.4,0.8,0.2,1.8-0.6,2.3
			l-13.2,8.7c-0.9,0.6-2.1,0.3-2.6-0.7l-0.2-0.4C1053.9,119.9,1054.2,118.8,1054.9,118.3z M1066.2,101.6v34.6c0,1-0.8,1.8-1.8,1.8
			h-3.8c-1,0-1.8-0.8-1.8-1.8v-34.6c0-1,0.8-1.8,1.8-1.8h3.8C1065.4,99.8,1066.2,100.6,1066.2,101.6z"/>
		<path id="XMLID_67_" fill="#18457D" d="M1078.1,132.4c0.3,0.4,0.7,0.7,1.2,0.9c0.5,0.2,1,0.3,1.6,0.3c0.8,0,1.6-0.2,2.4-0.5
			c0.7-0.4,1.3-0.9,1.8-1.6c0.5-0.7,0.7-1.6,0.7-2.6l0.7,2.7c0,0.2,0.1,0.3,0.1,0.5c0,1.3-0.4,2.5-1.2,3.4c-0.8,1-1.8,1.7-3,2.3
			c-1.2,0.5-2.6,0.8-4,0.8c-1.4,0-2.8-0.3-4-0.8c-1.2-0.5-2.2-1.3-2.9-2.4c-0.7-1.1-1.1-2.4-1.1-3.9c0-2.2,0.8-3.9,2.3-5.1
			c1.5-1.3,3.7-1.9,6.5-1.9c1.4,0,2.6,0.1,3.7,0.4c1.1,0.3,2,0.6,2.8,1c0.5,0.2,0.8,0.5,1.2,0.7c0.4,0.3,0.6,0.7,0.6,1.2l0,0
			c0,1.1-1.1,1.8-2.1,1.5c-0.2-0.1-0.4-0.2-0.7-0.2c-1-0.3-2.1-0.5-3.3-0.5c-0.9,0-1.6,0.1-2.1,0.3c-0.5,0.2-0.9,0.5-1.2,0.9
			c-0.3,0.4-0.4,0.8-0.4,1.4C1077.7,131.5,1077.8,132,1078.1,132.4z M1072.6,118.9c-0.4-0.8-0.1-1.8,0.8-2.1c0.9-0.4,2-0.7,3.1-1.1
			c1.8-0.6,3.8-0.8,5.9-0.8c2,0,3.8,0.3,5.3,0.9c1.6,0.6,2.8,1.4,3.7,2.5c0.9,1.1,1.4,2.4,1.4,4v14.3c0,0.9-0.7,1.5-1.5,1.5h-4
			c-0.9,0-1.5-0.7-1.5-1.5v-12.7c0-0.6-0.1-1-0.3-1.4c-0.2-0.4-0.4-0.8-0.8-1.1c-0.4-0.3-0.8-0.5-1.3-0.6c-0.5-0.1-1.2-0.2-1.8-0.2
			c-1,0-2,0.1-3,0.3c-1,0.2-1.8,0.5-2.5,0.8c-0.1,0-0.2,0.1-0.3,0.1c-0.8,0.3-1.6,0-2-0.7L1072.6,118.9z"/>
		<path id="XMLID_63_" fill="#18457D" d="M1098.6,120.3c1-1.7,2.4-3.1,4-4c1.6-0.9,3.4-1.4,5.2-1.4c1.9,0,3.6,0.5,5,1.4
			c1.5,0.9,2.6,2.3,3.5,4c0.8,1.7,1.3,3.8,1.3,6.3c0,2.4-0.4,4.5-1.3,6.3c-0.8,1.8-2,3.1-3.5,4.1c-1.5,0.9-3.1,1.4-5,1.4
			c-1.8,0-3.6-0.5-5.2-1.4c-1.6-0.9-3-2.2-4-4c-1-1.7-1.5-3.9-1.5-6.4C1097,124.2,1097.6,122,1098.6,120.3z M1105.6,129.8
			c0.5,0.9,1.1,1.5,2,2c0.8,0.5,1.7,0.7,2.7,0.7c0.8,0,1.7-0.2,2.5-0.7c0.8-0.5,1.5-1.1,2-2c0.5-0.9,0.8-1.9,0.8-3.1
			c0-1.2-0.3-2.2-0.8-3.1c-0.5-0.9-1.2-1.5-2-2c-0.8-0.5-1.6-0.7-2.5-0.7c-1,0-1.9,0.2-2.7,0.7c-0.8,0.5-1.5,1.1-2,2
			c-0.5,0.9-0.7,1.9-0.7,3.1S1105.1,128.9,1105.6,129.8z M1122.9,101.9v33.9c0,1.2-1,2.2-2.2,2.2h-3.1c-1.2,0-2.2-1-2.2-2.2v-33.9
			c0-1.2,1-2.2,2.2-2.2h3.1C1121.9,99.8,1122.9,100.7,1122.9,101.9z"/>
		<path id="XMLID_60_" fill="#18457D" d="M1128.9,120.5c1.1-1.8,2.6-3.1,4.6-4.1s4.2-1.5,6.6-1.5c2.4,0,4.6,0.5,6.6,1.5
			c1.9,1,3.5,2.4,4.6,4.1c1.1,1.8,1.7,3.8,1.7,6.2c0,2.4-0.6,4.4-1.7,6.2c-1.1,1.8-2.7,3.1-4.6,4.1c-1.9,1-4.1,1.5-6.6,1.5
			c-2.5,0-4.7-0.5-6.6-1.5c-2-1-3.5-2.4-4.6-4.1c-1.1-1.8-1.7-3.8-1.7-6.2C1127.3,124.3,1127.8,122.3,1128.9,120.5z M1135.6,129.7
			c0.5,0.8,1.1,1.5,1.9,1.9c0.8,0.5,1.7,0.7,2.6,0.7c0.9,0,1.8-0.2,2.6-0.7c0.8-0.5,1.4-1.1,1.9-1.9s0.7-1.8,0.7-3s-0.2-2.2-0.7-3
			c-0.5-0.8-1.1-1.5-1.9-2c-0.8-0.5-1.7-0.7-2.6-0.7c-1,0-1.9,0.2-2.6,0.7c-0.8,0.5-1.4,1.1-1.9,2c-0.5,0.9-0.7,1.9-0.7,3
			S1135.1,128.9,1135.6,129.7z"/>
		<path id="XMLID_58_" fill="#18457D" d="M1161.6,116.3l3.2,8c0.4,1.1,1.9,1.1,2.4,0.1l4-8.2c0.5-1,1.9-1,2.4,0l4.1,8.3
			c0.5,1,2,1,2.4-0.1l3.3-8c0.2-0.5,0.7-0.8,1.2-0.8h4.7c1,0,1.6,1,1.2,1.9l-9.6,19.8c-0.5,1-1.8,1-2.3,0.1l-5-9.1
			c-0.5-0.9-1.8-0.9-2.3,0l-4.9,9c-0.5,0.9-1.9,0.9-2.4-0.1l-9.6-19.7c-0.4-0.9,0.2-1.9,1.2-1.9h4.7
			C1160.9,115.4,1161.4,115.8,1161.6,116.3z"/>
		<path id="XMLID_56_" fill="#18457D" d="M1200.3,129.8c0.5,0.9,1.2,1.5,2.2,2c0.9,0.5,1.9,0.7,3,0.7c0.9,0,1.8-0.1,2.6-0.4
			c0.8-0.3,1.6-0.7,2.3-1.2c0.7-0.5,1.3-1.1,1.7-1.8v6.6c0,0.4-0.2,0.7-0.5,0.9c-0.7,0.5-1.5,0.9-2.5,1.2c-1.2,0.4-2.6,0.6-4.3,0.6
			c-2.5,0-4.7-0.5-6.7-1.5c-2-1-3.5-2.4-4.7-4.1c-1.1-1.8-1.7-3.8-1.7-6.2c0-2.4,0.6-4.5,1.7-6.2s2.7-3.1,4.7-4.1s4.2-1.5,6.7-1.5
			c1.7,0,3.1,0.2,4.3,0.6c0.9,0.3,1.7,0.6,2.4,1c0.4,0.2,0.6,0.6,0.6,1v3.9c0,0.9-1,1.5-1.8,1v0c-0.7-0.5-1.5-0.9-2.4-1.1
			c-0.8-0.3-1.7-0.4-2.5-0.4c-1.1,0-2.1,0.3-3,0.8c-0.9,0.5-1.7,1.2-2.2,2.1c-0.5,0.9-0.8,1.9-0.8,3
			C1199.5,127.9,1199.8,129,1200.3,129.8z"/>
		<path id="XMLID_53_" fill="#18457D" d="M1223.7,132.4c0.3,0.4,0.7,0.7,1.2,0.9c0.5,0.2,1,0.3,1.6,0.3c0.8,0,1.6-0.2,2.4-0.5
			c0.7-0.4,1.3-0.9,1.8-1.6c0.5-0.7,0.7-1.6,0.7-2.6l0.7,2.7c0,0.1,0.1,0.3,0.1,0.4c0,1.3-0.4,2.5-1.2,3.4c-0.8,1-1.8,1.7-3,2.3
			c-1.2,0.5-2.6,0.8-4,0.8s-2.8-0.3-4-0.8c-1.2-0.5-2.2-1.3-2.9-2.4c-0.7-1.1-1.1-2.4-1.1-3.9c0-2.2,0.8-3.9,2.3-5.1
			c1.5-1.3,3.7-1.9,6.5-1.9c1.4,0,2.6,0.1,3.7,0.4c1.1,0.3,2,0.6,2.8,1c0.5,0.2,0.9,0.5,1.2,0.8c0.3,0.3,0.5,0.7,0.5,1.1v0.4
			c0,1-1,1.6-1.9,1.2c-0.3-0.1-0.5-0.2-0.8-0.3c-1-0.3-2.1-0.5-3.3-0.5c-0.9,0-1.6,0.1-2.1,0.3c-0.5,0.2-0.9,0.5-1.2,0.9
			c-0.3,0.4-0.4,0.8-0.4,1.4C1223.2,131.5,1223.4,132,1223.7,132.4z M1218.1,118.7c-0.4-0.7,0-1.6,0.7-1.9c1-0.4,2.1-0.8,3.3-1.2
			c1.8-0.6,3.8-0.8,5.9-0.8c2,0,3.8,0.3,5.3,0.9c1.6,0.6,2.8,1.4,3.7,2.5c0.9,1.1,1.4,2.4,1.4,4v14.5c0,0.7-0.6,1.4-1.4,1.4h-4.4
			c-0.7,0-1.4-0.6-1.4-1.4v-12.9c0-0.6-0.1-1-0.3-1.4c-0.2-0.4-0.4-0.8-0.8-1.1c-0.4-0.3-0.8-0.5-1.3-0.6c-0.5-0.1-1.2-0.2-1.8-0.2
			c-1,0-2,0.1-3,0.3c-1,0.2-1.8,0.5-2.5,0.8c-0.2,0.1-0.3,0.1-0.4,0.2c-0.7,0.3-1.4,0-1.7-0.6L1218.1,118.7z"/>
		<path id="XMLID_51_" fill="#199DD9" d="M1242.2,131.5c0.9-0.9,2-1.3,3.3-1.3c1.4,0,2.5,0.4,3.3,1.3c0.8,0.9,1.3,1.9,1.3,3.2
			c0,1.2-0.4,2.3-1.3,3.2s-2,1.3-3.3,1.3c-1.3,0-2.4-0.4-3.3-1.3c-0.9-0.9-1.3-1.9-1.3-3.2C1240.9,133.4,1241.3,132.4,1242.2,131.5z
			"/>
		<path id="XMLID_47_" fill="#199DD9" d="M1252.9,146.7v-29.1c0-1.2,0.9-2.1,2.1-2.1h3.2c1.2,0,2.1,0.9,2.1,2.1v29.1
			c0,1.2-0.9,2.1-2.1,2.1h-3.2C1253.8,148.8,1252.9,147.9,1252.9,146.7z M1277.1,133.4c-1,1.8-2.4,3.2-4,4.1
			c-1.6,0.9-3.4,1.4-5.2,1.4c-2,0-3.7-0.5-5.1-1.5s-2.5-2.4-3.3-4.2c-0.8-1.8-1.1-3.9-1.1-6.3c0-2.5,0.4-4.6,1.1-6.4
			c0.8-1.8,1.8-3.2,3.3-4.2c1.4-1,3.1-1.5,5.1-1.5c1.9,0,3.6,0.5,5.2,1.4c1.6,0.9,2.9,2.3,4,4c1,1.8,1.5,4,1.5,6.6
			C1278.7,129.4,1278.2,131.6,1277.1,133.4z M1270.2,123.8c-0.5-0.8-1.1-1.4-2-1.9c-0.8-0.4-1.7-0.6-2.7-0.6c-0.9,0-1.7,0.2-2.5,0.6
			c-0.8,0.4-1.5,1-2,1.8c-0.5,0.8-0.8,1.8-0.8,3c0,1.2,0.3,2.2,0.8,3c0.5,0.8,1.2,1.4,2,1.8c0.8,0.4,1.6,0.6,2.5,0.6
			c1,0,1.9-0.2,2.7-0.6c0.8-0.4,1.5-1,2-1.9c0.5-0.8,0.7-1.8,0.7-3S1270.7,124.6,1270.2,123.8z"/>
		<path id="XMLID_45_" fill="#199DD9" d="M1290.6,102v33.9c0,1.2-1,2.1-2.1,2.1h-3.2c-1.2,0-2.1-1-2.1-2.1V102c0-1.2,1-2.1,2.1-2.1
			h3.2C1289.6,99.8,1290.6,100.8,1290.6,102z"/>
	</g>
	<path id="XMLID_35_" fill="#18457D" d="M602.9,298.3h5.5c1.4,0,2.4,1.4,1.8,2.7l-12.1,29.7c-0.6,1.5-2.8,1.7-3.6,0.2l-7.4-13.7
		c-0.7-1.4-2.7-1.4-3.5,0l-7.3,13.7c-0.8,1.5-2.9,1.4-3.6-0.2L560.7,301c-0.5-1.3,0.4-2.7,1.8-2.7h5.5c0.8,0,1.6,0.5,1.9,1.3
		l4.7,13.5c0.6,1.7,2.9,1.8,3.7,0.1l5.5-12.5c0.7-1.6,2.9-1.6,3.6,0l5.6,12.6c0.7,1.6,3.1,1.5,3.7-0.2l4.6-13.4
		C601.3,298.8,602.1,298.3,602.9,298.3z"/>
</g>
</svg>
