<?xml version="1.0" encoding="utf-8"?>
<!-- Generator: Adobe Illustrator 19.0.0, SVG Export Plug-In . SVG Version: 6.00 Build 0)  -->
<svg version="1.1" xmlns="http://www.w3.org/2000/svg" xmlns:xlink="http://www.w3.org/1999/xlink" x="0px" y="0px"
	 viewBox="0 0 342.3 54.7" enable-background="new 0 0 342.3 54.7" xml:space="preserve">
<g id="Layer_1">
	<rect id="XMLID_40_" x="-675.2" y="-214" fill="none" width="356" height="72.5"/>
	<text id="XMLID_41_" transform="matrix(1 0 0 1 -675.1667 -175.7594)"><tspan x="0" y="0" fill="#18457D" font-family="'Jost-Bold'" font-size="49px">Wykładowca</tspan><tspan x="292.6" y="0" fill="#199DD9" font-family="'Jost-Bold'" font-size="49px">.pl</tspan></text>
</g>
<g id="Layer_2">
	<g id="XMLID_43_">
		<path id="XMLID_78_" fill="#18457D" d="M45.6,7.1h5.5c1.4,0,2.4,1.4,1.8,2.7L40.7,39.5c-0.6,1.5-2.8,1.7-3.6,0.2L29.8,26
			c-0.7-1.4-2.7-1.4-3.5,0L19,39.7c-0.8,1.5-2.9,1.4-3.6-0.2L3.3,9.8C2.8,8.5,3.7,7.1,5.1,7.1h5.5c0.8,0,1.6,0.5,1.9,1.3l4.7,13.5
			c0.6,1.7,2.9,1.8,3.7,0.1l5.5-12.5c0.7-1.6,2.9-1.6,3.6,0L35.4,22c0.7,1.6,3.1,1.5,3.7-0.2l4.6-13.4C44,7.6,44.7,7.1,45.6,7.1z"/>
		<path id="XMLID_76_" fill="#18457D" d="M61.7,51.3h-4.3c-0.9,0-1.4-0.9-1.1-1.7l4.1-9.5c0.1-0.3,0.1-0.7,0-1l-8-17
			c-0.4-0.8,0.2-1.7,1.1-1.7h4.9c0.5,0,0.9,0.3,1.1,0.8l5.8,14.4c0.3,0.8-0.3,1.7-1.1,1.6l0,0c-0.8,0-1.4-0.9-1.1-1.6l5.7-14.4
			c0.2-0.5,0.6-0.8,1.1-0.8h4.4c0.9,0,1.4,0.9,1.1,1.7L62.8,50.6C62.6,51,62.2,51.3,61.7,51.3z"/>
		<path id="XMLID_73_" fill="#18457D" d="M86.3,4.3v36.1c0,0.6-0.5,1.1-1.1,1.1h-5c-0.6,0-1.1-0.5-1.1-1.1V4.3
			c0-0.6,0.5-1.1,1.1-1.1h5C85.9,3.3,86.3,3.7,86.3,4.3z M101.5,20.8l-7,6.8C94,28,94,28.6,94.3,29l8.6,10.8
			c0.6,0.7,0.1,1.7-0.8,1.7h-6c-0.3,0-0.6-0.1-0.8-0.4L85.5,29c-0.3-0.4-0.3-1,0.1-1.4l8.6-8.3c0.2-0.2,0.5-0.3,0.7-0.3h5.8
			C101.7,18.9,102.2,20.1,101.5,20.8z"/>
		<path id="XMLID_70_" fill="#18457D" d="M103.8,21.8l13.2-8.7c0.9-0.6,2.1-0.3,2.6,0.7l0.2,0.4c0.4,0.8,0.2,1.8-0.6,2.3L106,25.2
			c-0.9,0.6-2.1,0.3-2.6-0.7l-0.2-0.4C102.7,23.4,103,22.3,103.8,21.8z M115,5.1v34.6c0,1-0.8,1.8-1.8,1.8h-3.8
			c-1,0-1.8-0.8-1.8-1.8V5.1c0-1,0.8-1.8,1.8-1.8h3.8C114.2,3.3,115,4.1,115,5.1z"/>
		<path id="XMLID_67_" fill="#18457D" d="M127,35.9c0.3,0.4,0.7,0.7,1.2,0.9c0.5,0.2,1,0.3,1.6,0.3c0.8,0,1.6-0.2,2.4-0.5
			c0.7-0.4,1.3-0.9,1.8-1.6c0.5-0.7,0.7-1.6,0.7-2.6l0.7,2.7c0,0.2,0.1,0.3,0.1,0.5c0,1.3-0.4,2.5-1.2,3.4c-0.8,1-1.8,1.7-3,2.3
			c-1.2,0.5-2.6,0.8-4,0.8c-1.4,0-2.8-0.3-4-0.8c-1.2-0.5-2.2-1.3-2.9-2.4c-0.7-1.1-1.1-2.4-1.1-3.9c0-2.2,0.8-3.9,2.3-5.1
			c1.5-1.3,3.7-1.9,6.5-1.9c1.4,0,2.6,0.1,3.7,0.4c1.1,0.3,2,0.6,2.8,1c0.5,0.2,0.8,0.5,1.2,0.7c0.4,0.3,0.6,0.7,0.6,1.2v0
			c0,1.1-1.1,1.8-2.1,1.5c-0.2-0.1-0.4-0.2-0.7-0.2c-1-0.3-2.1-0.5-3.3-0.5c-0.9,0-1.6,0.1-2.1,0.3c-0.5,0.2-0.9,0.5-1.2,0.9
			c-0.3,0.4-0.4,0.8-0.4,1.4C126.5,35,126.7,35.5,127,35.9z M121.5,22.4c-0.4-0.8-0.1-1.8,0.8-2.1c0.9-0.4,2-0.7,3.1-1.1
			c1.8-0.6,3.8-0.8,5.9-0.8c2,0,3.8,0.3,5.3,0.9c1.6,0.6,2.8,1.4,3.7,2.5c0.9,1.1,1.4,2.4,1.4,4v14.3c0,0.9-0.7,1.5-1.5,1.5h-4
			c-0.9,0-1.5-0.7-1.5-1.5V27.3c0-0.6-0.1-1-0.3-1.4c-0.2-0.4-0.4-0.8-0.8-1.1c-0.4-0.3-0.8-0.5-1.3-0.6c-0.5-0.1-1.2-0.2-1.8-0.2
			c-1,0-2,0.1-3,0.3c-1,0.2-1.8,0.5-2.5,0.8c-0.1,0-0.2,0.1-0.3,0.1c-0.8,0.3-1.6,0-2-0.7L121.5,22.4z"/>
		<path id="XMLID_63_" fill="#18457D" d="M147.4,23.8c1-1.7,2.4-3.1,4-4c1.6-0.9,3.4-1.4,5.2-1.4c1.9,0,3.6,0.5,5,1.4
			c1.5,0.9,2.6,2.3,3.5,4c0.8,1.7,1.3,3.8,1.3,6.3c0,2.4-0.4,4.5-1.3,6.3c-0.8,1.8-2,3.1-3.5,4.1c-1.5,0.9-3.1,1.4-5,1.4
			c-1.8,0-3.6-0.5-5.2-1.4c-1.6-0.9-3-2.2-4-4c-1-1.7-1.5-3.9-1.5-6.4C145.9,27.7,146.4,25.5,147.4,23.8z M154.4,33.3
			c0.5,0.9,1.1,1.5,2,2c0.8,0.5,1.7,0.7,2.7,0.7c0.8,0,1.7-0.2,2.5-0.7c0.8-0.5,1.5-1.1,2-2c0.5-0.9,0.8-1.9,0.8-3.1
			c0-1.2-0.3-2.2-0.8-3.1c-0.5-0.9-1.2-1.5-2-2c-0.8-0.5-1.6-0.7-2.5-0.7c-1,0-1.9,0.2-2.7,0.7c-0.8,0.5-1.5,1.1-2,2
			c-0.5,0.9-0.7,1.9-0.7,3.1S153.9,32.4,154.4,33.3z M171.7,5.4v33.9c0,1.2-1,2.2-2.2,2.2h-3.1c-1.2,0-2.2-1-2.2-2.2V5.4
			c0-1.2,1-2.2,2.2-2.2h3.1C170.7,3.3,171.7,4.2,171.7,5.4z"/>
		<path id="XMLID_60_" fill="#18457D" d="M177.8,24c1.1-1.8,2.6-3.1,4.6-4.1s4.2-1.5,6.6-1.5c2.4,0,4.6,0.5,6.6,1.5
			c1.9,1,3.5,2.4,4.6,4.1c1.1,1.8,1.7,3.8,1.7,6.2c0,2.4-0.6,4.4-1.7,6.2c-1.1,1.8-2.7,3.1-4.6,4.1c-1.9,1-4.1,1.5-6.6,1.5
			c-2.5,0-4.7-0.5-6.6-1.5c-2-1-3.5-2.4-4.6-4.1c-1.1-1.8-1.7-3.8-1.7-6.2C176.1,27.8,176.7,25.8,177.8,24z M184.4,33.2
			c0.5,0.8,1.1,1.5,1.9,1.9c0.8,0.5,1.7,0.7,2.6,0.7c0.9,0,1.8-0.2,2.6-0.7c0.8-0.5,1.4-1.1,1.9-1.9s0.7-1.8,0.7-3s-0.2-2.2-0.7-3
			c-0.5-0.8-1.1-1.5-1.9-2c-0.8-0.5-1.7-0.7-2.6-0.7c-1,0-1.9,0.2-2.6,0.7c-0.8,0.5-1.4,1.1-1.9,2c-0.5,0.9-0.7,1.9-0.7,3
			S183.9,32.4,184.4,33.2z"/>
		<path id="XMLID_58_" fill="#18457D" d="M210.4,19.8l3.2,8c0.4,1.1,1.9,1.1,2.4,0.1l4-8.2c0.5-1,1.9-1,2.4,0l4.1,8.3
			c0.5,1,2,1,2.4-0.1l3.3-8c0.2-0.5,0.7-0.8,1.2-0.8h4.7c1,0,1.6,1,1.2,1.9l-9.6,19.8c-0.5,1-1.8,1-2.3,0.1l-5-9.1
			c-0.5-0.9-1.8-0.9-2.3,0l-4.9,9c-0.5,0.9-1.9,0.9-2.4-0.1l-9.6-19.7c-0.4-0.9,0.2-1.9,1.2-1.9h4.7
			C209.7,18.9,210.2,19.3,210.4,19.8z"/>
		<path id="XMLID_56_" fill="#18457D" d="M249.1,33.3c0.5,0.9,1.2,1.5,2.2,2c0.9,0.5,1.9,0.7,3,0.7c0.9,0,1.8-0.1,2.6-0.4
			c0.8-0.3,1.6-0.7,2.3-1.2c0.7-0.5,1.3-1.1,1.7-1.8l0,6.6c0,0.4-0.2,0.7-0.5,0.9c-0.7,0.5-1.5,0.9-2.5,1.2
			c-1.2,0.4-2.6,0.6-4.3,0.6c-2.5,0-4.7-0.5-6.7-1.5c-2-1-3.5-2.4-4.7-4.1c-1.1-1.8-1.7-3.8-1.7-6.2c0-2.4,0.6-4.5,1.7-6.2
			s2.7-3.1,4.7-4.1s4.2-1.5,6.7-1.5c1.7,0,3.1,0.2,4.3,0.6c0.9,0.3,1.7,0.6,2.4,1c0.4,0.2,0.6,0.6,0.6,1l0,3.9c0,0.9-1,1.5-1.8,1v0
			c-0.7-0.5-1.5-0.9-2.4-1.1c-0.8-0.3-1.7-0.4-2.5-0.4c-1.1,0-2.1,0.3-3,0.8c-0.9,0.5-1.7,1.2-2.2,2.1c-0.5,0.9-0.8,1.9-0.8,3
			C248.3,31.4,248.6,32.5,249.1,33.3z"/>
		<path id="XMLID_53_" fill="#18457D" d="M272.5,35.9c0.3,0.4,0.7,0.7,1.2,0.9c0.5,0.2,1,0.3,1.6,0.3c0.8,0,1.6-0.2,2.4-0.5
			c0.7-0.4,1.3-0.9,1.8-1.6c0.5-0.7,0.7-1.6,0.7-2.6l0.7,2.7c0,0.1,0.1,0.3,0.1,0.4c0,1.3-0.4,2.5-1.2,3.4c-0.8,1-1.8,1.7-3,2.3
			c-1.2,0.5-2.6,0.8-4,0.8s-2.8-0.3-4-0.8c-1.2-0.5-2.2-1.3-2.9-2.4c-0.7-1.1-1.1-2.4-1.1-3.9c0-2.2,0.8-3.9,2.3-5.1
			c1.5-1.3,3.7-1.9,6.5-1.9c1.4,0,2.6,0.1,3.7,0.4c1.1,0.3,2,0.6,2.8,1c0.5,0.2,0.9,0.5,1.2,0.8c0.3,0.3,0.5,0.7,0.5,1.1v0.4
			c0,1-1,1.6-1.9,1.2c-0.3-0.1-0.5-0.2-0.8-0.3c-1-0.3-2.1-0.5-3.3-0.5c-0.9,0-1.6,0.1-2.1,0.3c-0.5,0.2-0.9,0.5-1.2,0.9
			c-0.3,0.4-0.4,0.8-0.4,1.4C272,35,272.2,35.5,272.5,35.9z M266.9,22.2c-0.4-0.7,0-1.6,0.7-1.9c1-0.4,2.1-0.8,3.3-1.2
			c1.8-0.6,3.8-0.8,5.9-0.8c2,0,3.8,0.3,5.3,0.9c1.6,0.6,2.8,1.4,3.7,2.5c0.9,1.1,1.4,2.4,1.4,4v14.5c0,0.7-0.6,1.4-1.4,1.4h-4.4
			c-0.7,0-1.4-0.6-1.4-1.4V27.3c0-0.6-0.1-1-0.3-1.4c-0.2-0.4-0.4-0.8-0.8-1.1c-0.4-0.3-0.8-0.5-1.3-0.6c-0.5-0.1-1.2-0.2-1.8-0.2
			c-1,0-2,0.1-3,0.3c-1,0.2-1.8,0.5-2.5,0.8c-0.2,0.1-0.3,0.1-0.4,0.2c-0.7,0.3-1.4,0-1.7-0.6L266.9,22.2z"/>
		<path id="XMLID_51_" fill="#199DD9" d="M291.1,35c0.9-0.9,2-1.3,3.3-1.3c1.4,0,2.5,0.4,3.3,1.3c0.8,0.9,1.3,1.9,1.3,3.2
			c0,1.2-0.4,2.3-1.3,3.2s-2,1.3-3.3,1.3c-1.3,0-2.4-0.4-3.3-1.3c-0.9-0.9-1.3-1.9-1.3-3.2C289.7,36.9,290.2,35.9,291.1,35z"/>
		<path id="XMLID_47_" fill="#199DD9" d="M301.7,50.2V21.1c0-1.2,0.9-2.1,2.1-2.1h3.2c1.2,0,2.1,0.9,2.1,2.1v29.1
			c0,1.2-0.9,2.1-2.1,2.1h-3.2C302.6,52.3,301.7,51.4,301.7,50.2z M326,36.9c-1,1.8-2.4,3.2-4,4.1c-1.6,0.9-3.4,1.4-5.2,1.4
			c-2,0-3.7-0.5-5.1-1.5s-2.5-2.4-3.3-4.2c-0.8-1.8-1.1-3.9-1.1-6.3c0-2.5,0.4-4.6,1.1-6.4c0.8-1.8,1.8-3.2,3.3-4.2
			c1.4-1,3.1-1.5,5.1-1.5c1.9,0,3.6,0.5,5.2,1.4c1.6,0.9,2.9,2.3,4,4c1,1.8,1.5,4,1.5,6.6C327.5,32.9,327,35.1,326,36.9z M319,27.3
			c-0.5-0.8-1.1-1.4-2-1.9c-0.8-0.4-1.7-0.6-2.7-0.6c-0.9,0-1.7,0.2-2.5,0.6c-0.8,0.4-1.5,1-2,1.8c-0.5,0.8-0.8,1.8-0.8,3
			c0,1.2,0.3,2.2,0.8,3c0.5,0.8,1.2,1.4,2,1.8c0.8,0.4,1.6,0.6,2.5,0.6c1,0,1.9-0.2,2.7-0.6c0.8-0.4,1.5-1,2-1.9
			c0.5-0.8,0.7-1.8,0.7-3S319.5,28.1,319,27.3z"/>
		<path id="XMLID_45_" fill="#199DD9" d="M339.4,5.5v33.9c0,1.2-1,2.1-2.1,2.1h-3.2c-1.2,0-2.1-1-2.1-2.1V5.5c0-1.2,1-2.1,2.1-2.1
			h3.2C338.5,3.3,339.4,4.3,339.4,5.5z"/>
	</g>
</g>
</svg>
