<svg width="62" height="70" viewBox="0 0 62 70" fill="none" xmlns="http://www.w3.org/2000/svg">
<path d="M1 20.8906V49.1093C1 51.1914 2.11536 53.0875 3.89995 54.1285L28.3264 68.2192C30.111 69.2602 32.3417 69.2602 34.1263 68.2192L58.5528 54.1285C60.3373 53.0875 61.4527 51.1914 61.4527 49.1093V20.8906C61.4527 18.8086 60.3373 16.9125 58.5528 15.8715L34.1263 1.78075C32.3417 0.739748 30.111 0.739748 28.3264 1.78075L3.89995 15.8715C2.11536 16.9125 1 18.8458 1 20.8906Z" stroke="#139A74" stroke-width="1.11536" stroke-miterlimit="10"/>
<path d="M31.2268 66.6945C29.9999 66.6945 28.773 66.397 27.6948 65.765L6.39136 53.4588C4.19781 52.1948 2.85938 49.8525 2.85938 47.3243V22.712C2.85938 20.1838 4.23499 17.8416 6.39136 16.5775L27.6948 4.2713C29.8884 3.00722 32.6024 3.00722 34.796 4.2713L56.0994 16.5775C58.2929 17.8416 59.6314 20.1838 59.6314 22.712V47.2872C59.6314 49.8153 58.2558 52.1576 56.0994 53.4217L34.796 65.7278C33.6806 66.3599 32.4537 66.6945 31.2268 66.6945ZM31.2268 5.90717C30.446 5.90717 29.6653 6.09306 28.9961 6.50203L7.69262 18.8082C6.317 19.6261 5.46189 21.1133 5.46189 22.712V47.2872C5.46189 48.8858 6.317 50.373 7.69262 51.1909L28.9961 63.4971C30.3717 64.315 32.1191 64.315 33.4947 63.4971L54.7981 51.1909C56.1738 50.373 57.0289 48.8858 57.0289 47.2872V22.712C57.0289 21.1133 56.1738 19.6261 54.7981 18.8082L33.4575 6.50203C32.7883 6.13024 32.0075 5.90717 31.2268 5.90717Z" fill="#139A74"/>
<path d="M14.5723 36.2084C15.6133 36.4686 16.2825 37.5468 16.2825 37.5468C16.2825 37.5468 15.2415 38.1788 14.1633 37.9186C13.1223 37.6583 12.4531 36.5802 12.4531 36.5802C12.4531 36.5802 13.4941 35.9481 14.5723 36.2084Z" fill="#38A169"/>
<path d="M17.3968 35.6876C17.5455 34.5723 16.8019 33.5312 16.8019 33.5312C16.8019 33.5312 15.8353 34.312 15.6866 35.4274C15.5379 36.5427 16.2443 37.5837 16.2443 37.5837C16.2443 37.5837 17.2109 36.803 17.3968 35.6876Z" fill="#38A169"/>
<path d="M13.1954 32.8245C14.1993 33.2334 14.6826 34.4231 14.6826 34.4231C14.6826 34.4231 13.53 34.9065 12.5262 34.4975C11.5224 34.0885 11.0391 32.8988 11.0391 32.8988C11.0391 32.8988 12.1916 32.4155 13.1954 32.8245Z" fill="#38A169"/>
<path d="M16.0591 32.7131C16.3566 31.6349 15.7989 30.5195 15.7989 30.5195C15.7989 30.5195 14.7207 31.1516 14.4233 32.2298C14.1258 33.3079 14.6835 34.4233 14.6835 34.4233C14.6835 34.4233 15.7617 33.7913 16.0591 32.7131Z" fill="#38A169"/>
<path d="M12.7871 28.9204C13.6794 29.5896 13.8653 30.8537 13.8653 30.8537C13.8653 30.8537 12.6384 31.0396 11.7833 30.3704C10.891 29.7012 10.7051 28.4371 10.7051 28.4371C10.7051 28.4371 11.8948 28.2884 12.7871 28.9204Z" fill="#38A169"/>
<path d="M15.6127 29.5529C16.1704 28.5863 15.9102 27.3594 15.9102 27.3594C15.9102 27.3594 14.7205 27.694 14.1628 28.6606C13.6051 29.6273 13.8653 30.8542 13.8653 30.8542C13.8653 30.8542 15.0551 30.5196 15.6127 29.5529Z" fill="#38A169"/>
<path d="M13.2321 25.7983C13.8641 26.5047 13.8269 27.5829 13.8269 27.5829C13.8269 27.5829 12.7859 27.5086 12.1539 26.8022C11.5218 26.0958 11.559 25.0176 11.559 25.0176C11.559 25.0176 12.6 25.0919 13.2321 25.7983Z" fill="#38A169"/>
<path d="M15.4625 26.8022C16.0946 26.0958 16.0574 25.0176 16.0574 25.0176C16.0574 25.0176 15.0164 25.0919 14.3843 25.7983C13.7523 26.5047 13.7895 27.5829 13.7895 27.5829C13.7895 27.5829 14.8305 27.5086 15.4625 26.8022Z" fill="#38A169"/>
<path d="M14.3864 22.638C14.7953 23.4931 14.4979 24.5341 14.4979 24.5341C14.4979 24.5341 13.4941 24.1995 13.0851 23.3444C12.6762 22.4892 12.9736 21.4482 12.9736 21.4482C12.9736 21.4482 13.9774 21.7829 14.3864 22.638Z" fill="#38A169"/>
<path d="M16.3198 24.237C17.1006 23.7165 17.3608 22.6754 17.3608 22.6754C17.3608 22.6754 16.3198 22.4524 15.5391 22.9729C14.7583 23.4934 14.498 24.5344 14.498 24.5344C14.498 24.5344 15.5391 24.7575 16.3198 24.237Z" fill="#38A169"/>
<path d="M16.0585 20.1469C16.2444 20.9276 15.7611 21.7084 15.7611 21.7084C15.7611 21.7084 15.0175 21.2251 14.8316 20.4443C14.6457 19.6636 15.129 18.8828 15.129 18.8828C15.129 18.8828 15.8726 19.3661 16.0585 20.1469Z" fill="#38A169"/>
<path d="M17.286 21.8574C18.0296 21.5972 18.4386 20.8164 18.4386 20.8164C18.4386 20.8164 17.6578 20.4075 16.9143 20.6677C16.1707 20.928 15.7617 21.7087 15.7617 21.7087C15.7617 21.7087 16.5425 22.0805 17.286 21.8574Z" fill="#38A169"/>
<path d="M17.7695 18.2884C17.7695 18.9576 17.2862 19.5153 17.2862 19.5153C17.2862 19.5153 16.7657 18.9576 16.7285 18.2884C16.7285 17.6192 17.2118 17.0615 17.2118 17.0615C17.2118 17.0615 17.7323 17.6192 17.7695 18.2884Z" fill="#38A169"/>
<path d="M18.514 19.9239C19.1832 19.8495 19.6294 19.2546 19.6294 19.2546C19.6294 19.2546 19.0345 18.7713 18.4025 18.8457C17.7333 18.92 17.2871 19.5149 17.2871 19.5149C17.2871 19.5149 17.8448 19.9982 18.514 19.9239Z" fill="#38A169"/>
<path d="M19.3307 17.1728C19.2563 17.6933 18.773 18.0651 18.773 18.0651C18.773 18.0651 18.4384 17.5817 18.5127 17.0612C18.5871 16.5407 19.0704 16.1689 19.0704 16.1689C19.0704 16.1689 19.4422 16.6523 19.3307 17.1728Z" fill="#38A169"/>
<path d="M19.7028 18.5489C20.2233 18.5861 20.6695 18.1771 20.6695 18.1771C20.6695 18.1771 20.2605 17.731 19.7772 17.6938C19.2567 17.6566 18.8105 18.0656 18.8105 18.0656C18.8105 18.0656 19.1823 18.5117 19.7028 18.5489Z" fill="#38A169"/>
<path d="M20.7065 17.0617C20.3719 17.2476 19.9258 17.1361 19.9258 17.1361C19.9258 17.1361 20.0373 16.6899 20.3719 16.504C20.7065 16.3181 21.1527 16.4297 21.1527 16.4297C21.1527 16.4297 21.0411 16.8758 20.7065 17.0617Z" fill="#38A169"/>
<path d="M47.8841 36.2084C46.843 36.4686 46.1738 37.5468 46.1738 37.5468C46.1738 37.5468 47.2148 38.1788 48.293 37.9186C49.334 37.6583 50.0032 36.5802 50.0032 36.5802C50.0032 36.5802 48.9622 35.9481 47.8841 36.2084Z" fill="#38A169"/>
<path d="M45.0577 35.6876C44.909 34.5723 45.6154 33.5312 45.6154 33.5312C45.6154 33.5312 46.582 34.312 46.7307 35.4274C46.8794 36.5427 46.173 37.5837 46.173 37.5837C46.173 37.5837 45.2064 36.803 45.0577 35.6876Z" fill="#38A169"/>
<path d="M49.2586 32.8245C48.2548 33.2334 47.7715 34.4231 47.7715 34.4231C47.7715 34.4231 48.924 34.9065 49.9279 34.4975C50.9317 34.0885 51.415 32.8988 51.415 32.8988C51.415 32.8988 50.2625 32.4155 49.2586 32.8245Z" fill="#38A169"/>
<path d="M46.3588 32.7131C46.0614 31.6349 46.6191 30.5195 46.6191 30.5195C46.6191 30.5195 47.6973 31.1516 47.9947 32.2298C48.2921 33.3079 47.7344 34.4233 47.7344 34.4233C47.7344 34.4233 46.6934 33.7913 46.3588 32.7131Z" fill="#38A169"/>
<path d="M49.668 28.9204C48.7757 29.5896 48.5898 30.8537 48.5898 30.8537C48.5898 30.8537 49.8167 31.0396 50.6719 30.3704C51.5641 29.7012 51.75 28.4371 51.75 28.4371C51.75 28.4371 50.5231 28.2884 49.668 28.9204Z" fill="#38A169"/>
<path d="M46.8425 29.5529C46.2848 28.5863 46.545 27.3594 46.545 27.3594C46.545 27.3594 47.7347 27.694 48.2924 28.6606C48.8501 29.6273 48.5899 30.8542 48.5899 30.8542C48.5899 30.8542 47.4001 30.5196 46.8425 29.5529Z" fill="#38A169"/>
<path d="M49.2222 25.7983C48.5902 26.5047 48.6274 27.5829 48.6274 27.5829C48.6274 27.5829 49.6684 27.5086 50.3004 26.8022C50.9324 26.0958 50.8953 25.0176 50.8953 25.0176C50.8953 25.0176 49.8543 25.0919 49.2222 25.7983Z" fill="#38A169"/>
<path d="M46.9918 26.8022C46.3597 26.0958 46.3969 25.0176 46.3969 25.0176C46.3969 25.0176 47.4379 25.0919 48.0699 25.7983C48.702 26.5047 48.6648 27.5829 48.6648 27.5829C48.6648 27.5829 47.6238 27.5086 46.9918 26.8022Z" fill="#38A169"/>
<path d="M48.0324 22.638C47.6234 23.4931 47.9209 24.5341 47.9209 24.5341C47.9209 24.5341 48.9247 24.1995 49.3336 23.3444C49.7426 22.4892 49.4452 21.4482 49.4452 21.4482C49.4452 21.4482 48.4785 21.7829 48.0324 22.638Z" fill="#38A169"/>
<path d="M46.1367 24.237C45.356 23.7165 45.0957 22.6754 45.0957 22.6754C45.0957 22.6754 46.1367 22.4524 46.9175 22.9729C47.6982 23.4934 47.9585 24.5344 47.9585 24.5344C47.9585 24.5344 46.9175 24.7575 46.1367 24.237Z" fill="#38A169"/>
<path d="M46.3941 20.1469C46.2082 20.9276 46.6916 21.7084 46.6916 21.7084C46.6916 21.7084 47.4351 21.2251 47.621 20.4443C47.8069 19.6636 47.3236 18.8828 47.3236 18.8828C47.3236 18.8828 46.58 19.3661 46.3941 20.1469Z" fill="#38A169"/>
<path d="M45.1682 21.8574C44.4246 21.5972 44.0156 20.8164 44.0156 20.8164C44.0156 20.8164 44.7964 20.4075 45.54 20.6677C46.2835 20.928 46.6925 21.7087 46.6925 21.7087C46.6925 21.7087 45.9117 22.0805 45.1682 21.8574Z" fill="#38A169"/>
<path d="M44.6855 18.2884C44.6855 18.9576 45.1689 19.5153 45.1689 19.5153C45.1689 19.5153 45.6894 18.9576 45.7266 18.2884C45.7266 17.6192 45.2432 17.0615 45.2432 17.0615C45.2432 17.0615 44.6855 17.6192 44.6855 18.2884Z" fill="#38A169"/>
<path d="M43.9415 19.9239C43.2723 19.8495 42.8262 19.2546 42.8262 19.2546C42.8262 19.2546 43.421 18.7713 44.0531 18.8457C44.7223 18.92 45.1684 19.5149 45.1684 19.5149C45.1684 19.5149 44.6108 19.9982 43.9415 19.9239Z" fill="#38A169"/>
<path d="M43.087 17.1728C43.1613 17.6933 43.6446 18.0651 43.6446 18.0651C43.6446 18.0651 43.9792 17.5817 43.9049 17.0612C43.8305 16.5407 43.3472 16.1689 43.3472 16.1689C43.3472 16.1689 43.0126 16.6523 43.087 17.1728Z" fill="#38A169"/>
<path d="M42.7518 18.5479C42.2313 18.5851 41.7852 18.1761 41.7852 18.1761C41.7852 18.1761 42.1941 17.73 42.6774 17.6928C43.198 17.6556 43.6441 18.0646 43.6441 18.0646C43.6441 18.0646 43.2723 18.5108 42.7518 18.5479Z" fill="#38A169"/>
<path d="M41.7489 17.0617C42.0835 17.2476 42.5296 17.1361 42.5296 17.1361C42.5296 17.1361 42.4181 16.6899 42.0835 16.504C41.7489 16.3181 41.3027 16.4297 41.3027 16.4297C41.3027 16.4297 41.4143 16.8758 41.7489 17.0617Z" fill="#38A169"/>
<path d="M57.9945 37.249H4.45703V49.1462H57.9945V37.249Z" fill="#139A74"/>
<path d="M19.7163 42.1902C19.6625 42.0258 19.5917 41.8784 19.5038 41.7482C19.4175 41.6163 19.3141 41.5039 19.1936 41.4111C19.0748 41.3183 18.9396 41.2475 18.7882 41.1986C18.6368 41.1498 18.4707 41.1254 18.29 41.1254C17.9936 41.1254 17.7242 41.2019 17.4816 41.355C17.239 41.508 17.046 41.7335 16.9028 42.0315C16.7595 42.3294 16.6878 42.6949 16.6878 43.128C16.6878 43.5611 16.7603 43.9267 16.9052 44.2246C17.0501 44.5226 17.2463 44.7481 17.4938 44.9011C17.7413 45.0542 18.0197 45.1307 18.329 45.1307C18.6156 45.1307 18.868 45.0696 19.0861 44.9475C19.306 44.8238 19.4769 44.6496 19.599 44.4249C19.7228 44.1986 19.7846 43.9323 19.7846 43.6263L19.9702 43.6653H18.4658V43.128H20.3708V43.6653C20.3708 44.0773 20.2829 44.4355 20.107 44.7399C19.9328 45.0444 19.6918 45.2805 19.3841 45.4482C19.078 45.6143 18.7263 45.6973 18.329 45.6973C17.8862 45.6973 17.4971 45.5931 17.1616 45.3847C16.8279 45.1763 16.5674 44.8799 16.3801 44.4957C16.1945 44.1114 16.1017 43.6556 16.1017 43.128C16.1017 42.7324 16.1546 42.3766 16.2605 42.0608C16.3679 41.7433 16.5193 41.473 16.7147 41.2499C16.9101 41.0269 17.1413 40.8559 17.4083 40.7371C17.6753 40.6182 17.9692 40.5588 18.29 40.5588C18.5537 40.5588 18.7996 40.5987 19.0275 40.6784C19.2571 40.7566 19.4614 40.8681 19.6405 41.013C19.8213 41.1563 19.9719 41.3281 20.0924 41.5284C20.2128 41.727 20.2959 41.9476 20.3415 42.1902H19.7163ZM22.0959 45.6289V40.6272H25.1145V41.1645H22.7015V42.8545H24.9582V43.3918H22.7015V45.0916H25.1536V45.6289H22.0959ZM26.8939 45.6289V40.6272H29.9126V41.1645H27.4996V42.8545H29.7563V43.3918H27.4996V45.0916H29.9516V45.6289H26.8939ZM31.692 45.6289V40.6272H32.2977V43.1085H32.3563L34.6032 40.6272H35.3945L33.2941 42.8838L35.3945 45.6289H34.6618L32.9229 43.3039L32.2977 44.0072V45.6289H31.692ZM39.6015 41.8776C39.5722 41.6301 39.4533 41.438 39.2449 41.3012C39.0365 41.1645 38.7809 41.0961 38.4781 41.0961C38.2566 41.0961 38.0629 41.1319 37.8968 41.2035C37.7324 41.2752 37.6037 41.3737 37.5109 41.499C37.4198 41.6244 37.3742 41.7669 37.3742 41.9264C37.3742 42.0599 37.4059 42.1747 37.4694 42.2708C37.5345 42.3652 37.6176 42.4442 37.7185 42.5077C37.8195 42.5696 37.9253 42.6209 38.036 42.6616C38.1467 42.7006 38.2485 42.7324 38.3413 42.7568L38.8493 42.8936C38.9795 42.9278 39.1244 42.975 39.284 43.0352C39.4452 43.0955 39.5991 43.1777 39.7456 43.2819C39.8938 43.3845 40.0159 43.5164 40.1119 43.6775C40.208 43.8387 40.256 44.0366 40.256 44.271C40.256 44.5413 40.1852 44.7855 40.0436 45.0037C39.9035 45.2219 39.6984 45.3953 39.4281 45.5239C39.1595 45.6525 38.833 45.7168 38.4488 45.7168C38.0906 45.7168 37.7804 45.659 37.5183 45.5434C37.2577 45.4278 37.0526 45.2666 36.9028 45.0599C36.7546 44.8531 36.6708 44.6129 36.6513 44.3394H37.2765C37.2928 44.5283 37.3563 44.6846 37.467 44.8083C37.5793 44.9304 37.721 45.0216 37.8919 45.0818C38.0645 45.1405 38.2501 45.1698 38.4488 45.1698C38.68 45.1698 38.8875 45.1323 39.0715 45.0574C39.2555 44.9809 39.4012 44.8751 39.5087 44.7399C39.6162 44.6032 39.6699 44.4436 39.6699 44.2612C39.6699 44.0952 39.6235 43.96 39.5307 43.8558C39.4379 43.7516 39.3158 43.667 39.1643 43.6018C39.0129 43.5367 38.8493 43.4797 38.6734 43.4309L38.058 43.255C37.6672 43.1427 37.3579 42.9823 37.1299 42.7739C36.902 42.5655 36.788 42.2928 36.788 41.9557C36.788 41.6757 36.8637 41.4315 37.0151 41.2231C37.1682 41.013 37.3733 40.8502 37.6306 40.7346C37.8895 40.6174 38.1785 40.5588 38.4976 40.5588C38.82 40.5588 39.1065 40.6166 39.3573 40.7322C39.608 40.8461 39.8067 41.0025 39.9532 41.2011C40.1014 41.3997 40.1795 41.6252 40.1876 41.8776H39.6015ZM47.844 40.6272H48.4497V43.9389C48.4497 44.2808 48.3691 44.5861 48.2079 44.8547C48.0483 45.1217 47.8228 45.3326 47.5314 45.4873C47.24 45.6403 46.898 45.7168 46.5057 45.7168C46.1133 45.7168 45.7713 45.6403 45.4799 45.4873C45.1885 45.3326 44.9621 45.1217 44.801 44.8547C44.6414 44.5861 44.5616 44.2808 44.5616 43.9389V40.6272H45.1673V43.89C45.1673 44.1342 45.221 44.3516 45.3285 44.5421C45.4359 44.731 45.589 44.8799 45.7876 44.989C45.9879 45.0965 46.2272 45.1502 46.5057 45.1502C46.7841 45.1502 47.0234 45.0965 47.2237 44.989C47.4239 44.8799 47.577 44.731 47.6828 44.5421C47.7903 44.3516 47.844 44.1342 47.844 43.89V40.6272ZM50.9526 40.6272V45.6289H50.347V40.6272H50.9526Z" fill="white"/>
<path d="M26.0958 13.1941L26.3933 13.789C26.4676 13.9005 26.6163 13.9005 26.6907 13.789L26.9881 13.1941C27.0253 13.157 27.0625 13.1198 27.0997 13.1198L27.7689 13.0454C27.9176 13.0454 27.9548 12.8595 27.8432 12.7852L27.3599 12.3018C27.3227 12.2647 27.3227 12.2275 27.3227 12.1531L27.4343 11.5211C27.4714 11.3724 27.3227 11.298 27.2112 11.3352L26.6163 11.6326C26.5792 11.6698 26.5048 11.6698 26.4676 11.6326L25.8728 11.3352C25.7612 11.2608 25.6125 11.3724 25.6497 11.5211L25.7612 12.1903C25.7612 12.2275 25.7612 12.3018 25.724 12.339L25.2407 12.7108C25.1292 12.7852 25.2035 12.9711 25.3151 12.9711L25.9843 13.0826C26.0215 13.1198 26.0587 13.157 26.0958 13.1941Z" fill="#139A74"/>
<path d="M30.7794 11.4842L31.0769 12.079C31.1512 12.1906 31.2999 12.1906 31.3743 12.079L31.6717 11.4842C31.7089 11.447 31.7461 11.4098 31.7833 11.4098L32.4525 11.3355C32.6012 11.3355 32.6384 11.1496 32.5268 11.0752L32.0435 10.5919C32.0063 10.5547 32.0063 10.5175 32.0063 10.4432L32.1179 9.81112C32.155 9.66241 32.0063 9.58805 31.8948 9.62523L31.2999 9.92266C31.2628 9.95984 31.1884 9.95984 31.1512 9.92266L30.5564 9.62523C30.4448 9.55087 30.2961 9.66241 30.3333 9.81112L30.4448 10.4803C30.4448 10.5175 30.4448 10.5919 30.4076 10.6291L29.9243 11.0752C29.8128 11.1496 29.8871 11.3355 29.9987 11.3355L30.6679 11.447C30.7051 11.4098 30.7422 11.447 30.7794 11.4842Z" fill="#139A74"/>
<path d="M35.465 13.1941L35.7624 13.789C35.8368 13.9005 35.9855 13.9005 36.0598 13.789L36.3573 13.1941C36.3944 13.157 36.4316 13.1198 36.4688 13.1198L37.138 13.0454C37.2867 13.0454 37.3239 12.8595 37.2124 12.7852L36.7291 12.3018C36.6919 12.2647 36.6919 12.2275 36.6919 12.1531L36.8034 11.5211C36.8406 11.3724 36.6919 11.298 36.5803 11.3352L35.9855 11.6326C35.9483 11.6698 35.8739 11.6698 35.8368 11.6326L35.2419 11.3352C35.1304 11.2608 34.9816 11.3724 35.0188 11.5211L35.1304 12.1903C35.1304 12.2275 35.1304 12.3018 35.0932 12.339L34.6099 12.7108C34.4983 12.7852 34.5727 12.9711 34.6842 12.9711L35.3534 13.0826C35.3906 13.1198 35.465 13.157 35.465 13.1941Z" fill="#139A74"/>
<path d="M10.5918 50.7822L28.9581 61.3782C30.3709 62.1961 32.0811 62.1961 33.4568 61.3782L51.8231 50.7822H10.5918Z" fill="#38A169"/>
<path d="M36.3572 55.95L36.0597 55.3551C35.9854 55.2436 35.8367 55.2436 35.7623 55.3551L35.4649 55.95C35.4277 55.9872 35.3905 56.0244 35.3534 56.0244L34.6841 56.0987C34.5354 56.0987 34.4982 56.2846 34.6098 56.359L35.0931 56.8423C35.1303 56.8795 35.1303 56.9166 35.1303 56.991L35.0187 57.623C34.9816 57.7718 35.1303 57.8461 35.2418 57.8089L35.8367 57.5115C35.8739 57.4743 35.9482 57.4743 35.9854 57.5115L36.5802 57.8089C36.6918 57.8833 36.8405 57.7718 36.8033 57.623L36.6918 56.9538C36.6918 56.9166 36.6918 56.8423 36.729 56.8051L37.2123 56.359C37.3238 56.2846 37.2495 56.0987 37.1379 56.0987L36.4687 55.9872C36.4315 56.0615 36.3944 56.0244 36.3572 55.95Z" fill="white"/>
<path d="M31.6716 57.66L31.3742 57.0651C31.2998 56.9536 31.1511 56.9536 31.0768 57.0651L30.7793 57.66C30.7422 57.6971 30.705 57.7343 30.6678 57.7343L29.9986 57.8087C29.8499 57.8087 29.8127 57.9946 29.9242 58.0689L30.4076 58.5522C30.4447 58.5894 30.4447 58.6266 30.4447 58.701L30.3332 59.333C30.296 59.4817 30.4447 59.5561 30.5563 59.5189L31.1511 59.2215C31.1883 59.1843 31.2627 59.1843 31.2998 59.2215L31.8947 59.5189C32.0062 59.5933 32.155 59.4817 32.1178 59.333L32.0062 58.6638C32.0062 58.6266 32.0062 58.5522 32.0434 58.5151L32.5267 58.0689C32.6383 57.9946 32.5639 57.8087 32.4524 57.8087L31.7832 57.6971C31.746 57.7343 31.6716 57.7343 31.6716 57.66Z" fill="white"/>
<path d="M26.988 55.95L26.6906 55.3551C26.6162 55.2436 26.4675 55.2436 26.3932 55.3551L26.0957 55.95C26.0586 55.9872 26.0214 56.0244 25.9842 56.0244L25.315 56.0987C25.1663 56.0987 25.1291 56.2846 25.2406 56.359L25.724 56.8423C25.7611 56.8795 25.7611 56.9166 25.7611 56.991L25.6496 57.623C25.6124 57.7718 25.7611 57.8461 25.8727 57.8089L26.4675 57.5115C26.5047 57.4743 26.5791 57.4743 26.6162 57.5115L27.2111 57.8089C27.3226 57.8833 27.4714 57.7718 27.4342 57.623L27.3226 56.9538C27.3226 56.9166 27.3226 56.8423 27.3598 56.8051L27.8431 56.359C27.9547 56.2846 27.8803 56.0987 27.7688 56.0987L27.0996 55.9872C27.0252 56.0615 26.988 56.0244 26.988 55.95Z" fill="white"/>
<path d="M25.1997 52.7005C25.1875 52.5973 25.138 52.5172 25.0511 52.4601C24.9642 52.4031 24.8576 52.3746 24.7313 52.3746C24.639 52.3746 24.5582 52.3895 24.4889 52.4194C24.4204 52.4493 24.3667 52.4903 24.328 52.5426C24.29 52.5949 24.271 52.6543 24.271 52.7208C24.271 52.7765 24.2842 52.8244 24.3107 52.8644C24.3379 52.9038 24.3725 52.9367 24.4146 52.9632C24.4567 52.989 24.5008 53.0104 24.547 53.0274C24.5931 53.0436 24.6356 53.0569 24.6743 53.0671L24.8861 53.1241C24.9404 53.1384 25.0008 53.158 25.0674 53.1832C25.1346 53.2083 25.1987 53.2426 25.2598 53.286C25.3216 53.3288 25.3725 53.3838 25.4126 53.451C25.4526 53.5182 25.4727 53.6007 25.4727 53.6984C25.4727 53.8111 25.4431 53.913 25.3841 54.004C25.3257 54.0949 25.2401 54.1672 25.1274 54.2209C25.0154 54.2745 24.8793 54.3013 24.7191 54.3013C24.5697 54.3013 24.4404 54.2772 24.3311 54.229C24.2225 54.1808 24.1369 54.1136 24.0745 54.0274C24.0127 53.9412 23.9777 53.841 23.9696 53.727H24.2303C24.2371 53.8057 24.2635 53.8709 24.3097 53.9225C24.3565 53.9734 24.4156 54.0114 24.4869 54.0365C24.5589 54.061 24.6363 54.0732 24.7191 54.0732C24.8155 54.0732 24.902 54.0576 24.9788 54.0264C25.0555 53.9944 25.1162 53.9503 25.161 53.894C25.2059 53.8369 25.2283 53.7704 25.2283 53.6944C25.2283 53.6251 25.2089 53.5688 25.1702 53.5253C25.1315 53.4819 25.0806 53.4466 25.0175 53.4194C24.9543 53.3923 24.8861 53.3685 24.8128 53.3481L24.5561 53.2748C24.3932 53.228 24.2642 53.1611 24.1692 53.0742C24.0741 52.9873 24.0266 52.8736 24.0266 52.733C24.0266 52.6163 24.0582 52.5144 24.1213 52.4275C24.1851 52.34 24.2707 52.2721 24.3779 52.2239C24.4859 52.175 24.6064 52.1506 24.7394 52.1506C24.8739 52.1506 24.9934 52.1747 25.0979 52.2229C25.2025 52.2704 25.2853 52.3356 25.3464 52.4184C25.4082 52.5012 25.4408 52.5952 25.4441 52.7005H25.1997ZM25.8553 54.2646V52.7005H26.0956V54.2646H25.8553ZM25.9775 52.4398C25.9307 52.4398 25.8903 52.4238 25.8563 52.3919C25.8231 52.36 25.8064 52.3216 25.8064 52.2768C25.8064 52.232 25.8231 52.1937 25.8563 52.1618C25.8903 52.1298 25.9307 52.1139 25.9775 52.1139C26.0244 52.1139 26.0644 52.1298 26.0977 52.1618C26.1316 52.1937 26.1486 52.232 26.1486 52.2768C26.1486 52.3216 26.1316 52.36 26.0977 52.3919C26.0644 52.4238 26.0244 52.4398 25.9775 52.4398ZM26.7761 53.3237V54.2646H26.5358V52.7005H26.768V52.9449H26.7884C26.825 52.8654 26.8807 52.8016 26.9554 52.7534C27.0301 52.7045 27.1265 52.6801 27.2446 52.6801C27.3505 52.6801 27.4432 52.7018 27.5226 52.7453C27.602 52.788 27.6638 52.8532 27.7079 52.9408C27.7521 53.0277 27.7741 53.1377 27.7741 53.2707V54.2646H27.5338V53.287C27.5338 53.1642 27.5019 53.0684 27.4381 52.9999C27.3743 52.9306 27.2867 52.896 27.1753 52.896C27.0986 52.896 27.0301 52.9126 26.9696 52.9459C26.9099 52.9792 26.8627 53.0277 26.8281 53.0915C26.7935 53.1553 26.7761 53.2327 26.7761 53.3237ZM28.8487 54.2972C28.7021 54.2972 28.5758 54.2626 28.4699 54.1934C28.364 54.1241 28.2825 54.0287 28.2255 53.9072C28.1685 53.7857 28.14 53.6468 28.14 53.4907C28.14 53.3318 28.1692 53.1916 28.2276 53.0701C28.2866 52.9479 28.3688 52.8525 28.474 52.784C28.5799 52.7147 28.7035 52.6801 28.8447 52.6801C28.9547 52.6801 29.0538 52.7005 29.142 52.7412C29.2303 52.7819 29.3026 52.839 29.3589 52.9123C29.4153 52.9856 29.4503 53.0711 29.4638 53.1689H29.2235C29.2052 53.0976 29.1644 53.0345 29.1013 52.9795C29.0388 52.9238 28.9547 52.896 28.8487 52.896C28.7551 52.896 28.6729 52.9204 28.6023 52.9693C28.5324 53.0175 28.4777 53.0857 28.4384 53.174C28.3997 53.2616 28.3803 53.3644 28.3803 53.4826C28.3803 53.6034 28.3993 53.7086 28.4373 53.7982C28.476 53.8879 28.5303 53.9574 28.6003 54.007C28.6709 54.0566 28.7537 54.0813 28.8487 54.0813C28.9112 54.0813 28.9679 54.0705 29.0188 54.0488C29.0697 54.027 29.1128 53.9958 29.1481 53.9551C29.1834 53.9143 29.2086 53.8655 29.2235 53.8084H29.4638C29.4503 53.9008 29.4166 53.9839 29.363 54.0579C29.3101 54.1312 29.2398 54.1896 29.1522 54.2331C29.0653 54.2759 28.9642 54.2972 28.8487 54.2972ZM30.471 54.2972C30.3203 54.2972 30.1903 54.264 30.081 54.1974C29.9723 54.1302 29.8885 54.0365 29.8294 53.9164C29.771 53.7955 29.7418 53.655 29.7418 53.4948C29.7418 53.3346 29.771 53.1933 29.8294 53.0711C29.8885 52.9483 29.9706 52.8525 30.0759 52.784C30.1818 52.7147 30.3053 52.6801 30.4465 52.6801C30.528 52.6801 30.6085 52.6937 30.6879 52.7208C30.7673 52.748 30.8396 52.7921 30.9048 52.8532C30.97 52.9136 31.0219 52.9937 31.0606 53.0935C31.0993 53.1933 31.1186 53.3162 31.1186 53.4622V53.564H29.9129V53.3563H30.8742C30.8742 53.268 30.8566 53.1893 30.8213 53.12C30.7867 53.0508 30.7371 52.9961 30.6726 52.9561C30.6088 52.916 30.5334 52.896 30.4465 52.896C30.3508 52.896 30.268 52.9197 30.1981 52.9673C30.1288 53.0141 30.0755 53.0752 30.0382 53.1506C30.0008 53.2259 29.9822 53.3067 29.9822 53.3929V53.5314C29.9822 53.6496 30.0025 53.7497 30.0433 53.8318C30.0847 53.9133 30.1421 53.9754 30.2154 54.0182C30.2887 54.0603 30.3739 54.0813 30.471 54.0813C30.5341 54.0813 30.5911 54.0725 30.6421 54.0549C30.6937 54.0365 30.7381 54.0094 30.7755 53.9734C30.8128 53.9367 30.8417 53.8913 30.862 53.8369L31.0942 53.9021C31.0698 53.9809 31.0287 54.0501 30.971 54.1099C30.9133 54.1689 30.842 54.2151 30.7571 54.2484C30.6723 54.2809 30.5769 54.2972 30.471 54.2972ZM32.2867 54.2646V54.0813L32.9751 53.3278C33.0559 53.2395 33.1224 53.1628 33.1747 53.0976C33.227 53.0318 33.2657 52.97 33.2908 52.9123C33.3166 52.8539 33.3295 52.7928 33.3295 52.729C33.3295 52.6557 33.3118 52.5922 33.2765 52.5385C33.2419 52.4849 33.1944 52.4435 33.134 52.4143C33.0735 52.3851 33.0057 52.3705 32.9303 52.3705C32.8502 52.3705 32.7803 52.3872 32.7205 52.4204C32.6614 52.453 32.6156 52.4988 32.583 52.5579C32.5511 52.617 32.5352 52.6862 32.5352 52.7656H32.2948C32.2948 52.6434 32.323 52.5362 32.3794 52.4438C32.4357 52.3515 32.5124 52.2795 32.6095 52.2279C32.7073 52.1764 32.8169 52.1506 32.9384 52.1506C33.0606 52.1506 33.1689 52.1764 33.2633 52.2279C33.3577 52.2795 33.4317 52.3491 33.4853 52.4367C33.5389 52.5243 33.5657 52.6217 33.5657 52.729C33.5657 52.8057 33.5518 52.8807 33.524 52.954C33.4968 53.0267 33.4493 53.1078 33.3814 53.1974C33.3142 53.2864 33.2209 53.395 33.1014 53.5233L32.6329 54.0243V54.0406H33.6024V54.2646H32.2867ZM34.7032 54.2932C34.5498 54.2932 34.4191 54.2514 34.3112 54.1679C34.2032 54.0837 34.1207 53.9619 34.0637 53.8023C34.0067 53.6421 33.9782 53.4486 33.9782 53.2219C33.9782 52.9965 34.0067 52.804 34.0637 52.6445C34.1214 52.4842 34.2043 52.362 34.3122 52.2778C34.4208 52.193 34.5512 52.1506 34.7032 52.1506C34.8553 52.1506 34.9853 52.193 35.0933 52.2778C35.2019 52.362 35.2847 52.4842 35.3417 52.6445C35.3995 52.804 35.4283 52.9965 35.4283 53.2219C35.4283 53.4486 35.3998 53.6421 35.3428 53.8023C35.2857 53.9619 35.2033 54.0837 35.0953 54.1679C34.9874 54.2514 34.8567 54.2932 34.7032 54.2932ZM34.7032 54.0691C34.8553 54.0691 34.9734 53.9958 35.0576 53.8492C35.1418 53.7025 35.1839 53.4934 35.1839 53.2219C35.1839 53.0413 35.1646 52.8875 35.1259 52.7605C35.0878 52.6336 35.0328 52.5368 34.9609 52.4703C34.8896 52.4038 34.8037 52.3705 34.7032 52.3705C34.5525 52.3705 34.4347 52.4449 34.3499 52.5935C34.265 52.7415 34.2226 52.951 34.2226 53.2219C34.2226 53.4024 34.2416 53.5559 34.2796 53.6822C34.3176 53.8084 34.3723 53.9045 34.4436 53.9703C34.5155 54.0362 34.6021 54.0691 34.7032 54.0691ZM35.8153 54.2646V54.0813L36.5037 53.3278C36.5845 53.2395 36.651 53.1628 36.7033 53.0976C36.7556 53.0318 36.7943 52.97 36.8194 52.9123C36.8452 52.8539 36.8581 52.7928 36.8581 52.729C36.8581 52.6557 36.8404 52.5922 36.8051 52.5385C36.7705 52.4849 36.723 52.4435 36.6625 52.4143C36.6021 52.3851 36.5342 52.3705 36.4589 52.3705C36.3788 52.3705 36.3088 52.3872 36.2491 52.4204C36.19 52.453 36.1442 52.4988 36.1116 52.5579C36.0797 52.617 36.0638 52.6862 36.0638 52.7656H35.8234C35.8234 52.6434 35.8516 52.5362 35.908 52.4438C35.9643 52.3515 36.041 52.2795 36.1381 52.2279C36.2359 52.1764 36.3455 52.1506 36.467 52.1506C36.5892 52.1506 36.6975 52.1764 36.7919 52.2279C36.8862 52.2795 36.9602 52.3491 37.0139 52.4367C37.0675 52.5243 37.0943 52.6217 37.0943 52.729C37.0943 52.8057 37.0804 52.8807 37.0526 52.954C37.0254 53.0267 36.9779 53.1078 36.91 53.1974C36.8428 53.2864 36.7494 53.395 36.63 53.5233L36.1615 54.0243V54.0406H37.131V54.2646H35.8153ZM38.2848 52.1791V54.2646H38.0322V52.4438H38.02L37.5108 52.7819V52.5253L38.0322 52.1791H38.2848Z" fill="white"/>
<path d="M26.2811 21.9316H24.2734V33.234H26.2811V21.9316Z" fill="#139A74"/>
<path d="M30.742 21.9316H28.7344V33.234H30.742V21.9316Z" fill="#139A74"/>
<path d="M35.2049 21.9316H33.1973V33.234H35.2049V21.9316Z" fill="#139A74"/>
<path d="M39.6659 21.9316H37.6582V33.234H39.6659V21.9316Z" fill="#139A74"/>
<path d="M41.0044 33.2344H22.9355V34.1638H41.0044V33.2344Z" fill="#139A74"/>
<path d="M41.5612 34.0889H22.377V35.6132H41.5612V34.0889Z" fill="#139A74"/>
<path d="M42.2317 34.9443H21.709V36.4687H42.2317V34.9443Z" fill="#139A74"/>
<path d="M31.8204 17.396L22.6745 22.2665C22.377 22.4152 22.4886 22.8613 22.8232 22.8613H41.1151C41.4498 22.8613 41.5613 22.4152 41.2639 22.2665L32.1179 17.396C32.0063 17.3589 31.8948 17.3589 31.8204 17.396Z" fill="#139A74"/>
<path d="M26.8762 22.8613H26.207V33.2342H26.8762V22.8613Z" fill="#38A169"/>
<path d="M26.2207 22.8689V23.5381H28.7489V22.8689H26.2207Z" fill="#38A169"/>
<path d="M30.7441 22.8571V23.5264H33.2723V22.8571H30.7441Z" fill="#38A169"/>
<path d="M35.2051 22.8571V23.5264H37.7332V22.8571H35.2051Z" fill="#38A169"/>
<path d="M31.4114 22.8613H30.7422V33.2342H31.4114V22.8613Z" fill="#38A169"/>
<path d="M35.8743 22.8613H35.2051V33.2342H35.8743V22.8613Z" fill="#38A169"/>
<path d="M32.7137 21.0024C32.7137 21.4113 32.3791 21.7459 31.9701 21.7459C31.5612 21.7459 31.2266 21.4113 31.2266 21.0024C31.2266 20.5934 31.5612 20.2588 31.9701 20.2588C32.3791 20.2588 32.7137 20.5934 32.7137 21.0024Z" fill="#38A169"/>
</svg>
