<svg width="272" height="272" viewBox="0 0 272 272" fill="none" xmlns="http://www.w3.org/2000/svg">
<g clip-path="url(#clip0_8333_8964)">
<path opacity="0.6" d="M136 236.144C196.394 236.144 245.354 233.286 245.354 229.759C245.354 226.233 196.394 223.375 136 223.375C75.6054 223.375 26.646 226.233 26.646 229.759C26.646 233.286 75.6054 236.144 136 236.144Z" fill="#F5F5F5" fill-opacity="0.2"/>
<path d="M214.204 165.785C214.204 165.785 200.245 162.965 186.771 164.33C173.297 165.695 193.111 183.303 193.111 183.303H195.897C195.897 183.303 185.395 172.141 185.982 169.361C186.568 166.58 213.009 170.246 213.009 170.246L214.204 165.785Z" fill="#263238"/>
<path opacity="0.2" d="M214.204 165.785C214.204 165.785 200.245 162.965 186.771 164.33C173.297 165.695 193.111 183.303 193.111 183.303H195.897C195.897 183.303 185.395 172.141 185.982 169.361C186.568 166.58 213.009 170.246 213.009 170.246L214.204 165.785Z" fill="white"/>
<path d="M209.168 182.694C213.573 165.444 216.126 147.773 216.782 129.982C216.849 128.29 217.568 126.69 218.789 125.517C220.009 124.344 221.637 123.688 223.33 123.688H235.078C236.81 123.688 238.472 124.374 239.7 125.596C240.928 126.817 241.623 128.476 241.632 130.208C241.677 140.924 240.927 164.916 234.864 182.694H209.168Z" fill="#263238"/>
<path opacity="0.4" d="M209.168 182.694C213.573 165.444 216.126 147.773 216.782 129.982C216.849 128.29 217.568 126.69 218.789 125.517C220.009 124.344 221.637 123.688 223.33 123.688H235.078C236.81 123.688 238.472 124.374 239.7 125.596C240.928 126.817 241.623 128.476 241.632 130.208C241.677 140.924 240.927 164.916 234.864 182.694H209.168Z" fill="white"/>
<path d="M205.738 179.71C207.645 172.491 211.942 153.823 212.851 129.159C212.921 127.324 213.699 125.589 215.022 124.316C216.345 123.043 218.11 122.333 219.946 122.334H232.681C234.557 122.336 236.357 123.08 237.686 124.404C239.016 125.728 239.767 127.525 239.776 129.401C239.827 140.997 239.014 164.713 232.472 183.985L208.22 183.094C207.818 183.076 207.425 182.967 207.071 182.777C206.716 182.587 206.408 182.32 206.17 181.995C205.932 181.671 205.77 181.297 205.695 180.902C205.621 180.506 205.635 180.099 205.738 179.71Z" fill="#754FFE"/>
<path opacity="0.2" d="M205.738 179.71C207.645 172.491 211.942 153.823 212.851 129.159C212.921 127.324 213.699 125.589 215.022 124.316C216.345 123.043 218.11 122.333 219.946 122.334H232.681C234.557 122.336 236.357 123.08 237.686 124.404C239.016 125.728 239.767 127.525 239.776 129.401C239.827 140.997 239.014 164.713 232.472 183.985L208.22 183.094C207.818 183.076 207.425 182.967 207.071 182.777C206.716 182.587 206.408 182.32 206.17 181.995C205.932 181.671 205.77 181.297 205.695 180.902C205.621 180.506 205.635 180.099 205.738 179.71Z" fill="black"/>
<path d="M230.933 183.258H187.86V176.529C187.86 175.781 188.157 175.064 188.686 174.535C189.215 174.006 189.932 173.709 190.68 173.709H228.113C228.861 173.709 229.578 174.006 230.107 174.535C230.636 175.064 230.933 175.781 230.933 176.529V183.258Z" fill="#754FFE"/>
<path d="M229.545 216.827L215.744 215.468V196.072H210.273V215.462L196.416 216.827C195.752 216.891 195.135 217.201 194.687 217.695C194.239 218.189 193.99 218.833 193.991 219.5V221.576H231.97V219.5C231.971 218.833 231.723 218.189 231.274 217.695C230.826 217.201 230.209 216.891 229.545 216.827Z" fill="#263238"/>
<path opacity="0.4" d="M229.545 216.827L215.744 215.468V196.072H210.273V215.462L196.416 216.827C195.752 216.891 195.135 217.201 194.687 217.695C194.239 218.189 193.99 218.833 193.991 219.5V221.576H231.97V219.5C231.971 218.833 231.723 218.189 231.274 217.695C230.826 217.201 230.209 216.891 229.545 216.827Z" fill="white"/>
<path d="M199.027 224.142C199.027 224.849 198.817 225.541 198.424 226.129C198.031 226.717 197.473 227.175 196.82 227.446C196.166 227.716 195.447 227.787 194.754 227.649C194.06 227.511 193.423 227.171 192.923 226.671C192.423 226.171 192.082 225.533 191.944 224.84C191.806 224.146 191.877 223.427 192.148 222.774C192.418 222.12 192.877 221.562 193.465 221.169C194.053 220.776 194.744 220.566 195.451 220.566C196.4 220.566 197.309 220.943 197.98 221.614C198.65 222.284 199.027 223.194 199.027 224.142Z" fill="#263238"/>
<path opacity="0.4" d="M195.451 226.026C195.079 226.026 194.714 225.915 194.405 225.708C194.095 225.501 193.853 225.207 193.711 224.863C193.568 224.519 193.531 224.14 193.604 223.775C193.676 223.409 193.856 223.073 194.119 222.81C194.383 222.547 194.718 222.367 195.084 222.294C195.449 222.222 195.828 222.259 196.172 222.402C196.516 222.544 196.81 222.786 197.017 223.096C197.224 223.405 197.335 223.769 197.335 224.142C197.333 224.641 197.134 225.119 196.782 225.472C196.429 225.825 195.95 226.024 195.451 226.026Z" fill="white"/>
<path d="M226.934 224.142C226.934 224.849 227.143 225.541 227.536 226.129C227.929 226.717 228.488 227.175 229.141 227.446C229.794 227.716 230.513 227.787 231.207 227.649C231.901 227.511 232.538 227.171 233.038 226.671C233.538 226.171 233.878 225.533 234.016 224.84C234.154 224.146 234.084 223.427 233.813 222.774C233.542 222.12 233.084 221.562 232.496 221.169C231.908 220.776 231.217 220.566 230.509 220.566C230.04 220.566 229.574 220.658 229.14 220.837C228.706 221.017 228.311 221.28 227.979 221.612C227.647 221.944 227.384 222.339 227.204 222.773C227.025 223.207 226.933 223.672 226.934 224.142Z" fill="#263238"/>
<path opacity="0.4" d="M230.51 226.026C230.137 226.026 229.773 225.915 229.463 225.708C229.153 225.501 228.912 225.207 228.769 224.863C228.627 224.519 228.589 224.14 228.662 223.775C228.735 223.409 228.914 223.073 229.178 222.81C229.441 222.547 229.777 222.367 230.142 222.294C230.508 222.222 230.886 222.259 231.231 222.402C231.575 222.544 231.869 222.786 232.076 223.096C232.283 223.405 232.393 223.769 232.393 224.142C232.393 224.642 232.195 225.121 231.842 225.474C231.488 225.827 231.009 226.026 230.51 226.026Z" fill="white"/>
<path d="M209.32 182.964H216.652V197.91C216.652 198.528 216.407 199.121 215.97 199.557C215.533 199.994 214.941 200.24 214.323 200.24H211.633C211.015 200.24 210.422 199.994 209.985 199.557C209.549 199.121 209.303 198.528 209.303 197.91V182.964H209.32Z" fill="#263238"/>
<path opacity="0.2" d="M209.32 182.964H216.652V197.91C216.652 198.528 216.407 199.121 215.97 199.557C215.533 199.994 214.941 200.24 214.323 200.24H211.633C211.015 200.24 210.422 199.994 209.985 199.557C209.549 199.121 209.303 198.528 209.303 197.91V182.964H209.32Z" fill="white"/>
<path d="M187.476 184.95H234.226C234.852 184.95 235.36 184.442 235.36 183.816V183.286C235.36 182.66 234.852 182.152 234.226 182.152H187.476C186.85 182.152 186.343 182.66 186.343 183.286V183.816C186.343 184.442 186.85 184.95 187.476 184.95Z" fill="#263238"/>
<g opacity="0.4">
<path d="M187.476 184.95H234.226C234.852 184.95 235.36 184.442 235.36 183.816V183.286C235.36 182.66 234.852 182.152 234.226 182.152H187.476C186.85 182.152 186.343 182.66 186.343 183.286V183.816C186.343 184.442 186.85 184.95 187.476 184.95Z" fill="white"/>
</g>
<path d="M239.02 165.785C239.02 165.785 225.061 162.965 211.587 164.33C198.113 165.695 217.927 183.303 217.927 183.303H220.713C220.713 183.303 210.211 172.141 210.798 169.361C211.384 166.58 237.825 170.246 237.825 170.246L239.02 165.785Z" fill="#263238"/>
<path opacity="0.4" d="M239.02 165.785C239.02 165.785 225.061 162.965 211.587 164.33C198.113 165.695 217.927 183.303 217.927 183.303H220.713C220.713 183.303 210.211 172.141 210.798 169.361C211.384 166.58 237.825 170.246 237.825 170.246L239.02 165.785Z" fill="white"/>
<path d="M66.7916 168.807V169.371H58.1963V168.937C58.1963 167.894 59.2792 167.036 60.6666 166.98H61.1234L64.0337 166.862C65.5339 166.788 66.7916 167.679 66.7916 168.807Z" fill="#263238"/>
<path opacity="0.2" d="M62.8324 168.808V169.372H58.1963V168.938C58.1963 167.894 59.2792 167.037 60.6666 166.98H61.1234C62.1161 167.24 62.8324 167.962 62.8324 168.808Z" fill="white"/>
<path d="M136.88 227.689H137.743C137.795 227.689 137.845 227.669 137.883 227.634C137.92 227.598 137.943 227.549 137.946 227.497L139.311 174.543H135.312L136.683 227.497C136.684 227.549 136.705 227.598 136.742 227.633C136.779 227.669 136.829 227.689 136.88 227.689Z" fill="#263238"/>
<path d="M167.719 227.689H169.716L164.076 174.543H160.077L167.719 227.689Z" fill="#263238"/>
<path d="M38.9808 227.689L46.64 174.543H42.6468L37.0068 227.689H38.9808Z" fill="#263238"/>
<path d="M68.2581 227.689H70.5536H70.5592L71.4052 174.543H67.4121L68.2581 227.689Z" fill="#263238"/>
<g opacity="0.4">
<path d="M167.719 227.689H169.716L164.076 174.543H160.077L167.719 227.689Z" fill="white"/>
</g>
<path opacity="0.4" d="M68.2581 227.689H70.5536H70.5592L71.4052 174.543H67.4121L68.2581 227.689Z" fill="white"/>
<g opacity="0.2">
<path d="M136.88 227.689H137.743C137.795 227.689 137.845 227.669 137.883 227.634C137.92 227.598 137.943 227.549 137.946 227.497L139.311 174.543H135.312L136.683 227.497C136.684 227.549 136.705 227.598 136.742 227.633C136.779 227.669 136.829 227.689 136.88 227.689Z" fill="white"/>
</g>
<path opacity="0.2" d="M38.9808 227.689L46.64 174.543H42.6468L37.0068 227.689H38.9808Z" fill="white"/>
<path d="M75.2178 169.671H86.5937L88.4041 153.788C88.3868 153.501 88.2604 153.231 88.0507 153.034C87.841 152.837 87.5639 152.728 87.2761 152.728H79.6677C79.3799 152.728 79.1028 152.837 78.8931 153.034C78.6834 153.231 78.557 153.501 78.5397 153.788L75.2178 169.671Z" fill="#263238"/>
<path d="M57.8577 129.373H60.6777L63.8699 159.366H61.0499C60.8164 159.362 60.5923 159.274 60.4191 159.117C60.2458 158.961 60.1353 158.747 60.108 158.515L57.0963 130.224C57.0816 130.117 57.0904 130.007 57.1221 129.903C57.1539 129.799 57.2079 129.704 57.2803 129.623C57.3527 129.542 57.4418 129.477 57.5415 129.434C57.6412 129.391 57.7491 129.37 57.8577 129.373Z" fill="#263238"/>
<path d="M62.2516 159.366H104.811C104.919 159.368 105.027 159.346 105.126 159.303C105.225 159.259 105.314 159.195 105.386 159.114C105.458 159.034 105.512 158.938 105.545 158.835C105.577 158.731 105.586 158.622 105.572 158.515L102.561 130.224C102.532 129.993 102.421 129.779 102.248 129.623C102.075 129.467 101.852 129.378 101.619 129.373H59.0593C58.9507 129.37 58.8429 129.391 58.7432 129.434C58.6435 129.477 58.5543 129.542 58.4819 129.623C58.4095 129.704 58.3556 129.799 58.3238 129.903C58.292 130.007 58.2832 130.117 58.2979 130.224L61.3041 158.515C61.3337 158.747 61.4457 158.96 61.6196 159.116C61.7936 159.273 62.0178 159.361 62.2516 159.366Z" fill="#263238"/>
<path d="M74.7161 169.676H88.8555C89.1546 169.676 89.397 169.434 89.397 169.135V168.983C89.397 168.684 89.1546 168.441 88.8555 168.441H74.7161C74.417 168.441 74.1746 168.684 74.1746 168.983V169.135C74.1746 169.434 74.417 169.676 74.7161 169.676Z" fill="#263238"/>
<path opacity="0.2" d="M62.2516 159.366H104.811C104.919 159.368 105.027 159.346 105.126 159.303C105.225 159.259 105.314 159.195 105.386 159.114C105.458 159.034 105.512 158.938 105.545 158.835C105.577 158.731 105.586 158.622 105.572 158.515L102.561 130.224C102.532 129.993 102.421 129.779 102.248 129.623C102.075 129.467 101.852 129.378 101.619 129.373H59.0593C58.9507 129.37 58.8429 129.391 58.7432 129.434C58.6435 129.477 58.5543 129.542 58.4819 129.623C58.4095 129.704 58.3556 129.799 58.3238 129.903C58.292 130.007 58.2832 130.117 58.2979 130.224L61.3041 158.515C61.3337 158.747 61.4457 158.96 61.6196 159.116C61.7936 159.273 62.0178 159.361 62.2516 159.366Z" fill="white"/>
<path d="M63.0468 156.597H103.175C103.271 156.601 103.367 156.584 103.456 156.547C103.544 156.511 103.624 156.455 103.688 156.384C103.753 156.313 103.801 156.228 103.83 156.136C103.858 156.045 103.866 155.948 103.852 155.853L101.23 131.172C101.205 130.969 101.108 130.783 100.957 130.646C100.806 130.509 100.61 130.431 100.406 130.427H60.2607C60.1657 130.425 60.0712 130.443 59.984 130.481C59.8967 130.518 59.8187 130.575 59.7553 130.645C59.692 130.716 59.6449 130.8 59.6172 130.891C59.5895 130.982 59.582 131.078 59.5952 131.172L62.2234 155.853C62.2478 156.055 62.3446 156.242 62.4959 156.379C62.6472 156.516 62.8429 156.593 63.0468 156.597Z" fill="#754FFE"/>
<path opacity="0.2" d="M74.7161 169.676H88.8555C89.1546 169.676 89.397 169.434 89.397 169.135V168.983C89.397 168.684 89.1546 168.441 88.8555 168.441H74.7161C74.417 168.441 74.1746 168.684 74.1746 168.983V169.135C74.1746 169.434 74.417 169.676 74.7161 169.676Z" fill="white"/>
<path opacity="0.2" d="M63.0468 156.597H103.175C103.271 156.601 103.367 156.584 103.456 156.547C103.544 156.511 103.624 156.455 103.688 156.384C103.753 156.313 103.801 156.228 103.83 156.136C103.858 156.045 103.866 155.948 103.852 155.853L101.23 131.172C101.205 130.969 101.108 130.783 100.957 130.646C100.806 130.509 100.61 130.431 100.406 130.427H60.2607C60.1657 130.425 60.0712 130.443 59.984 130.481C59.8967 130.518 59.8187 130.575 59.7553 130.645C59.692 130.716 59.6449 130.8 59.6172 130.891C59.5895 130.982 59.582 131.078 59.5952 131.172L62.2234 155.853C62.2478 156.055 62.3446 156.242 62.4959 156.379C62.6472 156.516 62.8429 156.593 63.0468 156.597Z" fill="black"/>
<path d="M74.981 169.315H65.0997H40.3345V174.544H65.0997H74.981H166.388V169.315H74.981Z" fill="#754FFE"/>
<path d="M100.615 168.373H101.675C101.702 168.373 101.728 168.368 101.753 168.358C101.777 168.348 101.8 168.333 101.818 168.314C101.837 168.295 101.852 168.273 101.862 168.248C101.873 168.223 101.878 168.197 101.878 168.17V167.042C101.878 167.016 101.873 166.989 101.862 166.965C101.852 166.94 101.837 166.918 101.818 166.899C101.8 166.88 101.777 166.865 101.753 166.855C101.728 166.845 101.702 166.839 101.675 166.839H100.913C100.869 166.839 100.826 166.855 100.791 166.882C100.756 166.91 100.732 166.948 100.722 166.992L100.423 168.12C100.414 168.149 100.412 168.181 100.418 168.211C100.423 168.242 100.436 168.27 100.454 168.295C100.473 168.32 100.497 168.34 100.525 168.353C100.553 168.367 100.584 168.374 100.615 168.373Z" fill="#754FFE"/>
<path d="M99.1482 168.373H100.209C100.262 168.373 100.314 168.352 100.352 168.314C100.39 168.276 100.412 168.224 100.412 168.17V167.042C100.412 166.989 100.39 166.937 100.352 166.899C100.314 166.861 100.262 166.839 100.209 166.839H99.4471C99.4027 166.839 99.3596 166.855 99.3248 166.882C99.29 166.91 99.2655 166.948 99.2553 166.992L98.9508 168.12C98.943 168.15 98.9423 168.181 98.9486 168.212C98.9549 168.242 98.968 168.271 98.9871 168.295C99.0062 168.32 99.0306 168.339 99.0585 168.353C99.0865 168.367 99.1171 168.374 99.1482 168.373Z" fill="#754FFE"/>
<path d="M97.6819 168.373H98.7422C98.7689 168.373 98.7953 168.368 98.8199 168.358C98.8445 168.348 98.8669 168.333 98.8858 168.314C98.9046 168.295 98.9196 168.273 98.9298 168.248C98.94 168.223 98.9452 168.197 98.9452 168.17V167.042C98.9452 167.016 98.94 166.989 98.9298 166.965C98.9196 166.94 98.9046 166.918 98.8858 166.899C98.8669 166.88 98.8445 166.865 98.8199 166.855C98.7953 166.845 98.7689 166.839 98.7422 166.839H97.9808C97.9359 166.84 97.8924 166.855 97.8569 166.883C97.8213 166.91 97.7955 166.948 97.7834 166.992L97.4845 168.12C97.4767 168.15 97.4759 168.181 97.4822 168.212C97.4885 168.242 97.5017 168.271 97.5208 168.295C97.5399 168.32 97.5643 168.339 97.5922 168.353C97.6202 168.367 97.6508 168.374 97.6819 168.373Z" fill="#754FFE"/>
<path d="M96.2153 168.373H97.2756C97.3295 168.373 97.3811 168.352 97.4192 168.314C97.4573 168.276 97.4787 168.224 97.4787 168.17V167.042C97.4787 166.989 97.4573 166.937 97.4192 166.899C97.3811 166.861 97.3295 166.839 97.2756 166.839H96.5199C96.475 166.84 96.4315 166.855 96.3959 166.883C96.3604 166.91 96.3346 166.948 96.3225 166.992L96.0236 168.12C96.0159 168.149 96.015 168.18 96.021 168.21C96.027 168.24 96.0397 168.268 96.0581 168.293C96.0766 168.317 96.1003 168.337 96.1275 168.351C96.1547 168.365 96.1847 168.373 96.2153 168.373Z" fill="#754FFE"/>
<path d="M94.7493 168.373H95.8096C95.8634 168.373 95.9151 168.352 95.9531 168.314C95.9912 168.276 96.0126 168.224 96.0126 168.17V167.042C96.0126 166.989 95.9912 166.937 95.9531 166.899C95.9151 166.861 95.8634 166.839 95.8096 166.839H95.0482C95.0033 166.84 94.9598 166.855 94.9242 166.883C94.8887 166.91 94.8629 166.948 94.8508 166.992L94.5519 168.12C94.5441 168.15 94.5433 168.181 94.5496 168.212C94.5559 168.242 94.5691 168.271 94.5882 168.295C94.6072 168.32 94.6317 168.339 94.6596 168.353C94.6875 168.367 94.7182 168.374 94.7493 168.373Z" fill="#754FFE"/>
<path d="M93.2829 168.373H94.3433C94.3971 168.373 94.4488 168.352 94.4868 168.314C94.5249 168.276 94.5463 168.224 94.5463 168.17V167.042C94.5463 166.989 94.5249 166.937 94.4868 166.899C94.4488 166.861 94.3971 166.839 94.3433 166.839H93.5819C93.537 166.84 93.4935 166.855 93.4579 166.883C93.4224 166.91 93.3966 166.948 93.3845 166.992L93.0855 168.12C93.0778 168.15 93.077 168.181 93.0833 168.212C93.0896 168.242 93.1028 168.271 93.1219 168.295C93.1409 168.32 93.1654 168.339 93.1933 168.353C93.2212 168.367 93.2519 168.374 93.2829 168.373Z" fill="#754FFE"/>
<path d="M91.8162 168.373H92.8765C92.9303 168.373 92.982 168.352 93.02 168.314C93.0581 168.276 93.0795 168.224 93.0795 168.17V167.042C93.0795 166.989 93.0581 166.937 93.02 166.899C92.982 166.861 92.9303 166.839 92.8765 166.839H92.1151C92.0699 166.839 92.026 166.854 91.9902 166.882C91.9545 166.909 91.929 166.948 91.9177 166.992L91.6188 168.12C91.611 168.15 91.6102 168.181 91.6165 168.212C91.6228 168.242 91.636 168.271 91.6551 168.295C91.6741 168.32 91.6986 168.339 91.7265 168.353C91.7544 168.367 91.7851 168.374 91.8162 168.373Z" fill="#754FFE"/>
<path d="M90.3498 168.373H91.4102C91.4368 168.373 91.4632 168.368 91.4879 168.358C91.5125 168.348 91.5349 168.333 91.5537 168.314C91.5726 168.295 91.5875 168.273 91.5977 168.248C91.608 168.223 91.6132 168.197 91.6132 168.17V167.042C91.6132 167.016 91.608 166.989 91.5977 166.965C91.5875 166.94 91.5726 166.918 91.5537 166.899C91.5349 166.88 91.5125 166.865 91.4879 166.855C91.4632 166.845 91.4368 166.839 91.4102 166.839H90.6488C90.6036 166.839 90.5597 166.854 90.5239 166.882C90.4882 166.909 90.4627 166.948 90.4514 166.992L90.1524 168.12C90.1447 168.15 90.1439 168.181 90.1502 168.212C90.1565 168.242 90.1697 168.271 90.1888 168.295C90.2078 168.32 90.2323 168.339 90.2602 168.353C90.2881 168.367 90.3188 168.374 90.3498 168.373Z" fill="#754FFE"/>
<path d="M88.8838 168.373H89.9441C89.9979 168.373 90.0496 168.352 90.0877 168.314C90.1257 168.276 90.1471 168.224 90.1471 168.17V167.042C90.1471 166.989 90.1257 166.937 90.0877 166.899C90.0496 166.861 89.9979 166.839 89.9441 166.839H89.1883C89.1432 166.839 89.0993 166.854 89.0635 166.882C89.0278 166.909 89.0022 166.948 88.9909 166.992L88.692 168.12C88.6844 168.149 88.6835 168.18 88.6895 168.21C88.6955 168.24 88.7081 168.268 88.7266 168.293C88.745 168.317 88.7687 168.337 88.796 168.351C88.8232 168.365 88.8532 168.373 88.8838 168.373Z" fill="#754FFE"/>
<path d="M87.4172 168.373H88.4776C88.5314 168.373 88.583 168.352 88.6211 168.314C88.6592 168.276 88.6806 168.224 88.6806 168.17V167.042C88.6806 166.989 88.6592 166.937 88.6211 166.899C88.583 166.861 88.5314 166.839 88.4776 166.839H87.7161C87.671 166.839 87.6271 166.854 87.5913 166.882C87.5556 166.909 87.53 166.948 87.5187 166.992L87.2198 168.12C87.2121 168.15 87.2113 168.181 87.2176 168.212C87.2239 168.242 87.2371 168.271 87.2562 168.295C87.2752 168.32 87.2997 168.339 87.3276 168.353C87.3555 168.367 87.3862 168.374 87.4172 168.373Z" fill="#754FFE"/>
<path d="M85.9509 168.374H87.0112C87.0651 168.374 87.1167 168.352 87.1548 168.314C87.1929 168.276 87.2143 168.224 87.2143 168.17V167.042C87.2143 166.989 87.1929 166.937 87.1548 166.899C87.1167 166.861 87.0651 166.839 87.0112 166.839H86.2498C86.2044 166.838 86.16 166.853 86.1241 166.88C86.0881 166.908 86.0628 166.947 86.0524 166.992L85.7535 168.12C85.7458 168.15 85.745 168.181 85.7513 168.212C85.7576 168.242 85.7708 168.271 85.7898 168.295C85.8089 168.32 85.8333 168.339 85.8613 168.353C85.8892 168.367 85.9199 168.374 85.9509 168.374Z" fill="#754FFE"/>
<path d="M84.4841 168.374H85.5444C85.5711 168.374 85.5975 168.368 85.6221 168.358C85.6468 168.348 85.6692 168.333 85.688 168.314C85.7069 168.295 85.7218 168.273 85.732 168.248C85.7422 168.224 85.7475 168.197 85.7475 168.17V167.042C85.7475 167.016 85.7422 166.989 85.732 166.965C85.7218 166.94 85.7069 166.918 85.688 166.899C85.6692 166.88 85.6468 166.865 85.6221 166.855C85.5975 166.845 85.5711 166.839 85.5444 166.839H84.783C84.7376 166.838 84.6932 166.853 84.6573 166.88C84.6213 166.908 84.596 166.947 84.5856 166.992L84.2867 168.12C84.279 168.15 84.2782 168.181 84.2845 168.212C84.2908 168.242 84.304 168.271 84.323 168.295C84.3421 168.32 84.3665 168.339 84.3945 168.353C84.4224 168.367 84.4531 168.374 84.4841 168.374Z" fill="#754FFE"/>
<path d="M83.0178 168.374H84.0781C84.132 168.374 84.1836 168.352 84.2217 168.314C84.2598 168.276 84.2812 168.224 84.2812 168.17V167.042C84.2812 166.989 84.2598 166.937 84.2217 166.899C84.1836 166.861 84.132 166.839 84.0781 166.839H83.3167C83.2713 166.838 83.2269 166.853 83.191 166.88C83.155 166.908 83.1297 166.947 83.1193 166.992L82.8204 168.12C82.8127 168.15 82.8119 168.181 82.8182 168.212C82.8245 168.242 82.8377 168.271 82.8567 168.295C82.8758 168.32 82.9002 168.339 82.9282 168.353C82.9561 168.367 82.9868 168.374 83.0178 168.374Z" fill="#754FFE"/>
<path d="M81.5462 168.374H82.6121C82.666 168.374 82.7176 168.352 82.7557 168.314C82.7938 168.276 82.8152 168.224 82.8152 168.17V167.042C82.8152 166.989 82.7938 166.937 82.7557 166.899C82.7176 166.861 82.666 166.839 82.6121 166.839H81.8564C81.811 166.838 81.7665 166.853 81.7306 166.88C81.6946 166.908 81.6693 166.947 81.6589 166.992L81.36 168.12C81.3525 168.149 81.3515 168.179 81.3571 168.209C81.3628 168.239 81.375 168.267 81.3928 168.291C81.4106 168.315 81.4336 168.335 81.4602 168.349C81.4867 168.364 81.5161 168.372 81.5462 168.374Z" fill="#754FFE"/>
<path d="M80.0796 168.373H81.1455C81.1994 168.373 81.251 168.352 81.2891 168.314C81.3272 168.276 81.3486 168.224 81.3486 168.17V167.042C81.3486 166.989 81.3272 166.937 81.2891 166.899C81.251 166.861 81.1994 166.839 81.1455 166.839H80.3785C80.3341 166.839 80.2909 166.855 80.2561 166.882C80.2213 166.91 80.1969 166.948 80.1867 166.992L79.8878 168.12C79.8802 168.149 79.8793 168.18 79.8853 168.21C79.8913 168.24 79.9039 168.268 79.9224 168.293C79.9408 168.317 79.9645 168.337 79.9918 168.351C80.019 168.365 80.049 168.373 80.0796 168.373Z" fill="#754FFE"/>
<path d="M79.0135 169.377H102.747V167.612H79.0135V169.377Z" fill="#263238"/>
<path opacity="0.2" d="M79.0135 169.377H102.747V167.612H79.0135V169.377Z" fill="white"/>
<path opacity="0.2" d="M79.0192 169.377H86.7065V167.612H79.0192V169.377Z" fill="white"/>
<path opacity="0.2" d="M65.0999 174.538H166.389V169.31H65.0999V174.538Z" fill="white"/>
<path d="M44.7733 219.196C44.8448 219.047 44.8795 218.883 44.8742 218.718C44.869 218.553 44.8241 218.392 44.7433 218.248C44.6625 218.104 44.5482 217.982 44.4101 217.892C44.272 217.801 44.1141 217.746 43.9499 217.729C44.0918 217.308 44.1014 216.852 43.9775 216.425C43.8535 215.998 43.6018 215.618 43.2561 215.338C43.1745 215.261 43.0692 215.213 42.9572 215.203C42.8358 215.213 42.7211 215.263 42.6301 215.344L40.7125 216.72C40.5599 216.816 40.4308 216.945 40.3346 217.098C39.9398 217.853 41.3555 218.829 40.7746 219.455C40.6054 219.636 40.3403 219.67 40.1316 219.799C39.6747 220.087 39.6183 220.713 39.4097 221.209C39.201 221.706 38.4509 222.083 38.1689 221.627C38.3775 221.153 37.7459 220.747 37.2326 220.685C36.7194 220.623 36.178 220.594 35.896 220.121C35.1628 220.758 33.5271 218.993 33.5666 218.26C33.2812 218.314 33.0197 218.456 32.8178 218.665C32.6158 218.874 32.4834 219.14 32.4386 219.427C32.3558 220.021 32.335 220.622 32.3766 221.221C32.3766 222.382 31.9818 223.522 32.0043 224.683C32.0043 225.586 32.3709 226.59 33.1944 226.939C33.6062 227.086 34.0445 227.144 34.4803 227.109L43.9104 227.047C44.1376 227.065 44.3661 227.029 44.5759 226.939C44.9989 226.72 45.0892 226.161 45.1399 225.682L45.6475 219.534L44.7733 219.196Z" fill="#754FFE"/>
<path opacity="0.3" d="M44.7733 219.196C44.8448 219.047 44.8795 218.883 44.8742 218.718C44.869 218.553 44.8241 218.392 44.7433 218.248C44.6625 218.104 44.5482 217.982 44.4101 217.892C44.272 217.801 44.1141 217.746 43.9499 217.729C44.0918 217.308 44.1014 216.852 43.9775 216.425C43.8535 215.998 43.6018 215.618 43.2561 215.338C43.1745 215.261 43.0692 215.213 42.9572 215.203C42.8358 215.213 42.7211 215.263 42.6301 215.344L40.7125 216.72C40.5599 216.816 40.4308 216.945 40.3346 217.098C39.9398 217.853 41.3555 218.829 40.7746 219.455C40.6054 219.636 40.3403 219.67 40.1316 219.799C39.6747 220.087 39.6183 220.713 39.4097 221.209C39.201 221.706 38.4509 222.083 38.1689 221.627C38.3775 221.153 37.7459 220.747 37.2326 220.685C36.7194 220.623 36.178 220.594 35.896 220.121C35.1628 220.758 33.5271 218.993 33.5666 218.26C33.2812 218.314 33.0197 218.456 32.8178 218.665C32.6158 218.874 32.4834 219.14 32.4386 219.427C32.3558 220.021 32.335 220.622 32.3766 221.221C32.3766 222.382 31.9818 223.522 32.0043 224.683C32.0043 225.586 32.3709 226.59 33.1944 226.939C33.6062 227.086 34.0445 227.144 34.4803 227.109L43.9104 227.047C44.1376 227.065 44.3661 227.029 44.5759 226.939C44.9989 226.72 45.0892 226.161 45.1399 225.682L45.6475 219.534L44.7733 219.196Z" fill="white"/>
<path d="M45.3201 209.229H30.6899L30.8084 210.707L30.893 211.762L31.1186 214.509L31.2483 216.088L31.4175 218.191L31.4852 219.088V219.359L31.5698 220.419L31.6882 221.869L31.7559 222.765L31.8349 223.685L31.9195 224.739L31.9871 225.54L32.0548 226.443L32.0887 226.838H45.5457V226.443L45.619 225.546L45.6867 224.739L45.7713 223.679L45.8446 222.765L45.9179 221.869L46.0364 220.414L46.121 219.359V219.088L46.1887 218.191L46.3635 216.088L46.4876 214.514L46.7075 211.762L46.7978 210.707L46.9162 209.229H45.3201ZM46.1999 210.2L45.9179 209.918H46.2225L46.1999 210.2ZM46.1266 211.096L46.0984 211.452L44.7899 212.766L43.2897 211.26L44.632 209.918H44.9479L46.1266 211.096ZM45.7487 215.778L44.7899 216.736L43.2897 215.236L44.7899 213.736L45.8277 214.774L45.7487 215.778ZM31.8292 214.774L32.867 213.736L34.3672 215.236L32.867 216.736L31.9082 215.778L31.8292 214.774ZM44.3049 213.268L42.8047 214.768L41.3044 213.268L42.8047 211.762L44.3049 213.268ZM41.9474 209.934H43.6394L42.7821 210.792L41.9474 209.934ZM42.314 215.253L40.8194 216.753L39.3135 215.253L40.8194 213.753L42.314 215.253ZM37.3282 217.216L38.8285 215.721L40.3287 217.216L38.8285 218.722L37.3282 217.216ZM38.3434 219.207L36.8375 220.707L35.3429 219.207L36.8432 217.706L38.3434 219.207ZM40.8194 217.706L42.314 219.207L40.8194 220.707L39.3135 219.207L40.8194 217.706ZM38.8285 214.745L37.3282 213.268L38.8285 211.762L40.3287 213.268L38.8285 214.745ZM38.3434 215.23L36.8432 216.731L35.3429 215.23L36.8432 213.73L38.3434 215.23ZM34.8523 214.745L33.352 213.268L34.8523 211.762L36.3525 213.268L34.8523 214.745ZM34.8523 215.721L36.3525 217.216L34.8523 218.722L33.352 217.216L34.8523 215.721ZM36.3525 221.198L34.8523 222.692L33.352 221.203L34.8523 219.697L36.3525 221.198ZM36.8375 221.677L38.3434 223.183L36.8432 224.683L35.3429 223.183L36.8375 221.677ZM37.3282 221.198L38.8285 219.692L40.3287 221.198L38.8285 222.692L37.3282 221.198ZM40.8194 221.677L42.314 223.183L40.8194 224.683L39.3135 223.183L40.8194 221.677ZM42.8047 223.668L44.3049 225.168L43.3348 226.144H42.2745L41.3044 225.168L42.8047 223.668ZM41.3044 221.198L42.8047 219.692L44.3049 221.198L42.8047 222.692L41.3044 221.198ZM41.3044 217.216L42.8047 215.721L44.3049 217.216L42.8047 218.722L41.3044 217.216ZM42.314 211.254L40.8194 212.76L39.3135 211.254L40.684 209.918H40.9999L42.314 211.254ZM38.8285 210.769L37.9712 209.912H39.6632L38.8285 210.769ZM38.3434 211.254L36.8432 212.76L35.3429 211.254L36.6853 209.912H37.0011L38.3434 211.254ZM35.7095 209.912L34.8523 210.769L33.995 209.912H35.7095ZM33.0249 209.912L34.3672 211.254L32.867 212.76L31.5585 211.446V211.091L32.7373 209.912H33.0249ZM31.739 209.912L31.457 210.188V209.912H31.739ZM31.6431 212.506L32.3819 213.268L31.7559 213.894L31.6431 212.506ZM32.0548 217.543L31.9984 216.832L32.3819 217.216L32.0548 217.543ZM32.1281 218.445L32.867 217.706L34.3672 219.207L32.867 220.707L32.2579 220.103L32.1281 218.445ZM32.3481 221.226V221.164L32.3819 221.203L32.3481 221.231V221.226ZM32.6132 224.424L32.4214 222.123L32.867 221.677L34.3672 223.183L32.867 224.683L32.6132 224.424ZM32.7485 226.116L32.7203 225.772L32.867 225.625L33.352 226.116H32.7485ZM33.352 225.174L34.8523 223.674L36.3525 225.174L35.3824 226.149H34.3221L33.352 225.174ZM36.3525 226.149L36.8432 225.659L37.3339 226.149H36.3525ZM38.2983 226.149L37.3282 225.174L38.8285 223.674L40.3287 225.174L39.3586 226.149H38.2983ZM40.3287 226.149L40.8194 225.659L41.3044 226.149H40.3287ZM44.9084 226.149H44.3049L44.7899 225.659L44.9366 225.805L44.9084 226.149ZM45.0494 224.457L44.7899 224.717L43.2897 223.217L44.7899 221.711L45.2355 222.156L45.0494 224.457ZM45.3145 221.192V221.26L45.2806 221.231L45.3201 221.192H45.3145ZM45.3991 220.137L44.7899 220.741L43.2897 219.24L44.7899 217.74L45.5344 218.479L45.3991 220.137ZM45.6077 217.582L45.275 217.25L45.6641 216.866L45.6077 217.582ZM46.0138 212.54L45.9067 213.905L45.275 213.268L46.0138 212.529V212.54Z" fill="#754FFE"/>
<g opacity="0.6">
<path d="M45.3201 209.229H30.6899L30.8084 210.707L30.893 211.762L31.1186 214.509L31.2483 216.088L31.4175 218.191L31.4852 219.088V219.359L31.5698 220.419L31.6882 221.869L31.7559 222.765L31.8349 223.685L31.9195 224.739L31.9871 225.54L32.0548 226.443L32.0887 226.838H45.5457V226.443L45.619 225.546L45.6867 224.739L45.7713 223.679L45.8446 222.765L45.9179 221.869L46.0364 220.414L46.121 219.359V219.088L46.1887 218.191L46.3635 216.088L46.4876 214.514L46.7075 211.762L46.7978 210.707L46.9162 209.229H45.3201ZM46.1999 210.2L45.9179 209.918H46.2225L46.1999 210.2ZM46.1266 211.096L46.0984 211.452L44.7899 212.766L43.2897 211.26L44.632 209.918H44.9479L46.1266 211.096ZM45.7487 215.778L44.7899 216.736L43.2897 215.236L44.7899 213.736L45.8277 214.774L45.7487 215.778ZM31.8292 214.774L32.867 213.736L34.3672 215.236L32.867 216.736L31.9082 215.778L31.8292 214.774ZM44.3049 213.268L42.8047 214.768L41.3044 213.268L42.8047 211.762L44.3049 213.268ZM41.9474 209.934H43.6394L42.7821 210.792L41.9474 209.934ZM42.314 215.253L40.8194 216.753L39.3135 215.253L40.8194 213.753L42.314 215.253ZM37.3282 217.216L38.8285 215.721L40.3287 217.216L38.8285 218.722L37.3282 217.216ZM38.3434 219.207L36.8375 220.707L35.3429 219.207L36.8432 217.706L38.3434 219.207ZM40.8194 217.706L42.314 219.207L40.8194 220.707L39.3135 219.207L40.8194 217.706ZM38.8285 214.745L37.3282 213.268L38.8285 211.762L40.3287 213.268L38.8285 214.745ZM38.3434 215.23L36.8432 216.731L35.3429 215.23L36.8432 213.73L38.3434 215.23ZM34.8523 214.745L33.352 213.268L34.8523 211.762L36.3525 213.268L34.8523 214.745ZM34.8523 215.721L36.3525 217.216L34.8523 218.722L33.352 217.216L34.8523 215.721ZM36.3525 221.198L34.8523 222.692L33.352 221.203L34.8523 219.697L36.3525 221.198ZM36.8375 221.677L38.3434 223.183L36.8432 224.683L35.3429 223.183L36.8375 221.677ZM37.3282 221.198L38.8285 219.692L40.3287 221.198L38.8285 222.692L37.3282 221.198ZM40.8194 221.677L42.314 223.183L40.8194 224.683L39.3135 223.183L40.8194 221.677ZM42.8047 223.668L44.3049 225.168L43.3348 226.144H42.2745L41.3044 225.168L42.8047 223.668ZM41.3044 221.198L42.8047 219.692L44.3049 221.198L42.8047 222.692L41.3044 221.198ZM41.3044 217.216L42.8047 215.721L44.3049 217.216L42.8047 218.722L41.3044 217.216ZM42.314 211.254L40.8194 212.76L39.3135 211.254L40.684 209.918H40.9999L42.314 211.254ZM38.8285 210.769L37.9712 209.912H39.6632L38.8285 210.769ZM38.3434 211.254L36.8432 212.76L35.3429 211.254L36.6853 209.912H37.0011L38.3434 211.254ZM35.7095 209.912L34.8523 210.769L33.995 209.912H35.7095ZM33.0249 209.912L34.3672 211.254L32.867 212.76L31.5585 211.446V211.091L32.7373 209.912H33.0249ZM31.739 209.912L31.457 210.188V209.912H31.739ZM31.6431 212.506L32.3819 213.268L31.7559 213.894L31.6431 212.506ZM32.0548 217.543L31.9984 216.832L32.3819 217.216L32.0548 217.543ZM32.1281 218.445L32.867 217.706L34.3672 219.207L32.867 220.707L32.2579 220.103L32.1281 218.445ZM32.3481 221.226V221.164L32.3819 221.203L32.3481 221.231V221.226ZM32.6132 224.424L32.4214 222.123L32.867 221.677L34.3672 223.183L32.867 224.683L32.6132 224.424ZM32.7485 226.116L32.7203 225.772L32.867 225.625L33.352 226.116H32.7485ZM33.352 225.174L34.8523 223.674L36.3525 225.174L35.3824 226.149H34.3221L33.352 225.174ZM36.3525 226.149L36.8432 225.659L37.3339 226.149H36.3525ZM38.2983 226.149L37.3282 225.174L38.8285 223.674L40.3287 225.174L39.3586 226.149H38.2983ZM40.3287 226.149L40.8194 225.659L41.3044 226.149H40.3287ZM44.9084 226.149H44.3049L44.7899 225.659L44.9366 225.805L44.9084 226.149ZM45.0494 224.457L44.7899 224.717L43.2897 223.217L44.7899 221.711L45.2355 222.156L45.0494 224.457ZM45.3145 221.192V221.26L45.2806 221.231L45.3201 221.192H45.3145ZM45.3991 220.137L44.7899 220.741L43.2897 219.24L44.7899 217.74L45.5344 218.479L45.3991 220.137ZM45.6077 217.582L45.275 217.25L45.6641 216.866L45.6077 217.582ZM46.0138 212.54L45.9067 213.905L45.275 213.268L46.0138 212.529V212.54Z" fill="white"/>
</g>
<path d="M30.6788 210.533H46.9784C47.4892 210.533 47.9033 210.119 47.9033 209.608V209.546C47.9033 209.035 47.4892 208.621 46.9784 208.621H30.6788C30.1679 208.621 29.7538 209.035 29.7538 209.546V209.608C29.7538 210.119 30.1679 210.533 30.6788 210.533Z" fill="#754FFE"/>
<path d="M45.6701 225.806H31.9875C31.4766 225.806 31.0625 226.22 31.0625 226.731V226.793C31.0625 227.304 31.4766 227.718 31.9875 227.718H45.6701C46.1809 227.718 46.5951 227.304 46.5951 226.793V226.731C46.5951 226.22 46.1809 225.806 45.6701 225.806Z" fill="#754FFE"/>
<path d="M131.224 71.0543L147.862 68.1743C148.995 67.9783 149.754 66.9012 149.558 65.7687L146.678 49.1299C146.482 47.9974 145.405 47.2382 144.273 47.4342L127.634 50.3142C126.501 50.5102 125.742 51.5873 125.938 52.7198L128.818 69.3586C129.014 70.4911 130.091 71.2503 131.224 71.0543Z" fill="#754FFE"/>
<path d="M137.043 68.3988C137.043 68.3988 140.839 74.146 147.269 75.0371C147.269 75.0371 143.563 73.6779 142.7 67.1411L137.043 68.3988Z" fill="#754FFE"/>
<path d="M142.537 57.6602L139.852 57.9817C139.852 57.9817 138.972 56.1881 138.414 52.0371C137.948 52.0434 137.484 52.1155 137.038 52.2514C136.604 52.4432 137.083 57.0905 137.083 57.0905C137.083 57.0905 132.221 57.4289 132.007 57.6545C131.86 57.8068 131.917 58.5231 132.007 59.0307C132.019 59.1764 132.082 59.3132 132.185 59.4166C132.289 59.52 132.425 59.5831 132.571 59.5947H132.746L133.609 64.1631C133.637 64.3359 133.73 64.4911 133.87 64.5962C134.01 64.7014 134.185 64.7483 134.359 64.7271L138.871 64.1631C139.319 64.0998 139.737 63.9033 140.072 63.5991L140.512 63.1987L143.332 63.0182L142.537 57.6602Z" fill="#754FFE"/>
<path opacity="0.7" d="M142.537 57.6602L139.852 57.9817C139.852 57.9817 138.972 56.1881 138.414 52.0371C137.948 52.0434 137.484 52.1155 137.038 52.2514C136.604 52.4432 137.083 57.0905 137.083 57.0905C137.083 57.0905 132.221 57.4289 132.007 57.6545C131.86 57.8068 131.917 58.5231 132.007 59.0307C132.019 59.1764 132.082 59.3132 132.185 59.4166C132.289 59.52 132.425 59.5831 132.571 59.5947H132.746L133.609 64.1631C133.637 64.3359 133.73 64.4911 133.87 64.5962C134.01 64.7014 134.185 64.7483 134.359 64.7271L138.871 64.1631C139.319 64.0998 139.737 63.9033 140.072 63.5991L140.512 63.1987L143.332 63.0182L142.537 57.6602Z" fill="white"/>
<path d="M152.096 90.7167C149.637 90.6209 140.061 106.221 140.061 106.221L133.552 104.98L132.153 108.308C132.153 108.308 138.025 111.173 140.382 111.427C142.74 111.681 151.792 99.0978 151.792 99.0978L152.096 90.7167Z" fill="#754FFE"/>
<path opacity="0.2" d="M152.096 90.7108L151.792 99.0975C151.792 99.0975 151.572 99.4021 151.194 99.9097C150.506 100.852 149.271 102.504 147.866 104.269C145.12 107.71 141.719 111.601 140.405 111.432C138.041 111.178 132.176 108.325 132.176 108.325L133.574 104.997L140.077 106.226C140.077 106.226 149.637 90.6206 152.096 90.7108Z" fill="white"/>
<path opacity="0.2" d="M151.171 99.904C150.483 100.846 149.248 102.498 147.844 104.264C147.895 100.936 150.805 96.7964 150.805 96.7964C150.805 96.7964 151.013 98.1556 151.171 99.904Z" fill="black"/>
<path d="M170.776 227.244H176.275C176.365 227.244 176.453 227.275 176.524 227.331C176.594 227.388 176.644 227.466 176.664 227.554L177.555 231.587C177.592 231.76 177.559 231.941 177.463 232.09C177.367 232.239 177.215 232.344 177.042 232.382H176.895C175.113 232.354 173.816 232.247 171.583 232.247C170.206 232.247 166.05 232.388 164.149 232.388C162.248 232.388 162 230.51 162.779 230.335C166.27 229.579 168.898 228.524 170.015 227.515C170.224 227.33 170.497 227.233 170.776 227.244Z" fill="#263238"/>
<path d="M147.438 227.098H152.92C153.009 227.098 153.096 227.129 153.166 227.185C153.235 227.242 153.284 227.32 153.303 227.408L154.2 231.446C154.235 231.619 154.2 231.8 154.103 231.948C154.006 232.095 153.854 232.199 153.681 232.236C153.632 232.241 153.583 232.241 153.534 232.236C151.758 232.202 150.461 232.095 148.222 232.095C146.845 232.095 142.694 232.241 140.794 232.241C138.893 232.241 138.645 230.363 139.423 230.188C142.914 229.427 145.537 228.372 146.659 227.368C146.875 227.183 147.153 227.086 147.438 227.098Z" fill="#263238"/>
<path d="M173.692 125.25H149.654C147.364 137.732 140.213 188.418 145.345 227.769H153.484C153.484 227.769 152.728 167.985 159.913 148.685C160.742 159.023 169.146 227.724 169.146 227.724H177.431C177.431 227.724 176.19 201.881 174.949 177.466C174.171 162.097 173.726 128.403 173.692 125.25Z" fill="#263238"/>
<path opacity="0.2" d="M159.913 148.685C158.731 152.071 157.833 155.549 157.229 159.085C156.557 149.886 159.248 140.134 159.248 140.134L159.913 148.685Z" fill="black"/>
<path d="M149.451 125.538H173.647V128.42L149.141 128.121L149.451 125.538Z" fill="black"/>
<path d="M165.869 124.241H165.006V129.356H165.869V124.241Z" fill="#263238"/>
<path d="M153.625 124.241H152.762V129.356H153.625V124.241Z" fill="#263238"/>
<path d="M160.483 125.03H156.005V128.256H160.483V125.03Z" fill="white"/>
<path d="M173.726 126C174.363 112.233 178.413 92.7243 178.413 92.7243C167.178 90.0171 152.097 90.6939 152.097 90.6939C149.158 101.207 149.209 118.172 149.463 125.978L173.726 126Z" fill="#754FFE"/>
<path opacity="0.2" d="M178.412 92.7411C178.412 92.7411 177.961 94.9238 177.335 98.336C177.036 99.966 176.692 101.878 176.348 103.976C176.145 105.2 175.936 106.48 175.739 107.8C175.542 109.12 175.339 110.411 175.175 111.748C174.51 116.531 173.951 121.567 173.742 126.006H149.49C149.237 118.2 149.186 101.235 152.124 90.7164C152.096 90.7107 167.183 90.0339 178.412 92.7411Z" fill="white"/>
<path opacity="0.2" d="M177.335 98.3361C177.036 99.966 176.692 101.878 176.348 103.976C176.145 105.2 175.937 106.48 175.739 107.8C173.957 103.124 176.991 96.8076 176.991 96.8076L177.335 98.3361Z" fill="black"/>
<path d="M160.083 92.5723L160.686 95.5502C160.686 95.5502 157.218 110.028 156.473 117.546L157.737 118.81L159.727 117.546C159.727 117.546 159.902 102.256 161.662 95.8322L164.809 93.2548L162.327 92.4482L160.083 92.5723Z" fill="#263238"/>
<path d="M169.501 91.2242C167.426 93.1136 162.327 92.4142 162.327 92.4142C162.327 92.4142 159.152 91.5457 159.817 90.553C161.69 90.2428 162.598 89.3686 162.97 88.2519C163.177 87.5596 163.243 86.8325 163.162 86.1144C163.132 85.7131 163.079 85.3139 163.004 84.9187L169.304 80.2544C168.475 83.3338 167.465 88.9964 169.501 91.2242Z" fill="#EEC1BB"/>
<path opacity="0.2" d="M167.849 83.2212C167.595 87 164.465 88.0378 162.97 88.2521C163.178 87.5598 163.243 86.8327 163.162 86.1145L167.849 83.2212Z" fill="black"/>
<path d="M168.577 88.8271L162.553 91.5456L162.203 89.3686L159.987 90.1469C159.602 90.2819 159.274 90.5431 159.055 90.8881C158.837 91.2332 158.742 91.6417 158.786 92.0476L159.034 94.4389L162.085 92.7469L163.608 94.8958L170.838 91.4441L168.577 88.8271Z" fill="#754FFE"/>
<path opacity="0.3" d="M168.577 88.8271L162.553 91.5456L162.203 89.3686L159.987 90.1469C159.602 90.2819 159.274 90.5431 159.055 90.8881C158.837 91.2332 158.742 91.6417 158.786 92.0476L159.034 94.4389L162.085 92.7469L163.608 94.8958L170.838 91.4441L168.577 88.8271Z" fill="white"/>
<path d="M156.394 71.5068C156.394 71.5068 155.452 77.5698 158.65 79.916C161.848 82.2622 161.899 70.9653 161.899 70.9653L156.394 71.5068Z" fill="#263238"/>
<path d="M167.996 84.7607C167.319 85.7589 166.333 86.5068 165.189 86.889C164.046 87.2712 162.808 87.2666 161.668 86.8757C160.182 86.4027 158.933 85.3797 158.176 84.0163C158.071 83.8333 157.975 83.645 157.889 83.4523C156.315 79.7411 155.83 73.2551 159.756 70.8356C161.097 69.9982 162.716 69.7275 164.256 70.0828C165.797 70.4381 167.134 71.3905 167.973 72.7306C168.474 73.5235 168.777 74.4247 168.859 75.3589C169.327 79.6791 169.806 82.2058 167.996 84.7607Z" fill="#EEC1BB"/>
<path d="M162.536 77.6377C162.615 77.9817 162.457 78.3032 162.226 78.3427C161.995 78.3822 161.763 78.1227 161.701 77.7787C161.639 77.4346 161.786 77.1188 162.011 77.0793C162.237 77.0398 162.474 77.288 162.536 77.6377Z" fill="#263238"/>
<path d="M158.56 78.3028C158.639 78.6468 158.475 78.9683 158.249 79.0021C158.024 79.036 157.787 78.7878 157.731 78.4381C157.674 78.0884 157.81 77.7726 158.035 77.7388C158.261 77.7049 158.52 77.97 158.56 78.3028Z" fill="#263238"/>
<path d="M159.863 78.2637C159.625 79.4051 159.231 80.5079 158.689 81.5405C158.959 81.6713 159.254 81.7421 159.554 81.7479C159.854 81.7538 160.152 81.6946 160.427 81.5743L159.863 78.2637Z" fill="#D4827D"/>
<path d="M156.822 76.8593C156.859 76.8714 156.897 76.8741 156.935 76.8672C156.972 76.8603 157.007 76.844 157.037 76.8199C157.229 76.6419 157.46 76.5111 157.712 76.4377C157.963 76.3643 158.228 76.3503 158.486 76.3969C158.512 76.4046 158.539 76.4071 158.566 76.4041C158.593 76.4012 158.619 76.3929 158.643 76.3798C158.666 76.3666 158.687 76.3489 158.704 76.3276C158.721 76.3064 158.733 76.282 158.74 76.2559C158.754 76.2021 158.747 76.1449 158.719 76.0965C158.692 76.0481 158.647 76.0122 158.593 75.9964C158.27 75.9288 157.936 75.9396 157.618 76.0279C157.3 76.1163 157.008 76.2795 156.766 76.504C156.724 76.5392 156.697 76.5899 156.691 76.6448C156.686 76.6998 156.703 76.7546 156.738 76.7973C156.762 76.8232 156.791 76.8443 156.822 76.8593Z" fill="#263238"/>
<path d="M163.072 75.923C163.111 75.9172 163.146 75.8989 163.174 75.8709C163.201 75.843 163.219 75.8068 163.224 75.7679C163.229 75.7291 163.221 75.6896 163.202 75.6555C163.183 75.6214 163.153 75.5945 163.117 75.5789C162.838 75.4008 162.52 75.2929 162.19 75.2644C161.86 75.236 161.528 75.2877 161.222 75.4154C161.197 75.4268 161.175 75.4432 161.157 75.4634C161.138 75.4836 161.124 75.5074 161.115 75.5332C161.106 75.559 161.103 75.5863 161.104 75.6135C161.106 75.6408 161.114 75.6674 161.126 75.6917C161.15 75.7408 161.193 75.7783 161.245 75.7962C161.296 75.8141 161.353 75.8111 161.402 75.7876C161.647 75.6953 161.91 75.661 162.17 75.6874C162.431 75.7138 162.681 75.8002 162.903 75.9399C162.93 75.9503 162.96 75.9541 162.989 75.9512C163.019 75.9483 163.047 75.9386 163.072 75.923Z" fill="#263238"/>
<path d="M164.803 70.5086V72.4431C165.141 72.5594 165.423 72.797 165.595 73.1097C165.767 73.4224 165.816 73.7879 165.734 74.1351C165.305 75.8271 166.512 78.1903 167.866 79.0363C167.866 79.0363 167.821 78.3369 168.43 78.4328C169.039 78.5286 169.31 82.1665 168.368 84.0333C168.368 84.0333 169.913 82.2623 170.438 78.3482C170.923 74.7217 170.686 71.7776 169.806 70.5029L164.803 70.5086Z" fill="#263238"/>
<path d="M171.329 78.5512C171.015 79.6041 170.297 80.49 169.332 81.0159C168.046 81.6983 167.076 80.6267 167.183 79.2506C167.274 78.0267 168.041 76.1598 169.439 76.0583C170.838 75.9568 171.695 77.254 171.329 78.5512Z" fill="#EEC1BB"/>
<path d="M160.883 82.6345C161.186 83.0982 161.455 83.5825 161.69 84.0839L161.972 83.9993C163.241 83.6271 163.703 83.0349 163.839 82.4935C163.902 82.2283 163.902 81.9521 163.839 81.6869C163.804 81.5373 163.749 81.3931 163.675 81.2583C162.993 81.8356 162.195 82.2588 161.335 82.4991C161.053 82.5893 160.883 82.6345 160.883 82.6345Z" fill="#263238"/>
<path d="M161.312 82.4991L161.56 82.9221C162.756 82.5668 163.551 82.1607 163.816 81.6869C163.781 81.5373 163.726 81.3931 163.653 81.2583C162.971 81.8356 162.172 82.2588 161.312 82.4991Z" fill="white"/>
<path d="M161.972 83.9995C163.241 83.6273 163.704 83.0351 163.839 82.4937C163.359 82.6463 162.908 82.881 162.508 83.1874C162.249 83.396 162.062 83.6798 161.972 83.9995Z" fill="#DE5753"/>
<path d="M169.501 71.4222C169.501 71.4222 171.582 68.8842 166.591 67.3275C161.6 65.7709 154.296 70.407 155.779 72.24C157.262 74.073 162.378 73.3059 162.378 73.3059C161.663 73.2198 160.987 72.9344 160.426 72.4825C160.426 72.4825 167.826 72.9788 169.501 71.4222Z" fill="#263238"/>
<path d="M178.413 92.7471C181.577 93.8187 183.742 113.491 183.703 115.2C183.663 116.909 178.819 117.648 178.413 114.072C178.007 110.496 176.348 102.893 176.348 102.893C176.348 102.893 175.908 99.453 176.348 97.3662C176.788 95.2794 178.413 92.7471 178.413 92.7471Z" fill="#754FFE"/>
<path opacity="0.2" d="M178.413 92.7471C181.577 93.8187 183.742 113.491 183.703 115.2C183.663 116.909 178.819 117.648 178.413 114.072C178.007 110.496 176.348 102.893 176.348 102.893C176.348 102.893 175.908 99.453 176.348 97.3662C176.788 95.2794 178.413 92.7471 178.413 92.7471Z" fill="white"/>
<path d="M203.286 114.703L92.8799 102.748L84.5636 179.55L194.97 191.505L203.286 114.703Z" fill="#754FFE"/>
<path opacity="0.6" d="M203.286 114.703L92.8799 102.748L84.5636 179.55L194.97 191.505L203.286 114.703Z" fill="white"/>
<path d="M192.71 188.886L87.3608 177.488L95.1666 105.335L200.516 116.734L192.71 188.886ZM87.9869 176.986L192.208 188.266L199.896 117.236L95.6686 105.956L87.9869 176.986Z" fill="#754FFE"/>
<path d="M193.889 190.285L187.747 189.619L187.984 187.448L92.29 177.093L92.0531 179.264L85.9111 178.604L86.5766 172.463L88.8045 172.705L95.5725 110.321L93.3165 110.078L93.982 103.937L100.124 104.602L99.8927 106.773L195.587 117.128L195.818 114.957L201.988 115.617L201.322 121.759L199.095 121.522L192.327 183.9L194.583 184.143L193.889 190.285ZM188.367 189.123L193.387 189.687L193.951 184.667L191.695 184.425L198.564 120.919L200.82 121.161L201.384 116.141L196.365 115.577L196.128 117.749L99.2723 107.275L99.5092 105.098L94.4896 104.534L93.9256 109.554L96.1534 109.796L89.2839 173.303L87.0279 173.06L86.4639 178.08L91.4835 178.644L91.7203 176.473L188.537 186.946L188.367 189.123Z" fill="#754FFE"/>
<path d="M96.695 107.309L97.9753 107.45L97.8343 108.731L96.554 108.595L96.695 107.309ZM96.193 106.689L96.131 107.253L95.9956 108.539L95.9336 109.103L96.4976 109.165L97.7835 109.306L98.3475 109.362L98.4096 108.798L98.5449 107.518L98.6069 106.954L98.0429 106.892L96.757 106.757L96.193 106.695V106.689Z" fill="#754FFE"/>
<path d="M89.4137 174.606L90.694 174.741L90.553 176.022L89.2727 175.886L89.4137 174.606ZM88.9118 173.98L88.8497 174.544L88.7144 175.824L88.6523 176.388L89.2163 176.445L90.5023 176.586L91.0663 176.648L91.1283 176.084L91.2637 174.803L91.3257 174.239L90.7617 174.183L89.4758 174.042L88.9118 173.98Z" fill="#754FFE"/>
<path d="M197.324 118.201L198.604 118.336L198.469 119.622L197.183 119.481L197.324 118.201ZM196.822 117.574L196.76 118.138L196.625 119.419L196.562 119.983L197.126 120.039L198.412 120.18L198.976 120.242L199.038 119.678L199.179 118.398L199.236 117.834L198.672 117.772L197.392 117.631L196.828 117.569L196.822 117.574Z" fill="#754FFE"/>
<path d="M190.043 185.491L191.323 185.632L191.188 186.912L189.902 186.771L190.043 185.491ZM189.541 184.871L189.479 185.435L189.343 186.721L189.281 187.285L189.845 187.347L191.126 187.482L191.69 187.544L191.752 186.98L191.893 185.694L191.949 185.13L191.385 185.068L190.105 184.933L189.541 184.871Z" fill="#754FFE"/>
<path d="M117.332 119.21C117.417 118.664 117.66 118.156 118.032 117.747C118.403 117.338 118.887 117.048 119.422 116.912C119.957 116.775 120.52 116.799 121.042 116.98C121.564 117.161 122.021 117.491 122.357 117.93L121.669 118.449C121.516 118.235 121.319 118.057 121.091 117.927C120.863 117.796 120.61 117.717 120.349 117.693C120.106 117.66 119.86 117.676 119.624 117.74C119.388 117.805 119.167 117.915 118.974 118.066C118.781 118.217 118.621 118.405 118.502 118.619C118.383 118.833 118.308 119.069 118.282 119.312C118.256 119.555 118.278 119.801 118.348 120.036C118.419 120.27 118.535 120.488 118.691 120.677C118.847 120.865 119.039 121.021 119.256 121.134C119.473 121.247 119.71 121.316 119.954 121.336C120.216 121.368 120.481 121.343 120.732 121.264C120.983 121.184 121.214 121.051 121.409 120.874L121.973 121.534C121.552 121.89 121.034 122.115 120.486 122.181C119.938 122.246 119.382 122.149 118.888 121.902C118.395 121.654 117.984 121.267 117.709 120.789C117.433 120.31 117.304 119.761 117.337 119.21H117.332Z" fill="#754FFE"/>
<path d="M126.784 122.035L126.694 122.848L122.808 122.425L123.372 117.236L127.157 117.648L127.072 118.454L124.252 118.15L124.105 119.497L126.615 119.768L126.525 120.563L124.021 120.293L123.868 121.72L126.784 122.035Z" fill="#754FFE"/>
<path d="M131.161 123.327L130.27 121.697H130.066L128.893 121.573L128.73 123.085L127.771 122.978L128.335 117.794L130.467 118.026C131.832 118.172 132.604 118.956 132.48 120.107C132.454 120.463 132.315 120.802 132.084 121.074C131.853 121.347 131.542 121.539 131.194 121.624L132.204 123.457L131.161 123.327ZM130.332 118.815L129.204 118.697L128.984 120.761L130.112 120.885C130.958 120.975 131.437 120.637 131.505 119.983C131.572 119.329 131.178 118.906 130.36 118.815H130.332Z" fill="#754FFE"/>
<path d="M134.635 119.283L132.915 119.097L133.005 118.279L137.404 118.759L137.32 119.571L135.6 119.385L135.126 123.756L134.161 123.654L134.635 119.283Z" fill="#754FFE"/>
<path d="M138.132 118.838L139.096 118.939L138.532 124.128L137.568 124.021L138.132 118.838Z" fill="#754FFE"/>
<path d="M141.369 120.005L141.2 121.579L143.704 121.849L143.614 122.667L141.11 122.396L140.896 124.382L139.931 124.28L140.495 119.091L144.28 119.503L144.195 120.31L141.369 120.005Z" fill="#754FFE"/>
<path d="M145.216 119.599L146.174 119.706L145.61 124.895L144.646 124.788L145.216 119.599Z" fill="#754FFE"/>
<path d="M146.925 122.413C146.96 122.052 147.069 121.702 147.245 121.384C147.421 121.066 147.66 120.788 147.947 120.566C148.235 120.344 148.564 120.184 148.916 120.094C149.268 120.004 149.634 119.987 149.993 120.044C150.379 120.07 150.755 120.182 151.093 120.37C151.432 120.558 151.724 120.819 151.95 121.133L151.268 121.652C151.115 121.438 150.918 121.259 150.69 121.128C150.463 120.997 150.209 120.916 149.948 120.89C149.644 120.861 149.338 120.907 149.056 121.026C148.775 121.145 148.528 121.332 148.338 121.571C148.147 121.809 148.019 122.092 147.965 122.392C147.912 122.693 147.934 123.002 148.03 123.292C148.126 123.581 148.293 123.843 148.516 124.051C148.738 124.26 149.009 124.41 149.305 124.488C149.6 124.565 149.91 124.568 150.206 124.495C150.503 124.422 150.777 124.277 151.003 124.071L151.567 124.731C151.145 125.087 150.629 125.312 150.081 125.378C149.533 125.444 148.978 125.347 148.484 125.1C147.991 124.853 147.581 124.467 147.304 123.99C147.028 123.512 146.898 122.964 146.93 122.413H146.925Z" fill="#754FFE"/>
<path d="M155.785 124.776L153.191 124.5L152.548 125.628L151.555 125.521L154.454 120.586L155.402 120.687L157.178 126.124L156.174 126.017L155.785 124.776ZM155.548 123.987L154.815 121.612L153.597 123.778L155.548 123.987Z" fill="#754FFE"/>
<path d="M159.124 121.928L157.404 121.742L157.488 120.93L161.893 121.404L161.803 122.222L160.083 122.036L159.615 126.407L158.65 126.299L159.124 121.928Z" fill="#754FFE"/>
<path d="M162.598 121.483L163.563 121.59L162.999 126.773L162.034 126.672L162.598 121.483Z" fill="#754FFE"/>
<path d="M164.313 124.292C164.347 123.729 164.548 123.189 164.892 122.742C165.236 122.295 165.705 121.962 166.241 121.784C166.776 121.607 167.352 121.594 167.894 121.747C168.437 121.901 168.921 122.213 169.284 122.644C169.648 123.075 169.873 123.605 169.932 124.166C169.991 124.727 169.881 125.292 169.615 125.79C169.35 126.287 168.941 126.693 168.442 126.956C167.943 127.219 167.377 127.326 166.817 127.264C166.453 127.244 166.098 127.15 165.772 126.987C165.446 126.825 165.157 126.597 164.922 126.319C164.688 126.041 164.513 125.717 164.408 125.368C164.303 125.02 164.271 124.653 164.313 124.292ZM168.926 124.794C168.967 124.433 168.899 124.069 168.732 123.747C168.565 123.424 168.306 123.159 167.989 122.984C167.671 122.809 167.308 122.733 166.947 122.764C166.585 122.795 166.241 122.933 165.958 123.16C165.675 123.387 165.466 123.693 165.357 124.039C165.247 124.385 165.243 124.755 165.345 125.103C165.447 125.452 165.649 125.762 165.927 125.995C166.206 126.228 166.547 126.373 166.907 126.412C167.147 126.445 167.391 126.429 167.625 126.365C167.858 126.3 168.076 126.189 168.265 126.037C168.454 125.886 168.61 125.697 168.724 125.484C168.837 125.27 168.906 125.035 168.926 124.794Z" fill="#754FFE"/>
<path d="M175.812 122.91L175.248 128.099L174.459 128.014L171.977 124.19L171.594 127.704L170.641 127.602L171.205 122.414L172 122.498L174.481 126.322L174.859 122.808L175.812 122.91Z" fill="#754FFE"/>
<path opacity="0.6" d="M170.5 142.926L118.888 137.342C118.31 137.28 117.729 137.449 117.276 137.814C116.822 138.179 116.532 138.709 116.469 139.288C116.406 139.867 116.576 140.447 116.941 140.901C117.306 141.355 117.836 141.645 118.415 141.708L170.026 147.291C170.313 147.322 170.603 147.297 170.88 147.216C171.156 147.135 171.414 147 171.639 146.82C171.864 146.639 172.051 146.416 172.189 146.163C172.328 145.91 172.415 145.632 172.446 145.346C172.477 145.059 172.451 144.769 172.37 144.492C172.289 144.216 172.155 143.957 171.974 143.733C171.793 143.508 171.57 143.321 171.317 143.183C171.064 143.044 170.787 142.957 170.5 142.926Z" fill="white"/>
<path d="M183.049 154.257H183.015L104.236 145.735C104.161 145.726 104.092 145.689 104.045 145.63C103.998 145.571 103.976 145.496 103.985 145.422C103.993 145.347 104.03 145.278 104.089 145.231C104.148 145.184 104.223 145.162 104.298 145.171L183.077 153.698C183.114 153.702 183.15 153.713 183.182 153.73C183.215 153.748 183.244 153.772 183.267 153.801C183.29 153.83 183.307 153.863 183.317 153.899C183.327 153.934 183.33 153.972 183.325 154.009C183.317 154.076 183.285 154.139 183.234 154.185C183.183 154.23 183.117 154.256 183.049 154.257Z" fill="#754FFE"/>
<path d="M183.303 151.894H183.269L110.665 144.037C110.591 144.029 110.524 143.991 110.477 143.933C110.431 143.875 110.409 143.801 110.417 143.727C110.421 143.69 110.431 143.654 110.449 143.622C110.467 143.589 110.491 143.56 110.52 143.537C110.549 143.514 110.582 143.497 110.618 143.487C110.653 143.477 110.691 143.474 110.727 143.479L183.331 151.33C183.406 151.333 183.476 151.367 183.526 151.422C183.577 151.478 183.603 151.551 183.599 151.626C183.595 151.701 183.562 151.771 183.506 151.821C183.451 151.871 183.378 151.897 183.303 151.894Z" fill="#754FFE"/>
<path d="M151.91 153.388L103.97 148.205C103.896 148.197 103.827 148.16 103.78 148.101C103.733 148.042 103.711 147.967 103.719 147.892C103.728 147.818 103.765 147.749 103.824 147.702C103.883 147.655 103.958 147.633 104.032 147.641L151.939 152.824C151.976 152.826 152.012 152.835 152.045 152.851C152.079 152.867 152.109 152.89 152.134 152.917C152.159 152.945 152.178 152.977 152.19 153.012C152.203 153.047 152.208 153.084 152.207 153.121C152.205 153.158 152.196 153.194 152.18 153.227C152.164 153.261 152.141 153.291 152.114 153.316C152.086 153.341 152.054 153.36 152.019 153.372C151.985 153.385 151.947 153.39 151.91 153.388Z" fill="#754FFE"/>
<path d="M185.108 135.227H185.068L112.47 127.371C112.395 127.363 112.327 127.325 112.28 127.266C112.233 127.208 112.211 127.133 112.219 127.058C112.227 126.983 112.265 126.915 112.324 126.868C112.382 126.82 112.457 126.799 112.532 126.807L185.136 134.663C185.21 134.672 185.277 134.709 185.324 134.767C185.37 134.825 185.392 134.9 185.384 134.974C185.378 135.043 185.347 135.108 185.295 135.155C185.244 135.202 185.177 135.228 185.108 135.227Z" fill="#754FFE"/>
<path d="M184.848 137.59H184.82L106.04 129.063C105.965 129.055 105.897 129.017 105.85 128.958C105.803 128.9 105.781 128.825 105.789 128.75C105.798 128.675 105.835 128.607 105.894 128.559C105.953 128.512 106.028 128.491 106.102 128.499L184.882 137.021C184.919 137.023 184.955 137.033 184.988 137.049C185.022 137.065 185.052 137.088 185.076 137.115C185.101 137.143 185.12 137.175 185.132 137.211C185.144 137.246 185.149 137.283 185.147 137.32C185.145 137.357 185.135 137.393 185.119 137.426C185.103 137.46 185.08 137.49 185.052 137.514C185.025 137.539 184.992 137.558 184.957 137.57C184.922 137.582 184.885 137.587 184.848 137.585V137.59Z" fill="#754FFE"/>
<path d="M141.076 137.85L105.51 134.004C105.435 133.995 105.367 133.958 105.32 133.899C105.273 133.84 105.251 133.765 105.259 133.691C105.267 133.616 105.305 133.547 105.364 133.5C105.422 133.453 105.497 133.431 105.572 133.44L141.138 137.292C141.212 137.3 141.279 137.338 141.326 137.396C141.372 137.454 141.394 137.528 141.386 137.602C141.376 137.675 141.338 137.742 141.281 137.788C141.223 137.834 141.15 137.857 141.076 137.85Z" fill="#754FFE"/>
<path d="M184.583 140.061H184.555L105.775 131.533C105.738 131.529 105.702 131.518 105.67 131.5C105.637 131.482 105.608 131.458 105.585 131.429C105.562 131.4 105.544 131.367 105.534 131.331C105.523 131.295 105.52 131.257 105.524 131.22C105.528 131.183 105.54 131.148 105.558 131.115C105.575 131.082 105.6 131.053 105.629 131.03C105.658 131.007 105.691 130.989 105.727 130.979C105.763 130.969 105.8 130.965 105.837 130.969L184.611 139.497C184.686 139.501 184.756 139.534 184.806 139.59C184.857 139.645 184.883 139.718 184.879 139.793C184.875 139.868 184.842 139.938 184.786 139.989C184.731 140.039 184.658 140.065 184.583 140.061Z" fill="#754FFE"/>
<path d="M174.639 180.342L171.385 178.114L167.73 179.592L168.994 167.895L175.908 168.645L174.639 180.342Z" fill="#754FFE"/>
<path opacity="0.2" d="M174.639 180.342L171.385 178.114L167.73 179.592L168.994 167.895L175.908 168.645L174.639 180.342Z" fill="black"/>
<path d="M173.422 159.305L174.561 158.645L175.283 159.75L176.557 159.395L176.98 160.641L178.3 160.613L178.402 161.933L179.688 162.226L179.456 163.529L180.629 164.138L180.082 165.339L181.064 166.225L180.235 167.251L180.968 168.351L179.913 169.141L180.347 170.387L179.124 170.889L179.242 172.203L177.934 172.389L177.714 173.692L176.399 173.54L175.864 174.747L174.634 174.279L173.816 175.317L172.733 174.555L171.684 175.356L170.827 174.347L169.615 174.86L169.034 173.675L167.731 173.867L167.466 172.576L166.152 172.44L166.219 171.12L164.978 170.664L165.368 169.4L164.285 168.65L164.978 167.522L164.11 166.53L165.063 165.61L164.471 164.426L165.621 163.777L165.345 162.486L166.62 162.142L166.67 160.822L167.996 160.805L168.374 159.542L169.66 159.852L170.336 158.718L171.504 159.344L172.446 158.414L173.422 159.305Z" fill="#754FFE"/>
<path opacity="0.2" d="M173.252 160.844L174.166 160.314L174.741 161.2L175.757 160.912L176.095 161.91L177.15 161.888L177.229 162.942L178.261 163.179L178.075 164.217L179.011 164.702L178.571 165.667L179.36 166.366L178.695 167.189L179.282 168.069L178.436 168.701L178.785 169.694L177.809 170.094L177.9 171.143L176.856 171.29L176.681 172.333L175.632 172.209L175.204 173.179L174.222 172.801L173.568 173.63L172.705 173.021L171.871 173.658L171.182 172.858L170.212 173.264L169.756 172.316L168.712 172.474L168.498 171.442L167.449 171.329L167.505 170.28L166.513 169.914L166.828 168.904L165.96 168.306L166.513 167.409L165.819 166.608L166.58 165.881L166.112 164.933L167.026 164.415L166.806 163.382L167.827 163.106L167.866 162.057L168.921 162.04L169.225 161.031L170.252 161.279L170.793 160.376L171.724 160.873L172.474 160.134L173.252 160.844Z" fill="white"/>
<path d="M172.598 167.449L173.387 167.539L173.331 168.064L172.479 167.974L172.248 168.949L171.718 168.893L171.949 167.917L170.968 167.81L170.742 168.786L170.212 168.729L170.443 167.754L169.654 167.669L169.71 167.139L170.562 167.229L170.81 166.208L170.02 166.124L170.077 165.593L170.928 165.684L171.16 164.708L171.69 164.764L171.459 165.746L172.434 165.847L172.666 164.872L173.196 164.928L172.964 165.904L173.748 165.988L173.698 166.518L172.846 166.428L172.598 167.449ZM172.068 167.393L172.31 166.372L171.335 166.265L171.086 167.285L172.068 167.393Z" fill="#754FFE"/>
<path d="M175.649 165.198L175.209 169.27L174.454 169.191L174.826 165.745L173.963 165.655L174.031 165.023L175.649 165.198Z" fill="#754FFE"/>
<path d="M110.14 155.284C110.274 155.205 110.432 155.181 110.582 155.217C110.733 155.253 110.863 155.345 110.947 155.475C111.018 155.583 111.121 155.665 111.242 155.71C111.363 155.754 111.494 155.759 111.618 155.723C111.767 155.682 111.926 155.7 112.062 155.772C112.199 155.844 112.302 155.966 112.351 156.113C112.392 156.23 112.468 156.332 112.569 156.405C112.67 156.478 112.791 156.517 112.915 156.519C113.07 156.517 113.22 156.574 113.334 156.679C113.449 156.784 113.519 156.928 113.53 157.083C113.533 157.215 113.58 157.342 113.664 157.444C113.748 157.547 113.864 157.618 113.993 157.647C114.143 157.682 114.274 157.773 114.359 157.902C114.444 158.032 114.477 158.188 114.449 158.34C114.426 158.467 114.444 158.597 114.501 158.712C114.558 158.827 114.651 158.92 114.765 158.978C114.901 159.05 115.004 159.171 115.055 159.317C115.105 159.462 115.098 159.621 115.036 159.762C114.982 159.879 114.967 160.01 114.993 160.136C115.02 160.262 115.086 160.376 115.183 160.461C115.297 160.565 115.367 160.708 115.38 160.862C115.393 161.016 115.346 161.169 115.25 161.29C115.168 161.389 115.121 161.512 115.115 161.64C115.109 161.768 115.144 161.895 115.216 162.001C115.301 162.13 115.333 162.286 115.307 162.437C115.281 162.589 115.198 162.725 115.075 162.819C114.971 162.894 114.894 163.002 114.857 163.125C114.819 163.248 114.823 163.38 114.867 163.501C114.919 163.646 114.913 163.806 114.85 163.947C114.787 164.088 114.671 164.199 114.528 164.257C114.41 164.306 114.309 164.391 114.243 164.5C114.176 164.61 114.145 164.738 114.156 164.866C114.169 165.02 114.123 165.173 114.026 165.294C113.929 165.414 113.79 165.493 113.637 165.515C113.51 165.531 113.392 165.589 113.301 165.678C113.209 165.768 113.149 165.884 113.13 166.011C113.103 166.163 113.02 166.3 112.896 166.393C112.773 166.487 112.618 166.529 112.464 166.513C112.336 166.499 112.208 166.526 112.096 166.59C111.985 166.654 111.896 166.751 111.844 166.868C111.783 167.009 111.669 167.121 111.527 167.18C111.385 167.239 111.225 167.241 111.082 167.184C110.962 167.139 110.831 167.133 110.707 167.167C110.583 167.202 110.474 167.275 110.394 167.376C110.298 167.497 110.159 167.577 110.006 167.599C109.853 167.622 109.697 167.584 109.571 167.494C109.468 167.419 109.343 167.378 109.215 167.378C109.088 167.378 108.963 167.419 108.86 167.494C108.737 167.589 108.582 167.632 108.428 167.615C108.273 167.598 108.131 167.523 108.031 167.404C107.947 167.307 107.835 167.239 107.711 167.21C107.586 167.181 107.456 167.191 107.337 167.24C107.196 167.301 107.037 167.305 106.894 167.251C106.75 167.197 106.632 167.091 106.565 166.953C106.508 166.837 106.417 166.743 106.303 166.683C106.19 166.623 106.06 166.601 105.933 166.62C105.78 166.642 105.624 166.604 105.497 166.515C105.37 166.426 105.282 166.292 105.251 166.141C105.225 166.015 105.161 165.902 105.066 165.815C104.972 165.729 104.853 165.675 104.726 165.661C104.568 165.652 104.421 165.582 104.315 165.464C104.209 165.347 104.154 165.193 104.162 165.035C104.169 164.906 104.134 164.779 104.063 164.671C103.992 164.564 103.888 164.482 103.767 164.437C103.623 164.384 103.504 164.277 103.436 164.138C103.367 164 103.355 163.84 103.401 163.693C103.439 163.571 103.437 163.44 103.395 163.319C103.354 163.198 103.275 163.094 103.169 163.022C103.043 162.934 102.955 162.8 102.923 162.649C102.892 162.498 102.919 162.341 103 162.209C103.067 162.1 103.097 161.973 103.087 161.845C103.077 161.717 103.027 161.596 102.944 161.499C102.841 161.383 102.787 161.232 102.793 161.077C102.8 160.923 102.866 160.777 102.978 160.67C103.071 160.581 103.133 160.464 103.156 160.338C103.178 160.211 103.159 160.08 103.102 159.965C103.031 159.827 103.017 159.666 103.062 159.518C103.107 159.37 103.209 159.245 103.344 159.17C103.455 159.106 103.543 159.009 103.595 158.892C103.646 158.776 103.659 158.646 103.632 158.521C103.599 158.369 103.626 158.211 103.707 158.079C103.788 157.946 103.916 157.85 104.066 157.81C104.191 157.776 104.302 157.703 104.382 157.602C104.462 157.5 104.508 157.376 104.512 157.246C104.522 157.095 104.588 156.953 104.698 156.849C104.807 156.744 104.952 156.685 105.104 156.682C105.231 156.68 105.355 156.638 105.456 156.56C105.558 156.483 105.632 156.376 105.668 156.254C105.711 156.105 105.811 155.979 105.946 155.902C106.08 155.825 106.24 155.804 106.39 155.842C106.515 155.871 106.646 155.86 106.765 155.811C106.883 155.761 106.983 155.675 107.05 155.566C107.128 155.433 107.254 155.335 107.403 155.294C107.551 155.253 107.71 155.272 107.845 155.346C107.958 155.407 108.087 155.43 108.214 155.411C108.341 155.393 108.459 155.334 108.55 155.244C108.663 155.138 108.812 155.079 108.967 155.079C109.122 155.079 109.272 155.138 109.385 155.244C109.487 155.337 109.618 155.391 109.756 155.399C109.893 155.406 110.029 155.365 110.14 155.284Z" fill="#754FFE"/>
<path opacity="0.2" d="M109.125 166.563C111.997 166.563 114.325 164.235 114.325 161.363C114.325 158.491 111.997 156.163 109.125 156.163C106.253 156.163 103.925 158.491 103.925 161.363C103.925 164.235 106.253 166.563 109.125 166.563Z" fill="white"/>
<path d="M109.402 158.78L110.062 160.574L111.906 161.048L110.406 162.226L110.524 164.127L108.939 163.061L107.168 163.766L107.693 161.927L106.475 160.461L108.381 160.393L109.402 158.78Z" fill="#754FFE"/>
<path d="M132.164 168.324C134.88 166.138 135.309 162.166 133.124 159.45C130.938 156.735 126.965 156.306 124.25 158.491C121.535 160.677 121.105 164.649 123.291 167.365C125.476 170.08 129.449 170.509 132.164 168.324Z" fill="#754FFE"/>
<path opacity="0.2" d="M132.932 163.94C132.83 164.877 132.453 165.761 131.849 166.483C131.245 167.205 130.44 167.732 129.536 167.996C128.633 168.261 127.671 168.251 126.773 167.969C125.874 167.687 125.08 167.145 124.49 166.411C123.9 165.677 123.541 164.785 123.458 163.847C123.374 162.91 123.571 161.968 124.023 161.142C124.476 160.316 125.162 159.643 125.997 159.207C126.832 158.772 127.777 158.594 128.713 158.695C129.968 158.832 131.117 159.461 131.908 160.444C132.7 161.428 133.068 162.686 132.932 163.94Z" fill="white"/>
<g opacity="0.2">
<path d="M127.613 168.859C126.539 168.742 125.523 168.309 124.694 167.615C123.866 166.921 123.262 165.997 122.958 164.96C122.655 163.923 122.666 162.819 122.99 161.787C123.314 160.756 123.936 159.844 124.778 159.167C125.62 158.49 126.645 158.077 127.721 157.982C128.798 157.886 129.879 158.112 130.827 158.631C131.775 159.15 132.548 159.938 133.048 160.896C133.548 161.855 133.753 162.94 133.637 164.014C133.56 164.728 133.342 165.419 132.998 166.049C132.653 166.679 132.188 167.234 131.629 167.684C131.069 168.134 130.427 168.469 129.738 168.671C129.049 168.872 128.327 168.936 127.613 168.859ZM128.741 158.323C127.731 158.214 126.712 158.407 125.812 158.877C124.911 159.347 124.171 160.074 123.684 160.966C123.197 161.857 122.986 162.873 123.077 163.885C123.168 164.897 123.557 165.859 124.195 166.649C124.832 167.44 125.691 168.023 126.66 168.325C127.63 168.628 128.667 168.636 129.642 168.348C130.616 168.061 131.483 167.491 132.133 166.71C132.783 165.929 133.186 164.973 133.293 163.963C133.434 162.614 133.035 161.264 132.185 160.208C131.334 159.151 130.101 158.474 128.753 158.323H128.741Z" fill="white"/>
</g>
<path d="M129.204 163.642L128.409 161.504L127.173 163.427L125.194 161.335L125.673 165.097L126.852 165.221L127.878 165.334L128.11 165.362L129.136 165.469L130.315 165.599L131.584 162.023L129.204 163.642Z" fill="#754FFE"/>
<path d="M131.296 108.319L132.689 107.044L133.817 107.168L134.032 105.544L131.99 105.076C131.99 105.076 129.17 104.687 128.166 104.681C127.754 104.681 127.275 104.681 126.13 107.202C125.938 107.653 131.296 108.319 131.296 108.319Z" fill="#EEC1BB"/>
<path d="M177.336 111.872C177.623 111.227 177.985 110.618 178.413 110.056C178.791 109.724 182.231 110.485 182.806 110.953C183.382 111.421 183.105 112.481 183.105 112.481C183.105 112.481 182.147 113.982 181.492 113.903C180.838 113.824 177.516 113.655 177.336 113.412C177.155 113.17 177.336 111.872 177.336 111.872Z" fill="#EEC1BB"/>
</g>
<defs>
<clipPath id="clip0_8333_8964">
<rect width="272" height="272" fill="white"/>
</clipPath>
</defs>
</svg>
