<svg width="52" height="58" viewBox="0 0 52 58" fill="none" xmlns="http://www.w3.org/2000/svg">
<path d="M38.4545 27.4063C37.5198 27.4397 36.752 28.3076 36.752 28.3076C36.752 28.3076 37.5531 29.1088 38.4879 29.0754C39.4226 29.0421 40.1904 28.1741 40.1904 28.1741C40.1904 28.1741 39.3892 27.3729 38.4545 27.4063Z" fill="#E53E3E"/>
<path d="M36.1178 26.3714C36.1845 25.3031 36.9857 24.502 36.9857 24.502C36.9857 24.502 37.6868 25.4033 37.62 26.4716C37.5532 27.5398 36.752 28.341 36.752 28.341C36.752 28.341 36.051 27.4397 36.1178 26.3714Z" fill="#E53E3E"/>
<path d="M40.1921 24.5346C39.2573 24.7349 38.623 25.703 38.623 25.703C38.623 25.703 39.5244 26.3706 40.4591 26.1703C41.3938 25.97 42.0281 25.0019 42.0281 25.0019C42.0281 25.0019 41.1268 24.3343 40.1921 24.5346Z" fill="#E53E3E"/>
<path d="M37.7547 23.9004C37.6879 22.8322 38.3556 21.8975 38.3556 21.8975C38.3556 21.8975 39.1568 22.6653 39.2569 23.7335C39.3237 24.8018 38.656 25.7365 38.656 25.7365C38.656 25.7365 37.8215 24.9353 37.7547 23.9004Z" fill="#E53E3E"/>
<path d="M41.2256 21.0293C40.3576 21.4633 39.957 22.5983 39.957 22.5983C39.957 22.5983 40.9585 22.9989 41.8265 22.5315C42.6944 22.0976 43.095 20.9625 43.095 20.9625C43.095 20.9625 42.0936 20.5619 41.2256 21.0293Z" fill="#E53E3E"/>
<path d="M38.7212 21.0629C38.4207 20.0614 38.8547 18.9932 38.8547 18.9932C38.8547 18.9932 39.8228 19.5273 40.1233 20.4954C40.4237 21.4969 39.9897 22.5651 39.9897 22.5651C39.9897 22.5651 39.0216 22.0644 38.7212 21.0629Z" fill="#E53E3E"/>
<path d="M41.393 18.0258C40.7253 18.5599 40.5918 19.5614 40.5918 19.5614C40.5918 19.5614 41.4931 19.6949 42.1608 19.1608C42.8285 18.6267 42.962 17.6252 42.962 17.6252C42.962 17.6252 42.0273 17.4917 41.393 18.0258Z" fill="#E53E3E"/>
<path d="M39.2894 18.5261C38.8888 17.7583 39.0891 16.7568 39.0891 16.7568C39.0891 16.7568 39.9571 17.0239 40.3911 17.7917C40.8251 18.5595 40.5914 19.561 40.5914 19.561C40.5914 19.561 39.7234 19.2939 39.2894 18.5261Z" fill="#E53E3E"/>
<path d="M40.9252 14.8873C40.4245 15.5884 40.4912 16.6232 40.4912 16.6232C40.4912 16.6232 41.3926 16.4897 41.8933 15.7887C42.3941 15.0876 42.3273 14.0527 42.3273 14.0527C42.3273 14.0527 41.426 14.1863 40.9252 14.8873Z" fill="#E53E3E"/>
<path d="M39.0228 16.0225C38.4553 15.3882 38.4219 14.3867 38.4219 14.3867C38.4219 14.3867 39.3232 14.3867 39.9241 14.9876C40.4916 15.6219 40.525 16.6234 40.525 16.6234C40.525 16.6234 39.6237 16.6234 39.0228 16.0225Z" fill="#E53E3E"/>
<path d="M39.9572 12.2837C39.6568 12.9848 39.9238 13.786 39.9238 13.786C39.9238 13.786 40.6249 13.4855 40.9253 12.7845C41.2258 12.0834 40.9587 11.2822 40.9587 11.2822C40.9587 11.2822 40.2577 11.5827 39.9572 12.2837Z" fill="#E53E3E"/>
<path d="M38.6215 13.6192C38.0206 13.2519 37.8203 12.4174 37.8203 12.4174C37.8203 12.4174 38.5547 12.1837 39.1556 12.5843C39.7565 12.9515 39.9568 13.7861 39.9568 13.7861C39.9568 13.7861 39.189 13.9864 38.6215 13.6192Z" fill="#E53E3E"/>
<path d="M38.8225 10.2468C38.689 10.8811 39.0228 11.482 39.0228 11.482C39.0228 11.482 39.557 11.0814 39.6905 10.4471C39.824 9.81281 39.4902 9.21191 39.4902 9.21191C39.4902 9.21191 38.9561 9.61251 38.8225 10.2468Z" fill="#E53E3E"/>
<path d="M37.8873 11.6151C37.3532 11.4148 37.0527 10.7805 37.0527 10.7805C37.0527 10.7805 37.6536 10.4467 38.1878 10.647C38.7219 10.8473 39.0223 11.4816 39.0223 11.4816C39.0223 11.4816 38.4548 11.782 37.8873 11.6151Z" fill="#E53E3E"/>
<path d="M37.6527 8.91208C37.6194 9.41283 37.9532 9.84681 37.9532 9.84681C37.9532 9.84681 38.3204 9.44621 38.3538 8.94547C38.3872 8.44472 38.0533 8.01074 38.0533 8.01074C38.0533 8.01074 37.6861 8.41134 37.6527 8.91208Z" fill="#E53E3E"/>
<path d="M37.1194 10.1136C36.6854 10.0468 36.3516 9.61281 36.3516 9.61281C36.3516 9.61281 36.7522 9.27898 37.2195 9.34574C37.6535 9.41251 37.9873 9.84649 37.9873 9.84649C37.9873 9.84649 37.5533 10.1803 37.1194 10.1136Z" fill="#E53E3E"/>
<path d="M36.519 8.54461C36.7861 8.77829 37.1533 8.77829 37.1533 8.77829C37.1533 8.77829 37.1199 8.34432 36.8862 8.11063C36.6192 7.87695 36.252 7.87695 36.252 7.87695C36.252 7.87695 36.2853 8.31093 36.519 8.54461Z" fill="#E53E3E"/>
<path d="M13.5504 27.4063C14.4851 27.4397 15.2529 28.3076 15.2529 28.3076C15.2529 28.3076 14.4517 29.1088 13.517 29.0754C12.5823 29.0421 11.8145 28.1741 11.8145 28.1741C11.8145 28.1741 12.6156 27.3729 13.5504 27.4063Z" fill="#E53E3E"/>
<path d="M15.8876 26.3714C15.8208 25.3031 15.0196 24.502 15.0196 24.502C15.0196 24.502 14.3186 25.4033 14.3853 26.4716C14.4521 27.5398 15.2533 28.341 15.2533 28.341C15.2533 28.341 15.9543 27.4397 15.8876 26.3714Z" fill="#E53E3E"/>
<path d="M11.8146 24.5346C12.7493 24.7349 13.3836 25.703 13.3836 25.703C13.3836 25.703 12.4822 26.3706 11.5475 26.1703C10.6128 25.97 9.97852 25.0019 9.97852 25.0019C9.97852 25.0019 10.8799 24.3343 11.8146 24.5346Z" fill="#E53E3E"/>
<path d="M14.2511 23.9004C14.3178 22.8322 13.6502 21.8975 13.6502 21.8975C13.6502 21.8975 12.849 22.6653 12.7488 23.7335C12.6821 24.8018 13.3497 25.7365 13.3497 25.7365C13.3497 25.7365 14.1843 24.9353 14.2511 23.9004Z" fill="#E53E3E"/>
<path d="M10.7796 21.0293C11.6476 21.4633 12.0482 22.5983 12.0482 22.5983C12.0482 22.5983 11.0467 22.9989 10.1787 22.5315C9.31075 22.0976 8.91016 20.9625 8.91016 20.9625C8.91016 20.9625 9.91164 20.5619 10.7796 21.0293Z" fill="#E53E3E"/>
<path d="M13.2834 21.0629C13.5839 20.0614 13.1499 18.9932 13.1499 18.9932C13.1499 18.9932 12.1818 19.5273 11.8813 20.4954C11.5809 21.4969 12.0149 22.5651 12.0149 22.5651C12.0149 22.5651 12.983 22.0644 13.2834 21.0629Z" fill="#E53E3E"/>
<path d="M10.612 18.0258C11.2796 18.5599 11.4132 19.5614 11.4132 19.5614C11.4132 19.5614 10.5118 19.6949 9.84416 19.1608C9.1765 18.6267 9.04297 17.6252 9.04297 17.6252C9.04297 17.6252 9.97769 17.4917 10.612 18.0258Z" fill="#E53E3E"/>
<path d="M12.7144 18.5261C13.115 17.7583 12.9147 16.7568 12.9147 16.7568C12.9147 16.7568 12.0467 17.0239 11.6127 17.7917C11.1788 18.5595 11.4124 19.561 11.4124 19.561C11.4124 19.561 12.2804 19.2939 12.7144 18.5261Z" fill="#E53E3E"/>
<path d="M11.0808 14.8873C11.5816 15.5884 11.5148 16.6232 11.5148 16.6232C11.5148 16.6232 10.6135 16.4897 10.1127 15.7887C9.61197 15.0876 9.67874 14.0527 9.67874 14.0527C9.67874 14.0527 10.5801 14.1863 11.0808 14.8873Z" fill="#E53E3E"/>
<path d="M12.9827 16.0225C13.5502 15.3882 13.5836 14.3867 13.5836 14.3867C13.5836 14.3867 12.6823 14.3867 12.0814 14.9876C11.5138 15.6219 11.4805 16.6234 11.4805 16.6234C11.4805 16.6234 12.3818 16.6234 12.9827 16.0225Z" fill="#E53E3E"/>
<path d="M12.0484 12.2837C12.3488 12.9848 12.0818 13.786 12.0818 13.786C12.0818 13.786 11.3807 13.4855 11.0803 12.7845C10.7798 12.0834 11.0469 11.2822 11.0469 11.2822C11.0469 11.2822 11.7479 11.5827 12.0484 12.2837Z" fill="#E53E3E"/>
<path d="M13.3841 13.6192C13.985 13.2519 14.1853 12.4174 14.1853 12.4174C14.1853 12.4174 13.4509 12.1837 12.85 12.5843C12.2491 12.9515 12.0488 13.7861 12.0488 13.7861C12.0488 13.7861 12.8166 13.9864 13.3841 13.6192Z" fill="#E53E3E"/>
<path d="M13.1827 10.2468C13.3162 10.8811 12.9824 11.482 12.9824 11.482C12.9824 11.482 12.4483 11.0814 12.3147 10.4471C12.1812 9.81281 12.515 9.21191 12.515 9.21191C12.515 9.21191 13.0492 9.61251 13.1827 10.2468Z" fill="#E53E3E"/>
<path d="M14.1174 11.6151C14.6516 11.4148 14.952 10.7805 14.952 10.7805C14.952 10.7805 14.3511 10.4467 13.817 10.647C13.2829 10.8473 12.9824 11.4816 12.9824 11.4816C12.9824 11.4816 13.5499 11.782 14.1174 11.6151Z" fill="#E53E3E"/>
<path d="M14.3518 8.91208C14.3852 9.41283 14.0514 9.84681 14.0514 9.84681C14.0514 9.84681 13.6508 9.44621 13.6508 8.94547C13.6174 8.44472 13.9512 8.01074 13.9512 8.01074C13.9512 8.01074 14.3184 8.41134 14.3518 8.91208Z" fill="#E53E3E"/>
<path d="M14.8855 10.1136C15.3195 10.0468 15.6533 9.61281 15.6533 9.61281C15.6533 9.61281 15.2527 9.27898 14.7854 9.34574C14.3514 9.41251 14.0176 9.84649 14.0176 9.84649C14.0176 9.84649 14.4516 10.1803 14.8855 10.1136Z" fill="#E53E3E"/>
<path d="M15.4858 8.54461C15.2188 8.77829 14.8516 8.77829 14.8516 8.77829C14.8516 8.77829 14.8849 8.34432 15.1186 8.11063C15.3857 7.87695 15.7529 7.87695 15.7529 7.87695C15.7529 7.87695 15.7195 8.31093 15.4858 8.54461Z" fill="#E53E3E"/>
<path d="M4.50586 32.2129V39.7241C4.50586 41.894 5.67426 43.8969 7.51033 44.7983L23.8346 52.8436C25.2033 53.5113 26.7389 53.5113 28.1076 52.8436L44.4319 44.7983C46.268 43.8969 47.4364 41.9273 47.4364 39.7241V32.2129H4.50586Z" fill="#E53E3E"/>
<path d="M47.5359 47.7696L28.5076 56.4492C26.9386 57.1836 25.1025 57.1836 23.5335 56.4492L4.50522 47.7696C2.3687 46.8015 1 44.665 1 42.2948V1H51.0745V42.3282C51.0411 44.665 49.6724 46.8015 47.5359 47.7696Z" stroke="#E53E3E" stroke-width="1.00149" stroke-miterlimit="10"/>
<path d="M46.5345 6.04076V39.9245C46.5345 41.8607 45.3995 43.5966 43.6635 44.3978L28.0737 51.5084C27.4394 51.8089 26.7384 51.9424 26.0373 51.9424C25.3363 51.9424 24.6352 51.8089 24.0009 51.5084L8.41108 44.3978C6.64178 43.5966 5.54014 41.8607 5.54014 39.9245V6.04076H46.5345ZM49.2051 3.37012H46.5345H5.47338H2.80273V6.04076V39.9245C2.80273 42.8956 4.53865 45.5996 7.24268 46.8348L22.8325 53.9454C23.834 54.4127 24.9023 54.613 25.9705 54.613C27.0722 54.613 28.1404 54.3794 29.1085 53.9454L44.6984 46.8348C47.4024 45.5996 49.1384 42.8956 49.1384 39.9245V6.04076V3.37012H49.2051Z" fill="#E53E3E"/>
<path d="M30.6097 46.4676L30.3426 45.9335C30.2758 45.8334 30.1423 45.8334 30.0755 45.9335L29.8085 46.4676C29.7751 46.501 29.7417 46.5344 29.7083 46.5344L29.1074 46.6012C28.9739 46.6012 28.9405 46.7681 29.0407 46.8349L29.4746 47.2688C29.508 47.3022 29.508 47.3356 29.508 47.4024L29.4079 47.9699C29.3745 48.1034 29.508 48.1702 29.6082 48.1368L30.1423 47.8697C30.1757 47.8363 30.2424 47.8363 30.2758 47.8697L30.81 48.1368C30.9101 48.2036 31.0436 48.1034 31.0103 47.9699L30.9101 47.369C30.9101 47.3356 30.9101 47.2688 30.9435 47.2354L31.3775 46.8349C31.4776 46.7681 31.4108 46.6012 31.3107 46.6012L30.7098 46.501C30.6764 46.5678 30.643 46.5344 30.6097 46.4676Z" fill="white"/>
<path d="M26.4026 48.0028L26.1356 47.4687C26.0688 47.3685 25.9353 47.3685 25.8685 47.4687L25.6014 48.0028C25.568 48.0362 25.5347 48.0696 25.5013 48.0696L24.9004 48.1363C24.7669 48.1363 24.7335 48.3032 24.8336 48.37L25.2676 48.804C25.301 48.8374 25.301 48.8708 25.301 48.9375L25.2008 49.505C25.1675 49.6386 25.301 49.7053 25.4011 49.6719L25.9353 49.4049C25.9686 49.3715 26.0354 49.3715 26.0688 49.4049L26.6029 49.6719C26.7031 49.7387 26.8366 49.6386 26.8032 49.505L26.7031 48.9041C26.7031 48.8708 26.7031 48.804 26.7365 48.7706L27.1704 48.37C27.2706 48.3032 27.2038 48.1363 27.1037 48.1363L26.5028 48.0362C26.4694 48.0696 26.4026 48.0696 26.4026 48.0028Z" fill="white"/>
<path d="M22.1975 46.4676L21.9305 45.9335C21.8637 45.8334 21.7302 45.8334 21.6634 45.9335L21.3964 46.4676C21.363 46.501 21.3296 46.5344 21.2962 46.5344L20.6953 46.6012C20.5618 46.6012 20.5284 46.7681 20.6285 46.8349L21.0625 47.2688C21.0959 47.3022 21.0959 47.3356 21.0959 47.4024L20.9958 47.9699C20.9624 48.1034 21.0959 48.1702 21.1961 48.1368L21.7302 47.8697C21.7636 47.8363 21.8303 47.8363 21.8637 47.8697L22.3978 48.1368C22.498 48.2036 22.6315 48.1034 22.5981 47.9699L22.498 47.369C22.498 47.3356 22.498 47.2688 22.5314 47.2354L22.9654 46.8349C23.0655 46.7681 22.9987 46.6012 22.8986 46.6012L22.2977 46.501C22.2309 46.5678 22.1975 46.5344 22.1975 46.4676Z" fill="white"/>
<path d="M22.0983 10.3473L22.332 10.8147C22.3654 10.9148 22.4989 10.9148 22.5657 10.8147L22.7994 10.3807C22.8328 10.3473 22.8662 10.3139 22.8995 10.3139L23.4003 10.2471C23.5004 10.2471 23.5338 10.1136 23.467 10.0468L23.0998 9.67963C23.0664 9.64625 23.0665 9.61287 23.0665 9.57948L23.1666 9.07874C23.2 8.97859 23.0664 8.91182 22.9997 8.94521L22.5657 9.17889C22.5323 9.21227 22.4989 9.21227 22.4656 9.17889L22.0316 8.94521C21.9314 8.91182 21.8313 8.97859 21.8647 9.07874L21.9314 9.57948C21.9314 9.61287 21.9314 9.64625 21.898 9.67963L21.5308 10.0135C21.4641 10.0802 21.4974 10.2138 21.5976 10.2138L21.9982 10.2805C22.0316 10.2805 22.065 10.3139 22.0983 10.3473Z" fill="#E53E3E"/>
<path d="M25.6706 9.04554L25.9043 9.5129C25.9377 9.61305 26.0712 9.61305 26.138 9.5129L26.3717 9.07892C26.405 9.04554 26.4384 9.01215 26.4718 9.01215L26.9725 8.94539C27.0727 8.94539 27.1061 8.81186 27.0393 8.74509L26.6721 8.37788C26.6387 8.34449 26.6387 8.31111 26.6387 8.27773L26.7389 7.77698C26.7723 7.67683 26.6387 7.61007 26.572 7.64345L26.138 7.87713C26.1046 7.91051 26.0712 7.91051 26.0378 7.87713L25.6038 7.64345C25.5037 7.61007 25.4035 7.67683 25.4369 7.77698L25.5037 8.27773C25.5037 8.31111 25.5037 8.34449 25.4703 8.37788L25.1031 8.71171C25.0363 8.77847 25.0697 8.912 25.1699 8.912L25.6706 8.97877C25.6038 8.97877 25.6372 9.01215 25.6706 9.04554Z" fill="#E53E3E"/>
<path d="M29.2429 10.3473L29.4765 10.8147C29.5099 10.9148 29.6435 10.9148 29.7102 10.8147L29.9439 10.3807C29.9773 10.3473 30.0107 10.3139 30.0441 10.3139L30.5448 10.2471C30.645 10.2471 30.6783 10.1136 30.6116 10.0468L30.2444 9.67963C30.211 9.64625 30.211 9.61287 30.211 9.57948L30.3111 9.07874C30.3445 8.97859 30.211 8.91182 30.1442 8.94521L29.7102 9.17889C29.6769 9.21227 29.6435 9.21227 29.6101 9.17889L29.1761 8.94521C29.076 8.91182 28.9758 8.97859 29.0092 9.07874L29.076 9.57948C29.076 9.61287 29.076 9.64625 29.0426 9.67963L28.6754 10.0135C28.6086 10.0802 28.642 10.2138 28.7421 10.2138L29.2429 10.2805C29.2095 10.2805 29.2429 10.3139 29.2429 10.3473Z" fill="#E53E3E"/>
<path d="M21.5922 43.7646V43.4841L22.6459 42.3306C22.7695 42.1955 22.8714 42.0781 22.9514 41.9783C23.0314 41.8775 23.0906 41.783 23.1291 41.6946C23.1686 41.6053 23.1883 41.5118 23.1883 41.4141C23.1883 41.3018 23.1613 41.2047 23.1073 41.1226C23.0543 41.0405 22.9815 40.9771 22.889 40.9324C22.7966 40.8877 22.6926 40.8654 22.5773 40.8654C22.4547 40.8654 22.3476 40.8909 22.2562 40.9418C22.1658 40.9917 22.0956 41.0618 22.0458 41.1522C21.9969 41.2426 21.9725 41.3486 21.9725 41.4702H21.6046C21.6046 41.2831 21.6478 41.119 21.734 40.9776C21.8203 40.8363 21.9377 40.7262 22.0863 40.6472C22.2359 40.5682 22.4038 40.5287 22.5898 40.5287C22.7768 40.5287 22.9426 40.5682 23.087 40.6472C23.2314 40.7262 23.3447 40.8327 23.4268 40.9667C23.5089 41.1008 23.5499 41.2499 23.5499 41.4141C23.5499 41.5315 23.5286 41.6463 23.486 41.7586C23.4445 41.8697 23.3717 41.9939 23.2678 42.1311C23.1649 42.2672 23.0221 42.4335 22.8392 42.6299L22.1221 43.3968V43.4217H23.6061V43.7646H21.5922ZM25.291 43.8083C25.0562 43.8083 24.8562 43.7444 24.6909 43.6166C24.5257 43.4877 24.3995 43.3012 24.3122 43.057C24.2249 42.8117 24.1812 42.5156 24.1812 42.1685C24.1812 41.8235 24.2249 41.5289 24.3122 41.2847C24.4005 41.0395 24.5273 40.8524 24.6925 40.7236C24.8588 40.5937 25.0583 40.5287 25.291 40.5287C25.5238 40.5287 25.7228 40.5937 25.888 40.7236C26.0543 40.8524 26.1811 41.0395 26.2684 41.2847C26.3567 41.5289 26.4009 41.8235 26.4009 42.1685C26.4009 42.5156 26.3572 42.8117 26.2699 43.057C26.1826 43.3012 26.0564 43.4877 25.8912 43.6166C25.7259 43.7444 25.5259 43.8083 25.291 43.8083ZM25.291 43.4654C25.5238 43.4654 25.7046 43.3531 25.8335 43.1287C25.9623 42.9042 26.0268 42.5842 26.0268 42.1685C26.0268 41.8921 25.9972 41.6567 25.9379 41.4624C25.8797 41.2681 25.7956 41.12 25.6854 41.0182C25.5763 40.9163 25.4448 40.8654 25.291 40.8654C25.0604 40.8654 24.8801 40.9792 24.7502 41.2068C24.6203 41.4333 24.5553 41.7539 24.5553 42.1685C24.5553 42.4449 24.5844 42.6798 24.6426 42.8731C24.7008 43.0663 24.7845 43.2134 24.8936 43.3142C25.0037 43.415 25.1362 43.4654 25.291 43.4654ZM26.9932 43.7646V43.4841L28.0469 42.3306C28.1706 42.1955 28.2724 42.0781 28.3524 41.9783C28.4324 41.8775 28.4917 41.783 28.5301 41.6946C28.5696 41.6053 28.5893 41.5118 28.5893 41.4141C28.5893 41.3018 28.5623 41.2047 28.5083 41.1226C28.4553 41.0405 28.3825 40.9771 28.2901 40.9324C28.1976 40.8877 28.0937 40.8654 27.9783 40.8654C27.8557 40.8654 27.7487 40.8909 27.6572 40.9418C27.5668 40.9917 27.4967 41.0618 27.4468 41.1522C27.3979 41.2426 27.3735 41.3486 27.3735 41.4702H27.0057C27.0057 41.2831 27.0488 41.119 27.135 40.9776C27.2213 40.8363 27.3387 40.7262 27.4873 40.6472C27.6369 40.5682 27.8048 40.5287 27.9908 40.5287C28.1778 40.5287 28.3436 40.5682 28.488 40.6472C28.6325 40.7262 28.7457 40.8327 28.8278 40.9667C28.9099 41.1008 28.951 41.2499 28.951 41.4141C28.951 41.5315 28.9297 41.6463 28.8871 41.7586C28.8455 41.8697 28.7727 41.9939 28.6688 42.1311C28.566 42.2672 28.4231 42.4335 28.2402 42.6299L27.5232 43.3968V43.4217H29.0071V43.7646H26.9932ZM30.7731 40.5724V43.7646H30.3866V40.9776H30.3678L29.5885 41.4951V41.1023L30.3866 40.5724H30.7731Z" fill="white"/>
<path d="M48.6372 30.6445H3.23633V39.224H48.6372V30.6445Z" fill="#E53E3E"/>
<path d="M13.211 33.3679H12.4712C12.4428 33.2098 12.3898 33.0707 12.3124 32.9506C12.2349 32.8305 12.1401 32.7285 12.0279 32.6447C11.9157 32.561 11.79 32.4977 11.6509 32.4551C11.5134 32.4124 11.3672 32.391 11.2123 32.391C10.9325 32.391 10.682 32.4614 10.4607 32.6021C10.241 32.7427 10.0671 32.949 9.93907 33.2209C9.81262 33.4927 9.7494 33.8247 9.7494 34.2167C9.7494 34.6118 9.81262 34.9453 9.93907 35.2172C10.0671 35.4891 10.2418 35.6946 10.4631 35.8337C10.6843 35.9728 10.9333 36.0423 11.2099 36.0423C11.3632 36.0423 11.5086 36.0218 11.6462 35.9807C11.7853 35.938 11.9109 35.8756 12.0231 35.7934C12.1354 35.7112 12.2302 35.6108 12.3077 35.4922C12.3867 35.3721 12.4412 35.2346 12.4712 35.0797L13.211 35.0821C13.1715 35.3207 13.0948 35.5405 12.981 35.7412C12.8688 35.9404 12.7242 36.1126 12.5471 36.2581C12.3717 36.4019 12.1709 36.5133 11.9449 36.5924C11.7189 36.6714 11.4723 36.7109 11.2052 36.7109C10.7847 36.7109 10.4101 36.6113 10.0813 36.4122C9.75256 36.2114 9.49333 35.9246 9.30366 35.5515C9.11556 35.1785 9.02151 34.7335 9.02151 34.2167C9.02151 33.6982 9.11635 33.2533 9.30603 32.8818C9.4957 32.5088 9.75493 32.2227 10.0837 32.0235C10.4125 31.8228 10.7863 31.7224 11.2052 31.7224C11.4628 31.7224 11.7031 31.7596 11.9259 31.8339C12.1504 31.9066 12.3519 32.0141 12.5305 32.1563C12.7091 32.297 12.8569 32.4693 12.9739 32.6732C13.0909 32.8755 13.1699 33.1071 13.211 33.3679ZM18.9732 34.2167C18.9732 34.7351 18.8784 35.1809 18.6887 35.5539C18.499 35.9253 18.239 36.2114 17.9087 36.4122C17.5799 36.6113 17.2061 36.7109 16.7872 36.7109C16.3668 36.7109 15.9914 36.6113 15.661 36.4122C15.3322 36.2114 15.073 35.9246 14.8833 35.5515C14.6937 35.1785 14.5988 34.7335 14.5988 34.2167C14.5988 33.6982 14.6937 33.2533 14.8833 32.8818C15.073 32.5088 15.3322 32.2227 15.661 32.0235C15.9914 31.8228 16.3668 31.7224 16.7872 31.7224C17.2061 31.7224 17.5799 31.8228 17.9087 32.0235C18.239 32.2227 18.499 32.5088 18.6887 32.8818C18.8784 33.2533 18.9732 33.6982 18.9732 34.2167ZM18.2477 34.2167C18.2477 33.8215 18.1837 33.4888 18.0557 33.2185C17.9292 32.9466 17.7554 32.7412 17.5341 32.6021C17.3144 32.4614 17.0654 32.391 16.7872 32.391C16.5074 32.391 16.2577 32.4614 16.038 32.6021C15.8183 32.7412 15.6444 32.9466 15.5164 33.2185C15.3899 33.4888 15.3267 33.8215 15.3267 34.2167C15.3267 34.6118 15.3899 34.9453 15.5164 35.2172C15.6444 35.4875 15.8183 35.693 16.038 35.8337C16.2577 35.9728 16.5074 36.0423 16.7872 36.0423C17.0654 36.0423 17.3144 35.9728 17.5341 35.8337C17.7554 35.693 17.9292 35.4875 18.0557 35.2172C18.1837 34.9453 18.2477 34.6118 18.2477 34.2167ZM20.5543 36.6445V31.7888H21.2869V36.0139H23.4872V36.6445H20.5543ZM24.9906 36.6445V31.7888H25.7232V36.0139H27.9235V36.6445H24.9906ZM29.4269 36.6445V31.7888H32.4712V32.4195H30.1595V33.899H32.3123V34.5273H30.1595V36.0139H32.4996V36.6445H29.4269ZM37.4036 33.3228C37.3578 33.179 37.2961 33.0502 37.2187 32.9364C37.1428 32.821 37.0519 32.723 36.946 32.6424C36.8401 32.5602 36.7192 32.4977 36.5832 32.4551C36.4489 32.4124 36.3011 32.391 36.1399 32.391C35.8664 32.391 35.6198 32.4614 35.4001 32.6021C35.1804 32.7427 35.0066 32.949 34.8785 33.2209C34.7521 33.4912 34.6889 33.8223 34.6889 34.2143C34.6889 34.6079 34.7529 34.9406 34.8809 35.2125C35.0089 35.4843 35.1844 35.6906 35.4072 35.8313C35.6301 35.972 35.8838 36.0423 36.1683 36.0423C36.4323 36.0423 36.6623 35.9886 36.8583 35.8811C37.0559 35.7736 37.2084 35.6219 37.3159 35.4259C37.4249 35.2283 37.4795 34.9959 37.4795 34.7288L37.6691 34.7644H36.2798V34.1598H38.1884V34.7122C38.1884 35.12 38.1014 35.4741 37.9276 35.7744C37.7553 36.0731 37.5166 36.3039 37.2115 36.4667C36.9081 36.6295 36.5603 36.7109 36.1683 36.7109C35.7289 36.7109 35.3432 36.6098 35.0113 36.4074C34.6809 36.2051 34.4233 35.9182 34.2384 35.5468C34.0534 35.1738 33.961 34.7312 33.961 34.219C33.961 33.8318 34.0147 33.4841 34.1222 33.1758C34.2297 32.8676 34.3806 32.606 34.575 32.391C34.771 32.1745 35.001 32.0093 35.265 31.8955C35.5305 31.7801 35.8206 31.7224 36.1351 31.7224C36.3975 31.7224 36.6417 31.7612 36.8678 31.8386C37.0954 31.9161 37.2977 32.0259 37.4747 32.1682C37.6533 32.3104 37.8011 32.4796 37.9181 32.6756C38.0351 32.87 38.1141 33.0857 38.1552 33.3228H37.4036ZM39.786 36.6445V31.7888H42.8303V32.4195H40.5187V33.899H42.6715V34.5273H40.5187V36.0139H42.8588V36.6445H39.786Z" fill="white"/>
<path d="M19.794 42.2617H13.084V42.5955H19.794V42.2617Z" fill="white"/>
<path d="M38.9229 42.2617H32.2129V42.5955H38.9229V42.2617Z" fill="white"/>
<path d="M26.8054 28.2407C31.0828 28.2407 34.5503 24.7732 34.5503 20.4958C34.5503 16.2185 31.0828 12.751 26.8054 12.751C22.528 12.751 19.0605 16.2185 19.0605 20.4958C19.0605 24.7732 22.528 28.2407 26.8054 28.2407Z" fill="#E53E3E"/>
<path d="M25.671 12.2832C21.1643 12.2832 17.4922 15.9553 17.4922 20.462C17.4922 24.9687 21.1643 28.6409 25.671 28.6409C30.1777 28.6409 33.8499 24.9687 33.8499 20.462C33.8499 15.9553 30.1777 12.2832 25.671 12.2832ZM25.2037 16.2224C24.3357 16.189 23.5011 16.0889 22.7333 15.922C23.3342 14.4865 24.2356 13.485 25.2037 13.2513V16.2224ZM25.2037 17.1571V20.0281H21.8654C21.8987 18.8597 22.099 17.758 22.3995 16.7899C23.3008 16.9902 24.2356 17.1237 25.2037 17.1571ZM25.2037 20.9294V23.8003C24.2356 23.8337 23.3008 23.9673 22.4329 24.1676C22.1324 23.1994 21.9321 22.0978 21.8987 20.9294H25.2037ZM25.2037 24.7351V27.7062C24.2356 27.4725 23.3342 26.471 22.7333 25.0355C23.5011 24.8686 24.3357 24.7685 25.2037 24.7351ZM26.105 24.7351C26.973 24.7685 27.8075 24.8686 28.5754 25.0355C27.9745 26.471 27.0731 27.4725 26.105 27.7062V24.7351ZM26.105 23.8337V20.9628H29.4433C29.4099 22.1312 29.2096 23.2328 28.9092 24.2009C28.0078 23.9673 27.0731 23.8671 26.105 23.8337ZM26.105 20.0281V17.1571C27.0731 17.1237 28.0078 16.9902 28.8758 16.7899C29.1762 17.758 29.3765 18.8597 29.4099 20.0281H26.105ZM26.105 16.2224V13.2513C27.0731 13.485 27.9745 14.4865 28.5754 15.922C27.8075 16.0889 26.973 16.189 26.105 16.2224ZM28.3417 13.7187C29.2096 14.0525 30.0108 14.5532 30.6785 15.1875C30.3113 15.3544 29.9107 15.5214 29.5101 15.6549C29.1762 14.8871 28.7756 14.2528 28.3417 13.7187ZM21.832 15.6549C21.398 15.5214 21.0308 15.3544 20.6636 15.1875C21.3312 14.5532 22.1324 14.0525 23.0004 13.7187C22.533 14.2528 22.1324 14.8871 21.832 15.6549ZM21.5315 16.5228C21.1977 17.5577 20.9974 18.7595 20.964 20.0281H18.3935C18.4937 18.4591 19.0946 17.0236 20.0293 15.8886C20.4633 16.1222 20.964 16.3559 21.5315 16.5228ZM20.964 20.9294C20.9974 22.198 21.1977 23.3997 21.5315 24.4346C20.9974 24.6015 20.4967 24.8352 20.0293 25.0689C19.0946 23.9339 18.4937 22.4984 18.3935 20.9294H20.964ZM21.832 25.3026C22.1324 26.0704 22.533 26.738 22.967 27.2722C22.099 26.9383 21.2978 26.4376 20.6302 25.8033C21.0308 25.603 21.398 25.4361 21.832 25.3026ZM29.4767 25.3026C29.9107 25.4361 30.2779 25.603 30.6451 25.7699C29.9774 26.4042 29.1762 26.905 28.3083 27.2388C28.7756 26.738 29.1762 26.0704 29.4767 25.3026ZM29.7771 24.4346C30.111 23.3997 30.3113 22.198 30.3446 20.9294H32.9151C32.815 22.4984 32.2141 23.9339 31.2794 25.0689C30.8454 24.8352 30.3446 24.6349 29.7771 24.4346ZM30.3446 20.0281C30.3113 18.7595 30.111 17.5577 29.7771 16.5228C30.3113 16.3559 30.812 16.1222 31.2794 15.8886C32.2141 17.0236 32.815 18.4591 32.9151 20.0281H30.3446Z" fill="#E53E3E"/>
</svg>
