<svg width="272" height="272" viewBox="0 0 272 272" fill="none" xmlns="http://www.w3.org/2000/svg">
<path opacity="0.6" d="M135.89 233.383C209.835 233.383 269.78 229.883 269.78 225.566C269.78 221.249 209.835 217.749 135.89 217.749C61.9446 217.749 2 221.249 2 225.566C2 229.883 61.9446 233.383 135.89 233.383Z" fill="#F5F5F5" fill-opacity="0.2"/>
<path d="M180.479 144.165H121.555C120.437 144.165 119.531 145.07 119.531 146.188V148.508C119.531 149.626 120.437 150.531 121.555 150.531H180.479C181.596 150.531 182.502 149.626 182.502 148.508V146.188C182.502 145.07 181.596 144.165 180.479 144.165Z" fill="#263238"/>
<path d="M179.919 221.423H182.502L179.533 150.531H175.956L179.919 221.423Z" fill="#754FFE"/>
<path opacity="0.6" d="M179.919 221.423H182.502L179.533 150.531H175.956L179.919 221.423Z" fill="white"/>
<path d="M156.144 221.423H153.562L156.531 150.531H160.108L156.144 221.423Z" fill="#754FFE"/>
<path opacity="0.6" d="M156.144 221.423H153.562L156.531 150.531H160.108L156.144 221.423Z" fill="white"/>
<path d="M145.896 221.423H148.479L145.503 150.531H141.933L145.896 221.423Z" fill="#754FFE"/>
<path opacity="0.6" d="M145.896 221.423H148.479L145.503 150.531H141.933L145.896 221.423Z" fill="white"/>
<path d="M122.114 221.423H119.531L122.508 150.531H126.078L122.114 221.423Z" fill="#754FFE"/>
<path opacity="0.6" d="M122.114 221.423H119.531L122.508 150.531H126.078L122.114 221.423Z" fill="white"/>
<g opacity="0.3">
<path d="M179.533 150.524H175.956L176.122 153.542H179.657L179.533 150.524Z" fill="#754FFE"/>
<path d="M156.407 153.542H159.935L160.108 150.524H156.531L156.407 153.542Z" fill="#754FFE"/>
<path d="M141.933 150.524L142.098 153.542H145.634L145.503 150.524H141.933Z" fill="#754FFE"/>
<path d="M122.376 153.542H125.919L126.085 150.524H122.508L122.376 153.542Z" fill="#754FFE"/>
</g>
<path d="M144.232 211.003L138.39 214.11L129.178 201.673L135.027 198.566L144.232 211.003Z" fill="#FFB573"/>
<path d="M136.277 212.19L142.381 207.95C142.431 207.908 142.49 207.876 142.552 207.857C142.615 207.839 142.681 207.833 142.747 207.842C142.812 207.85 142.874 207.872 142.93 207.906C142.986 207.941 143.035 207.986 143.072 208.04L146.725 212.66C146.901 212.914 146.969 213.228 146.916 213.532C146.863 213.837 146.693 214.109 146.442 214.289C144.294 215.726 143.327 216.23 140.517 217.901C138.784 218.923 134.64 221.354 132.092 222.465C129.544 223.577 128.522 221.022 129.503 220.325C131.83 218.681 134.91 215.449 135.607 213.178C135.715 212.783 135.95 212.436 136.277 212.19Z" fill="#263238"/>
<path opacity="0.2" d="M135.034 198.573L129.178 201.673L133.618 207.667L139.336 204.38L135.034 198.573Z" fill="black"/>
<path d="M149.142 124.905C149.142 124.905 103.745 123.49 103.566 142.459C103.345 169.722 129.22 205.526 129.22 205.526L139.343 198.794C139.343 198.794 121.61 172.767 121.458 151.484C134.834 147.707 166.343 150.103 170.425 138.985C173.767 129.912 172.02 124.905 172.02 124.905H149.142Z" fill="#754FFE"/>
<path opacity="0.2" d="M149.142 124.905C149.142 124.905 103.745 123.49 103.566 142.459C103.345 169.722 129.22 205.526 129.22 205.526L139.343 198.794C139.343 198.794 121.61 172.767 121.458 151.484C134.834 147.707 166.343 150.103 170.425 138.985C173.767 129.912 172.02 124.905 172.02 124.905H149.142Z" fill="black"/>
<path d="M142.091 200.527L130.048 207.902L126.271 204.069L139.502 195.734L142.091 200.527Z" fill="#263238"/>
<path d="M135.013 214.476C135.495 214.128 135.935 213.724 136.325 213.275C136.346 213.253 136.359 213.225 136.364 213.195C136.369 213.165 136.365 213.135 136.352 213.108C136.34 213.08 136.319 213.057 136.293 213.041C136.268 213.026 136.238 213.018 136.208 213.019C135.952 213.019 133.687 213.019 133.204 213.758C133.149 213.841 133.115 213.936 133.107 214.035C133.098 214.134 133.115 214.234 133.156 214.324C133.201 214.468 133.284 214.596 133.396 214.697C133.507 214.797 133.644 214.867 133.791 214.897C134.236 214.912 134.671 214.762 135.013 214.476ZM135.849 213.337C135.013 214.207 134.274 214.67 133.846 214.594C133.75 214.572 133.662 214.525 133.591 214.457C133.52 214.389 133.47 214.302 133.446 214.207C133.42 214.165 133.406 214.118 133.406 214.069C133.406 214.02 133.42 213.972 133.446 213.931C133.722 213.544 134.944 213.371 135.849 213.337Z" fill="#754FFE"/>
<path d="M136.298 213.302C136.317 213.287 136.334 213.268 136.346 213.247C136.359 213.224 136.366 213.197 136.366 213.171C136.366 213.144 136.359 213.118 136.346 213.095C136.304 213.026 135.338 211.382 134.426 211.23C134.303 211.206 134.177 211.212 134.057 211.247C133.937 211.282 133.827 211.345 133.736 211.431C133.632 211.508 133.556 211.618 133.521 211.743C133.486 211.868 133.494 212.001 133.542 212.121C133.832 212.812 135.427 213.371 136.194 213.323L136.298 213.302ZM134.026 211.589C134.076 211.552 134.133 211.526 134.193 211.511C134.254 211.497 134.317 211.496 134.378 211.507C134.923 211.596 135.586 212.459 135.932 212.984C135.179 212.915 134.046 212.432 133.86 211.983C133.825 211.9 133.805 211.783 133.977 211.631C133.991 211.645 134.005 211.624 134.026 211.589Z" fill="#754FFE"/>
<path d="M133.425 218.626L126.865 218.316L125.788 202.827L132.348 203.137L133.425 218.626Z" fill="#FFB573"/>
<path d="M126.713 217.197L134.136 216.962C134.262 216.952 134.386 216.993 134.481 217.074C134.577 217.156 134.637 217.272 134.647 217.397L135.193 223.26C135.204 223.57 135.092 223.872 134.881 224.1C134.67 224.327 134.377 224.462 134.067 224.475C131.485 224.475 130.242 224.399 126.975 224.475C124.966 224.537 121.016 224.834 118.261 224.475C115.505 224.116 115.927 221.416 117.121 221.312C119.959 221.084 123.764 219.123 125.587 217.597C125.908 217.343 126.304 217.203 126.713 217.197Z" fill="#263238"/>
<path d="M124.407 218.419C125 218.387 125.588 218.29 126.161 218.129C126.189 218.122 126.215 218.106 126.235 218.084C126.255 218.062 126.268 218.034 126.272 218.005C126.277 217.975 126.273 217.945 126.26 217.918C126.248 217.891 126.227 217.869 126.202 217.853C125.988 217.715 124.075 216.472 123.281 216.831C123.19 216.871 123.111 216.933 123.051 217.011C122.99 217.089 122.951 217.182 122.936 217.28C122.895 217.425 122.893 217.577 122.931 217.723C122.968 217.869 123.044 218.002 123.15 218.108C123.514 218.367 123.963 218.478 124.407 218.419ZM125.726 217.922C124.552 218.191 123.654 218.184 123.364 217.887C123.297 217.816 123.249 217.728 123.226 217.632C123.203 217.536 123.205 217.436 123.233 217.342C123.239 217.294 123.257 217.248 123.286 217.209C123.315 217.17 123.354 217.14 123.398 217.121C123.827 216.935 124.945 217.452 125.726 217.922Z" fill="#754FFE"/>
<path d="M126.126 218.136C126.149 218.142 126.172 218.142 126.195 218.136C126.218 218.124 126.236 218.106 126.25 218.084C126.263 218.062 126.27 218.037 126.271 218.012C126.271 217.929 126.368 216.023 125.677 215.401C125.587 215.315 125.477 215.252 125.356 215.218C125.236 215.184 125.109 215.181 124.987 215.208C124.855 215.215 124.729 215.267 124.63 215.355C124.531 215.443 124.464 215.561 124.441 215.691C124.31 216.382 125.339 217.763 126.009 218.136C126.047 218.149 126.088 218.149 126.126 218.136ZM125.139 215.484C125.199 215.481 125.26 215.49 125.318 215.511C125.375 215.533 125.427 215.566 125.47 215.609C125.884 215.981 125.967 217.066 125.974 217.68C125.38 217.211 124.69 216.189 124.779 215.712C124.779 215.622 124.842 215.512 125.063 215.477L125.139 215.484Z" fill="#754FFE"/>
<path opacity="0.2" d="M132.355 203.137L125.788 202.827L126.402 211.686L132.949 211.679L132.355 203.137Z" fill="black"/>
<path d="M165.287 124.905C165.287 124.905 117.791 129.394 119.518 143.695C122.017 164.315 123.247 208.758 123.247 208.758L135.352 209.235C135.352 209.235 140.483 169.183 137.831 148.032C150.123 148.032 180.217 148.916 182.958 141.513C185.382 134.967 184.519 124.94 184.519 124.94L165.287 124.905Z" fill="#754FFE"/>
<path d="M136.691 209.981L122.162 209.262L121.637 202.937L137.575 204.035L136.691 209.981Z" fill="#263238"/>
<path d="M154.749 83.0168C154.659 84.1769 154.57 85.1851 154.438 86.2485C154.307 87.312 154.169 88.3202 154.003 89.3974C153.679 91.4691 153.265 93.5407 152.781 95.6607C151.84 100.041 150.309 104.273 148.23 108.242C147.61 109.357 146.896 110.418 146.097 111.412C145.203 112.534 144.146 113.517 142.962 114.326C140.683 115.84 138.047 116.73 135.317 116.909C132.927 117.065 130.527 116.832 128.211 116.218C127.119 115.939 126.044 115.593 124.994 115.182C124.469 114.982 123.958 114.761 123.454 114.492C122.95 114.223 122.48 114.002 121.9 113.691L123.716 109.071L125.035 109.237L126.416 109.375C127.341 109.451 128.253 109.499 129.178 109.499C130.856 109.528 132.53 109.335 134.157 108.926C135.461 108.613 136.668 107.985 137.672 107.096C138.102 106.693 138.487 106.244 138.818 105.756C139.226 105.128 139.591 104.473 139.909 103.795C140.64 102.211 141.238 100.569 141.698 98.8855C142.223 97.1385 142.644 95.3085 143.024 93.444C143.404 91.5796 143.714 89.6944 144.025 87.7954L144.432 84.9365C144.557 83.9974 144.695 82.9892 144.785 82.1743L154.749 83.0168Z" fill="#FFB573"/>
<path d="M154.79 77.3888C149.957 72.7 143.949 75.4691 141.56 84.2943C140.207 89.0053 139.283 93.8288 138.797 98.706L154.176 101.882C156.973 93.4647 159.762 82.195 154.79 77.3888Z" fill="#263238"/>
<path opacity="0.3" d="M149.839 86.9874C150.937 85.9999 154.059 90.4401 155.965 95.9161C155.426 97.9878 154.811 99.9834 154.183 101.855L144.93 99.942C145.669 94.4729 147.374 89.2109 149.839 86.9874Z" fill="black"/>
<path d="M122.673 107L119.22 105.681L119.068 113.007C119.068 113.007 124.869 115.514 126.05 112.634L125.635 110.805C125.436 109.998 125.069 109.243 124.558 108.587C124.048 107.932 123.406 107.391 122.673 107Z" fill="#FFB573"/>
<path d="M115.146 105.874L113.109 112.02L119.096 113.007L119.248 105.681L115.146 105.874Z" fill="#FFB573"/>
<path d="M120.367 110.77C120.294 110.771 120.222 110.752 120.16 110.714C120.097 110.676 120.047 110.621 120.014 110.556L113.848 98.6854C113.799 98.5919 113.789 98.4829 113.82 98.382C113.851 98.2812 113.921 98.1966 114.014 98.1468C114.108 98.1002 114.217 98.0922 114.318 98.1244C114.418 98.1566 114.502 98.2265 114.552 98.3194L120.698 110.169C120.747 110.263 120.757 110.372 120.726 110.473C120.695 110.573 120.625 110.658 120.532 110.708C120.482 110.739 120.425 110.76 120.367 110.77Z" fill="#263238"/>
<path d="M154.217 72.6862L161.593 70.6145L171.067 70.1726C172.506 70.1036 173.927 70.5096 175.113 71.3282C176.298 72.1468 177.182 73.3325 177.627 74.7026C179.429 80.2269 181.08 88.182 182.302 95.0668C183.683 102.794 184.374 114.402 184.519 124.94H149.142C148.334 102.946 145.537 89.9429 144.308 82.7474C144.063 81.3372 144.287 79.8855 144.945 78.6147C145.604 77.3438 146.661 76.3238 147.954 75.7108L154.217 72.6862Z" fill="#263238"/>
<path opacity="0.3" d="M182.302 95.0393C181.349 89.6185 180.12 83.5141 178.753 78.4662C172.448 77.4028 169.396 91.2275 171.267 98.0846C173.139 104.942 183.117 100.785 183.117 100.785C182.882 98.7199 182.606 96.7795 182.302 95.0393Z" fill="black"/>
<path d="M160.336 56.2167C161.855 59.9457 160.943 66.7821 157.946 64.8485C154.949 62.915 159.41 53.9517 160.336 56.2167Z" fill="#263238"/>
<path d="M158.678 58.606L155.812 62.984L151.918 68.9434C152.421 69.4533 152.828 70.0498 153.119 70.7043C153.81 72.1407 154.424 73.211 151.407 75.2688C151.082 75.4767 150.825 75.7734 150.664 76.1235C150.504 76.4737 150.448 76.8625 150.502 77.2438C150.682 78.176 151.607 79.0806 154.859 78.5075C157.994 77.9074 160.854 76.32 163.022 73.9775C164.106 72.8934 163.857 72.0785 162.814 70.9529C159.831 67.7764 158.947 62.7009 158.678 58.606Z" fill="#FFB573"/>
<path opacity="0.2" d="M152.85 67.4725L155.239 63.2256C155.29 63.3361 155.345 63.4535 155.405 63.5778C155.617 64.1022 155.788 64.6425 155.916 65.1936C156.351 67.0788 154.887 69.772 153.278 71.0564L153.092 70.6904C152.802 70.0789 152.43 69.5098 151.987 68.9986C151.959 68.9704 151.926 68.9471 151.89 68.9295L152.85 67.4725Z" fill="black"/>
<path d="M138.507 53.4543C137.616 55.4638 140.772 61.1539 144.384 58.8543C147.995 56.5548 140.082 49.898 138.507 53.4543Z" fill="#263238"/>
<path d="M155.916 79.7299C155.869 79.7306 155.822 79.7143 155.786 79.6839C155.749 79.6535 155.724 79.6111 155.716 79.5641C155.454 77.8585 154.335 76.802 153.071 75.5175C151.469 73.95 149.653 72.1684 149.059 68.6811C149.05 68.6299 149.062 68.577 149.091 68.5343C149.121 68.4916 149.167 68.4624 149.218 68.4533C149.269 68.4441 149.322 68.4557 149.365 68.4855C149.408 68.5153 149.437 68.5608 149.446 68.6121C150.026 71.975 151.794 73.7083 153.347 75.2344C154.625 76.4843 155.827 77.6651 156.11 79.502C156.115 79.5279 156.114 79.5546 156.108 79.5804C156.103 79.6061 156.092 79.6304 156.076 79.6518C156.061 79.6731 156.041 79.6911 156.018 79.7045C155.995 79.7179 155.97 79.7266 155.944 79.7299H155.916Z" fill="white"/>
<path d="M157.387 51.4312C158.768 57.6876 159.845 61.2853 157.615 65.2422C154.245 71.2292 145.82 70.4144 142.616 64.6552C139.73 59.4761 138.01 50.1123 143.376 46.0726C144.576 45.1801 145.983 44.605 147.464 44.4007C148.946 44.1964 150.456 44.3694 151.853 44.9038C153.25 45.4381 154.49 46.3166 155.457 47.4576C156.425 48.5986 157.088 49.9654 157.387 51.4312Z" fill="#FFB573"/>
<path d="M159.245 55.7263C157.09 58.7854 151.442 53.1713 151.904 49.4009C146.297 52.5912 140.206 56.8519 136.512 53.2611C132.244 49.1178 133.411 43.1791 138.411 42.6474C137.527 44.3738 142.554 45.1403 145.227 42.4747C149.75 38 156.897 38.9322 156.766 42.5576C160.212 41.1903 163.975 49.0073 159.245 55.7263Z" fill="#263238"/>
<path d="M156.103 43.5727C157.436 42.5783 156.552 39.0358 153.458 38C156.4 38.3798 159.445 40.5688 156.103 43.5727Z" fill="#263238"/>
<path d="M161.24 55.4502C161.3 56.8807 160.833 58.2835 159.928 59.3932C158.74 60.8088 156.91 59.6832 156.475 57.9154C156.096 56.3341 156.586 53.8826 158.146 53.123C159.707 52.3634 161.157 53.6686 161.24 55.4502Z" fill="#FFB573"/>
<path d="M148.41 56.5065C148.576 57.0106 148.451 57.5217 148.12 57.639C147.788 57.7564 147.429 57.4457 147.229 56.9485C147.029 56.4513 147.188 55.9334 147.519 55.8091C147.85 55.6848 148.244 55.9955 148.41 56.5065Z" fill="#263238"/>
<path d="M142.747 58.5784C142.92 59.0894 142.789 59.6004 142.457 59.7178C142.126 59.8352 141.732 59.5244 141.566 59.0272C141.401 58.53 141.532 58.0121 141.856 57.8947C142.181 57.7773 142.582 58.0743 142.747 58.5784Z" fill="#263238"/>
<path d="M144.688 58.2881C144.711 59.7985 144.534 61.3054 144.163 62.7697C145.178 63.1426 146.297 62.2656 146.297 62.2656L144.688 58.2881Z" fill="#ED893E"/>
<path d="M147.719 65.0761C148.307 64.8828 148.85 64.572 149.314 64.1624C149.778 63.7529 150.154 63.2532 150.419 62.6937C150.436 62.6552 150.436 62.6119 150.42 62.5731C150.405 62.5344 150.375 62.5033 150.337 62.4866C150.297 62.4726 150.254 62.4741 150.215 62.4907C150.177 62.5074 150.146 62.538 150.129 62.5763C149.833 63.1794 149.401 63.7062 148.868 64.1157C148.336 64.5253 147.716 64.8066 147.056 64.938C147.035 64.9408 147.014 64.948 146.995 64.9592C146.977 64.9703 146.96 64.9852 146.948 65.0029C146.935 65.0206 146.926 65.0407 146.922 65.062C146.917 65.0833 146.917 65.1053 146.921 65.1267C146.925 65.148 146.934 65.1683 146.946 65.1861C146.959 65.204 146.975 65.2192 146.993 65.2306C147.012 65.2421 147.032 65.2496 147.054 65.2527C147.076 65.2558 147.098 65.2545 147.119 65.2487C147.322 65.2045 147.523 65.1468 147.719 65.0761Z" fill="#263238"/>
<path d="M148.928 54.3107C148.976 54.2879 149.017 54.252 149.045 54.2072C149.089 54.1365 149.104 54.0512 149.086 53.9698C149.068 53.8884 149.019 53.8174 148.949 53.7721C148.54 53.4964 148.07 53.3257 147.58 53.2751C147.089 53.2245 146.594 53.2956 146.138 53.4821C146.1 53.4991 146.066 53.5237 146.037 53.5543C146.009 53.585 145.987 53.6211 145.973 53.6604C145.958 53.6997 145.952 53.7415 145.955 53.7832C145.957 53.825 145.968 53.8658 145.986 53.9033C146.023 53.9779 146.088 54.0349 146.167 54.062C146.246 54.0892 146.332 54.0842 146.407 54.0483C146.767 53.9093 147.156 53.8593 147.539 53.9026C147.923 53.9459 148.29 54.0811 148.61 54.2969C148.656 54.3291 148.711 54.3475 148.767 54.3499C148.823 54.3524 148.879 54.3388 148.928 54.3107Z" fill="#263238"/>
<path d="M141.629 55.305C141.642 55.2529 141.642 55.1983 141.629 55.1462C141.595 55.0696 141.533 55.0093 141.455 54.9783C141.378 54.9473 141.291 54.948 141.214 54.9804C140.754 55.1587 140.346 55.4481 140.025 55.8229C139.705 56.1977 139.482 56.6461 139.377 57.128C139.364 57.2095 139.383 57.2931 139.431 57.3605C139.479 57.4278 139.551 57.4734 139.633 57.4871C139.714 57.5008 139.798 57.4816 139.865 57.4337C139.933 57.3858 139.978 57.3131 139.992 57.2316C140.082 56.8551 140.262 56.5061 140.517 56.215C140.772 55.9238 141.094 55.6991 141.456 55.5605C141.504 55.5361 141.545 55.4998 141.575 55.4551C141.606 55.4104 141.624 55.3587 141.629 55.305Z" fill="#263238"/>
<path d="M176.405 74.8613C177.095 75.98 177.648 76.9882 178.221 78.0655C178.794 79.1427 179.346 80.1923 179.885 81.2696C180.976 83.4172 181.957 85.6269 182.91 87.8781C183.863 90.1293 184.698 92.4495 185.416 94.8665C186.202 97.4033 186.73 100.013 186.991 102.656C187.13 104.199 187.077 105.753 186.832 107.282C186.674 108.291 186.367 109.271 185.92 110.19C185.403 111.227 184.685 112.152 183.807 112.91C183.017 113.597 182.116 114.143 181.142 114.526C180.324 114.847 179.475 115.079 178.607 115.217C177.143 115.446 175.655 115.485 174.181 115.334C172.864 115.222 171.558 115.012 170.273 114.706C169.045 114.426 167.833 114.085 166.64 113.684C164.296 112.908 162.019 111.942 159.832 110.797L161.579 106.15C165.874 106.965 170.487 107.718 174.361 107.483C175.208 107.438 176.047 107.295 176.86 107.055C177.551 106.847 177.903 106.537 177.876 106.44C177.848 106.343 177.834 106.44 177.82 106.371C177.806 106.302 177.82 106.295 177.82 105.943C177.863 105.167 177.817 104.388 177.682 103.623C177.352 101.652 176.836 99.7166 176.142 97.8427C175.452 95.8401 174.616 93.8168 173.712 91.8142C172.807 89.8117 171.833 87.8022 170.846 85.7996C170.349 84.796 169.835 83.8039 169.306 82.8233L167.745 79.9299L176.405 74.8613Z" fill="#FFB573"/>
<path d="M173.18 70.2414C166.509 69.2263 163.229 74.9509 166.371 83.4999C167.993 88.1243 170.032 92.5921 172.462 96.8481L186.846 90.5435C184.229 82.0843 180.002 71.2841 173.18 70.2414Z" fill="#263238"/>
<path d="M157.877 105.515L154.797 106.44L159.169 112.655C159.169 112.655 165.646 110.335 164.32 107.517L162.69 106.592C161.295 105.784 159.528 104.948 157.877 105.515Z" fill="#FFB573"/>
<path d="M152.07 110.721L155.157 113.801L159.169 112.648L154.797 106.44L152.07 110.721Z" fill="#FFB573"/>
<path d="M158.802 57.4251C159.352 57.4251 159.797 56.8871 159.797 56.2235C159.797 55.5599 159.352 55.022 158.802 55.022C158.253 55.022 157.808 55.5599 157.808 56.2235C157.808 56.8871 158.253 57.4251 158.802 57.4251Z" fill="white"/>
<path d="M159.625 59.4002L159.051 59.3794L158.699 56.6103L159.79 56.3687L159.625 59.4002Z" fill="white"/>
<path d="M163.588 111.598C161.516 111.598 159.68 111.288 158.568 110.279C158.153 109.88 157.83 109.395 157.622 108.859C157.413 108.322 157.323 107.746 157.359 107.172C157.423 104.324 157.866 101.498 158.678 98.7679C159.638 95.0045 160.398 92.0351 158.091 88.3683C154.418 82.547 155.516 74.4055 158.091 69.3023C160.059 65.4007 159.369 61.0503 159.12 59.4482C159.086 59.2411 159.058 59.0753 159.044 58.9648C159.041 58.9389 159.044 58.9126 159.051 58.8876C159.059 58.8627 159.072 58.8395 159.088 58.8195C159.105 58.7995 159.126 58.7831 159.149 58.7713C159.172 58.7595 159.198 58.7525 159.224 58.7508C159.276 58.7449 159.328 58.7597 159.37 58.792C159.411 58.8242 159.438 58.8714 159.445 58.9234C159.445 59.027 159.479 59.1858 159.507 59.3861C159.769 61.0503 160.453 65.4629 158.423 69.4819C155.902 74.4883 154.825 82.4641 158.423 88.1266C160.819 91.9315 160.004 95.1288 159.058 98.8301C158.263 101.523 157.828 104.309 157.767 107.117C157.729 107.636 157.806 108.157 157.991 108.644C158.176 109.13 158.464 109.571 158.837 109.934C160.702 111.612 164.817 111.184 168.795 110.77C170.576 110.59 172.42 110.397 174.043 110.397C174.096 110.397 174.147 110.418 174.185 110.455C174.222 110.493 174.243 110.544 174.243 110.597C174.243 110.65 174.222 110.701 174.185 110.739C174.147 110.776 174.096 110.797 174.043 110.797C172.441 110.797 170.59 110.984 168.836 111.17C167.095 111.401 165.344 111.544 163.588 111.598Z" fill="white"/>
<path d="M182.309 110.121H174.45C174.222 110.121 174.036 110.306 174.036 110.535V111.087C174.036 111.316 174.222 111.502 174.45 111.502H182.309C182.538 111.502 182.723 111.316 182.723 111.087V110.535C182.723 110.306 182.538 110.121 182.309 110.121Z" fill="white"/>
<path d="M231.627 116.101H40.1525C39.5432 116.099 38.9594 115.856 38.5286 115.425C38.0977 114.994 37.8548 114.41 37.853 113.801C37.8548 113.192 38.0977 112.608 38.5286 112.177C38.9594 111.746 39.5432 111.503 40.1525 111.501H231.627C232.236 111.503 232.82 111.746 233.251 112.177C233.682 112.608 233.925 113.192 233.927 113.801C233.925 114.41 233.682 114.994 233.251 115.425C232.82 115.856 232.236 116.099 231.627 116.101Z" fill="#754FFE"/>
<path opacity="0.3" d="M231.627 116.101H186.804C186.195 116.099 185.611 115.856 185.18 115.425C184.749 114.994 184.506 114.41 184.504 113.801C184.506 113.192 184.749 112.608 185.18 112.177C185.611 111.746 186.195 111.503 186.804 111.501H231.627C232.237 111.503 232.82 111.746 233.251 112.177C233.682 112.608 233.925 113.192 233.927 113.801C233.925 114.41 233.682 114.994 233.251 115.425C232.82 115.856 232.237 116.099 231.627 116.101Z" fill="#263238"/>
<path d="M229.514 224.447H233.927L228.851 116.101H222.747L229.514 224.447Z" fill="#263238"/>
<path opacity="0.1" d="M229.514 224.447H233.927L228.851 116.101H222.747L229.514 224.447Z" fill="white"/>
<path d="M188.917 224.447H184.504L189.58 116.101H195.684L188.917 224.447Z" fill="#263238"/>
<path opacity="0.2" d="M188.917 224.447H184.504L189.58 116.101H195.684L188.917 224.447Z" fill="white"/>
<path d="M82.87 224.447H87.2756L82.2001 116.101H76.0957L82.87 224.447Z" fill="#263238"/>
<path opacity="0.1" d="M82.87 224.447H87.2756L82.2001 116.101H76.0957L82.87 224.447Z" fill="white"/>
<path d="M42.2656 224.447H37.853L42.9285 116.101H49.033L42.2656 224.447Z" fill="#263238"/>
<path opacity="0.2" d="M42.2656 224.447H37.853L42.9285 116.101H49.033L42.2656 224.447Z" fill="white"/>
<path d="M191.472 121.867H44.2129V130.947H191.472V121.867Z" fill="#263238"/>
<path opacity="0.2" d="M191.472 121.867H44.2129V130.947H191.472V121.867Z" fill="white"/>
<path d="M68.4443 105.397C68.1891 105.397 67.9442 105.498 67.7631 105.678C67.582 105.858 67.4794 106.102 67.4775 106.357V110.5C67.4775 110.757 67.5794 111.003 67.7607 111.184C67.942 111.365 68.1879 111.467 68.4443 111.467H99.7606C99.8437 111.467 99.9234 111.435 99.9828 111.377C100.042 111.319 100.076 111.24 100.078 111.156V105.674C100.076 105.59 100.042 105.511 99.9828 105.453C99.9234 105.395 99.8437 105.363 99.7606 105.363L68.4443 105.397Z" fill="#754FFE"/>
<path opacity="0.9" d="M86.9783 105.977H100.099V110.921H86.9783C86.8299 110.921 86.6877 110.862 86.5828 110.758C86.4779 110.653 86.4189 110.51 86.4189 110.362V106.529C86.4208 106.382 86.4805 106.242 86.5852 106.138C86.6899 106.035 86.8311 105.977 86.9783 105.977Z" fill="white"/>
<path d="M84.8238 105.397H53.1899C52.656 105.397 52.2231 105.83 52.2231 106.364V110.542C52.2231 111.075 52.656 111.508 53.1899 111.508H84.8238C85.3577 111.508 85.7906 111.075 85.7906 110.542V106.364C85.7906 105.83 85.3577 105.397 84.8238 105.397Z" fill="#754FFE"/>
<path opacity="0.2" d="M84.8238 105.397H53.1899C52.656 105.397 52.2231 105.83 52.2231 106.364V110.542C52.2231 111.075 52.656 111.508 53.1899 111.508H84.8238C85.3577 111.508 85.7906 111.075 85.7906 110.542V106.364C85.7906 105.83 85.3577 105.397 84.8238 105.397Z" fill="black"/>
<path opacity="0.5" d="M69.2662 105.397H64.4669C64.2495 105.397 64.0732 105.573 64.0732 105.791V111.115C64.0732 111.332 64.2495 111.508 64.4669 111.508H69.2662C69.4835 111.508 69.6598 111.332 69.6598 111.115V105.791C69.6598 105.573 69.4835 105.397 69.2662 105.397Z" fill="#754FFE"/>
<path opacity="0.5" d="M76.1924 105.397H71.4C71.1826 105.397 71.0063 105.573 71.0063 105.791V111.115C71.0063 111.332 71.1826 111.508 71.4 111.508H76.1924C76.4097 111.508 76.586 111.332 76.586 111.115V105.791C76.586 105.573 76.4097 105.397 76.1924 105.397Z" fill="#754FFE"/>
<path d="M62.7817 97.8703C62.6548 97.8703 62.529 97.8953 62.4117 97.9438C62.2944 97.9924 62.1879 98.0636 62.0981 98.1534C62.0083 98.2432 61.9371 98.3498 61.8885 98.4671C61.8399 98.5844 61.8149 98.7101 61.8149 98.837V104.43C61.8149 104.557 61.8399 104.683 61.8885 104.8C61.9371 104.918 62.0083 105.024 62.0981 105.114C62.1879 105.204 62.2944 105.275 62.4117 105.324C62.529 105.372 62.6548 105.397 62.7817 105.397H96.7082C96.7913 105.395 96.8703 105.361 96.9284 105.302C96.9865 105.242 97.019 105.163 97.019 105.08V98.1741C97.019 98.091 96.9865 98.0113 96.9284 97.9519C96.8703 97.8925 96.7913 97.8583 96.7082 97.8564L62.7817 97.8703Z" fill="#754FFE"/>
<path opacity="0.9" d="M81.3369 98.457H97.0399V104.817H81.3369C81.1885 104.817 81.0462 104.758 80.9413 104.653C80.8364 104.548 80.7775 104.406 80.7775 104.258V99.0302C80.7757 98.9556 80.7888 98.8814 80.8161 98.8119C80.8433 98.7424 80.8843 98.6791 80.9364 98.6257C80.9885 98.5723 81.0508 98.5299 81.1196 98.5009C81.1883 98.4719 81.2622 98.457 81.3369 98.457Z" fill="white"/>
<path d="M79.1545 97.8701H52.5547C52.0207 97.8701 51.5879 98.3029 51.5879 98.8369V104.423C51.5879 104.957 52.0207 105.39 52.5547 105.39H79.1545C79.6884 105.39 80.1213 104.957 80.1213 104.423V98.8369C80.1213 98.3029 79.6884 97.8701 79.1545 97.8701Z" fill="#754FFE"/>
<path opacity="0.2" d="M79.1545 97.8701H52.5547C52.0207 97.8701 51.5879 98.3029 51.5879 98.8369V104.423C51.5879 104.957 52.0207 105.39 52.5547 105.39H79.1545C79.6884 105.39 80.1213 104.957 80.1213 104.423V98.8369C80.1213 98.3029 79.6884 97.8701 79.1545 97.8701Z" fill="white"/>
<path opacity="0.6" d="M76.6615 99.3618H57.1812C56.857 99.3618 56.5942 99.6246 56.5942 99.9488V103.312C56.5942 103.636 56.857 103.899 57.1812 103.899H76.6615C76.9857 103.899 77.2485 103.636 77.2485 103.312V99.9488C77.2485 99.6246 76.9857 99.3618 76.6615 99.3618Z" fill="#754FFE"/>
<path d="M72.7324 94.2725C72.2007 94.2725 71.7656 94.528 71.7656 94.8387V97.304C71.7656 97.6147 72.2007 97.8702 72.7324 97.8702H104.056C104.228 97.8702 104.366 97.7873 104.366 97.6907V94.4589C104.366 94.3553 104.228 94.2725 104.056 94.2725H72.7324Z" fill="#754FFE"/>
<path opacity="0.9" d="M91.1425 94.6108H104.366V97.5249H91.1425C91.0289 97.5249 90.92 97.4798 90.8398 97.3995C90.7595 97.3193 90.7144 97.2104 90.7144 97.0968V95.0252C90.7179 94.914 90.7646 94.8086 90.8445 94.7313C90.9244 94.654 91.0313 94.6108 91.1425 94.6108Z" fill="white"/>
<path d="M89.3403 94.2725H57.2506C56.8425 94.2725 56.5117 94.6033 56.5117 95.0113V97.1382C56.5117 97.5463 56.8425 97.8771 57.2506 97.8771H89.3403C89.7483 97.8771 90.0792 97.5463 90.0792 97.1382V95.0113C90.0792 94.6033 89.7483 94.2725 89.3403 94.2725Z" fill="#754FFE"/>
<path opacity="0.2" d="M89.3403 94.2725H57.2506C56.8425 94.2725 56.5117 94.6033 56.5117 95.0113V97.1382C56.5117 97.5463 56.8425 97.8771 57.2506 97.8771H89.3403C89.7483 97.8771 90.0792 97.5463 90.0792 97.1382V95.0113C90.0792 94.6033 89.7483 94.2725 89.3403 94.2725Z" fill="black"/>
<path opacity="0.5" d="M61.283 94.2725H60.2817C60.2016 94.2725 60.1367 94.3374 60.1367 94.4175V97.7321C60.1367 97.8122 60.2016 97.8771 60.2817 97.8771H61.283C61.3631 97.8771 61.428 97.8122 61.428 97.7321V94.4175C61.428 94.3374 61.3631 94.2725 61.283 94.2725Z" fill="#754FFE"/>
<path opacity="0.5" d="M87.3307 94.2725H86.3501C86.27 94.2725 86.2051 94.3374 86.2051 94.4175V97.7321C86.2051 97.8122 86.27 97.8771 86.3501 97.8771H87.3307C87.4108 97.8771 87.4757 97.8122 87.4757 97.7321V94.4175C87.4757 94.3374 87.4108 94.2725 87.3307 94.2725Z" fill="#754FFE"/>
<path d="M67.0703 89.0659C66.5386 89.0659 66.1035 89.3214 66.1035 89.6322V93.6995C66.1035 94.0171 66.5386 94.2726 67.0703 94.2726H100.997C101.169 94.2726 101.314 94.1898 101.314 94.0862V89.2524C101.314 89.1488 101.169 89.0659 100.997 89.0659H67.0703Z" fill="#754FFE"/>
<path opacity="0.9" d="M85.4799 89.4043H101.314V93.9274H85.4799C85.3663 93.9274 85.2574 93.8823 85.1772 93.802C85.0969 93.7217 85.0518 93.6128 85.0518 93.4992V89.8324C85.0518 89.7189 85.0969 89.61 85.1772 89.5297C85.2574 89.4494 85.3663 89.4043 85.4799 89.4043Z" fill="white"/>
<path d="M83.6709 89.0659H56.6153C56.2073 89.0659 55.8765 89.3967 55.8765 89.8048V93.5337C55.8765 93.9418 56.2073 94.2726 56.6153 94.2726H83.6709C84.079 94.2726 84.4098 93.9418 84.4098 93.5337V89.8048C84.4098 89.3967 84.079 89.0659 83.6709 89.0659Z" fill="#754FFE"/>
<path opacity="0.1" d="M83.6709 89.0659H56.6153C56.2073 89.0659 55.8765 89.3967 55.8765 89.8048V93.5337C55.8765 93.9418 56.2073 94.2726 56.6153 94.2726H83.6709C84.079 94.2726 84.4098 93.9418 84.4098 93.5337V89.8048C84.4098 89.3967 84.079 89.0659 83.6709 89.0659Z" fill="black"/>
<path d="M142.74 110.355H114.241C114.089 110.355 113.942 110.416 113.833 110.523C113.725 110.63 113.663 110.776 113.661 110.929C113.663 111.081 113.725 111.227 113.833 111.334C113.942 111.442 114.089 111.502 114.241 111.502H142.74C142.892 111.502 143.038 111.441 143.145 111.334C143.253 111.226 143.313 111.081 143.313 110.929C143.313 110.777 143.253 110.631 143.145 110.523C143.038 110.416 142.892 110.355 142.74 110.355Z" fill="white"/>
<path d="M198.495 108.988H217.222L218.914 111.439H196.803L198.495 108.988Z" fill="#263238"/>
<path d="M227.415 67.148C227.415 67.6465 227.267 68.1338 226.99 68.5483C226.713 68.9628 226.32 69.2858 225.859 69.4766C225.399 69.6674 224.892 69.7173 224.403 69.62C223.914 69.5228 223.465 69.2827 223.112 68.9302C222.76 68.5777 222.52 68.1286 222.422 67.6397C222.325 67.1507 222.375 66.644 222.566 66.1834C222.757 65.7228 223.08 65.3292 223.494 65.0522C223.909 64.7753 224.396 64.6275 224.895 64.6275C225.226 64.6265 225.554 64.6911 225.86 64.8175C226.166 64.9438 226.445 65.1294 226.679 65.3637C226.913 65.5979 227.099 65.8761 227.225 66.1823C227.351 66.4885 227.416 66.8167 227.415 67.148Z" fill="black"/>
<path d="M208.48 110.645C208.349 110.645 208.219 110.612 208.104 110.55C207.988 110.488 207.889 110.399 207.816 110.29C207.743 110.18 207.698 110.055 207.685 109.924C207.672 109.794 207.691 109.662 207.741 109.54L225.785 66.8371C225.878 66.6588 226.035 66.522 226.224 66.4539C226.414 66.3859 226.622 66.3916 226.807 66.4699C226.992 66.5482 227.141 66.6934 227.224 66.8766C227.308 67.0597 227.319 67.2675 227.256 67.4586L209.212 110.155C209.151 110.299 209.049 110.423 208.919 110.51C208.789 110.597 208.636 110.644 208.48 110.645Z" fill="#263238"/>
<path d="M226.517 67.9558C226.346 67.9539 226.179 67.8984 226.041 67.797L193.274 43.2204C193.106 43.0941 192.994 42.906 192.965 42.6975C192.935 42.489 192.989 42.2772 193.115 42.1087C193.242 41.9402 193.43 41.8288 193.638 41.799C193.847 41.7692 194.059 41.8235 194.227 41.9498L227 66.5126C227.133 66.6143 227.23 66.7548 227.279 66.9145C227.328 67.0742 227.325 67.2452 227.272 67.4034C227.219 67.5616 227.117 67.6993 226.982 67.7971C226.847 67.8949 226.684 67.948 226.517 67.9489V67.9558Z" fill="#263238"/>
<path d="M229.038 67.148C229.038 67.6465 228.89 68.1338 228.613 68.5483C228.336 68.9628 227.942 69.2858 227.482 69.4766C227.021 69.6674 226.514 69.7173 226.025 69.62C225.536 69.5228 225.087 69.2827 224.735 68.9302C224.382 68.5777 224.142 68.1286 224.045 67.6397C223.948 67.1507 223.998 66.644 224.188 66.1834C224.379 65.7228 224.702 65.3292 225.117 65.0522C225.531 64.7753 226.019 64.6275 226.517 64.6275C226.848 64.6265 227.177 64.6911 227.483 64.8175C227.789 64.9438 228.067 65.1294 228.301 65.3637C228.536 65.5979 228.721 65.8761 228.848 66.1823C228.974 66.4885 229.038 66.8167 229.038 67.148Z" fill="#263238"/>
<path d="M193.751 45.0985C195.139 45.0985 196.264 43.9731 196.264 42.5849C196.264 41.1967 195.139 40.0713 193.751 40.0713C192.363 40.0713 191.237 41.1967 191.237 42.5849C191.237 43.9731 192.363 45.0985 193.751 45.0985Z" fill="#263238"/>
<path d="M190.229 54.0759C189.441 54.8639 188.437 55.4006 187.344 55.618C186.251 55.8354 185.118 55.7238 184.088 55.2973C183.059 54.8708 182.179 54.1486 181.56 53.222C180.94 52.2953 180.61 51.2059 180.61 50.0914C180.61 48.9769 180.94 47.8875 181.56 46.9608C182.179 46.0342 183.059 45.312 184.088 44.8855C185.118 44.459 186.251 44.3474 187.344 44.5648C188.437 44.7822 189.441 45.3189 190.229 46.107C191.284 47.1646 191.877 48.5975 191.877 50.0914C191.877 51.5853 191.284 53.0182 190.229 54.0759Z" fill="#754FFE"/>
<path opacity="0.7" d="M190.229 54.0759C189.441 54.8639 188.437 55.4006 187.344 55.618C186.251 55.8354 185.118 55.7238 184.088 55.2973C183.059 54.8708 182.179 54.1486 181.56 53.222C180.94 52.2953 180.61 51.2059 180.61 50.0914C180.61 48.9769 180.94 47.8875 181.56 46.9608C182.179 46.0342 183.059 45.312 184.088 44.8855C185.118 44.459 186.251 44.3474 187.344 44.5648C188.437 44.7822 189.441 45.3189 190.229 46.107C191.284 47.1646 191.877 48.5975 191.877 50.0914C191.877 51.5853 191.284 53.0182 190.229 54.0759Z" fill="white"/>
<path d="M193.751 42.585C192.631 41.4634 191.3 40.5736 189.836 39.9665C188.371 39.3594 186.801 39.0469 185.216 39.0469C183.63 39.0469 182.061 39.3594 180.596 39.9665C179.132 40.5736 177.801 41.4634 176.681 42.585L193.751 59.6691C194.874 58.548 195.765 57.2165 196.373 55.7508C196.98 54.285 197.293 52.7138 197.293 51.1271C197.293 49.5403 196.98 47.9691 196.373 46.5034C195.765 45.0377 194.874 43.7061 193.751 42.585Z" fill="#263238"/>
<g opacity="0.2">
<path d="M176.673 42.585L104.981 111.501H178.531L193.751 59.6622L176.673 42.585Z" fill="#754FFE"/>
<path opacity="0.7" d="M176.673 42.585L104.981 111.501H178.531L193.751 59.6622L176.673 42.585Z" fill="white"/>
</g>
</svg>
