<svg width="272" height="272" viewBox="0 0 272 272" fill="none" xmlns="http://www.w3.org/2000/svg">
<g clip-path="url(#clip0_8333_9124)">
<path opacity="0.6" d="M136 236.144C196.395 236.144 245.354 233.286 245.354 229.759C245.354 226.233 196.395 223.375 136 223.375C75.6059 223.375 26.6465 226.233 26.6465 229.759C26.6465 233.286 75.6059 236.144 136 236.144Z" fill="#F5F5F5"/>
<path d="M178.824 47.4575H162C161.293 47.4575 160.72 48.0307 160.72 48.7378V65.5619C160.72 66.269 161.293 66.8422 162 66.8422H178.824C179.531 66.8422 180.104 66.269 180.104 65.5619V48.7378C180.104 48.0307 179.531 47.4575 178.824 47.4575Z" fill="#754FFE"/>
<g opacity="0.4">
<path d="M178.824 47.4575H162C161.293 47.4575 160.72 48.0307 160.72 48.7378V65.5619C160.72 66.269 161.293 66.8422 162 66.8422H178.824C179.531 66.8422 180.104 66.269 180.104 65.5619V48.7378C180.104 48.0307 179.531 47.4575 178.824 47.4575Z" fill="white"/>
</g>
<path d="M167.809 56.1261L164.425 57.3612L167.809 58.5851V59.8597L163.004 58.0267V56.7183L167.809 54.8853V56.1261Z" fill="white"/>
<path d="M171.43 52.3926H172.834L169.495 61.9073H168.091L171.43 52.3926Z" fill="white"/>
<path d="M177.82 56.707V58.0155L173.015 59.8597V58.5964L176.399 57.3725L173.015 56.1373V54.8853L177.82 56.707Z" fill="white"/>
<path d="M164.989 70.3841V75.0878H163.901V73.1533H161.757V75.0878H160.669V70.3784H161.757V72.2678H163.901V70.4123L164.989 70.3841Z" fill="#263238"/>
<path d="M167.088 71.2698H165.576V70.3843H169.682V71.2698H168.176V75.088H167.088V71.2698Z" fill="#263238"/>
<path d="M174.56 75.0878V72.2678L173.173 74.5971H172.659L171.278 72.3411V75.0878H170.257V70.3784H171.159L172.919 73.3056L174.656 70.3784H175.553V75.0878H174.56Z" fill="#263238"/>
<path d="M176.703 70.3843H177.792V74.2026H180.155V75.088H176.703V70.3843Z" fill="#263238"/>
<g opacity="0.6">
<path d="M164.989 70.3841V75.0878H163.901V73.1533H161.757V75.0878H160.669V70.3784H161.757V72.2678H163.901V70.4123L164.989 70.3841Z" fill="white"/>
<path d="M167.088 71.2698H165.576V70.3843H169.682V71.2698H168.176V75.088H167.088V71.2698Z" fill="white"/>
<path d="M174.56 75.0878V72.2678L173.173 74.5971H172.659L171.278 72.3411V75.0878H170.257V70.3784H171.159L172.919 73.3056L174.656 70.3784H175.553V75.0878H174.56Z" fill="white"/>
<path d="M176.703 70.3843H177.792V74.2026H180.155V75.088H176.703V70.3843Z" fill="white"/>
</g>
<path d="M220.284 57.79H203.46C202.753 57.79 202.18 58.3632 202.18 59.0703V75.8944C202.18 76.6015 202.753 77.1747 203.46 77.1747H220.284C220.991 77.1747 221.564 76.6015 221.564 75.8944V59.0703C221.564 58.3632 220.991 57.79 220.284 57.79Z" fill="#754FFE"/>
<g opacity="0.4">
<path d="M220.284 57.79H203.46C202.753 57.79 202.18 58.3632 202.18 59.0703V75.8944C202.18 76.6015 202.753 77.1747 203.46 77.1747H220.284C220.991 77.1747 221.564 76.6015 221.564 75.8944V59.0703C221.564 58.3632 220.991 57.79 220.284 57.79Z" fill="white"/>
</g>
<path d="M208.694 67.4795C209.156 67.6205 209.37 67.9138 209.37 68.6075V70.2262C209.358 70.3265 209.368 70.4284 209.401 70.5241C209.433 70.6198 209.487 70.7069 209.558 70.7786C209.629 70.8504 209.716 70.905 209.812 70.9382C209.907 70.9715 210.009 70.9826 210.109 70.9707H210.29V72.2058H209.726C208.462 72.2058 207.819 71.5572 207.819 70.3954V68.568C207.828 68.5062 207.823 68.4433 207.804 68.3838C207.785 68.3244 207.753 68.2699 207.71 68.2245C207.667 68.179 207.615 68.1437 207.557 68.1212C207.498 68.0987 207.436 68.0895 207.374 68.0943H207.041V66.8591H207.374C207.436 66.8639 207.498 66.8547 207.557 66.8322C207.615 66.8097 207.667 66.7744 207.71 66.7289C207.753 66.6835 207.785 66.629 207.804 66.5696C207.823 66.5101 207.828 66.4472 207.819 66.3854V64.558C207.819 63.3962 208.462 62.7476 209.726 62.7476H210.29V63.9827H210.109C210.009 63.9708 209.907 63.9819 209.812 64.0151C209.716 64.0484 209.629 64.103 209.558 64.1748C209.487 64.2465 209.433 64.3336 209.401 64.4293C209.368 64.525 209.358 64.6269 209.37 64.7272V66.3459C209.37 67.0452 209.156 67.3385 208.694 67.4795Z" fill="white"/>
<path d="M216.725 66.8647V68.0999H216.392C216.33 68.0951 216.268 68.1043 216.21 68.1268C216.151 68.1493 216.099 68.1846 216.056 68.2301C216.013 68.2755 215.981 68.33 215.963 68.3894C215.944 68.4489 215.938 68.5118 215.947 68.5736V70.401C215.947 71.5628 215.298 72.2114 214.041 72.2114H213.477V70.9763H213.657C213.757 70.9882 213.859 70.9771 213.955 70.9438C214.05 70.9106 214.137 70.856 214.208 70.7842C214.279 70.7124 214.333 70.6254 214.366 70.5297C214.398 70.434 214.409 70.3321 214.396 70.2318V68.6131C214.396 67.9138 214.605 67.6205 215.073 67.4851C214.605 67.3441 214.396 67.0508 214.396 66.3571V64.7384C214.409 64.6381 214.398 64.5363 214.366 64.4405C214.333 64.3448 214.279 64.2578 214.208 64.186C214.137 64.1142 214.05 64.0597 213.955 64.0264C213.859 63.9931 213.757 63.982 213.657 63.994H213.477V62.7588H214.041C215.298 62.7588 215.947 63.4074 215.947 64.5692V66.3966C215.938 66.4584 215.944 66.5213 215.963 66.5808C215.981 66.6403 216.013 66.6947 216.056 66.7402C216.099 66.7856 216.151 66.8209 216.21 66.8434C216.268 66.866 216.33 66.8752 216.392 66.8703L216.725 66.8647Z" fill="white"/>
<path d="M205.372 83.1419C205.4 82.6308 205.578 82.1395 205.885 81.7296C206.191 81.3197 206.612 81.0097 207.095 80.8385C207.577 80.6672 208.099 80.6425 208.596 80.7673C209.092 80.8922 209.54 81.1611 209.884 81.5401L209.185 82.1887C209.042 82.0118 208.862 81.8692 208.657 81.7715C208.452 81.6739 208.227 81.6237 208 81.6247C207.794 81.6121 207.588 81.6418 207.394 81.7119C207.2 81.7821 207.023 81.8911 206.872 82.0325C206.722 82.1738 206.602 82.3444 206.521 82.5337C206.439 82.7231 206.397 82.9272 206.397 83.1334C206.397 83.3397 206.439 83.5438 206.521 83.7331C206.602 83.9225 206.722 84.093 206.872 84.2344C207.023 84.3757 207.2 84.4848 207.394 84.5549C207.588 84.625 207.794 84.6547 208 84.6421C208.227 84.6427 208.452 84.5924 208.657 84.4948C208.862 84.3971 209.042 84.2548 209.185 84.0781L209.884 84.7211C209.542 85.1026 209.094 85.3738 208.597 85.5005C208.1 85.6272 207.577 85.6035 207.094 85.4326C206.611 85.2616 206.189 84.9511 205.883 84.5403C205.576 84.1294 205.398 83.6369 205.372 83.125V83.1419Z" fill="#263238"/>
<path d="M210.177 85.037L210.543 84.2136C211.003 84.527 211.544 84.6977 212.1 84.7043C212.743 84.7043 213.008 84.49 213.008 84.2023C213.008 83.3168 210.267 83.926 210.267 82.1776C210.267 81.3767 210.916 80.7055 212.252 80.7055C212.825 80.6959 213.39 80.84 213.888 81.1229L213.555 81.952C213.158 81.7193 212.707 81.5931 212.247 81.5854C211.604 81.5854 211.35 81.8222 211.35 82.1212C211.35 82.9897 214.091 82.3919 214.091 84.1177C214.091 84.9073 213.437 85.5785 212.094 85.5785C211.415 85.5946 210.747 85.4059 210.177 85.037Z" fill="#263238"/>
<path d="M214.469 85.037L214.841 84.2135C215.299 84.5294 215.841 84.7004 216.398 84.7042C217.041 84.7042 217.306 84.4899 217.306 84.2023C217.306 83.3168 214.565 83.9259 214.565 82.1775C214.565 81.3766 215.213 80.7055 216.55 80.7055C217.123 80.6967 217.687 80.8407 218.186 81.1228L217.847 81.9519C217.452 81.7188 217.003 81.5924 216.544 81.5853C215.896 81.5853 215.648 81.8222 215.648 82.1211C215.648 82.9897 218.389 82.3918 218.389 84.1176C218.389 84.9072 217.734 85.5784 216.386 85.5784C215.707 85.5945 215.039 85.4058 214.469 85.037Z" fill="#263238"/>
<g opacity="0.6">
<path d="M205.372 83.1419C205.4 82.6308 205.578 82.1395 205.885 81.7296C206.191 81.3197 206.612 81.0097 207.095 80.8385C207.577 80.6672 208.099 80.6425 208.596 80.7673C209.092 80.8922 209.54 81.1611 209.884 81.5401L209.185 82.1887C209.042 82.0118 208.862 81.8692 208.657 81.7715C208.452 81.6739 208.227 81.6237 208 81.6247C207.794 81.6121 207.588 81.6418 207.394 81.7119C207.2 81.7821 207.023 81.8911 206.872 82.0325C206.722 82.1738 206.602 82.3444 206.521 82.5337C206.439 82.7231 206.397 82.9272 206.397 83.1334C206.397 83.3397 206.439 83.5438 206.521 83.7331C206.602 83.9225 206.722 84.093 206.872 84.2344C207.023 84.3757 207.2 84.4848 207.394 84.5549C207.588 84.625 207.794 84.6547 208 84.6421C208.227 84.6427 208.452 84.5924 208.657 84.4948C208.862 84.3971 209.042 84.2548 209.185 84.0781L209.884 84.7211C209.542 85.1026 209.094 85.3738 208.597 85.5005C208.1 85.6272 207.577 85.6035 207.094 85.4326C206.611 85.2616 206.189 84.9511 205.883 84.5403C205.576 84.1294 205.398 83.6369 205.372 83.125V83.1419Z" fill="white"/>
<path d="M210.178 85.037L210.544 84.2136C211.004 84.527 211.545 84.6977 212.101 84.7043C212.744 84.7043 213.009 84.49 213.009 84.2023C213.009 83.3168 210.268 83.926 210.268 82.1776C210.268 81.3767 210.917 80.7055 212.253 80.7055C212.826 80.6959 213.391 80.84 213.889 81.1229L213.556 81.952C213.159 81.7193 212.708 81.5931 212.248 81.5854C211.605 81.5854 211.351 81.8222 211.351 82.1212C211.351 82.9897 214.092 82.3919 214.092 84.1177C214.092 84.9073 213.438 85.5785 212.095 85.5785C211.416 85.5946 210.748 85.4059 210.178 85.037Z" fill="white"/>
<path d="M214.47 85.037L214.842 84.2135C215.3 84.5294 215.842 84.7004 216.399 84.7042C217.042 84.7042 217.307 84.4899 217.307 84.2023C217.307 83.3168 214.566 83.9259 214.566 82.1775C214.566 81.3766 215.214 80.7055 216.551 80.7055C217.123 80.6967 217.688 80.8407 218.186 81.1228L217.848 81.9519C217.453 81.7188 217.004 81.5924 216.545 81.5853C215.897 81.5853 215.648 81.8222 215.648 82.1211C215.648 82.9897 218.39 82.3918 218.39 84.1176C218.39 84.9072 217.735 85.5784 216.387 85.5784C215.708 85.5945 215.04 85.4058 214.47 85.037Z" fill="white"/>
</g>
<path d="M147.878 55.9009H78.7822V105.916H147.878V55.9009Z" fill="black"/>
<path opacity="0.9" d="M147.878 55.9009H78.7822V105.916H147.878V55.9009Z" fill="white"/>
<path opacity="0.1" d="M88.4041 55.9009H78.7822V105.916H88.4041V55.9009Z" fill="black"/>
<path d="M147.878 55.9009H78.7822V60.5764H147.878V55.9009Z" fill="#754FFE"/>
<g opacity="0.2">
<path d="M106.508 67.6319H93.9253C93.7757 67.6319 93.6323 67.5725 93.5265 67.4667C93.4207 67.3609 93.3613 67.2175 93.3613 67.0679C93.3613 66.9183 93.4207 66.7749 93.5265 66.6691C93.6323 66.5633 93.7757 66.5039 93.9253 66.5039H106.508C106.658 66.5039 106.801 66.5633 106.907 66.6691C107.013 66.7749 107.072 66.9183 107.072 67.0679C107.072 67.2175 107.013 67.3609 106.907 67.4667C106.801 67.5725 106.658 67.6319 106.508 67.6319Z" fill="black"/>
<path d="M134.307 67.6319H109.858C109.708 67.6319 109.565 67.5725 109.459 67.4667C109.353 67.3609 109.294 67.2175 109.294 67.0679C109.294 66.9183 109.353 66.7749 109.459 66.6691C109.565 66.5633 109.708 66.5039 109.858 66.5039H134.307C134.457 66.5039 134.6 66.5633 134.706 66.6691C134.812 66.7749 134.871 66.9183 134.871 67.0679C134.871 67.2175 134.812 67.3609 134.706 67.4667C134.6 67.5725 134.457 67.6319 134.307 67.6319Z" fill="black"/>
<path d="M128.488 71.315H95.6177C95.4681 71.315 95.3247 71.2556 95.2189 71.1498C95.1131 71.044 95.0537 70.9006 95.0537 70.751C95.0537 70.6014 95.1131 70.458 95.2189 70.3522C95.3247 70.2464 95.4681 70.187 95.6177 70.187H128.488C128.637 70.187 128.781 70.2464 128.886 70.3522C128.992 70.458 129.052 70.6014 129.052 70.751C129.052 70.9006 128.992 71.044 128.886 71.1498C128.781 71.2556 128.637 71.315 128.488 71.315Z" fill="black"/>
<path d="M115.098 74.9923H93.9253C93.7757 74.9923 93.6323 74.9328 93.5265 74.8271C93.4207 74.7213 93.3613 74.5778 93.3613 74.4283C93.3613 74.2787 93.4207 74.1352 93.5265 74.0294C93.6323 73.9237 93.7757 73.8643 93.9253 73.8643H115.098C115.247 73.8643 115.391 73.9237 115.497 74.0294C115.602 74.1352 115.662 74.2787 115.662 74.4283C115.662 74.5778 115.602 74.7213 115.497 74.8271C115.391 74.9328 115.247 74.9923 115.098 74.9923Z" fill="black"/>
<path d="M134.308 74.9923H119.136C118.987 74.9923 118.843 74.9328 118.737 74.8271C118.632 74.7213 118.572 74.5778 118.572 74.4283C118.572 74.2787 118.632 74.1352 118.737 74.0294C118.843 73.9237 118.987 73.8643 119.136 73.8643H134.308C134.457 73.8643 134.601 73.9237 134.707 74.0294C134.812 74.1352 134.872 74.2787 134.872 74.4283C134.872 74.5778 134.812 74.7213 134.707 74.8271C134.601 74.9328 134.457 74.9923 134.308 74.9923Z" fill="black"/>
<path d="M105.617 78.6749H93.9253C93.7757 78.6749 93.6323 78.6155 93.5265 78.5097C93.4207 78.4039 93.3613 78.2605 93.3613 78.1109C93.3613 77.9613 93.4207 77.8178 93.5265 77.7121C93.6323 77.6063 93.7757 77.5469 93.9253 77.5469H105.617C105.767 77.5469 105.91 77.6063 106.016 77.7121C106.122 77.8178 106.181 77.9613 106.181 78.1109C106.181 78.2605 106.122 78.4039 106.016 78.5097C105.91 78.6155 105.767 78.6749 105.617 78.6749Z" fill="black"/>
<path d="M127.816 78.6749H109.407C109.257 78.6749 109.114 78.6155 109.008 78.5097C108.902 78.4039 108.843 78.2605 108.843 78.1109C108.843 77.9613 108.902 77.8178 109.008 77.7121C109.114 77.6063 109.257 77.5469 109.407 77.5469H127.816C127.965 77.5469 128.109 77.6063 128.215 77.7121C128.32 77.8178 128.38 77.9613 128.38 78.1109C128.38 78.2605 128.32 78.4039 128.215 78.5097C128.109 78.6155 127.965 78.6749 127.816 78.6749Z" fill="black"/>
<path d="M111.348 82.358H95.6177C95.4681 82.358 95.3247 82.2986 95.2189 82.1928C95.1131 82.087 95.0537 81.9436 95.0537 81.794C95.0537 81.6444 95.1131 81.5009 95.2189 81.3952C95.3247 81.2894 95.4681 81.23 95.6177 81.23H111.348C111.497 81.23 111.641 81.2894 111.746 81.3952C111.852 81.5009 111.912 81.6444 111.912 81.794C111.912 81.9436 111.852 82.087 111.746 82.1928C111.641 82.2986 111.497 82.358 111.348 82.358Z" fill="black"/>
<path d="M113.316 86.0411H95.6177C95.4681 86.0411 95.3247 85.9817 95.2189 85.8759C95.1131 85.7701 95.0537 85.6267 95.0537 85.4771C95.0537 85.3275 95.1131 85.184 95.2189 85.0783C95.3247 84.9725 95.4681 84.9131 95.6177 84.9131H113.316C113.466 84.9131 113.609 84.9725 113.715 85.0783C113.821 85.184 113.88 85.3275 113.88 85.4771C113.88 85.6267 113.821 85.7701 113.715 85.8759C113.609 85.9817 113.466 86.0411 113.316 86.0411Z" fill="black"/>
<path d="M134.308 86.0411H116.26C116.111 86.0411 115.967 85.9817 115.861 85.8759C115.756 85.7701 115.696 85.6267 115.696 85.4771C115.696 85.3275 115.756 85.184 115.861 85.0783C115.967 84.9725 116.111 84.9131 116.26 84.9131H134.308C134.458 84.9131 134.601 84.9725 134.707 85.0783C134.813 85.184 134.872 85.3275 134.872 85.4771C134.872 85.6267 134.813 85.7701 134.707 85.8759C134.601 85.9817 134.458 86.0411 134.308 86.0411Z" fill="black"/>
<path d="M104.055 89.7183H93.9029C93.7533 89.7183 93.6098 89.6589 93.5041 89.5531C93.3983 89.4474 93.3389 89.3039 93.3389 89.1543C93.3389 89.0047 93.3983 88.8613 93.5041 88.7555C93.6098 88.6498 93.7533 88.5903 93.9029 88.5903H104.055C104.204 88.5903 104.348 88.6498 104.454 88.7555C104.559 88.8613 104.619 89.0047 104.619 89.1543C104.619 89.3039 104.559 89.4474 104.454 89.5531C104.348 89.6589 104.204 89.7183 104.055 89.7183Z" fill="black"/>
<path d="M134.308 89.7183H107.512C107.363 89.7183 107.219 89.6589 107.113 89.5531C107.008 89.4474 106.948 89.3039 106.948 89.1543C106.948 89.0047 107.008 88.8613 107.113 88.7555C107.219 88.6498 107.363 88.5903 107.512 88.5903H134.308C134.457 88.5903 134.601 88.6498 134.707 88.7555C134.812 88.8613 134.872 89.0047 134.872 89.1543C134.872 89.3039 134.812 89.4474 134.707 89.5531C134.601 89.6589 134.457 89.7183 134.308 89.7183Z" fill="black"/>
<path d="M113.203 93.4009H95.6177C95.4681 93.4009 95.3247 93.3415 95.2189 93.2358C95.1131 93.13 95.0537 92.9865 95.0537 92.8369C95.0537 92.6874 95.1131 92.5439 95.2189 92.4381C95.3247 92.3324 95.4681 92.2729 95.6177 92.2729H113.203C113.353 92.2729 113.496 92.3324 113.602 92.4381C113.708 92.5439 113.767 92.6874 113.767 92.8369C113.767 92.9865 113.708 93.13 113.602 93.2358C113.496 93.3415 113.353 93.4009 113.203 93.4009Z" fill="black"/>
<path d="M127.038 93.4009H115.657C115.507 93.4009 115.364 93.3415 115.258 93.2358C115.152 93.13 115.093 92.9865 115.093 92.8369C115.093 92.6874 115.152 92.5439 115.258 92.4381C115.364 92.3324 115.507 92.2729 115.657 92.2729H127.038C127.188 92.2729 127.331 92.3324 127.437 92.4381C127.543 92.5439 127.602 92.6874 127.602 92.8369C127.602 92.9865 127.543 93.13 127.437 93.2358C127.331 93.3415 127.188 93.4009 127.038 93.4009Z" fill="black"/>
<path d="M115.86 97.0841H95.6177C95.4681 97.0841 95.3247 97.0246 95.2189 96.9189C95.1131 96.8131 95.0537 96.6696 95.0537 96.5201C95.0537 96.3705 95.1131 96.227 95.2189 96.1212C95.3247 96.0155 95.4681 95.9561 95.6177 95.9561H115.86C116.009 95.9561 116.153 96.0155 116.258 96.1212C116.364 96.227 116.424 96.3705 116.424 96.5201C116.424 96.6696 116.364 96.8131 116.258 96.9189C116.153 97.0246 116.009 97.0841 115.86 97.0841Z" fill="black"/>
</g>
<path opacity="0.4" d="M144.906 59.2341C145.439 59.2341 145.87 58.8023 145.87 58.2696C145.87 57.737 145.439 57.3052 144.906 57.3052C144.373 57.3052 143.941 57.737 143.941 58.2696C143.941 58.8023 144.373 59.2341 144.906 59.2341Z" fill="white"/>
<path opacity="0.4" d="M141.516 59.2341C142.049 59.2341 142.481 58.8023 142.481 58.2696C142.481 57.737 142.049 57.3052 141.516 57.3052C140.984 57.3052 140.552 57.737 140.552 58.2696C140.552 58.8023 140.984 59.2341 141.516 59.2341Z" fill="white"/>
<path opacity="0.4" d="M138.132 59.2341C138.665 59.2341 139.097 58.8023 139.097 58.2696C139.097 57.737 138.665 57.3052 138.132 57.3052C137.6 57.3052 137.168 57.737 137.168 58.2696C137.168 58.8023 137.6 59.2341 138.132 59.2341Z" fill="white"/>
<g opacity="0.2">
<path d="M83.7622 67.6319C83.6127 67.6319 83.4692 67.5725 83.3634 67.4667C83.2577 67.3609 83.1982 67.2175 83.1982 67.0679C83.1982 66.9183 83.2577 66.7749 83.3634 66.6691C83.4692 66.5633 83.6127 66.5039 83.7622 66.5039C83.9118 66.5039 84.0553 66.5633 84.1611 66.6691C84.2668 66.7749 84.3262 66.9183 84.3262 67.0679C84.3262 67.2175 84.2668 67.3609 84.1611 67.4667C84.0553 67.5725 83.9118 67.6319 83.7622 67.6319Z" fill="black"/>
<path d="M83.7622 71.315C83.6127 71.315 83.4692 71.2556 83.3634 71.1498C83.2577 71.044 83.1982 70.9006 83.1982 70.751C83.1982 70.6014 83.2577 70.458 83.3634 70.3522C83.4692 70.2464 83.6127 70.187 83.7622 70.187C83.9118 70.187 84.0553 70.2464 84.1611 70.3522C84.2668 70.458 84.3262 70.6014 84.3262 70.751C84.3262 70.9006 84.2668 71.044 84.1611 71.1498C84.0553 71.2556 83.9118 71.315 83.7622 71.315Z" fill="black"/>
<path d="M83.7622 74.9923C83.6127 74.9923 83.4692 74.9328 83.3634 74.8271C83.2577 74.7213 83.1982 74.5778 83.1982 74.4283C83.1982 74.2787 83.2577 74.1352 83.3634 74.0294C83.4692 73.9237 83.6127 73.8643 83.7622 73.8643C83.9118 73.8643 84.0553 73.9237 84.1611 74.0294C84.2668 74.1352 84.3262 74.2787 84.3262 74.4283C84.3262 74.5778 84.2668 74.7213 84.1611 74.8271C84.0553 74.9328 83.9118 74.9923 83.7622 74.9923Z" fill="black"/>
<path d="M83.7622 78.6749C83.6127 78.6749 83.4692 78.6155 83.3634 78.5097C83.2577 78.4039 83.1982 78.2605 83.1982 78.1109C83.1982 77.9613 83.2577 77.8178 83.3634 77.7121C83.4692 77.6063 83.6127 77.5469 83.7622 77.5469C83.9118 77.5469 84.0553 77.6063 84.1611 77.7121C84.2668 77.8178 84.3262 77.9613 84.3262 78.1109C84.3262 78.2605 84.2668 78.4039 84.1611 78.5097C84.0553 78.6155 83.9118 78.6749 83.7622 78.6749Z" fill="black"/>
<path d="M83.7622 82.358C83.6127 82.358 83.4692 82.2986 83.3634 82.1928C83.2577 82.087 83.1982 81.9436 83.1982 81.794C83.1982 81.6444 83.2577 81.5009 83.3634 81.3952C83.4692 81.2894 83.6127 81.23 83.7622 81.23C83.9118 81.23 84.0553 81.2894 84.1611 81.3952C84.2668 81.5009 84.3262 81.6444 84.3262 81.794C84.3262 81.9436 84.2668 82.087 84.1611 82.1928C84.0553 82.2986 83.9118 82.358 83.7622 82.358Z" fill="black"/>
<path d="M83.7622 86.0411C83.6127 86.0411 83.4692 85.9817 83.3634 85.8759C83.2577 85.7701 83.1982 85.6267 83.1982 85.4771C83.1982 85.3275 83.2577 85.184 83.3634 85.0783C83.4692 84.9725 83.6127 84.9131 83.7622 84.9131C83.9118 84.9131 84.0553 84.9725 84.1611 85.0783C84.2668 85.184 84.3262 85.3275 84.3262 85.4771C84.3262 85.6267 84.2668 85.7701 84.1611 85.8759C84.0553 85.9817 83.9118 86.0411 83.7622 86.0411Z" fill="black"/>
<path d="M83.7622 89.7183C83.6127 89.7183 83.4692 89.6589 83.3634 89.5531C83.2577 89.4474 83.1982 89.3039 83.1982 89.1543C83.1982 89.0047 83.2577 88.8613 83.3634 88.7555C83.4692 88.6498 83.6127 88.5903 83.7622 88.5903C83.9118 88.5903 84.0553 88.6498 84.1611 88.7555C84.2668 88.8613 84.3262 89.0047 84.3262 89.1543C84.3262 89.3039 84.2668 89.4474 84.1611 89.5531C84.0553 89.6589 83.9118 89.7183 83.7622 89.7183Z" fill="black"/>
<path d="M83.7622 93.4009C83.6127 93.4009 83.4692 93.3415 83.3634 93.2358C83.2577 93.13 83.1982 92.9865 83.1982 92.8369C83.1982 92.6874 83.2577 92.5439 83.3634 92.4381C83.4692 92.3324 83.6127 92.2729 83.7622 92.2729C83.9118 92.2729 84.0553 92.3324 84.1611 92.4381C84.2668 92.5439 84.3262 92.6874 84.3262 92.8369C84.3262 92.9865 84.2668 93.13 84.1611 93.2358C84.0553 93.3415 83.9118 93.4009 83.7622 93.4009Z" fill="black"/>
<path d="M83.7622 97.0841C83.6127 97.0841 83.4692 97.0246 83.3634 96.9189C83.2577 96.8131 83.1982 96.6696 83.1982 96.5201C83.1982 96.3705 83.2577 96.227 83.3634 96.1212C83.4692 96.0155 83.6127 95.9561 83.7622 95.9561C83.9118 95.9561 84.0553 96.0155 84.1611 96.1212C84.2668 96.227 84.3262 96.3705 84.3262 96.5201C84.3262 96.6696 84.2668 96.8131 84.1611 96.9189C84.0553 97.0246 83.9118 97.0841 83.7622 97.0841Z" fill="black"/>
</g>
<path d="M210.459 96.7119H119.92V154.685H210.459V96.7119Z" fill="#263238"/>
<path opacity="0.9" d="M210.459 96.7119H119.92V154.685H210.459V96.7119Z" fill="white"/>
<path opacity="0.1" d="M134.042 96.7119H119.92V154.685H134.042V96.7119Z" fill="black"/>
<path d="M210.459 96.7119H119.92V101.387H210.459V96.7119Z" fill="#754FFE"/>
<path d="M126.316 106.514L124.816 107.078L126.316 107.642V108.206L124.173 107.388V106.824L126.316 106.012V106.514Z" fill="white"/>
<path d="M127.935 104.845H128.561L127.072 109.092H126.446L127.935 104.845Z" fill="white"/>
<path d="M130.789 106.768V107.332L128.646 108.15V107.586L130.146 107.022L128.646 106.458V105.894L130.789 106.768Z" fill="white"/>
<g opacity="0.2">
<path d="M130.473 112.961H124.336C124.187 112.961 124.043 112.901 123.938 112.795C123.832 112.69 123.772 112.546 123.772 112.397C123.772 112.247 123.832 112.103 123.938 111.998C124.043 111.892 124.187 111.833 124.336 111.833H130.473C130.622 111.833 130.766 111.892 130.872 111.998C130.977 112.103 131.037 112.247 131.037 112.397C131.037 112.546 130.977 112.69 130.872 112.795C130.766 112.901 130.622 112.961 130.473 112.961Z" fill="black"/>
<path d="M130.473 116.638H124.336C124.187 116.638 124.043 116.578 123.938 116.473C123.832 116.367 123.772 116.223 123.772 116.074C123.772 115.924 123.832 115.781 123.938 115.675C124.043 115.569 124.187 115.51 124.336 115.51H130.473C130.622 115.51 130.766 115.569 130.872 115.675C130.977 115.781 131.037 115.924 131.037 116.074C131.037 116.223 130.977 116.367 130.872 116.473C130.766 116.578 130.622 116.638 130.473 116.638Z" fill="black"/>
<path d="M130.473 120.321H124.336C124.187 120.321 124.043 120.261 123.938 120.156C123.832 120.05 123.772 119.906 123.772 119.757C123.772 119.607 123.832 119.464 123.938 119.358C124.043 119.252 124.187 119.193 124.336 119.193H130.473C130.622 119.193 130.766 119.252 130.872 119.358C130.977 119.464 131.037 119.607 131.037 119.757C131.037 119.906 130.977 120.05 130.872 120.156C130.766 120.261 130.622 120.321 130.473 120.321Z" fill="black"/>
<path d="M130.473 124.003H124.336C124.187 124.003 124.043 123.944 123.938 123.838C123.832 123.733 123.772 123.589 123.772 123.439C123.772 123.29 123.832 123.146 123.938 123.041C124.043 122.935 124.187 122.875 124.336 122.875H130.473C130.622 122.875 130.766 122.935 130.872 123.041C130.977 123.146 131.037 123.29 131.037 123.439C131.037 123.589 130.977 123.733 130.872 123.838C130.766 123.944 130.622 124.003 130.473 124.003Z" fill="black"/>
<path d="M130.473 127.687H124.336C124.187 127.687 124.043 127.627 123.938 127.521C123.832 127.416 123.772 127.272 123.772 127.123C123.772 126.973 123.832 126.83 123.938 126.724C124.043 126.618 124.187 126.559 124.336 126.559H130.473C130.622 126.559 130.766 126.618 130.872 126.724C130.977 126.83 131.037 126.973 131.037 127.123C131.037 127.272 130.977 127.416 130.872 127.521C130.766 127.627 130.622 127.687 130.473 127.687Z" fill="black"/>
<path d="M130.473 131.364H124.336C124.187 131.364 124.043 131.304 123.938 131.199C123.832 131.093 123.772 130.949 123.772 130.8C123.772 130.65 123.832 130.507 123.938 130.401C124.043 130.295 124.187 130.236 124.336 130.236H130.473C130.622 130.236 130.766 130.295 130.872 130.401C130.977 130.507 131.037 130.65 131.037 130.8C131.037 130.949 130.977 131.093 130.872 131.199C130.766 131.304 130.622 131.364 130.473 131.364Z" fill="black"/>
<path d="M130.473 135.047H124.336C124.187 135.047 124.043 134.988 123.938 134.882C123.832 134.776 123.772 134.633 123.772 134.483C123.772 134.333 123.832 134.19 123.938 134.084C124.043 133.978 124.187 133.919 124.336 133.919H130.473C130.622 133.919 130.766 133.978 130.872 134.084C130.977 134.19 131.037 134.333 131.037 134.483C131.037 134.633 130.977 134.776 130.872 134.882C130.766 134.988 130.622 135.047 130.473 135.047Z" fill="black"/>
<path d="M130.473 138.73H124.336C124.187 138.73 124.043 138.67 123.938 138.564C123.832 138.459 123.772 138.315 123.772 138.166C123.772 138.016 123.832 137.873 123.938 137.767C124.043 137.661 124.187 137.602 124.336 137.602H130.473C130.622 137.602 130.766 137.661 130.872 137.767C130.977 137.873 131.037 138.016 131.037 138.166C131.037 138.315 130.977 138.459 130.872 138.564C130.766 138.67 130.622 138.73 130.473 138.73Z" fill="black"/>
<path d="M130.473 142.413H124.336C124.187 142.413 124.043 142.353 123.938 142.247C123.832 142.142 123.772 141.998 123.772 141.849C123.772 141.699 123.832 141.556 123.938 141.45C124.043 141.344 124.187 141.285 124.336 141.285H130.473C130.622 141.285 130.766 141.344 130.872 141.45C130.977 141.556 131.037 141.699 131.037 141.849C131.037 141.998 130.977 142.142 130.872 142.247C130.766 142.353 130.622 142.413 130.473 142.413Z" fill="black"/>
</g>
<path d="M148.21 112.961H135.627C135.478 112.961 135.334 112.901 135.229 112.795C135.123 112.69 135.063 112.546 135.063 112.397C135.063 112.247 135.123 112.103 135.229 111.998C135.334 111.892 135.478 111.833 135.627 111.833H148.21C148.36 111.833 148.503 111.892 148.609 111.998C148.715 112.103 148.774 112.247 148.774 112.397C148.774 112.546 148.715 112.69 148.609 112.795C148.503 112.901 148.36 112.961 148.21 112.961Z" fill="#754FFE"/>
<path d="M184.358 112.961H151.561C151.411 112.961 151.268 112.901 151.162 112.795C151.056 112.69 150.997 112.546 150.997 112.397C150.997 112.247 151.056 112.103 151.162 111.998C151.268 111.892 151.411 111.833 151.561 111.833H184.358C184.507 111.833 184.651 111.892 184.756 111.998C184.862 112.103 184.922 112.247 184.922 112.397C184.922 112.546 184.862 112.69 184.756 112.795C184.651 112.901 184.507 112.961 184.358 112.961Z" fill="#263238"/>
<g opacity="0.2">
<path d="M199.326 112.961H189.823C189.673 112.961 189.53 112.901 189.424 112.795C189.318 112.69 189.259 112.546 189.259 112.397C189.259 112.247 189.318 112.103 189.424 111.998C189.53 111.892 189.673 111.833 189.823 111.833H199.326C199.476 111.833 199.619 111.892 199.725 111.998C199.831 112.103 199.89 112.247 199.89 112.397C199.89 112.546 199.831 112.69 199.725 112.795C199.619 112.901 199.476 112.961 199.326 112.961Z" fill="#263238"/>
</g>
<g opacity="0.2">
<path d="M170.19 116.638H137.32C137.17 116.638 137.027 116.579 136.921 116.473C136.815 116.367 136.756 116.224 136.756 116.074C136.756 115.925 136.815 115.781 136.921 115.675C137.027 115.57 137.17 115.51 137.32 115.51H170.19C170.339 115.51 170.483 115.57 170.589 115.675C170.694 115.781 170.754 115.925 170.754 116.074C170.754 116.224 170.694 116.367 170.589 116.473C170.483 116.579 170.339 116.638 170.19 116.638Z" fill="#263238"/>
</g>
<path d="M203.838 116.638H173.224C173.075 116.638 172.931 116.579 172.825 116.473C172.72 116.367 172.66 116.224 172.66 116.074C172.66 115.925 172.72 115.781 172.825 115.675C172.931 115.57 173.075 115.51 173.224 115.51H203.861C204.01 115.51 204.154 115.57 204.259 115.675C204.365 115.781 204.425 115.925 204.425 116.074C204.425 116.224 204.365 116.367 204.259 116.473C204.154 116.579 204.01 116.638 203.861 116.638H203.838Z" fill="#754FFE"/>
<path d="M156.8 120.321H137.32C137.17 120.321 137.027 120.261 136.921 120.156C136.815 120.05 136.756 119.906 136.756 119.757C136.756 119.607 136.815 119.464 136.921 119.358C137.027 119.252 137.17 119.193 137.32 119.193H156.8C156.95 119.193 157.093 119.252 157.199 119.358C157.305 119.464 157.364 119.607 157.364 119.757C157.364 119.906 157.305 120.05 157.199 120.156C157.093 120.261 156.95 120.321 156.8 120.321Z" fill="#263238"/>
<path d="M179.992 120.321H160.816C160.666 120.321 160.523 120.261 160.417 120.156C160.311 120.05 160.252 119.906 160.252 119.757C160.252 119.607 160.311 119.464 160.417 119.358C160.523 119.252 160.666 119.193 160.816 119.193H179.992C180.142 119.193 180.285 119.252 180.391 119.358C180.497 119.464 180.556 119.607 180.556 119.757C180.556 119.906 180.497 120.05 180.391 120.156C180.285 120.261 180.142 120.321 179.992 120.321Z" fill="#754FFE"/>
<path d="M203.838 120.321H183.127C182.978 120.321 182.834 120.261 182.729 120.156C182.623 120.05 182.563 119.906 182.563 119.757C182.563 119.607 182.623 119.464 182.729 119.358C182.834 119.252 182.978 119.193 183.127 119.193H203.838C203.987 119.193 204.131 119.252 204.236 119.358C204.342 119.464 204.402 119.607 204.402 119.757C204.402 119.906 204.342 120.05 204.236 120.156C204.131 120.261 203.987 120.321 203.838 120.321Z" fill="#263238"/>
<path d="M158.605 124.004H146.914C146.764 124.004 146.621 123.945 146.515 123.839C146.409 123.733 146.35 123.59 146.35 123.44C146.35 123.29 146.409 123.147 146.515 123.041C146.621 122.935 146.764 122.876 146.914 122.876H158.605C158.755 122.876 158.898 122.935 159.004 123.041C159.11 123.147 159.169 123.29 159.169 123.44C159.169 123.59 159.11 123.733 159.004 123.839C158.898 123.945 158.755 124.004 158.605 124.004Z" fill="#263238"/>
<path d="M175.164 124.004H162.401C162.251 124.004 162.108 123.945 162.002 123.839C161.896 123.733 161.837 123.59 161.837 123.44C161.837 123.29 161.896 123.147 162.002 123.041C162.108 122.935 162.251 122.876 162.401 122.876H175.164C175.314 122.876 175.457 122.935 175.563 123.041C175.669 123.147 175.728 123.29 175.728 123.44C175.728 123.59 175.669 123.733 175.563 123.839C175.457 123.945 175.314 124.004 175.164 124.004Z" fill="#263238"/>
<g opacity="0.2">
<path d="M198.762 124.004H178.063C177.913 124.004 177.77 123.945 177.664 123.839C177.558 123.733 177.499 123.59 177.499 123.44C177.499 123.29 177.558 123.147 177.664 123.041C177.77 122.935 177.913 122.876 178.063 122.876H198.762C198.911 122.876 199.055 122.935 199.161 123.041C199.266 123.147 199.326 123.29 199.326 123.44C199.326 123.59 199.266 123.733 199.161 123.839C199.055 123.945 198.911 124.004 198.762 124.004Z" fill="#263238"/>
</g>
<g opacity="0.2">
<path d="M153.05 127.687H137.32C137.17 127.687 137.027 127.627 136.921 127.521C136.815 127.416 136.756 127.272 136.756 127.123C136.756 126.973 136.815 126.83 136.921 126.724C137.027 126.618 137.17 126.559 137.32 126.559H153.05C153.199 126.559 153.343 126.618 153.449 126.724C153.554 126.83 153.614 126.973 153.614 127.123C153.614 127.272 153.554 127.416 153.449 127.521C153.343 127.627 153.199 127.687 153.05 127.687Z" fill="#263238"/>
</g>
<path d="M155.018 131.364H137.32C137.17 131.364 137.027 131.304 136.921 131.199C136.815 131.093 136.756 130.949 136.756 130.8C136.756 130.65 136.815 130.507 136.921 130.401C137.027 130.295 137.17 130.236 137.32 130.236H155.018C155.168 130.236 155.311 130.295 155.417 130.401C155.523 130.507 155.582 130.65 155.582 130.8C155.582 130.949 155.523 131.093 155.417 131.199C155.311 131.304 155.168 131.364 155.018 131.364Z" fill="#754FFE"/>
<path d="M184.583 131.364H157.918C157.768 131.364 157.624 131.304 157.519 131.199C157.413 131.093 157.354 130.949 157.354 130.8C157.354 130.65 157.413 130.507 157.519 130.401C157.624 130.295 157.768 130.236 157.918 130.236H184.583C184.733 130.236 184.876 130.295 184.982 130.401C185.088 130.507 185.147 130.65 185.147 130.8C185.147 130.949 185.088 131.093 184.982 131.199C184.876 131.304 184.733 131.364 184.583 131.364Z" fill="#263238"/>
<path d="M203.838 131.364H187.815C187.665 131.364 187.522 131.304 187.416 131.199C187.31 131.093 187.251 130.949 187.251 130.8C187.251 130.65 187.31 130.507 187.416 130.401C187.522 130.295 187.665 130.236 187.815 130.236H203.838C203.988 130.236 204.131 130.295 204.237 130.401C204.343 130.507 204.402 130.65 204.402 130.8C204.402 130.949 204.343 131.093 204.237 131.199C204.131 131.304 203.988 131.364 203.838 131.364Z" fill="#263238"/>
<g opacity="0.2">
<path d="M153.095 135.047H142.943C142.793 135.047 142.65 134.988 142.544 134.882C142.438 134.776 142.379 134.633 142.379 134.483C142.379 134.333 142.438 134.19 142.544 134.084C142.65 133.978 142.793 133.919 142.943 133.919H153.095C153.244 133.919 153.388 133.978 153.494 134.084C153.599 134.19 153.659 134.333 153.659 134.483C153.659 134.633 153.599 134.776 153.494 134.882C153.388 134.988 153.244 135.047 153.095 135.047Z" fill="#263238"/>
</g>
<g opacity="0.2">
<path d="M175.988 135.047H156.552C156.403 135.047 156.259 134.988 156.153 134.882C156.048 134.776 155.988 134.633 155.988 134.483C155.988 134.333 156.048 134.19 156.153 134.084C156.259 133.978 156.403 133.919 156.552 133.919H175.988C176.137 133.919 176.281 133.978 176.387 134.084C176.492 134.19 176.552 134.333 176.552 134.483C176.552 134.633 176.492 134.776 176.387 134.882C176.281 134.988 176.137 135.047 175.988 135.047Z" fill="#263238"/>
</g>
<path d="M198.762 135.047H179.784C179.634 135.047 179.491 134.988 179.385 134.882C179.279 134.776 179.22 134.633 179.22 134.483C179.22 134.333 179.279 134.19 179.385 134.084C179.491 133.978 179.634 133.919 179.784 133.919H198.762C198.912 133.919 199.055 133.978 199.161 134.084C199.267 134.19 199.326 134.333 199.326 134.483C199.326 134.633 199.267 134.776 199.161 134.882C199.055 134.988 198.912 135.047 198.762 135.047Z" fill="#263238"/>
<path d="M160.551 138.73H148.605C148.455 138.73 148.312 138.671 148.206 138.565C148.1 138.459 148.041 138.316 148.041 138.166C148.041 138.016 148.1 137.873 148.206 137.767C148.312 137.661 148.455 137.602 148.605 137.602H160.551C160.7 137.602 160.844 137.661 160.949 137.767C161.055 137.873 161.115 138.016 161.115 138.166C161.115 138.316 161.055 138.459 160.949 138.565C160.844 138.671 160.7 138.73 160.551 138.73Z" fill="#263238"/>
<g opacity="0.2">
<path d="M174.38 138.73H163.004C162.855 138.73 162.711 138.671 162.606 138.565C162.5 138.459 162.44 138.316 162.44 138.166C162.44 138.016 162.5 137.873 162.606 137.767C162.711 137.661 162.855 137.602 163.004 137.602H174.38C174.53 137.602 174.673 137.661 174.779 137.767C174.885 137.873 174.944 138.016 174.944 138.166C174.944 138.316 174.885 138.459 174.779 138.565C174.673 138.671 174.53 138.73 174.38 138.73Z" fill="#263238"/>
</g>
<path d="M198.762 138.73H177.951C177.801 138.73 177.658 138.671 177.552 138.565C177.446 138.459 177.387 138.316 177.387 138.166C177.387 138.016 177.446 137.873 177.552 137.767C177.658 137.661 177.801 137.602 177.951 137.602H198.762C198.912 137.602 199.055 137.661 199.161 137.767C199.267 137.873 199.326 138.016 199.326 138.166C199.326 138.316 199.267 138.459 199.161 138.565C199.055 138.671 198.912 138.73 198.762 138.73Z" fill="#754FFE"/>
<g opacity="0.2">
<path d="M163.207 142.413H148.605C148.455 142.413 148.312 142.353 148.206 142.247C148.1 142.142 148.041 141.998 148.041 141.849C148.041 141.699 148.1 141.556 148.206 141.45C148.312 141.344 148.455 141.285 148.605 141.285H163.207C163.357 141.285 163.5 141.344 163.606 141.45C163.712 141.556 163.771 141.699 163.771 141.849C163.771 141.998 163.712 142.142 163.606 142.247C163.5 142.353 163.357 142.413 163.207 142.413Z" fill="#263238"/>
</g>
<path opacity="0.4" d="M206.5 99.0863C206.5 99.2784 206.557 99.4662 206.664 99.6258C206.771 99.7855 206.923 99.9098 207.1 99.9831C207.278 100.056 207.473 100.075 207.661 100.037C207.85 99.9994 208.023 99.9065 208.158 99.7702C208.293 99.634 208.385 99.4606 208.422 99.2721C208.459 99.0835 208.439 98.8883 208.365 98.7111C208.29 98.534 208.165 98.3829 208.005 98.277C207.845 98.1711 207.657 98.1151 207.464 98.1162C207.337 98.1162 207.211 98.1414 207.094 98.1902C206.977 98.239 206.87 98.3105 206.78 98.4007C206.691 98.4909 206.62 98.5978 206.572 98.7155C206.524 98.8332 206.499 98.9592 206.5 99.0863Z" fill="white"/>
<path opacity="0.4" d="M204.103 100.051C204.636 100.051 205.068 99.6192 205.068 99.0865C205.068 98.5539 204.636 98.1221 204.103 98.1221C203.57 98.1221 203.139 98.5539 203.139 99.0865C203.139 99.6192 203.57 100.051 204.103 100.051Z" fill="white"/>
<path opacity="0.4" d="M200.713 100.051C201.246 100.051 201.678 99.6192 201.678 99.0865C201.678 98.5539 201.246 98.1221 200.713 98.1221C200.181 98.1221 199.749 98.5539 199.749 99.0865C199.749 99.6192 200.181 100.051 200.713 100.051Z" fill="white"/>
<path d="M58.8789 100.141H42.6809C42.0256 100.14 41.3767 100.269 40.7712 100.519C40.1656 100.769 39.6153 101.136 39.1517 101.599C38.6882 102.062 38.3204 102.612 38.0695 103.218C37.8186 103.823 37.6895 104.472 37.6895 105.127V119.227C37.6887 119.882 37.8171 120.531 38.0674 121.137C38.3176 121.742 38.6847 122.292 39.1478 122.756C39.6108 123.22 40.1607 123.587 40.7659 123.838C41.3712 124.089 42.02 124.218 42.6752 124.218H54.1639L57.5479 128.668V124.218H58.8733C60.1971 124.218 61.4667 123.692 62.4027 122.756C63.3388 121.82 63.8647 120.551 63.8647 119.227V105.127C63.8647 103.805 63.3394 102.536 62.4044 101.601C61.4694 100.666 60.2012 100.141 58.8789 100.141Z" fill="#754FFE"/>
<path opacity="0.7" d="M58.8789 100.141H42.6809C42.0256 100.14 41.3767 100.269 40.7712 100.519C40.1656 100.769 39.6153 101.136 39.1517 101.599C38.6882 102.062 38.3204 102.612 38.0695 103.218C37.8186 103.823 37.6895 104.472 37.6895 105.127V119.227C37.6887 119.882 37.8171 120.531 38.0674 121.137C38.3176 121.742 38.6847 122.292 39.1478 122.756C39.6108 123.22 40.1607 123.587 40.7659 123.838C41.3712 124.089 42.02 124.218 42.6752 124.218H54.1639L57.5479 128.668V124.218H58.8733C60.1971 124.218 61.4667 123.692 62.4027 122.756C63.3388 121.82 63.8647 120.551 63.8647 119.227V105.127C63.8647 103.805 63.3394 102.536 62.4044 101.601C61.4694 100.666 60.2012 100.141 58.8789 100.141Z" fill="white"/>
<path d="M49.934 115.696C49.8269 115.696 49.7212 115.672 49.6239 115.628C49.5266 115.583 49.44 115.518 49.37 115.437L46.2172 111.748C46.1543 111.674 46.1065 111.588 46.0767 111.496C46.0469 111.403 46.0356 111.306 46.0434 111.209C46.0513 111.112 46.0782 111.018 46.1225 110.931C46.1668 110.845 46.2278 110.768 46.3018 110.705C46.3759 110.642 46.4616 110.594 46.5542 110.564C46.6467 110.534 46.7442 110.523 46.8411 110.531C46.9379 110.539 47.0323 110.566 47.1188 110.61C47.2053 110.654 47.2823 110.715 47.3452 110.789L49.934 113.846L54.2148 108.804C54.3434 108.662 54.522 108.576 54.7131 108.563C54.9042 108.55 55.0928 108.612 55.239 108.736C55.3853 108.86 55.4779 109.035 55.4972 109.226C55.5166 109.416 55.4612 109.607 55.3428 109.757L50.498 115.448C50.4274 115.528 50.3404 115.591 50.2431 115.634C50.1458 115.677 50.0403 115.698 49.934 115.696Z" fill="white"/>
<path d="M56.4634 117.801C59.6042 114.66 59.6042 109.568 56.4634 106.427C53.3225 103.286 48.2302 103.286 45.0894 106.427C41.9485 109.568 41.9485 114.66 45.0893 117.801C48.2302 120.942 53.3225 120.942 56.4634 117.801Z" fill="#754FFE"/>
<path d="M110.461 200.003L122.57 199.411L121.392 209.941C121.392 209.941 112.988 211.542 109.237 205.564L110.461 200.003Z" fill="#EBB376"/>
<path d="M130.376 203.082L127.618 210.719L121.392 209.941L122.57 199.411L130.376 203.082Z" fill="#EBB376"/>
<path d="M98.8379 217.092C103.449 214.684 107.651 211.564 111.291 207.848L110.462 200.003C99.0184 201.695 92.414 204.114 92.414 204.114C92.414 204.114 96.6553 188.914 92.7749 183.376L82.121 185.305C82.121 185.305 70.8015 208.835 78.4155 217.092H98.8379Z" fill="#754FFE"/>
<path opacity="0.7" d="M98.8207 217.092C103.434 214.685 107.64 211.567 111.285 207.853L110.462 199.997C99.3847 201.621 92.8367 203.945 92.4137 204.097C92.5547 203.533 96.5647 188.807 92.7634 183.37L82.1094 185.299C79.919 190.024 78.1798 194.945 76.915 199.997C75.3922 206.421 74.9466 213.341 78.4096 217.092H98.8207Z" fill="white"/>
<path opacity="0.2" d="M90.0614 217.092C93.8233 193.257 90.49 187.2 90.49 187.2L76.954 199.986C75.4312 206.41 74.9857 213.33 78.4486 217.08L90.0614 217.092Z" fill="black"/>
<path d="M87.7099 217.092C90.2479 205.045 93.0961 186.184 92.7859 183.376C92.3347 179.292 70.1243 161.797 50.8468 174.532C46.8988 177.132 44.8853 205.18 44.1973 217.092H87.7099Z" fill="#754FFE"/>
<path opacity="0.7" d="M87.7099 217.092C90.2479 205.045 93.0961 186.179 92.7859 183.37C92.3347 179.293 70.1187 161.797 50.8412 174.538C49.4143 175.491 48.2411 179.795 47.2711 185.48C45.9851 193.218 45.094 203.494 44.5639 211.243C44.4172 213.437 44.2931 215.422 44.1973 217.092H87.7099Z" fill="white"/>
<path d="M78.1948 122.774C71.5114 120.073 55.7532 129.768 54.3714 147.054C52.9896 164.341 61.7542 159.553 61.7542 159.553C61.7542 159.553 63.3164 166.146 69.7009 164.11C69.7009 164.11 74.9743 170.082 79.8811 167.652C79.8811 167.652 85.9892 174.014 89.2661 170.658C89.2661 170.658 92.8306 174.724 96.0848 171.645C99.3391 168.565 108.639 137.128 94.0488 129.858C79.4581 122.588 78.1948 122.774 78.1948 122.774Z" fill="#263238"/>
<path d="M78.2065 193.528L77.5635 193.472C78.308 185.147 76.475 181.464 76.4355 181.43L76.9995 181.131C77.1067 181.261 78.9679 184.967 78.2065 193.528Z" fill="#263238"/>
<path d="M81.2299 193.601C76.8025 183.173 81.7939 180.742 81.997 180.629L82.262 181.193C82.2169 181.193 77.6598 183.5 81.8221 193.314L81.2299 193.601Z" fill="#263238"/>
<path d="M76.9034 183.117C76.9034 183.117 68.3588 176.349 55.0935 172.536L50.8353 174.533C50.8353 174.533 43.6951 165.695 55.5955 162.801C67.4959 159.908 83.6827 167.877 87.7435 174.702C91.8043 181.526 80.6822 183.726 80.6822 183.726C80.6822 183.726 79.6613 182.338 76.9034 183.117Z" fill="#754FFE"/>
<path opacity="0.6" d="M76.9034 183.117C76.9034 183.117 68.3588 176.349 55.0935 172.536L50.8353 174.533C50.8353 174.533 43.6951 165.695 55.5955 162.801C67.4959 159.908 83.6827 167.877 87.7435 174.702C91.8043 181.526 80.6822 183.726 80.6822 183.726C80.6822 183.726 79.6613 182.338 76.9034 183.117Z" fill="white"/>
<path d="M82.0587 193.477C82.0587 193.589 82.0256 193.698 81.9636 193.79C81.9016 193.883 81.8136 193.955 81.7105 193.998C81.6074 194.041 81.494 194.052 81.3846 194.03C81.2752 194.008 81.1747 193.955 81.0959 193.876C81.017 193.797 80.9633 193.697 80.9415 193.587C80.9197 193.478 80.9309 193.364 80.9736 193.261C81.0163 193.158 81.0886 193.07 81.1813 193.008C81.2741 192.946 81.3831 192.913 81.4947 192.913C81.6442 192.913 81.7877 192.972 81.8935 193.078C81.9992 193.184 82.0587 193.328 82.0587 193.477Z" fill="white"/>
<path d="M78.3985 193.477C78.3985 193.589 78.3654 193.698 78.3035 193.79C78.2415 193.883 78.1534 193.955 78.0503 193.998C77.9473 194.041 77.8339 194.052 77.7245 194.03C77.6151 194.008 77.5146 193.955 77.4357 193.876C77.3568 193.797 77.3031 193.697 77.2813 193.587C77.2596 193.478 77.2707 193.364 77.3134 193.261C77.3561 193.158 77.4284 193.07 77.5212 193.008C77.6139 192.946 77.723 192.913 77.8345 192.913C77.9841 192.913 78.1275 192.972 78.2333 193.078C78.3391 193.184 78.3985 193.328 78.3985 193.477Z" fill="white"/>
<path d="M72.3636 151.228C71.8447 157.28 69.9892 168.052 65.0654 170.404C65.0654 170.404 70.5701 171.532 79.1654 182.423C84.0553 178.994 82.2054 176.653 82.2054 176.653C76.4864 172.903 77.9698 168.278 80.2822 164.245L72.3636 151.228Z" fill="#EBB376"/>
<path opacity="0.2" d="M75.5837 156.535L80.2705 164.262C79.7108 165.195 79.237 166.176 78.8549 167.195C76.5989 165.988 74.1286 162.164 74.5967 159.547C74.7426 158.492 75.0769 157.472 75.5837 156.535Z" fill="black"/>
<path d="M71.7034 138.431C70.1298 147.94 69.2613 151.921 72.7863 158.041C78.0822 167.251 89.8191 167.685 94.1337 158.977C98.014 151.138 99.9372 136.902 91.8382 130.619C83.8463 124.426 73.2657 128.916 71.7034 138.431Z" fill="#EBB376"/>
<path d="M91.1783 125.324C97.3428 128.741 103.214 139.424 94.4439 136.756C93.1185 139.322 88.3978 136.97 85.6511 133.891C85.1886 136.028 80.1352 138.172 76.4128 134.861C78.212 137.455 75.1494 144.003 71.9628 142.875C68.7762 141.747 61.6247 140.264 67.9584 130.168C74.2922 120.073 84.5964 121.663 91.1783 125.324Z" fill="#263238"/>
<path d="M88.9334 147.404C88.9334 147.404 89.4974 151.177 90.569 153.224C89.3677 153.918 87.749 152.993 87.749 152.993L88.9334 147.404Z" fill="#D58745"/>
<path d="M82.7859 154.685C83.1862 154.88 83.6034 155.039 84.0324 155.159C84.0613 155.167 84.0917 155.169 84.1215 155.165C84.1514 155.161 84.18 155.151 84.2055 155.135C84.2311 155.119 84.253 155.098 84.2698 155.073C84.2866 155.048 84.2979 155.019 84.3031 154.99C84.3185 154.928 84.3088 154.862 84.276 154.807C84.2433 154.752 84.1902 154.712 84.1283 154.696C83.1578 154.424 82.2608 153.938 81.5033 153.273C80.7459 152.609 80.1472 151.782 79.7516 150.855C79.7432 150.826 79.7289 150.798 79.7095 150.773C79.6901 150.749 79.6659 150.729 79.6385 150.714C79.6112 150.699 79.5811 150.69 79.5501 150.687C79.5192 150.685 79.4879 150.688 79.4583 150.698C79.4012 150.721 79.3557 150.766 79.3314 150.823C79.3072 150.88 79.3062 150.944 79.3286 151.002C79.9889 152.613 81.2197 153.924 82.7859 154.685Z" fill="#263238"/>
<path d="M66.9043 145.266C67.436 147.243 68.73 148.929 70.5026 149.953C72.7981 151.211 74.4506 149.056 74.2814 146.377C74.1066 143.958 72.6966 140.393 70.1811 140.252C67.6657 140.111 66.2218 142.768 66.9043 145.266Z" fill="#EBB376"/>
<path d="M82.1378 138.69C82.1943 138.716 82.2559 138.73 82.3183 138.73C82.3806 138.73 82.4422 138.716 82.4987 138.69C82.9993 138.412 83.5605 138.262 84.1329 138.252C84.7054 138.242 85.2714 138.373 85.7812 138.634C85.8319 138.666 85.8887 138.688 85.9482 138.697C86.0077 138.706 86.0683 138.702 86.1263 138.686C86.1843 138.67 86.2383 138.642 86.2847 138.604C86.3312 138.566 86.3691 138.518 86.396 138.465C86.4518 138.351 86.4636 138.221 86.4293 138.099C86.3949 137.977 86.3168 137.872 86.2099 137.805C85.5736 137.456 84.8598 137.273 84.1343 137.273C83.4089 137.273 82.6951 137.456 82.0588 137.805C81.9521 137.868 81.8739 137.97 81.8403 138.09C81.8067 138.21 81.8203 138.338 81.8783 138.448C81.9332 138.557 82.0252 138.643 82.1378 138.69Z" fill="#263238"/>
<path d="M97.2927 142.401C97.3436 142.43 97.4 142.448 97.4583 142.454C97.5166 142.46 97.5755 142.454 97.6311 142.435C97.6898 142.416 97.7439 142.384 97.7903 142.343C97.8368 142.303 97.8745 142.253 97.9013 142.197C97.9281 142.141 97.9435 142.081 97.9465 142.019C97.9495 141.957 97.9401 141.895 97.9188 141.837C97.7128 141.104 97.3406 140.429 96.8309 139.864C96.3212 139.298 95.6879 138.858 94.9803 138.577C94.9223 138.557 94.8604 138.549 94.7991 138.554C94.7377 138.56 94.6782 138.578 94.6247 138.609C94.5712 138.639 94.5248 138.681 94.4889 138.731C94.4529 138.781 94.4282 138.838 94.4163 138.899C94.387 139.021 94.4042 139.15 94.4646 139.261C94.5251 139.371 94.6245 139.455 94.7435 139.497C95.301 139.727 95.7984 140.082 96.1973 140.535C96.5962 140.988 96.886 141.526 97.0446 142.108C97.0644 142.171 97.0965 142.229 97.1391 142.28C97.1817 142.33 97.2339 142.371 97.2927 142.401Z" fill="#263238"/>
<path d="M85.1721 144.911C84.8957 145.667 84.264 146.124 83.7621 145.937C83.2601 145.751 83.0796 144.996 83.356 144.245C83.6323 143.495 84.264 143.033 84.7603 143.219C85.2566 143.405 85.4428 144.161 85.1721 144.911Z" fill="#263238"/>
<path d="M84.54 143.18L86.4125 143.14C86.4125 143.14 85.0928 144.212 84.54 143.18Z" fill="#263238"/>
<path d="M94.6413 147.917C94.3649 148.667 93.7332 149.124 93.2369 148.944C92.7406 148.763 92.5488 147.996 92.8252 147.252C93.1015 146.507 93.7332 146.045 94.2352 146.225C94.7371 146.406 94.9176 147.161 94.6413 147.917Z" fill="#263238"/>
<path d="M94.0156 146.18L95.8825 146.141C95.8825 146.141 94.5627 147.218 94.0156 146.18Z" fill="#263238"/>
<path d="M84.2812 150.241C83.6985 150.243 83.122 150.122 82.5892 149.885C82.0255 149.627 81.5247 149.249 81.1215 148.777C80.7184 148.306 80.4224 147.753 80.2542 147.156C79.8907 145.869 79.9901 144.495 80.5353 143.274C81.0805 142.052 82.0369 141.061 83.2378 140.472C83.7941 140.194 84.4052 140.043 85.027 140.029C85.6489 140.016 86.266 140.14 86.834 140.394C87.4019 140.647 87.9066 141.023 88.3117 141.495C88.7168 141.967 89.0122 142.523 89.1767 143.123C89.5517 144.409 89.4496 145.787 88.8891 147.003C88.36 148.24 87.3999 149.242 86.1875 149.823C85.5901 150.1 84.9395 150.242 84.2812 150.241ZM85.1667 140.681C84.6052 140.696 84.0533 140.831 83.548 141.076C82.4888 141.6 81.6456 142.477 81.1638 143.556C80.6819 144.635 80.5917 145.848 80.9085 146.987C81.0443 147.499 81.293 147.975 81.6364 148.378C81.9799 148.782 82.4094 149.104 82.8934 149.321C83.3774 149.537 83.9037 149.642 84.4337 149.629C84.9637 149.615 85.4839 149.483 85.9563 149.243C87.0238 148.732 87.871 147.852 88.342 146.767C88.8378 145.69 88.928 144.47 88.5958 143.332C88.4543 142.822 88.2034 142.35 87.8605 141.948C87.5176 141.546 87.091 141.223 86.6105 141.002C86.1588 140.79 85.6658 140.68 85.1667 140.681Z" fill="#263238"/>
<path d="M93.6659 153.117C93.0828 153.122 92.5056 153.001 91.9739 152.762C91.41 152.503 90.9088 152.124 90.5048 151.653C90.1008 151.182 89.8035 150.629 89.6333 150.032C89.2724 148.744 89.3737 147.371 89.9198 146.15C90.4658 144.929 91.422 143.938 92.6225 143.349C93.1782 143.07 93.7891 142.918 94.4109 142.903C95.0327 142.889 95.6498 143.014 96.2177 143.267C96.7855 143.521 97.2899 143.898 97.6943 144.37C98.0986 144.843 98.3929 145.399 98.5558 146C98.9356 147.284 98.8354 148.664 98.2738 149.88C97.893 150.802 97.2573 151.596 96.4411 152.169C95.625 152.743 94.6623 153.072 93.6659 153.117ZM94.5626 143.529C93.9933 143.533 93.4314 143.66 92.9158 143.902C91.849 144.416 91.0025 145.297 90.53 146.383C90.0311 147.457 89.9408 148.676 90.2762 149.812C90.4177 150.322 90.6686 150.795 91.0114 151.199C91.3543 151.602 91.7809 151.926 92.2615 152.147C94.2355 153.033 96.6833 151.882 97.7098 149.592C98.2031 148.515 98.2932 147.296 97.9636 146.158C97.821 145.649 97.5697 145.177 97.2269 144.775C96.8841 144.373 96.4581 144.05 95.9783 143.828C95.5301 143.641 95.0481 143.549 94.5626 143.558V143.529Z" fill="#263238"/>
<path d="M89.6389 147.235C89.6265 147.195 89.6055 147.158 89.5772 147.127C89.5489 147.095 89.5142 147.071 89.4754 147.054C89.2276 147.011 88.9726 147.049 88.7478 147.162L88.4658 146.598C88.8489 146.402 89.2913 146.355 89.7066 146.468C89.8368 146.514 89.9549 146.588 90.0525 146.686C90.1501 146.784 90.2246 146.902 90.2706 147.032L89.6389 147.235Z" fill="#263238"/>
<path d="M74.2144 141.2L74.0215 141.817L81.6558 144.203L81.8487 143.585L74.2144 141.2Z" fill="#263238"/>
<path opacity="0.2" d="M72.4251 200.555C72.4251 200.555 57.5862 211.926 44.5635 211.271C45.0936 203.522 45.9848 193.223 47.2707 185.508C48.6017 184.042 49.4759 183.15 49.4759 183.15L57.3719 189.055L55.4487 191.469C55.4487 191.469 67.3998 190.86 71.5622 191.469L72.4251 200.555Z" fill="black"/>
<path d="M73.9592 191.441L85.837 189.016L86.26 199.608C86.26 199.608 78.2004 202.462 73.5869 197.121L73.9592 191.441Z" fill="#EBB376"/>
<path d="M94.1061 191.475L92.5382 199.439L86.2609 199.613L85.8379 189.021L94.1061 191.475Z" fill="#EBB376"/>
<path d="M73.9601 191.441L74.541 199.613L71.5856 200.939L70.3223 191.441H73.9601Z" fill="#754FFE"/>
<path opacity="0.6" d="M73.9601 191.441L74.541 199.613L71.5856 200.939L70.3223 191.441H73.9601Z" fill="white"/>
<path d="M55.0938 172.536C51.9066 173.098 49.0204 174.768 46.944 177.251C43.3626 181.458 30.7403 193.956 33.5433 204.159C36.3464 214.362 63.3394 206.77 71.5851 200.939L70.3218 191.441L51.6252 192.811L57.3893 189.016C61.3429 178.018 55.0938 172.536 55.0938 172.536Z" fill="#754FFE"/>
<path opacity="0.7" d="M55.0938 172.536C51.9066 173.098 49.0204 174.768 46.944 177.251C43.3626 181.458 30.7403 193.956 33.5433 204.159C36.3464 214.362 63.3394 206.77 71.5851 200.939L70.3218 191.441L51.6252 192.811L57.3893 189.016C61.3429 178.018 55.0938 172.536 55.0938 172.536Z" fill="white"/>
<path d="M109.243 200.183L112.644 199.613V208.728L109.948 209.167L109.243 200.183Z" fill="#754FFE"/>
<path opacity="0.6" d="M109.243 200.183L112.644 199.613V208.728L109.948 209.167L109.243 200.183Z" fill="white"/>
<path d="M102.368 208.638C102.358 208.138 102.383 207.639 102.441 207.143L102.543 206.393L101.815 206.822L101.381 207.081C101.238 207.145 101.091 207.2 100.941 207.245C100.684 207.326 100.408 207.326 100.151 207.245C99.9031 207.153 99.6846 206.995 99.5198 206.788C99.3291 206.559 99.1785 206.3 99.0742 206.021L98.4369 204.244L97.9857 206.128C97.9406 206.314 97.9124 206.506 97.8785 206.692C97.8447 206.878 97.7657 207.042 97.715 207.216C97.607 207.498 97.4259 207.745 97.1904 207.933C96.9272 208.068 96.6213 208.094 96.3388 208.006C95.9832 207.913 95.6444 207.764 95.3349 207.566L94.3535 206.951L94.7483 207.95C94.9191 208.374 95.0549 208.812 95.1544 209.258C95.2038 209.481 95.234 209.707 95.2446 209.935C95.2695 210.167 95.218 210.4 95.098 210.6C95.2959 210.441 95.4317 210.218 95.4815 209.969C95.5461 209.726 95.5802 209.476 95.583 209.224C95.5944 209.027 95.5944 208.829 95.583 208.632C95.7471 208.725 95.9166 208.808 96.0906 208.88C96.3467 208.985 96.6218 209.036 96.8985 209.029C97.1751 209.022 97.4474 208.958 97.698 208.841C98.1749 208.573 98.5467 208.152 98.7527 207.645V207.572C99.0578 207.919 99.4667 208.159 99.9188 208.255C100.371 208.352 100.842 208.3 101.263 208.108C101.428 208.032 101.588 207.946 101.742 207.848C101.742 207.848 101.742 207.888 101.742 207.91C101.782 208.176 101.837 208.44 101.905 208.7C101.974 208.962 102.069 209.217 102.187 209.461C102.3 209.707 102.468 209.923 102.678 210.093C102.552 209.872 102.469 209.629 102.436 209.377C102.397 209.132 102.374 208.885 102.368 208.638Z" fill="#754FFE"/>
<path d="M122.543 195.914C122.103 195.957 121.66 195.909 121.24 195.773C120.807 195.644 120.395 195.454 120.016 195.209C119.656 194.942 119.349 194.611 119.108 194.233C118.854 193.858 118.651 193.45 118.505 193.021L118.132 191.893L117.501 192.891C117.231 193.31 116.904 193.689 116.531 194.019C116.227 194.319 115.828 194.503 115.403 194.538H115.267L115.098 194.504C114.98 194.504 114.867 194.447 114.748 194.419C114.513 194.342 114.284 194.244 114.066 194.126C113.624 193.879 113.217 193.576 112.853 193.224L111.872 192.282L112.075 193.573C112.189 194.263 112.232 194.962 112.205 195.66C112.194 195.989 112.127 196.313 112.007 196.619C111.954 196.753 111.857 196.865 111.732 196.936C111.607 197.008 111.462 197.035 111.319 197.014H111.065L111.144 197.222C111.31 197.647 111.479 198.07 111.652 198.491C111.601 198.113 111.539 197.736 111.472 197.363H111.579C111.691 197.355 111.803 197.336 111.911 197.307C112.015 197.254 112.115 197.193 112.21 197.126C112.284 197.048 112.363 196.963 112.43 196.878C112.647 196.535 112.791 196.151 112.853 195.75C112.924 195.378 112.966 195.001 112.977 194.622C113.158 194.772 113.346 194.911 113.541 195.04C113.806 195.203 114.086 195.34 114.376 195.451C114.686 195.58 115.016 195.655 115.352 195.671C116.05 195.661 116.72 195.397 117.236 194.927C117.457 194.741 117.663 194.537 117.85 194.318C117.961 194.512 118.081 194.7 118.211 194.882C118.549 195.348 118.969 195.747 119.452 196.061C119.933 196.353 120.462 196.559 121.014 196.67C121.369 196.739 121.731 196.765 122.092 196.749C122.047 196.861 121.996 196.974 121.956 197.093C121.857 197.418 121.78 197.75 121.725 198.085C121.665 198.422 121.65 198.765 121.68 199.106C121.697 199.446 121.8 199.776 121.979 200.065C121.882 199.757 121.857 199.431 121.906 199.112C121.948 198.795 122.022 198.483 122.125 198.181C122.342 197.592 122.616 197.025 122.943 196.489L123.299 195.886L122.543 195.914Z" fill="#754FFE"/>
<path d="M235.377 229.246L37.5819 229.246C36.9178 229.246 36.2808 228.982 35.8112 228.513C35.3416 228.043 35.0777 227.406 35.0777 226.742V220.651L237.881 220.651V226.742C237.881 227.406 237.617 228.043 237.147 228.513C236.678 228.982 236.041 229.246 235.377 229.246Z" fill="#754FFE"/>
<path opacity="0.2" d="M35.0721 224.943L237.881 224.943V220.645L35.0721 220.645V224.943Z" fill="black"/>
<path d="M30.8256 221.768H242.134C242.776 221.768 243.392 221.513 243.847 221.059C244.301 220.606 244.558 219.99 244.559 219.348C244.559 218.705 244.304 218.088 243.849 217.633C243.394 217.178 242.777 216.923 242.134 216.923H30.8256C30.1824 216.923 29.5655 217.178 29.1107 217.633C28.6559 218.088 28.4004 218.705 28.4004 219.348C28.4019 219.99 28.6581 220.606 29.1127 221.059C29.5674 221.513 30.1834 221.768 30.8256 221.768Z" fill="#754FFE"/>
<path d="M227.813 187.324L221.643 215.309C221.53 215.758 221.273 216.156 220.911 216.444C220.549 216.731 220.103 216.892 219.641 216.9H185.936C185.726 216.894 185.521 216.84 185.335 216.742C185.15 216.644 184.99 216.504 184.867 216.334C184.745 216.163 184.664 215.967 184.63 215.76C184.596 215.553 184.611 215.341 184.673 215.14L190.832 187.369C190.958 186.946 191.226 186.579 191.59 186.329C191.955 186.08 192.394 185.963 192.834 185.998H226.538C227.441 186.021 228.011 186.433 227.813 187.324Z" fill="#263238"/>
<path opacity="0.4" d="M227.813 187.324L221.643 215.31C221.531 215.758 221.273 216.156 220.912 216.444C220.55 216.731 220.103 216.892 219.641 216.9H187.081C186.871 216.895 186.665 216.842 186.479 216.744C186.293 216.646 186.132 216.507 186.009 216.336C185.886 216.166 185.804 215.969 185.77 215.761C185.736 215.554 185.75 215.341 185.812 215.14L191.983 187.369C192.106 186.944 192.373 186.575 192.738 186.325C193.103 186.076 193.544 185.96 193.985 185.998H226.539C227.441 186.021 228.011 186.433 227.813 187.324Z" fill="white"/>
<path d="M222.439 216.037L228.575 188.198C228.778 187.284 228.208 186.873 227.3 186.873H194.746C194.306 186.836 193.866 186.953 193.502 187.202C193.137 187.452 192.869 187.82 192.744 188.243L186.512 216.404L222.439 216.037Z" fill="#754FFE"/>
<path opacity="0.4" d="M228.574 188.192L225.337 202.901L222.432 216.037L203.2 216.234L186.517 216.398L192.721 188.243C192.844 187.819 193.11 187.451 193.474 187.201C193.838 186.952 194.277 186.835 194.717 186.873H227.311C228.213 186.873 228.777 187.29 228.574 188.192Z" fill="white"/>
<path opacity="0.2" d="M225.337 202.901L222.432 216.037L203.2 216.234H187.228L189.839 204.221C189.923 203.849 190.13 203.516 190.427 203.277C190.724 203.037 191.093 202.905 191.474 202.901H225.337Z" fill="black"/>
<path d="M225.89 204.729C225.766 204.305 225.498 203.937 225.133 203.689C224.768 203.44 224.328 203.325 223.888 203.364H191.334C190.432 203.364 189.862 203.77 190.059 204.684L192.53 215.885H187.031C186.893 215.885 186.761 215.939 186.664 216.037C186.566 216.134 186.512 216.266 186.512 216.404C186.512 216.541 186.566 216.673 186.664 216.77C186.761 216.868 186.893 216.922 187.031 216.922H227.131C227.306 216.919 227.478 216.877 227.635 216.799C227.791 216.721 227.929 216.609 228.037 216.471C228.145 216.334 228.221 216.174 228.259 216.003C228.298 215.832 228.298 215.655 228.259 215.484L225.89 204.729Z" fill="#754FFE"/>
<path opacity="0.4" d="M225.89 204.729C225.766 204.305 225.498 203.937 225.133 203.689C224.768 203.44 224.328 203.325 223.888 203.364H191.334C190.432 203.364 189.862 203.77 190.059 204.684L192.53 215.885H187.031C186.893 215.885 186.761 215.939 186.664 216.037C186.566 216.134 186.512 216.266 186.512 216.404C186.512 216.541 186.566 216.673 186.664 216.77C186.761 216.868 186.893 216.922 187.031 216.922H227.131C227.306 216.919 227.478 216.877 227.635 216.799C227.791 216.721 227.929 216.609 228.037 216.471C228.145 216.334 228.221 216.174 228.259 216.003C228.298 215.832 228.298 215.655 228.259 215.484L225.89 204.729Z" fill="white"/>
<path d="M186.055 211.525H184.166L183.929 212.546H185.767L186.055 211.525Z" fill="black"/>
<path d="M174.115 217.053H168.672C168.63 217.053 168.588 217.046 168.548 217.03C168.509 217.014 168.473 216.99 168.443 216.96C168.413 216.93 168.389 216.894 168.374 216.855C168.358 216.816 168.35 216.773 168.351 216.731C168.351 216.646 168.385 216.564 168.445 216.504C168.505 216.443 168.587 216.41 168.672 216.41H174.115C175.008 216.411 175.89 216.212 176.695 215.826C177.501 215.441 178.209 214.878 178.768 214.182C179.387 213.409 180.172 212.785 181.066 212.357C181.959 211.929 182.938 211.709 183.928 211.711H184.887C184.972 211.713 185.053 211.747 185.113 211.807C185.173 211.867 185.207 211.948 185.209 212.033C185.209 212.118 185.175 212.2 185.114 212.26C185.054 212.321 184.972 212.354 184.887 212.354H183.94C183.047 212.353 182.165 212.552 181.359 212.938C180.554 213.323 179.845 213.885 179.287 214.582C178.666 215.357 177.879 215.981 176.983 216.409C176.088 216.837 175.107 217.057 174.115 217.053Z" fill="black"/>
<path d="M83.4238 213.071V215.423C83.4238 216.483 84.7041 216.923 85.7644 216.923H168.436C169.485 216.923 170.731 216.483 170.731 215.423V213.071H83.4238Z" fill="#263238"/>
<path opacity="0.4" d="M83.4238 213.071V215.423C83.4238 216.483 84.7041 216.923 85.7644 216.923H168.436C169.485 216.923 170.731 216.483 170.731 215.423V213.071H83.4238Z" fill="white"/>
<path opacity="0.2" d="M111.59 213.071V215.423C111.59 216.483 112.848 216.923 113.908 216.923H168.435C169.484 216.923 170.731 216.483 170.731 215.423V213.071H111.59Z" fill="black"/>
<path d="M184.566 168.334L174.724 212.975C174.548 213.692 174.139 214.331 173.561 214.792C172.984 215.253 172.271 215.511 171.532 215.524H117.766C116.339 215.524 115.414 214.187 115.747 212.704L125.577 168.402C125.91 166.947 127.331 166.219 128.775 166.219H182.535C183.979 166.225 184.887 166.879 184.566 168.334Z" fill="#263238"/>
<path opacity="0.4" d="M184.566 168.334L174.724 212.975C174.548 213.692 174.139 214.331 173.562 214.792C172.984 215.253 172.271 215.511 171.532 215.524H119.593C118.149 215.524 117.241 214.187 117.563 212.704L127.405 168.402C127.726 166.947 129.159 166.219 130.602 166.219H182.536C183.979 166.225 184.887 166.879 184.566 168.334Z" fill="white"/>
<path opacity="0.2" d="M158.058 191.024C158.058 194.848 153.963 197.956 150.957 197.956C147.951 197.956 146.174 194.848 147.009 191.024C147.844 187.2 150.85 184.228 153.777 184.109C152.92 187.933 154.753 191.024 157.725 191.024C157.836 191.035 157.947 191.035 158.058 191.024Z" fill="black"/>
</g>
<defs>
<clipPath id="clip0_8333_9124">
<rect width="272" height="272" fill="white"/>
</clipPath>
</defs>
</svg>
