<svg width="251" height="171" viewBox="0 0 251 171" fill="none" xmlns="http://www.w3.org/2000/svg">
<path d="M132.372 140.278H50.8318C50.7264 140.278 50.6385 140.19 50.6385 140.085V29.7478L36.8904 15.9996C36.8113 15.9205 36.8113 15.7975 36.8904 15.7273C36.9694 15.6482 37.0924 15.6482 37.1627 15.7273L50.9723 29.5369C51.0075 29.5721 51.0251 29.6248 51.0251 29.6775V139.9H132.372C132.477 139.9 132.565 139.988 132.565 140.093C132.565 140.19 132.477 140.278 132.372 140.278Z" fill="#754FFE"/>
<path d="M39.0626 16.351C39.328 15.2272 38.6321 14.1011 37.5084 13.8358C36.3846 13.5704 35.2585 14.2663 34.9932 15.3901C34.7278 16.5138 35.4237 17.6399 36.5474 17.9053C37.6712 18.1706 38.7973 17.4747 39.0626 16.351Z" fill="white"/>
<path d="M37.0213 18.1433C35.7651 18.1433 34.7373 17.1242 34.7373 15.8592C34.7373 14.603 35.7563 13.5752 37.0213 13.5752C38.2776 13.5752 39.3054 14.5942 39.3054 15.8592C39.3054 17.1242 38.2776 18.1433 37.0213 18.1433ZM37.0213 13.9705C35.976 13.9705 35.1238 14.8226 35.1238 15.868C35.1238 16.9134 35.976 17.7655 37.0213 17.7655C38.0667 17.7655 38.9189 16.9134 38.9189 15.868C38.9189 14.8226 38.0667 13.9705 37.0213 13.9705Z" fill="#754FFE"/>
<path d="M33.2531 59.8534C33.1477 59.8534 33.0598 59.7655 33.0598 59.6601V37.338L22.1491 26.4361C22.0701 26.3571 22.0701 26.2341 22.1491 26.1638C22.2282 26.0847 22.3512 26.0847 22.4215 26.1638L33.3849 37.1272C33.42 37.1623 33.4376 37.215 33.4376 37.2677V59.6689C33.4464 59.7655 33.3585 59.8534 33.2531 59.8534Z" fill="#754FFE"/>
<path d="M22.5451 28.3693C23.6911 28.2282 24.5058 27.1848 24.3647 26.0387C24.2236 24.8927 23.1801 24.078 22.0341 24.2191C20.888 24.3602 20.0734 25.4037 20.2145 26.5497C20.3556 27.6957 21.399 28.5104 22.5451 28.3693Z" fill="white"/>
<path d="M22.2899 28.5798C21.0337 28.5798 20.0059 27.5608 20.0059 26.2958C20.0059 25.0308 21.0249 24.0117 22.2899 24.0117C23.5461 24.0117 24.5739 25.0308 24.5739 26.2958C24.5739 27.5608 23.5461 28.5798 22.2899 28.5798ZM22.2899 24.407C21.2445 24.407 20.3924 25.2592 20.3924 26.3045C20.3924 27.3499 21.2445 28.2021 22.2899 28.2021C23.3353 28.2021 24.1874 27.3499 24.1874 26.3045C24.1786 25.2592 23.3353 24.407 22.2899 24.407Z" fill="#754FFE"/>
<path d="M132.371 149.642H47.0097C46.957 149.642 46.9131 149.625 46.8692 149.59L33.4636 136.184C33.3845 136.105 33.3845 135.982 33.4636 135.912C33.5427 135.833 33.6656 135.833 33.7359 135.912L47.08 149.256H132.354C132.459 149.256 132.547 149.344 132.547 149.449C132.565 149.555 132.477 149.642 132.371 149.642Z" fill="#754FFE"/>
<path d="M34.7112 137.839C35.6935 137.232 35.9978 135.944 35.3907 134.961C34.7837 133.979 33.4953 133.675 32.513 134.282C31.5307 134.889 31.2265 136.177 31.8335 137.159C32.4405 138.142 33.7289 138.446 34.7112 137.839Z" fill="white"/>
<path d="M33.6131 138.328C32.3569 138.328 31.3291 137.309 31.3291 136.044C31.3291 134.779 32.3481 133.76 33.6131 133.76C34.8694 133.76 35.8972 134.779 35.8972 136.044C35.8972 137.309 34.8694 138.328 33.6131 138.328ZM33.6131 134.155C32.5678 134.155 31.7156 135.007 31.7156 136.053C31.7156 137.098 32.5678 137.95 33.6131 137.95C34.6585 137.95 35.5107 137.098 35.5107 136.053C35.5019 135.007 34.6585 134.155 33.6131 134.155Z" fill="#754FFE"/>
<path d="M83.4408 166.008H50.8317C50.779 166.008 50.7351 165.991 50.6912 165.956L34.7468 150.011C34.6677 149.932 34.6677 149.809 34.7468 149.739C34.8259 149.66 34.9488 149.66 35.0191 149.739L50.9108 165.622H83.3617L89.5989 159.385C89.6341 159.35 89.6868 159.332 89.7395 159.332H132.372C132.477 159.332 132.565 159.42 132.565 159.525C132.565 159.631 132.477 159.718 132.372 159.718H89.8185L83.5813 165.956C83.5374 165.982 83.4935 166.008 83.4408 166.008Z" fill="#754FFE"/>
<path d="M36.9545 150.125C37.0956 148.979 36.2809 147.936 35.1349 147.795C33.9889 147.654 32.9454 148.468 32.8043 149.614C32.6632 150.76 33.4779 151.804 34.6239 151.945C35.77 152.086 36.8134 151.271 36.9545 150.125Z" fill="white"/>
<path d="M34.8788 152.146C33.6225 152.146 32.5947 151.127 32.5947 149.862C32.5947 148.597 33.6138 147.578 34.8788 147.578C36.1438 147.578 37.1628 148.597 37.1628 149.862C37.1628 151.127 36.1438 152.146 34.8788 152.146ZM34.8788 147.973C33.8334 147.973 32.9813 148.826 32.9813 149.871C32.9813 150.916 33.8334 151.768 34.8788 151.768C35.9242 151.768 36.7763 150.916 36.7763 149.871C36.7763 148.817 35.9242 147.973 34.8788 147.973Z" fill="#754FFE"/>
<path d="M250.28 110.173H124.685V169.997H250.28V110.173Z" fill="white"/>
<path d="M250.28 170.19H124.684C124.579 170.19 124.491 170.102 124.491 169.997V110.173C124.491 110.067 124.579 109.979 124.684 109.979H250.28C250.386 109.979 250.474 110.067 250.474 110.173V169.997C250.474 170.102 250.386 170.19 250.28 170.19ZM124.878 169.804H250.087V110.366H124.878V169.804Z" fill="#1E293B"/>
<path d="M147.815 164.075H134.638L141.226 142.148L147.815 164.075Z" fill="#F2EFFF"/>
<path d="M160.992 164.076H147.814L154.403 125.801L160.992 164.076Z" fill="#F2EFFF"/>
<path d="M174.169 164.075H160.992L167.581 124.113L174.169 164.075Z" fill="#F2EFFF"/>
<path d="M187.346 164.076H174.169L180.758 114.995L187.346 164.076Z" fill="#F2EFFF"/>
<path d="M200.515 164.075H187.347L193.926 150.239L200.515 164.075Z" fill="#F2EFFF"/>
<path d="M213.692 164.076H200.515L207.103 127.329L213.692 164.076Z" fill="#F2EFFF"/>
<path d="M226.869 164.075H213.691L220.28 136.412L226.869 164.075Z" fill="#F2EFFF"/>
<path d="M240.046 164.075H226.869L233.458 136.412L240.046 164.075Z" fill="#F2EFFF"/>
<path d="M26.4358 65.4404H109.715C112.711 65.4404 115.136 67.865 115.136 70.8606V75.9734V80.8314V120.301C115.136 125.071 111.27 128.928 106.5 128.928H29.6423C24.8721 128.928 21.0068 125.063 21.0068 120.301V80.8314V75.9734V70.8606C21.0156 67.8738 23.4402 65.4404 26.4358 65.4404Z" fill="white"/>
<path d="M29.0449 128.937H107.098C111.534 128.937 115.136 125.335 115.136 120.899V75.9736H21.0156V120.899C21.0156 125.335 24.6086 128.937 29.0449 128.937Z" fill="white"/>
<path d="M107.098 129.13H29.0448C24.5031 129.13 20.8135 125.441 20.8135 120.899V75.9823C20.8135 75.8769 20.9013 75.7891 21.0067 75.7891H115.127C115.232 75.7891 115.32 75.8769 115.32 75.9823V120.899C115.329 125.441 111.639 129.13 107.098 129.13ZM21.2088 76.1756V120.908C21.2088 125.23 24.7315 128.752 29.0536 128.752H107.106C111.428 128.752 114.951 125.23 114.951 120.908V76.1756H21.2088Z" fill="#1E293B"/>
<path d="M115.136 73.3115C115.03 73.3115 114.942 73.2236 114.942 73.1182V70.8693C114.942 67.9879 112.597 65.6424 109.715 65.6424H26.4357C23.5543 65.6424 21.2088 67.9879 21.2088 70.8693V73.1182C21.2088 73.2236 21.1209 73.3115 21.0155 73.3115C20.9101 73.3115 20.8223 73.2236 20.8223 73.1182V70.8693C20.8223 67.7771 23.3435 65.2559 26.4357 65.2559H109.715C112.816 65.2559 115.329 67.7771 115.329 70.8693V73.1182C115.329 73.2236 115.241 73.3115 115.136 73.3115Z" fill="#1E293B"/>
<path d="M105.735 73.3113C104.523 73.3113 103.539 72.3274 103.539 71.1151C103.539 69.9028 104.523 68.9189 105.735 68.9189C106.948 68.9189 107.931 69.9028 107.931 71.1151C107.931 72.3274 106.948 73.3113 105.735 73.3113ZM105.735 69.2967C104.734 69.2967 103.926 70.1137 103.926 71.1064C103.926 72.1078 104.743 72.916 105.735 72.916C106.737 72.916 107.554 72.099 107.554 71.1064C107.545 70.1049 106.728 69.2967 105.735 69.2967Z" fill="#1E293B"/>
<path d="M99.8759 73.3113C98.6636 73.3113 97.6797 72.3274 97.6797 71.1151C97.6797 69.9028 98.6636 68.9189 99.8759 68.9189C101.088 68.9189 102.072 69.9028 102.072 71.1151C102.072 72.3274 101.088 73.3113 99.8759 73.3113ZM99.8759 69.2967C98.8744 69.2967 98.0662 70.1137 98.0662 71.1064C98.0662 72.1078 98.8832 72.916 99.8759 72.916C100.869 72.916 101.686 72.099 101.686 71.1064C101.686 70.1049 100.877 69.2967 99.8759 69.2967Z" fill="#1E293B"/>
<path d="M94.0166 73.1094C95.1228 73.1094 96.0195 72.2126 96.0195 71.1064C96.0195 70.0003 95.1228 69.1035 94.0166 69.1035C92.9104 69.1035 92.0137 70.0003 92.0137 71.1064C92.0137 72.2126 92.9104 73.1094 94.0166 73.1094Z" fill="#754FFE"/>
<path d="M103.725 87.7537H94.6854C94.58 87.7537 94.4922 87.6659 94.4922 87.5605C94.4922 87.455 94.58 87.3672 94.6854 87.3672H103.725C103.83 87.3672 103.918 87.455 103.918 87.5605C103.918 87.6659 103.83 87.7537 103.725 87.7537Z" fill="#1E293B"/>
<path d="M91.1273 87.7537H63.9296C63.8242 87.7537 63.7363 87.6659 63.7363 87.5605C63.7363 87.455 63.8242 87.3672 63.9296 87.3672H91.1273C91.2327 87.3672 91.3205 87.455 91.3205 87.5605C91.3205 87.6659 91.2327 87.7537 91.1273 87.7537Z" fill="#1E293B"/>
<path d="M121.303 121.18H41.2739C35.1597 121.18 30.2051 116.226 30.2051 110.111V107.327C30.2051 101.212 35.1597 96.2578 41.2739 96.2578H121.303C127.417 96.2578 132.372 101.212 132.372 107.327V110.111C132.372 116.226 127.409 121.18 121.303 121.18Z" fill="#F2EFFF"/>
<path d="M57.4823 106.782L54.0562 106.282L52.5277 103.181C52.2553 102.627 51.4647 102.627 51.1924 103.181L49.6638 106.282L46.2378 106.782C45.6316 106.87 45.3856 107.617 45.8249 108.047L48.3022 110.463L47.7136 113.872C47.6082 114.478 48.2495 114.944 48.7941 114.654L51.86 113.046L54.9259 114.654C55.4706 114.944 56.1119 114.478 56.0064 113.872L55.4179 110.463L57.8952 108.047C58.3344 107.626 58.0884 106.87 57.4823 106.782Z" fill="#754FFE"/>
<path d="M72.1971 106.703L68.7711 106.203L67.2425 103.102C66.9702 102.548 66.1796 102.548 65.9072 103.102L64.3787 106.203L60.9526 106.703C60.3465 106.791 60.1005 107.538 60.5397 107.968L63.017 110.384L62.4285 113.793C62.323 114.399 62.9643 114.864 63.509 114.575L66.5749 112.967L69.6408 114.575C70.1854 114.864 70.8267 114.399 70.7213 113.793L70.1327 110.384L72.61 107.968C73.0492 107.538 72.8033 106.791 72.1971 106.703Z" fill="#754FFE"/>
<path d="M86.9022 106.703L83.4761 106.203L81.9476 103.102C81.6753 102.548 80.8846 102.548 80.6123 103.102L79.0838 106.203L75.6577 106.703C75.0515 106.791 74.8056 107.538 75.2448 107.968L77.7221 110.384L77.1335 113.793C77.0281 114.399 77.6694 114.864 78.2141 114.575L81.2799 112.967L84.3458 114.575C84.8905 114.864 85.5318 114.399 85.4264 113.793L84.8378 110.384L87.3151 107.968C87.7543 107.538 87.5171 106.791 86.9022 106.703Z" fill="#754FFE"/>
<path d="M101.617 106.703L98.191 106.203L96.6624 103.102C96.3901 102.548 95.5995 102.548 95.3272 103.102L93.7986 106.203L90.3725 106.703C89.7664 106.791 89.5204 107.538 89.9596 107.968L92.437 110.384L91.8484 113.793C91.743 114.399 92.3842 114.864 92.9289 114.575L95.9948 112.967L99.0607 114.575C99.6053 114.864 100.247 114.399 100.141 113.793L99.5526 110.384L102.03 107.968C102.469 107.538 102.223 106.791 101.617 106.703Z" fill="#754FFE"/>
<path d="M116.323 106.703L112.897 106.203L111.368 103.102C111.096 102.548 110.306 102.548 110.033 103.102L108.505 106.203L105.079 106.703C104.472 106.791 104.226 107.538 104.666 107.968L107.143 110.384L106.554 113.793C106.449 114.399 107.09 114.864 107.635 114.575L110.701 112.967L113.767 114.575C114.311 114.864 114.953 114.399 114.847 113.793L114.259 110.384L116.736 107.968C117.184 107.538 116.938 106.791 116.323 106.703Z" fill="white"/>
<path d="M47.1304 86.4631C55.6898 77.9036 55.6898 64.0261 47.1304 55.4666C38.571 46.9072 24.6934 46.9072 16.134 55.4666C7.57453 64.0261 7.57453 77.9036 16.134 86.4631C24.6934 95.0225 38.571 95.0225 47.1304 86.4631Z" fill="white"/>
<path d="M31.6367 93.077C19.4434 93.077 9.52539 83.159 9.52539 70.9658C9.52539 58.7725 19.4434 48.8545 31.6367 48.8545C43.8299 48.8545 53.7479 58.7725 53.7479 70.9658C53.7392 83.159 43.8211 93.077 31.6367 93.077ZM31.6367 49.2498C19.663 49.2498 9.91192 58.9921 9.91192 70.9746C9.91192 82.957 19.6542 92.6993 31.6367 92.6993C43.6191 92.6993 53.3526 82.9482 53.3526 70.9658C53.3526 58.9833 43.6103 49.2498 31.6367 49.2498Z" fill="#1E293B"/>
<mask id="mask0_8272_5415" style="mask-type:luminance" maskUnits="userSpaceOnUse" x="12" y="51" width="39" height="40">
<path d="M31.6361 90.1609C42.2371 90.1609 50.8309 81.5672 50.8309 70.9662C50.8309 60.3653 42.2371 51.7715 31.6361 51.7715C21.0352 51.7715 12.4414 60.3653 12.4414 70.9662C12.4414 81.5672 21.0352 90.1609 31.6361 90.1609Z" fill="white"/>
</mask>
<g mask="url(#mask0_8272_5415)">
<path d="M43.6359 76.7206H19.6359C19.5832 76.7206 19.5305 76.6942 19.4866 76.6503C19.4515 76.6063 19.4339 76.5536 19.4427 76.5009L20.6374 67.8392C21.0151 60.3194 25.8468 54.416 31.6359 54.416C37.4251 54.416 42.2567 60.3194 42.6345 67.8479L43.8292 76.4922C43.838 76.5449 43.8204 76.6064 43.7853 76.6415C43.7501 76.6766 43.6886 76.7206 43.6359 76.7206ZM19.8556 76.334H43.4075L42.2479 67.8919C41.879 60.5478 37.2143 54.8025 31.6359 54.8025C26.0488 54.8025 21.3929 60.539 21.0239 67.8743L19.8556 76.334Z" fill="#1E293B"/>
<path d="M48.5731 85.98C47.7386 83.0986 45.4106 80.9024 42.4941 80.226L36.3184 78.8028V71.002H26.9538V78.8028L20.7781 80.226C17.8616 80.9024 15.5336 83.0986 14.699 85.98L12.3447 98.428H50.9275L48.5731 85.98Z" fill="white"/>
<path d="M50.9276 98.6212H12.3449C12.2834 98.6212 12.2307 98.5948 12.1956 98.5509C12.1604 98.507 12.1429 98.4455 12.1517 98.3928L14.506 85.9448C15.3581 82.9843 17.7476 80.7266 20.7344 80.0414L26.7607 78.6534V71.0106C26.7607 70.9052 26.8486 70.8174 26.954 70.8174H36.3186C36.424 70.8174 36.5118 70.9052 36.5118 71.0106V78.6534L42.5382 80.0414C45.525 80.7266 47.9057 82.9843 48.7578 85.9272C48.7578 85.936 48.7578 85.936 48.7578 85.9448L51.1121 98.3928C51.1209 98.4455 51.1121 98.507 51.0682 98.5509C51.0243 98.5948 50.9804 98.6212 50.9276 98.6212ZM12.5733 98.2347H50.6904L48.3801 86.0238C47.5631 83.2215 45.2966 81.0692 42.4415 80.4191L36.2659 78.996C36.178 78.9784 36.1165 78.8994 36.1165 78.8115V71.2039H27.1473V78.8115C27.1473 78.8994 27.0858 78.9784 26.9979 78.996L20.8222 80.4191C17.976 81.078 15.7007 83.2303 14.8837 86.0326L12.5733 98.2347Z" fill="#1E293B"/>
<path d="M39.4716 64.9311C39.129 64.8432 38.7864 64.8783 38.4614 65.0013C38.189 60.6704 35.2374 57.7363 31.6268 57.7363C28.0163 57.7363 25.0646 60.6704 24.7923 65.0013C24.4672 64.8783 24.1246 64.8432 23.782 64.9311C22.7718 65.1858 22.192 66.3542 22.4819 67.5489C22.7806 68.7436 23.8435 69.5079 24.8538 69.2532C25.0207 69.2092 25.17 69.1477 25.3106 69.0599C26.356 72.2576 28.7893 74.7085 31.6268 74.7085C34.4643 74.7085 36.8977 72.2576 37.9431 69.0599C38.0836 69.1477 38.233 69.2092 38.3999 69.2532C39.4101 69.5079 40.4731 68.7436 40.7718 67.5489C41.0705 66.3542 40.4819 65.1858 39.4716 64.9311Z" fill="white"/>
<path d="M31.6359 74.9017C28.939 74.9017 26.3739 72.6791 25.2143 69.3409C25.1176 69.3848 25.021 69.42 24.9156 69.4463C24.3709 69.5781 23.7999 69.4639 23.2992 69.1037C22.816 68.7523 22.4646 68.2165 22.3065 67.6015C22.1484 66.9778 22.2099 66.3453 22.4822 65.8094C22.7545 65.2648 23.2026 64.887 23.7472 64.7553C24.0283 64.685 24.3358 64.685 24.6257 64.7553C24.9946 60.5649 27.9024 57.5518 31.6359 57.5518C35.3607 57.5518 38.2772 60.5649 38.6462 64.7553C38.9361 64.685 39.2348 64.685 39.5247 64.7553C40.0693 64.887 40.5173 65.2648 40.7897 65.8094C41.0532 66.3453 41.1147 66.9778 40.9654 67.6015C40.6403 68.8929 39.472 69.7275 38.3563 69.4463C38.2597 69.42 38.1542 69.3848 38.0576 69.3409C36.8892 72.6791 34.3329 74.9017 31.6359 74.9017ZM25.3197 68.8665C25.346 68.8665 25.3636 68.8665 25.39 68.8753C25.4427 68.8929 25.4866 68.9368 25.5042 68.9983C26.5759 72.2926 29.0444 74.5152 31.6359 74.5152C34.2274 74.5152 36.6872 72.3014 37.7677 68.9983C37.7853 68.9456 37.8292 68.9017 37.8819 68.8753C37.9346 68.8578 37.9961 68.8578 38.0488 68.8929C38.1806 68.972 38.3124 69.0247 38.4441 69.0598C39.349 69.2882 40.3065 68.5854 40.5788 67.4961C40.7106 66.9603 40.6579 66.4156 40.4383 65.9676C40.2187 65.5283 39.8585 65.2209 39.428 65.1155C39.1381 65.0452 38.8307 65.0627 38.5408 65.1769C38.4881 65.2033 38.4178 65.1945 38.3651 65.1594C38.3124 65.1242 38.2772 65.0715 38.2772 65.01C38.0225 60.8988 35.2289 57.9207 31.6359 57.9207C28.043 57.9207 25.2494 60.8988 24.9946 65.01C24.9946 65.0715 24.9595 65.1242 24.9068 65.1594C24.8541 65.1945 24.7926 65.2033 24.7311 65.1769C24.4324 65.0627 24.125 65.0452 23.8438 65.1155C23.4134 65.2209 23.0532 65.5283 22.8336 65.9676C22.6052 66.4244 22.5613 66.9603 22.693 67.4961C22.8248 68.032 23.1235 68.4888 23.5364 68.7787C23.9405 69.0686 24.3973 69.1652 24.8277 69.0598C24.9595 69.0247 25.1001 68.972 25.223 68.8929C25.2494 68.8841 25.2845 68.8665 25.3197 68.8665Z" fill="#1E293B"/>
<path d="M24.6872 66.0908C28.1044 65.4495 31.6711 62.4012 33.8058 59.6604C34.2274 62.0937 36.3797 64.94 38.6374 65.9415C38.6374 65.9415 39.7179 56.2431 31.6359 56.5593C23.5539 56.8668 24.6872 66.0908 24.6872 66.0908Z" fill="white"/>
<path d="M24.6879 66.2841C24.644 66.2841 24.6089 66.2753 24.5737 66.2489C24.5298 66.2138 24.5034 66.1699 24.4947 66.1172C24.4859 66.0557 24.3014 64.4832 24.6528 62.5945C24.6704 62.4891 24.7758 62.4188 24.8812 62.4364C24.9866 62.4539 25.0569 62.5593 25.0393 62.6648C24.7758 64.1055 24.8285 65.3792 24.8724 65.8624C28.316 65.2563 35.9324 64.7995 38.48 65.6691C38.5152 65.1157 38.5591 63.7189 38.2516 62.2079C38.234 62.1025 38.2955 61.9971 38.401 61.9795C38.5064 61.962 38.6118 62.0235 38.6294 62.1289C39.0335 64.1406 38.849 65.8888 38.8402 65.959C38.8314 66.0205 38.7963 66.0732 38.7436 66.1084C38.6909 66.1347 38.6294 66.1435 38.5679 66.1172C36.3717 65.1421 28.0525 65.6516 24.7318 66.2841C24.7055 66.2841 24.6967 66.2841 24.6879 66.2841Z" fill="#1E293B"/>
<path d="M31.5835 80.9987C28.746 80.9987 26.8397 78.9694 26.8134 78.9342C26.7431 78.8552 26.7431 78.7322 26.8222 78.6619C26.9012 78.5916 27.0242 78.5916 27.0945 78.6707C27.2614 78.8464 31.1618 82.9928 36.1867 78.6531C36.2658 78.5828 36.3888 78.5916 36.4591 78.6707C36.5293 78.7498 36.5206 78.8727 36.4415 78.943C34.667 80.4891 33.0066 80.9987 31.5835 80.9987Z" fill="#1E293B"/>
</g>
<path d="M198.178 9.62207H192.617V61.5225H198.178V9.62207Z" fill="white"/>
<path d="M197.791 10.0086V61.136H193.004V10.0086H197.791ZM198.178 9.62207H192.617V61.5225H198.178V9.62207Z" fill="#1E293B"/>
<path d="M207.498 9.62207H201.938V61.5225H207.498V9.62207Z" fill="white"/>
<path d="M207.112 10.0086V61.136H202.324V10.0086H207.112ZM207.498 9.62207H201.938V61.5225H207.498V9.62207Z" fill="#1E293B"/>
<path d="M216.82 9.62207H211.259V61.5225H216.82V9.62207Z" fill="white"/>
<path d="M216.433 10.0086V61.136H211.645V10.0086H216.433ZM216.82 9.62207H211.259V61.5225H216.82V9.62207Z" fill="#1E293B"/>
<path d="M226.14 9.62207H220.579V61.5225H226.14V9.62207Z" fill="white"/>
<path d="M225.753 10.0086V61.136H220.966V10.0086H225.753ZM226.14 9.62207H220.579V61.5225H226.14V9.62207Z" fill="#1E293B"/>
<path d="M235.46 9.62207H229.899V61.5225H235.46V9.62207Z" fill="white"/>
<path d="M235.065 10.0086V61.136H230.277V10.0086H235.065ZM235.451 9.62207H229.891V61.5225H235.451V9.62207Z" fill="#1E293B"/>
<path d="M244.773 9.62207H239.212V61.5225H244.773V9.62207Z" fill="white"/>
<path d="M244.386 10.0086V61.136H239.598V10.0086H244.386ZM244.773 9.62207H239.212V61.5225H244.773V9.62207Z" fill="#1E293B"/>
<path d="M198.178 32.9023H192.617V54.6447H198.178V32.9023Z" fill="#F2EFFF"/>
<path d="M198.371 54.8378H192.424V32.709H198.371V54.8378ZM192.81 54.4513H197.985V33.0955H192.81V54.4513Z" fill="#1E293B"/>
<path d="M207.498 26.2959H201.938V54.6356H207.498V26.2959Z" fill="#F2EFFF"/>
<path d="M207.691 54.8375H201.744V26.1113H207.691V54.8375ZM202.131 54.451H207.305V26.4891H202.131V54.451Z" fill="#1E293B"/>
<path d="M216.82 16.5098H211.259V54.6445H216.82V16.5098Z" fill="#F2EFFF"/>
<path d="M217.013 54.8376H211.065V16.3164H217.013V54.8376ZM211.452 54.4511H216.626V16.7029H211.452V54.4511Z" fill="#1E293B"/>
<path d="M226.14 32.9023H220.579V54.6447H226.14V32.9023Z" fill="#F2EFFF"/>
<path d="M226.333 54.8378H220.386V32.709H226.333V54.8378ZM220.772 54.4513H225.947V33.0955H220.772V54.4513Z" fill="#1E293B"/>
<path d="M235.46 24.8555H229.899V54.6446H235.46V24.8555Z" fill="#F2EFFF"/>
<path d="M235.645 54.8378H229.697V24.6621H235.645V54.8378ZM230.093 54.4513H235.267V25.0486H230.093V54.4513Z" fill="#1E293B"/>
<path d="M244.773 31.3037H239.212V54.6449H244.773V31.3037Z" fill="#F2EFFF"/>
<path d="M244.966 54.838H239.019V31.1104H244.966V54.838ZM239.405 54.4515H244.579V31.4969H239.405V54.4515Z" fill="#1E293B"/>
<path d="M193.926 96.5041H156.723C156.67 96.5041 156.626 96.4866 156.582 96.4514L145.944 85.8043C145.865 85.7252 145.865 85.6022 145.944 85.532C146.023 85.4529 146.146 85.4529 146.216 85.532L156.802 96.1176H193.926C194.032 96.1176 194.12 96.2054 194.12 96.3109C194.12 96.4251 194.041 96.5041 193.926 96.5041Z" fill="#754FFE"/>
<path d="M195.402 104.305H153.069C153.016 104.305 152.972 104.287 152.928 104.252L135.991 87.315C135.912 87.236 135.912 87.113 135.991 87.0427C136.07 86.9636 136.193 86.9636 136.263 87.0427L153.148 103.927H195.402C195.508 103.927 195.596 104.015 195.596 104.12C195.596 104.217 195.508 104.305 195.402 104.305Z" fill="#754FFE"/>
<path d="M196.887 66.4951H240.503C242.857 66.4951 244.772 68.4014 244.772 70.7645V118.123C244.772 120.478 242.866 122.393 240.503 122.393H196.887C194.532 122.393 192.617 120.486 192.617 118.123V70.7645C192.617 68.4014 194.532 66.4951 196.887 66.4951Z" fill="#754FFE"/>
<path d="M201.789 98.9021L200.366 98.8758C199.153 98.8494 198.407 97.5317 199.022 96.4775C199.874 95.0192 200.954 93.1305 201.806 91.602C202.07 91.1276 202.044 90.5302 201.727 90.091C201.481 89.7396 201.227 89.4409 201.227 88.8348C201.227 79.7865 208.808 72.4424 218.155 72.4424C227.502 72.4424 235.083 79.7777 235.083 88.8348C235.083 92.3223 233.959 95.5551 232.035 98.2169C230.735 100.018 230.041 102.196 230.041 104.419V116.454H214.421L213.71 111.912C213.411 109.98 211.549 108.688 209.634 109.084L207.481 109.532C205.162 110.015 202.922 108.407 202.632 106.053C202.193 102.478 201.912 99.5083 201.789 98.9021Z" fill="white"/>
<path d="M230.032 116.638H214.413C214.316 116.638 214.237 116.568 214.219 116.472L213.508 111.93C213.367 111.051 212.893 110.278 212.155 109.769C211.417 109.259 210.539 109.084 209.66 109.259L207.508 109.707C206.348 109.944 205.127 109.69 204.17 108.996C203.203 108.302 202.571 107.23 202.43 106.053C202.237 104.472 202.07 102.996 201.938 101.81C201.798 100.51 201.684 99.5257 201.613 99.0777L200.348 99.0513C199.707 99.0426 199.136 98.7 198.828 98.1377C198.512 97.5755 198.521 96.9166 198.846 96.3632C199.637 95.0104 200.752 93.0601 201.631 91.4877C201.859 91.0748 201.833 90.5565 201.561 90.1787L201.508 90.0997C201.271 89.7658 201.025 89.432 201.025 88.8083C201.025 79.6634 208.703 72.2227 218.146 72.2227C227.59 72.2227 235.268 79.6634 235.268 88.8083C235.268 92.2256 234.205 95.5111 232.184 98.3046C230.902 100.079 230.225 102.188 230.225 104.392V116.428C230.225 116.551 230.137 116.638 230.032 116.638ZM214.58 116.252H229.839V104.41C229.839 102.117 230.542 99.9386 231.868 98.0938C233.836 95.3705 234.881 92.1641 234.881 88.8259C234.881 79.8918 227.379 72.6268 218.146 72.6268C208.922 72.6268 201.411 79.8918 201.411 88.8259C201.411 89.3178 201.604 89.5814 201.824 89.8888L201.877 89.9679C202.237 90.4686 202.272 91.1451 201.965 91.6897C201.086 93.271 199.962 95.2124 199.18 96.574C198.925 97.0045 198.925 97.5316 199.171 97.962C199.417 98.4013 199.865 98.6648 200.366 98.6736L201.789 98.7C201.877 98.7 201.956 98.7702 201.973 98.8581C202.044 99.2095 202.167 100.281 202.325 101.775C202.457 102.961 202.623 104.436 202.817 106.018C202.949 107.089 203.52 108.065 204.398 108.688C205.276 109.321 206.383 109.549 207.438 109.33L209.59 108.882C210.574 108.679 211.558 108.882 212.383 109.453C213.209 110.024 213.745 110.876 213.894 111.868L214.58 116.252Z" fill="#754FFE"/>
<path d="M229.583 89.0541C229.539 89.0629 229.487 89.0717 229.443 89.0805C229.258 88.6324 229.003 88.2195 228.705 87.8506C228.74 87.8154 228.766 87.7803 228.801 87.7452C229.188 87.2269 229.074 86.489 228.555 86.1024C228.037 85.7159 227.299 85.8301 226.913 86.3484C226.886 86.3835 226.86 86.4275 226.834 86.4714C226.394 86.2869 225.929 86.1727 225.446 86.1288C225.446 86.0849 225.437 86.0321 225.437 85.9882C225.34 85.3469 224.743 84.8989 224.101 84.9955C223.46 85.0922 223.012 85.6895 223.109 86.3308C223.118 86.3748 223.126 86.4275 223.135 86.4714C222.687 86.6559 222.274 86.9106 221.905 87.2093C221.87 87.1742 221.835 87.1478 221.8 87.1127C221.282 86.7261 220.544 86.8403 220.157 87.3586C219.771 87.8769 219.885 88.6149 220.403 89.0014C220.438 89.0278 220.482 89.0541 220.526 89.0805C220.342 89.5197 220.227 89.9853 220.183 90.4685C220.14 90.4685 220.087 90.4772 220.043 90.4772C219.402 90.5739 218.954 91.1712 219.05 91.8125C219.147 92.4538 219.744 92.9018 220.386 92.8052C220.429 92.7964 220.482 92.7876 220.526 92.7789C220.711 93.2269 220.965 93.6398 221.264 94.0087C221.229 94.0439 221.203 94.079 221.167 94.1141C220.781 94.6324 220.895 95.3704 221.413 95.7569C221.932 96.1434 222.67 96.0292 223.056 95.5109C223.082 95.4758 223.109 95.4319 223.135 95.3879C223.574 95.5724 224.04 95.6866 224.523 95.7305C224.523 95.7745 224.532 95.8272 224.532 95.8711C224.629 96.5124 225.226 96.9604 225.867 96.8638C226.509 96.7671 226.957 96.1698 226.86 95.5285C226.851 95.4846 226.842 95.4319 226.834 95.3879C227.282 95.2034 227.694 94.9487 228.063 94.65C228.099 94.6851 228.134 94.7115 228.169 94.7466C228.687 95.1332 229.425 95.019 229.812 94.5007C230.198 93.9824 230.084 93.2444 229.566 92.8579C229.53 92.8316 229.487 92.8052 229.443 92.7789C229.627 92.3396 229.741 91.874 229.785 91.3909C229.829 91.3909 229.882 91.3821 229.926 91.3821C230.567 91.2854 231.015 90.6881 230.918 90.0468C230.822 89.4055 230.224 88.9575 229.583 89.0541ZM225.305 93.0951C224.11 93.2708 223.003 92.4538 222.819 91.2591C222.643 90.0644 223.46 88.9575 224.655 88.773C225.85 88.5973 226.957 89.4143 227.141 90.609C227.317 91.8037 226.5 92.9194 225.305 93.0951Z" fill="#754FFE"/>
<path d="M226.57 79.2237C226.535 79.2325 226.509 79.2325 226.482 79.2413C226.359 78.9426 226.193 78.6791 225.999 78.4331C226.017 78.4067 226.043 78.3892 226.061 78.3628C226.316 78.0202 226.245 77.537 225.903 77.2823C225.56 77.0275 225.077 77.0978 224.822 77.4404C224.805 77.4668 224.787 77.4931 224.769 77.5195C224.48 77.3965 224.172 77.3262 223.856 77.2911C223.856 77.2559 223.856 77.2296 223.847 77.1944C223.786 76.7728 223.39 76.4829 222.969 76.5444C222.547 76.6059 222.257 77.0012 222.318 77.4228C222.327 77.458 222.327 77.4843 222.336 77.5107C222.037 77.6337 221.774 77.8006 221.528 77.9938C221.501 77.9763 221.484 77.9499 221.458 77.9324C221.115 77.6776 220.632 77.7479 220.377 78.0905C220.122 78.4331 220.193 78.9162 220.535 79.171C220.562 79.1886 220.588 79.2061 220.614 79.2237C220.491 79.5136 220.421 79.8211 220.386 80.1373C220.351 80.1373 220.324 80.1373 220.289 80.1461C219.868 80.2076 219.578 80.6029 219.639 81.0246C219.701 81.4463 220.096 81.7362 220.518 81.6747C220.553 81.6659 220.579 81.6659 220.605 81.6571C220.728 81.9558 220.895 82.2193 221.089 82.4653C221.071 82.4917 221.045 82.5092 221.027 82.5356C220.772 82.8782 220.843 83.3613 221.185 83.6161C221.528 83.8709 222.011 83.8006 222.266 83.458C222.283 83.4316 222.301 83.4053 222.318 83.3789C222.608 83.5019 222.916 83.5722 223.232 83.6073C223.232 83.6425 223.232 83.6688 223.241 83.7039C223.302 84.1256 223.698 84.4155 224.119 84.354C224.541 84.2925 224.831 83.8972 224.769 83.4755C224.761 83.4404 224.761 83.4141 224.752 83.3877C225.051 83.2647 225.314 83.0978 225.56 82.9045C225.586 82.9221 225.604 82.9485 225.63 82.966C225.973 83.2208 226.456 83.1505 226.711 82.8079C226.966 82.4653 226.895 81.9821 226.553 81.7274C226.526 81.7098 226.5 81.6922 226.474 81.6747C226.597 81.3848 226.667 81.0773 226.702 80.761C226.737 80.761 226.764 80.7611 226.799 80.7523C227.22 80.6908 227.51 80.2955 227.449 79.8738C227.378 79.4521 226.983 79.1622 226.57 79.2237ZM223.759 81.8679C222.977 81.9821 222.248 81.4463 222.134 80.6644C222.02 79.8826 222.556 79.1534 223.337 79.0392C224.119 78.925 224.848 79.4609 224.963 80.2427C225.086 81.0246 224.541 81.7537 223.759 81.8679Z" fill="#754FFE"/>
<path d="M218.295 82.1401C218.234 82.1489 218.172 82.1664 218.111 82.1752C217.874 81.5954 217.548 81.0596 217.162 80.594C217.206 80.55 217.241 80.5061 217.285 80.4534C217.786 79.777 217.645 78.8282 216.969 78.3275C216.292 77.8268 215.344 77.9673 214.843 78.6437C214.808 78.6965 214.772 78.7492 214.746 78.8019C214.184 78.5647 213.578 78.4153 212.954 78.3538C212.954 78.2923 212.945 78.2309 212.936 78.1694C212.813 77.3436 212.04 76.7726 211.206 76.8956C210.38 77.0186 209.809 77.7916 209.932 78.6262C209.941 78.6877 209.958 78.7492 209.967 78.8107C209.387 79.0478 208.852 79.3729 208.386 79.7594C208.342 79.7155 208.298 79.6803 208.245 79.6364C207.569 79.1357 206.62 79.2762 206.119 79.9527C205.619 80.6291 205.759 81.5779 206.436 82.0786C206.488 82.1137 206.541 82.1489 206.594 82.1752C206.357 82.7374 206.207 83.3436 206.146 83.9673C206.084 83.9673 206.023 83.9761 205.961 83.9849C205.136 84.1079 204.565 84.8809 204.688 85.7155C204.811 86.5413 205.584 87.1123 206.418 86.9893C206.48 86.9805 206.541 86.9629 206.603 86.9541C206.84 87.5339 207.165 88.0698 207.551 88.5354C207.507 88.5793 207.472 88.6232 207.428 88.676C206.928 89.3524 207.068 90.3011 207.745 90.8019C208.421 91.3026 209.37 91.162 209.871 90.4856C209.906 90.4329 209.941 90.3802 209.967 90.3275C210.529 90.5647 211.136 90.714 211.759 90.7755C211.759 90.837 211.768 90.8985 211.777 90.96C211.9 91.7858 212.673 92.3568 213.507 92.2338C214.333 92.1108 214.904 91.3377 214.781 90.5032C214.772 90.4417 214.755 90.3802 214.746 90.3187C215.326 90.0815 215.862 89.7565 216.327 89.37C216.371 89.4139 216.415 89.449 216.468 89.4929C217.144 89.9937 218.093 89.8531 218.594 89.1767C219.095 88.5003 218.954 87.5515 218.278 87.0508C218.225 87.0156 218.172 86.9805 218.119 86.9541C218.357 86.3919 218.506 85.7858 218.568 85.162C218.629 85.162 218.691 85.1533 218.752 85.1445C219.578 85.0215 220.149 84.2484 220.026 83.4139C219.903 82.5881 219.13 82.0171 218.295 82.1401ZM212.778 87.3495C211.241 87.5779 209.8 86.5149 209.572 84.9776C209.344 83.4402 210.406 81.9995 211.944 81.7711C213.481 81.5427 214.922 82.6057 215.15 84.143C215.379 85.6891 214.316 87.121 212.778 87.3495Z" fill="#754FFE"/>
<path d="M211.566 84.565C211.566 85.0043 211.927 85.3645 212.366 85.3645C212.805 85.3645 213.165 85.0043 213.165 84.565C213.165 84.1258 212.805 83.7656 212.366 83.7656C211.918 83.7656 211.566 84.1258 211.566 84.565Z" fill="#754FFE"/>
<path d="M212.964 108.135C212.911 108.135 212.867 108.117 212.823 108.082C212.744 108.003 212.744 107.88 212.823 107.81L217.198 103.435V92.7616C217.198 92.6562 217.286 92.5684 217.391 92.5684C217.496 92.5684 217.584 92.6562 217.584 92.7616V103.514C217.584 103.567 217.567 103.611 217.532 103.655L213.095 108.091C213.06 108.117 213.007 108.135 212.964 108.135Z" fill="#754FFE"/>
<path d="M216.837 116.638C216.731 116.638 216.644 116.55 216.644 116.445V109.751C216.644 109.698 216.661 109.654 216.696 109.61L219.85 106.457V99.6835C219.85 99.5781 219.938 99.4902 220.043 99.4902C220.149 99.4902 220.237 99.5781 220.237 99.6835V106.536C220.237 106.588 220.219 106.632 220.184 106.676L217.03 109.83V116.445C217.03 116.55 216.942 116.638 216.837 116.638Z" fill="#754FFE"/>
<path d="M219.648 116.384C219.543 116.384 219.455 116.296 219.455 116.19V111.991C219.455 111.939 219.473 111.895 219.508 111.851L223.645 107.713V94.4394C223.645 94.3339 223.733 94.2461 223.839 94.2461C223.944 94.2461 224.032 94.3339 224.032 94.4394V107.792C224.032 107.845 224.014 107.889 223.979 107.933L219.842 112.07V116.19C219.842 116.296 219.754 116.384 219.648 116.384Z" fill="#754FFE"/>
<path d="M223.294 116.639C223.188 116.639 223.101 116.551 223.101 116.446V113.977C223.101 113.924 223.118 113.88 223.153 113.837L226.412 110.577V99.245C226.412 99.1396 226.5 99.0518 226.606 99.0518C226.711 99.0518 226.799 99.1396 226.799 99.245V110.665C226.799 110.718 226.781 110.762 226.746 110.806L223.487 114.065V116.454C223.487 116.551 223.399 116.639 223.294 116.639Z" fill="#754FFE"/>
<path d="M212.164 107.942C212.164 108.381 212.524 108.741 212.963 108.741C213.403 108.741 213.763 108.381 213.763 107.942C213.763 107.503 213.403 107.143 212.963 107.143C212.524 107.143 212.164 107.503 212.164 107.942Z" fill="#754FFE"/>
<path d="M219.244 99.2447C219.244 99.684 219.604 100.044 220.044 100.044C220.483 100.044 220.843 99.684 220.843 99.2447C220.843 98.8055 220.483 98.4453 220.044 98.4453C219.604 98.4541 219.244 98.8055 219.244 99.2447Z" fill="#754FFE"/>
<path d="M217.646 76.8785C217.646 77.3178 218.006 77.6779 218.445 77.6779C218.884 77.6779 219.244 77.3178 219.244 76.8785C219.244 76.4393 218.884 76.0791 218.445 76.0791C217.997 76.0879 217.646 76.4393 217.646 76.8785Z" fill="#754FFE"/>
<path d="M220.044 107.397C220.485 107.397 220.843 107.039 220.843 106.597C220.843 106.156 220.485 105.798 220.044 105.798C219.602 105.798 219.244 106.156 219.244 106.597C219.244 107.039 219.602 107.397 220.044 107.397Z" fill="#754FFE"/>
<path d="M225.815 99.2447C225.815 99.684 226.176 100.044 226.615 100.044C227.054 100.044 227.414 99.684 227.414 99.2447C227.414 98.8055 227.054 98.4453 226.615 98.4453C226.167 98.4541 225.815 98.8055 225.815 99.2447Z" fill="#754FFE"/>
<path d="M228.696 83.7662C228.696 84.2054 229.056 84.5656 229.496 84.5656C229.935 84.5656 230.295 84.2054 230.295 83.7662C230.295 83.327 229.935 82.9668 229.496 82.9668C229.048 82.9756 228.696 83.327 228.696 83.7662Z" fill="#754FFE"/>
<path d="M225.815 110.629C225.815 111.069 226.176 111.429 226.615 111.429C227.054 111.429 227.414 111.069 227.414 110.629C227.414 110.19 227.054 109.83 226.615 109.83C226.167 109.83 225.815 110.19 225.815 110.629Z" fill="#754FFE"/>
<path d="M216.6 92.7525C216.6 93.1918 216.96 93.5519 217.399 93.5519C217.838 93.5519 218.198 93.1918 218.198 92.7525C218.198 92.3133 217.838 91.9531 217.399 91.9531C216.96 91.9531 216.6 92.3133 216.6 92.7525Z" fill="#754FFE"/>
<path d="M81.2796 26.0146H164.559C167.555 26.0146 169.979 28.4392 169.979 31.4349V36.5476V41.4056V80.8756C169.979 85.6457 166.114 89.5022 161.344 89.5022H84.486C79.7159 89.5022 75.8506 85.6369 75.8506 80.8756V41.4056V36.5476V31.4349C75.8594 28.4392 78.284 26.0146 81.2796 26.0146Z" fill="white"/>
<path d="M83.8887 89.5025H161.941C166.378 89.5025 169.979 85.9007 169.979 81.4644V36.5479H75.8594V81.4732C75.8594 85.9095 79.4523 89.5025 83.8887 89.5025Z" fill="white"/>
<path d="M161.941 89.6956H83.8886C79.3468 89.6956 75.6572 86.006 75.6572 81.4643V36.5478C75.6572 36.4423 75.7451 36.3545 75.8505 36.3545H169.971C170.076 36.3545 170.164 36.4423 170.164 36.5478V81.4643C170.173 86.006 166.483 89.6956 161.941 89.6956ZM76.0525 36.741V81.4643C76.0525 85.7864 79.5752 89.3091 83.8973 89.3091H161.95C166.272 89.3091 169.795 85.7864 169.795 81.4643V36.741H76.0525Z" fill="#1E293B"/>
<path d="M169.979 33.8769C169.874 33.8769 169.786 33.7891 169.786 33.6837V31.4348C169.786 28.5534 167.441 26.2078 164.559 26.2078H81.2795C78.3981 26.2078 76.0525 28.5534 76.0525 31.4348V33.6837C76.0525 33.7891 75.9647 33.8769 75.8593 33.8769C75.7539 33.8769 75.666 33.7891 75.666 33.6837V31.4348C75.666 28.3425 78.1872 25.8213 81.2795 25.8213H164.559C167.66 25.8213 170.173 28.3425 170.173 31.4348V33.6837C170.173 33.7891 170.085 33.8769 169.979 33.8769Z" fill="#1E293B"/>
<path d="M160.579 33.8768C159.367 33.8768 158.383 32.8929 158.383 31.6806C158.383 30.4683 159.367 29.4844 160.579 29.4844C161.791 29.4844 162.775 30.4683 162.775 31.6806C162.775 32.8929 161.791 33.8768 160.579 33.8768ZM160.579 29.8621C159.578 29.8621 158.769 30.6791 158.769 31.6718C158.769 32.6732 159.586 33.4814 160.579 33.4814C161.58 33.4814 162.389 32.6645 162.389 31.6718C162.389 30.6791 161.58 29.8621 160.579 29.8621Z" fill="#1E293B"/>
<path d="M154.72 33.8768C153.507 33.8768 152.523 32.8929 152.523 31.6806C152.523 30.4683 153.507 29.4844 154.72 29.4844C155.932 29.4844 156.916 30.4683 156.916 31.6806C156.916 32.8929 155.932 33.8768 154.72 33.8768ZM154.72 29.8621C153.718 29.8621 152.91 30.6791 152.91 31.6718C152.91 32.6732 153.727 33.4814 154.72 33.4814C155.712 33.4814 156.529 32.6645 156.529 31.6718C156.529 30.6791 155.721 29.8621 154.72 29.8621Z" fill="#1E293B"/>
<path d="M148.86 33.6836C149.967 33.6836 150.863 32.7868 150.863 31.6807C150.863 30.5745 149.967 29.6777 148.86 29.6777C147.754 29.6777 146.857 30.5745 146.857 31.6807C146.857 32.7868 147.754 33.6836 148.86 33.6836Z" fill="#754FFE"/>
<path d="M158.569 48.3191H149.529C149.424 48.3191 149.336 48.2313 149.336 48.1259C149.336 48.0205 149.424 47.9326 149.529 47.9326H158.569C158.674 47.9326 158.762 48.0205 158.762 48.1259C158.762 48.2313 158.674 48.3191 158.569 48.3191Z" fill="#1E293B"/>
<path d="M145.971 48.3191H118.773C118.668 48.3191 118.58 48.2313 118.58 48.1259C118.58 48.0205 118.668 47.9326 118.773 47.9326H145.971C146.076 47.9326 146.164 48.0205 146.164 48.1259C146.164 48.2313 146.076 48.3191 145.971 48.3191Z" fill="#1E293B"/>
<path d="M101.978 47.0363C110.538 38.4769 110.538 24.5993 101.978 16.0399C93.4186 7.48043 79.5411 7.48043 70.9816 16.0399C62.4222 24.5993 62.4222 38.4769 70.9816 47.0363C79.5411 55.5957 93.4186 55.5957 101.978 47.0363Z" fill="white"/>
<path d="M86.4794 53.6425C74.2862 53.6425 64.3682 43.7245 64.3682 31.5312C64.3682 19.3379 74.2862 9.41992 86.4794 9.41992C98.6727 9.41992 108.591 19.3379 108.591 31.5312C108.591 43.7245 98.6727 53.6425 86.4794 53.6425ZM86.4794 9.81524C74.5058 9.81524 64.7547 19.5576 64.7547 31.54C64.7547 43.5224 74.497 53.2647 86.4794 53.2647C98.4531 53.2647 108.204 43.5224 108.204 31.54C108.204 19.5576 98.4531 9.81524 86.4794 9.81524Z" fill="#1E293B"/>
<mask id="mask1_8272_5415" style="mask-type:luminance" maskUnits="userSpaceOnUse" x="67" y="12" width="39" height="39">
<path d="M100.053 45.1117C107.549 37.6157 107.549 25.4624 100.053 17.9665C92.5568 10.4705 80.4035 10.4705 72.9076 17.9665C65.4116 25.4624 65.4116 37.6157 72.9076 45.1117C80.4035 52.6076 92.5568 52.6076 100.053 45.1117Z" fill="white"/>
</mask>
<g mask="url(#mask1_8272_5415)">
<path d="M103.417 46.5444C102.582 43.663 100.254 41.4668 97.3378 40.7904L91.1621 39.3673V31.5664H81.7976V39.3673L75.6219 40.7904C72.7053 41.4668 70.3773 43.663 69.5428 46.5444L67.1885 58.9925H105.771L103.417 46.5444Z" fill="white"/>
<path d="M105.771 59.1856H67.1887C67.1272 59.1856 67.0745 59.1593 67.0393 59.1154C67.0042 59.0714 66.9866 59.0099 66.9954 58.9572L69.3497 46.5092C70.2018 43.5487 72.5913 41.2911 75.5781 40.6058L81.6045 39.2178V31.5751C81.6045 31.4697 81.6923 31.3818 81.7978 31.3818H91.1623C91.2677 31.3818 91.3556 31.4697 91.3556 31.5751V39.2178L97.3819 40.6058C100.369 41.2911 102.749 43.5487 103.602 46.4916C103.602 46.5004 103.602 46.5004 103.602 46.5092L105.956 58.9572C105.965 59.0099 105.956 59.0714 105.912 59.1154C105.886 59.1593 105.824 59.1856 105.771 59.1856ZM67.4171 58.7991H105.534L103.224 46.5883C102.407 43.7859 100.14 41.6337 97.2853 40.9836L91.1096 39.5605C91.0218 39.5429 90.9603 39.4638 90.9603 39.376V31.7684H81.991V39.376C81.991 39.4638 81.9295 39.5429 81.8417 39.5605L75.666 40.9836C72.8197 41.6425 70.5445 43.7947 69.7275 46.5971L67.4171 58.7991Z" fill="#1E293B"/>
</g>
<mask id="mask2_8272_5415" style="mask-type:luminance" maskUnits="userSpaceOnUse" x="67" y="12" width="39" height="39">
<path d="M100.053 45.1117C107.549 37.6157 107.549 25.4624 100.053 17.9665C92.5568 10.4705 80.4035 10.4705 72.9076 17.9665C65.4116 25.4624 65.4116 37.6157 72.9076 45.1117C80.4035 52.6076 92.5568 52.6076 100.053 45.1117Z" fill="white"/>
</mask>
<g mask="url(#mask2_8272_5415)">
<path d="M94.2461 25.6459C93.9123 25.5581 93.5697 25.5932 93.2535 25.7162C92.9811 21.4292 90.0558 18.5127 86.4892 18.5127C82.9138 18.5127 79.9885 21.4205 79.7249 25.7162C79.4087 25.5932 79.0661 25.5669 78.7322 25.6459C77.7308 25.8919 77.151 27.0515 77.4497 28.2374C77.7396 29.4234 78.7937 30.1789 79.7952 29.9241C79.9533 29.8802 80.1027 29.8187 80.2432 29.7308C81.2798 32.9022 83.6869 35.3267 86.498 35.3267C89.3091 35.3267 91.7161 32.9022 92.7527 29.7308C92.8933 29.8187 93.0426 29.8802 93.2008 29.9241C94.2022 30.1701 95.2564 29.4146 95.5463 28.2374C95.8186 27.0515 95.2476 25.8919 94.2461 25.6459Z" fill="white"/>
<path d="M86.4802 35.5199C83.8096 35.5199 81.2708 33.3149 80.12 30.0119C80.0234 30.0558 79.9267 30.0909 79.8301 30.1173C79.2855 30.2491 78.7232 30.1349 78.2313 29.7747C77.7481 29.4321 77.4055 28.8962 77.2474 28.2813C77.098 27.6663 77.1508 27.0338 77.4143 26.5068C77.6866 25.9621 78.1259 25.5931 78.6705 25.4614C78.9516 25.3911 79.2503 25.3911 79.5402 25.4614C79.9004 21.3149 82.7906 18.3281 86.4802 18.3281C90.1698 18.3281 93.06 21.3149 93.4202 25.4614C93.7101 25.3911 94.0087 25.3911 94.2898 25.4614C94.8345 25.5931 95.2737 25.9709 95.5461 26.5068C95.8096 27.0338 95.8711 27.6663 95.713 28.2813C95.3967 29.5638 94.2371 30.3896 93.1303 30.1085C93.0336 30.0822 92.937 30.047 92.8404 30.0031C91.6896 33.3149 89.1508 35.5199 86.4802 35.5199ZM80.2254 29.5463C80.2518 29.5463 80.2693 29.5463 80.2957 29.5551C80.3484 29.5726 80.3923 29.6166 80.4099 29.6781C81.4729 32.946 83.915 35.1422 86.4802 35.1422C89.0453 35.1422 91.4875 32.946 92.5505 29.6781C92.568 29.6253 92.612 29.5814 92.6647 29.5551C92.7174 29.5375 92.7789 29.5375 92.8316 29.5726C92.9633 29.6517 93.0951 29.7044 93.2269 29.7395C94.1229 29.9592 95.0717 29.2652 95.344 28.1934C95.4758 27.6663 95.4231 27.1305 95.2035 26.6824C94.9838 26.2432 94.6325 25.9445 94.202 25.8391C93.9209 25.7688 93.6134 25.7864 93.3235 25.9006C93.2708 25.927 93.2005 25.9182 93.1478 25.883C93.0951 25.8479 93.06 25.7952 93.06 25.7337C92.8052 21.6663 90.038 18.7147 86.4802 18.7147C82.9223 18.7147 80.1639 21.6663 79.9004 25.7337C79.9004 25.7952 79.8652 25.8479 79.8125 25.883C79.7598 25.9182 79.6983 25.927 79.6368 25.9006C79.3469 25.7864 79.0395 25.7688 78.7584 25.8391C78.3279 25.9445 77.9765 26.2432 77.7569 26.6824C77.5373 27.1305 77.4846 27.6663 77.6163 28.1934C77.7481 28.7205 78.0468 29.1685 78.4509 29.4672C78.8462 29.7483 79.303 29.8537 79.7335 29.7483C79.8653 29.7132 79.997 29.6605 80.1288 29.5814C80.1552 29.5551 80.1903 29.5463 80.2254 29.5463Z" fill="#1E293B"/>
</g>
<mask id="mask3_8272_5415" style="mask-type:luminance" maskUnits="userSpaceOnUse" x="67" y="12" width="39" height="39">
<path d="M100.053 45.1117C107.549 37.6157 107.549 25.4624 100.053 17.9665C92.5568 10.4705 80.4035 10.4705 72.9076 17.9665C65.4116 25.4624 65.4116 37.6157 72.9076 45.1117C80.4035 52.6076 92.5568 52.6076 100.053 45.1117Z" fill="white"/>
</mask>
<g mask="url(#mask3_8272_5415)">
<path d="M88.7736 15.2278C82.9756 14.2526 76.2289 15.4649 79.0752 24.6011L79.8131 26.7973L80.9991 27.5967C80.9991 27.5967 80.6652 21.5704 82.554 21.2541C84.3373 20.9554 84.4515 22.1414 86.595 22.0887C88.7384 22.1414 88.8526 20.9554 90.636 21.2541C92.5247 21.5704 92.1909 27.5967 92.1909 27.5967L93.3768 26.7973L94.1147 24.6011C96.0034 17.4942 92.9815 14.7007 88.7736 15.2278Z" fill="white"/>
<path d="M81.0076 27.7897C80.9724 27.7897 80.9285 27.7809 80.9021 27.7545L79.7162 26.9551C79.6811 26.9288 79.6547 26.8936 79.6459 26.8585L78.908 24.6623C77.8275 21.1923 78.0295 18.5832 79.5054 16.8878C81.763 14.305 86.2784 14.6125 88.7909 15.0254C90.8202 14.7794 92.5244 15.3153 93.5961 16.5276C95.0456 18.1879 95.2916 20.9903 94.3253 24.6447L93.5786 26.8497C93.561 26.8936 93.5346 26.92 93.5083 26.9463L92.3223 27.7457C92.2608 27.7897 92.1818 27.7897 92.1203 27.7545C92.0588 27.7194 92.0149 27.6491 92.0237 27.5788C92.1115 25.9536 92.0412 21.6755 90.6269 21.4383C89.7836 21.2977 89.3443 21.5086 88.8348 21.7545C88.3077 22.0093 87.7103 22.2992 86.6122 22.2728C85.5229 22.2992 84.9256 22.0093 84.3985 21.7545C83.889 21.5086 83.4497 21.2977 82.6064 21.4383C81.2008 21.6755 81.1218 25.9449 81.2096 27.5788C81.2096 27.6491 81.1745 27.7194 81.113 27.7545C81.0691 27.7809 81.0339 27.7897 81.0076 27.7897ZM90.0998 21.0166C90.2755 21.0166 90.46 21.0342 90.6708 21.0693C92.4453 21.368 92.4453 25.7867 92.4014 27.2274L93.2184 26.674L93.9387 24.5393C94.8699 21.0342 94.6415 18.346 93.2887 16.7911C92.296 15.6491 90.7411 15.1747 88.7997 15.4207C88.7821 15.4207 88.7645 15.4207 88.7469 15.4207C86.3223 15.0166 81.93 14.6916 79.7865 17.1513C78.4073 18.7326 78.2316 21.2274 79.2682 24.5481L79.9885 26.674L80.8055 27.2274C80.7616 25.7955 80.7616 21.368 82.5361 21.0693C83.5024 20.9112 84.0207 21.1572 84.5654 21.4207C85.0749 21.6667 85.602 21.9214 86.6035 21.8951C87.6225 21.9214 88.1496 21.6667 88.6591 21.4207C89.072 21.2099 89.4761 21.0166 90.0998 21.0166Z" fill="#1E293B"/>
</g>
<mask id="mask4_8272_5415" style="mask-type:luminance" maskUnits="userSpaceOnUse" x="67" y="12" width="39" height="39">
<path d="M100.053 45.1117C107.549 37.6157 107.549 25.4624 100.053 17.9665C92.5568 10.4705 80.4035 10.4705 72.9076 17.9665C65.4116 25.4624 65.4116 37.6157 72.9076 45.1117C80.4035 52.6076 92.5568 52.6076 100.053 45.1117Z" fill="white"/>
</mask>
<g mask="url(#mask4_8272_5415)">
<path d="M86.4798 44.1292C86.4271 44.1292 86.3832 44.1116 86.348 44.0765L81.6657 39.5172C81.5867 39.4469 81.5867 39.3239 81.6657 39.2448C81.736 39.1658 81.859 39.1658 81.9381 39.2448L86.4798 43.6724L91.0303 39.2448C91.1094 39.1746 91.2324 39.1746 91.3026 39.2448C91.3729 39.3239 91.3729 39.4469 91.3026 39.5172L86.6203 44.0765C86.5764 44.1116 86.5237 44.1292 86.4798 44.1292Z" fill="#1E293B"/>
</g>
<path d="M176.146 81.7447H96.1167C90.0025 81.7447 85.0479 76.79 85.0479 70.6758V67.8911C85.0479 61.7769 90.0025 56.8223 96.1167 56.8223H176.146C182.26 56.8223 187.215 61.7769 187.215 67.8911V70.6758C187.215 76.79 182.26 81.7447 176.146 81.7447Z" fill="#F2EFFF"/>
<path d="M112.325 67.3557L108.899 66.855L107.37 63.7539C107.098 63.2005 106.307 63.2005 106.035 63.7539L104.507 66.855L101.081 67.3557C100.474 67.4436 100.228 68.1903 100.668 68.6207L103.145 71.0365L102.556 74.445C102.451 75.0512 103.092 75.5168 103.637 75.2269L106.703 73.6192L109.769 75.2269C110.313 75.5168 110.955 75.0512 110.849 74.445L110.261 71.0365L112.738 68.6207C113.177 68.1903 112.931 67.4436 112.325 67.3557Z" fill="#754FFE"/>
<path d="M127.04 67.2678L123.614 66.7671L122.085 63.6661C121.813 63.1126 121.022 63.1126 120.75 63.6661L119.221 66.7671L115.795 67.2678C115.189 67.3557 114.943 68.1024 115.382 68.5328L117.86 70.9486L117.271 74.3571C117.166 74.9633 117.807 75.4289 118.352 75.139L121.418 73.5314L124.484 75.139C125.028 75.4289 125.669 74.9633 125.564 74.3571L124.975 70.9486L127.453 68.5328C127.892 68.1024 127.646 67.3557 127.04 67.2678Z" fill="#754FFE"/>
<path d="M141.745 67.2678L138.319 66.7671L136.79 63.6661C136.518 63.1126 135.727 63.1126 135.455 63.6661L133.927 66.7671L130.5 67.2678C129.894 67.3557 129.648 68.1024 130.088 68.5328L132.565 70.9486L131.976 74.3571C131.871 74.9633 132.512 75.4289 133.057 75.139L136.123 73.5314L139.189 75.139C139.733 75.4289 140.375 74.9633 140.269 74.3571L139.681 70.9486L142.158 68.5328C142.597 68.1024 142.36 67.3557 141.745 67.2678Z" fill="white"/>
<path d="M156.46 67.2678L153.034 66.7671L151.505 63.6661C151.233 63.1126 150.442 63.1126 150.17 63.6661L148.641 66.7671L145.215 67.2678C144.609 67.3557 144.363 68.1024 144.802 68.5328L147.28 70.9486L146.691 74.3571C146.586 74.9633 147.227 75.4289 147.772 75.139L150.838 73.5314L153.903 75.139C154.448 75.4289 155.089 74.9633 154.984 74.3571L154.395 70.9486L156.873 68.5328C157.312 68.1024 157.066 67.3557 156.46 67.2678Z" fill="white"/>
<path d="M171.175 67.2678L167.749 66.7671L166.22 63.6661C165.948 63.1126 165.157 63.1126 164.885 63.6661L163.356 66.7671L159.93 67.2678C159.324 67.3557 159.078 68.1024 159.517 68.5328L161.995 70.9486L161.406 74.3571C161.301 74.9633 161.942 75.4289 162.487 75.139L165.552 73.5314L168.618 75.139C169.163 75.4289 169.804 74.9633 169.699 74.3571L169.11 70.9486L171.588 68.5328C172.027 68.1024 171.781 67.3557 171.175 67.2678Z" fill="white"/>
</svg>
