<?xml version="1.0" encoding="utf-8"?>
<!-- Generator: Adobe Illustrator 19.0.0, SVG Export Plug-In . SVG Version: 6.00 Build 0)  -->
<svg version="1.1" id="Layer_1" xmlns="http://www.w3.org/2000/svg" xmlns:xlink="http://www.w3.org/1999/xlink" x="0px" y="0px"
	 viewBox="-274 366 62 62" style="enable-background:new -274 366 62 62;" xml:space="preserve">
<style type="text/css">
	.st0{fill:#E2E5E7;}
	.st1{fill:#B0B7BD;}
	.st2{fill:#CAD1D8;}
	.st3{fill:#009EF7;}
</style>
<path class="st0" d="M-258.5,366c-2.1,0-3.9,1.7-3.9,3.9v54.3c0,2.1,1.7,3.9,3.9,3.9h38.8c2.1,0,3.9-1.7,3.9-3.9v-42.6l-15.5-15.5
	H-258.5z"/>
<path class="st1" d="M-227.5,381.5h11.6l-15.5-15.5v11.6C-231.4,379.8-229.6,381.5-227.5,381.5z"/>
<path class="st2" d="M-215.9,393.1l-11.6-11.6h11.6V393.1z"/>
<path class="st3" d="M-223.6,416.4c0,1.1-0.9,1.9-1.9,1.9h-42.6c-1.1,0-1.9-0.9-1.9-1.9V397c0-1.1,0.9-1.9,1.9-1.9h42.6
	c1.1,0,1.9,0.9,1.9,1.9V416.4z"/>
<path class="st2" d="M-225.6,418.3h-36.8v1.9h36.8c1.1,0,1.9-0.9,1.9-1.9v-1.9C-223.6,417.4-224.5,418.3-225.6,418.3z"/>
</svg>
